M48
; DRILL file KiCad 10.0.6 date 2026-09-24T23:32:37
; FORMAT={-:-/ absolute / metric / decimal}
; #@! TF.CreationDate,2026-09-24T23:32:37+05:30
; #@! TF.GenerationSoftware,Kicad,Pcbnew,10.0.6
; #@! TF.FileFunction,Plated,1,2,PTH
FMAT,2
METRIC
; #@! TA.AperFunction,Plated,PTH,ViaDrill
T1C0.400
; #@! TA.AperFunction,Plated,PTH,ComponentDrill
T2C1.000
%
G90
G05
T1
X114.3Y-92.456
X118.364Y-87.884
X119.38Y-103.632
X120.904Y-99.568
X121.92Y-86.868
X121.92Y-102.108
X122.393Y-83.277
X122.936Y-85.344
X123.444Y-94.488
X123.741Y-90.213
X123.952Y-101.092
X124.339Y-91.948
X124.73Y-100.314
X126.351Y-98.13
X126.845Y-91.622
X126.889Y-90.424
X129.54Y-96.012
X129.871Y-83.695
X132.08Y-88.9
X132.296Y-100.365
X132.588Y-94.488
X132.601Y-92.615
X132.613Y-91.465
X133.604Y-94.488
X134.62Y-94.488
X134.62Y-106.172
X135.62Y-94.488
X135.636Y-92.265
X135.893Y-89.95
X137.16Y-92.964
X137.496Y-100.365
X137.561Y-83.695
X137.599Y-90.424
X140.369Y-90.442
X140.419Y-91.449
X140.716Y-96.52
X144.424Y-97.705
X144.471Y-84.527
X144.78Y-100.65
X145.288Y-86.868
X147.747Y-97.733
X148.986Y-93.005
X151.575Y-98.562
X152.44Y-100.025
X152.779Y-97.432
X152.833Y-101.675
X154.179Y-94.488
X154.419Y-88.797
X154.533Y-99.506
T2
X115.144Y-87.75
X115.144Y-90.29
X117.974Y-109.815
X120.514Y-109.815
X123.054Y-109.815
X125.594Y-109.815
X128.134Y-109.815
X130.674Y-109.815
X133.214Y-109.815
X135.754Y-109.815
X138.294Y-109.815
X144.404Y-109.815
X146.944Y-109.815
X149.484Y-109.815
X152.024Y-109.815
X152.279Y-87.755
X152.279Y-90.295
X152.279Y-92.835
X154.819Y-87.755
X154.819Y-90.295
X154.819Y-92.835
X154.829Y-97.935
X154.829Y-100.475
X154.829Y-103.015
X154.829Y-105.555
M30
