%TF.GenerationSoftware,KiCad,Pcbnew,10.0.6*%
%TF.CreationDate,2026-09-24T23:32:33+05:30*%
%TF.ProjectId,MCU Datalogger,4d435520-4461-4746-916c-6f676765722e,1*%
%TF.SameCoordinates,Original*%
%TF.FileFunction,Copper,L1,Top*%
%TF.FilePolarity,Positive*%
%FSLAX46Y46*%
G04 Gerber Fmt 4.6, Leading zero omitted, Abs format (unit mm)*
G04 Created by KiCad (PCBNEW 10.0.6) date 2026-09-24 23:32:33*
%MOMM*%
%LPD*%
G01*
G04 APERTURE LIST*
G04 Aperture macros list*
%AMRoundRect*
0 Rectangle with rounded corners*
0 $1 Rounding radius*
0 $2 $3 $4 $5 $6 $7 $8 $9 X,Y pos of 4 corners*
0 Add a 4 corners polygon primitive as box body*
4,1,4,$2,$3,$4,$5,$6,$7,$8,$9,$2,$3,0*
0 Add four circle primitives for the rounded corners*
1,1,$1+$1,$2,$3*
1,1,$1+$1,$4,$5*
1,1,$1+$1,$6,$7*
1,1,$1+$1,$8,$9*
0 Add four rect primitives between the rounded corners*
20,1,$1+$1,$2,$3,$4,$5,0*
20,1,$1+$1,$4,$5,$6,$7,0*
20,1,$1+$1,$6,$7,$8,$9,0*
20,1,$1+$1,$8,$9,$2,$3,0*%
G04 Aperture macros list end*
%TA.AperFunction,SMDPad,CuDef*%
%ADD10RoundRect,0.250000X0.250000X0.475000X-0.250000X0.475000X-0.250000X-0.475000X0.250000X-0.475000X0*%
%TD*%
%TA.AperFunction,ComponentPad*%
%ADD11R,1.700000X1.700000*%
%TD*%
%TA.AperFunction,ComponentPad*%
%ADD12C,1.700000*%
%TD*%
%TA.AperFunction,SMDPad,CuDef*%
%ADD13RoundRect,0.162500X-0.650000X-0.162500X0.650000X-0.162500X0.650000X0.162500X-0.650000X0.162500X0*%
%TD*%
%TA.AperFunction,SMDPad,CuDef*%
%ADD14RoundRect,0.250000X-0.262500X-0.450000X0.262500X-0.450000X0.262500X0.450000X-0.262500X0.450000X0*%
%TD*%
%TA.AperFunction,SMDPad,CuDef*%
%ADD15RoundRect,0.250000X-0.250000X-0.475000X0.250000X-0.475000X0.250000X0.475000X-0.250000X0.475000X0*%
%TD*%
%TA.AperFunction,SMDPad,CuDef*%
%ADD16RoundRect,0.073750X-0.911250X-0.221250X0.911250X-0.221250X0.911250X0.221250X-0.911250X0.221250X0*%
%TD*%
%TA.AperFunction,SMDPad,CuDef*%
%ADD17RoundRect,0.250001X0.949999X-1.499999X0.949999X1.499999X-0.949999X1.499999X-0.949999X-1.499999X0*%
%TD*%
%TA.AperFunction,SMDPad,CuDef*%
%ADD18RoundRect,0.068750X-0.666250X-0.206250X0.666250X-0.206250X0.666250X0.206250X-0.666250X0.206250X0*%
%TD*%
%TA.AperFunction,SMDPad,CuDef*%
%ADD19RoundRect,0.068750X-0.206250X-0.666250X0.206250X-0.666250X0.206250X0.666250X-0.206250X0.666250X0*%
%TD*%
%TA.AperFunction,SMDPad,CuDef*%
%ADD20RoundRect,0.243750X-0.243750X-0.456250X0.243750X-0.456250X0.243750X0.456250X-0.243750X0.456250X0*%
%TD*%
%TA.AperFunction,SMDPad,CuDef*%
%ADD21RoundRect,0.250001X-1.499999X-0.949999X1.499999X-0.949999X1.499999X0.949999X-1.499999X0.949999X0*%
%TD*%
%TA.AperFunction,ViaPad*%
%ADD22C,0.900000*%
%TD*%
%TA.AperFunction,ViaPad*%
%ADD23C,0.800000*%
%TD*%
%TA.AperFunction,Conductor*%
%ADD24C,0.350000*%
%TD*%
%TA.AperFunction,Conductor*%
%ADD25C,0.250000*%
%TD*%
G04 APERTURE END LIST*
D10*
%TO.P,C5,1*%
%TO.N,VCC*%
X144423636Y-97704702D03*
%TO.P,C5,2*%
%TO.N,GND*%
X142523636Y-97704702D03*
%TD*%
%TO.P,C1,1*%
%TO.N,GND*%
X144453636Y-93034702D03*
%TO.P,C1,2*%
%TO.N,Net-(U4-AREF)*%
X142553636Y-93034702D03*
%TD*%
D11*
%TO.P,BT1,1,+_1*%
%TO.N,VCC*%
X115143636Y-87749702D03*
D12*
%TO.P,BT1,2,-_2*%
%TO.N,GND*%
X115143636Y-90289702D03*
%TD*%
D13*
%TO.P,U2,1,A0_1*%
%TO.N,VCC*%
X119176136Y-98129702D03*
%TO.P,U2,2,A1_2*%
%TO.N,GND*%
X119176136Y-99399702D03*
%TO.P,U2,3,A2_3*%
%TO.N,VCC*%
X119176136Y-100669702D03*
%TO.P,U2,4,GND_4*%
%TO.N,GND*%
X119176136Y-101939702D03*
%TO.P,U2,5,SDA_5*%
%TO.N,/SDA*%
X126351136Y-101939702D03*
%TO.P,U2,6,SCL_6*%
%TO.N,/SCK*%
X126351136Y-100669702D03*
%TO.P,U2,7,WP_7*%
%TO.N,GND*%
X126351136Y-99399702D03*
%TO.P,U2,8,VCC_8*%
%TO.N,VCC*%
X126351136Y-98129702D03*
%TD*%
D14*
%TO.P,R2,1*%
%TO.N,GND*%
X147161136Y-88324702D03*
%TO.P,R2,2*%
%TO.N,Net-(D2-K)*%
X148986136Y-88324702D03*
%TD*%
D11*
%TO.P,J3,1,Pin_1_1*%
%TO.N,/D2*%
X117973636Y-109814702D03*
D12*
%TO.P,J3,2,Pin_2_2*%
%TO.N,/D3*%
X120513636Y-109814702D03*
%TO.P,J3,3,Pin_3_3*%
%TO.N,/D4*%
X123053636Y-109814702D03*
%TO.P,J3,4,Pin_4_4*%
%TO.N,/D5*%
X125593636Y-109814702D03*
%TO.P,J3,5,Pin_5_5*%
%TO.N,/D6*%
X128133636Y-109814702D03*
%TO.P,J3,6,Pin_6_6*%
%TO.N,/D7*%
X130673636Y-109814702D03*
%TO.P,J3,7,Pin_7_7*%
%TO.N,/D8*%
X133213636Y-109814702D03*
%TO.P,J3,8,Pin_8_8*%
%TO.N,GND*%
X135753636Y-109814702D03*
%TO.P,J3,9,Pin_9_9*%
%TO.N,VCC*%
X138293636Y-109814702D03*
%TD*%
D11*
%TO.P,J1,1,Pin_1_1*%
%TO.N,GND*%
X154828636Y-97934702D03*
D12*
%TO.P,J1,2,Pin_2_2*%
%TO.N,VCC*%
X154828636Y-100474702D03*
%TO.P,J1,3,Pin_3_3*%
%TO.N,/SDA*%
X154828636Y-103014702D03*
%TO.P,J1,4,Pin_4_4*%
%TO.N,/SCK*%
X154828636Y-105554702D03*
%TD*%
D15*
%TO.P,C2,1*%
%TO.N,GND*%
X136610000Y-105084702D03*
%TO.P,C2,2*%
%TO.N,Net-(U4-PB6)*%
X138510000Y-105084702D03*
%TD*%
D11*
%TO.P,J4,1,Pin_1_1*%
%TO.N,/MISO*%
X152278636Y-87754702D03*
D12*
%TO.P,J4,2,Pin_2_2*%
%TO.N,VCC*%
X154818636Y-87754702D03*
%TO.P,J4,3,Pin_3_3*%
%TO.N,/SCK*%
X152278636Y-90294702D03*
%TO.P,J4,4,Pin_4_4*%
%TO.N,/MOSI*%
X154818636Y-90294702D03*
%TO.P,J4,5,Pin_5_5*%
%TO.N,/RESET*%
X152278636Y-92834702D03*
%TO.P,J4,6,Pin_6_6*%
%TO.N,GND*%
X154818636Y-92834702D03*
%TD*%
D16*
%TO.P,U3,1,X1_1*%
%TO.N,Net-(U3-X1)*%
X120278636Y-83589702D03*
%TO.P,U3,2,X2_2*%
%TO.N,Net-(U3-X2)*%
X120278636Y-84859702D03*
%TO.P,U3,3,~{INTA}_3*%
%TO.N,Net-(U3-~{INTA})*%
X120278636Y-86129702D03*
%TO.P,U3,4,GND_4*%
%TO.N,GND*%
X120278636Y-87399702D03*
%TO.P,U3,5,SDA_5*%
%TO.N,/SDA*%
X125228636Y-87399702D03*
%TO.P,U3,6,SCL_6*%
%TO.N,/SCK*%
X125228636Y-86129702D03*
%TO.P,U3,7,SQW/~INT_7*%
%TO.N,Net-(U3-SQW{slash}~INT)*%
X125228636Y-84859702D03*
%TO.P,U3,8,VCC_8*%
%TO.N,VCC*%
X125228636Y-83589702D03*
%TD*%
D14*
%TO.P,R6,1*%
%TO.N,VCC*%
X119231136Y-105190000D03*
%TO.P,R6,2*%
%TO.N,/SDA*%
X121056136Y-105190000D03*
%TD*%
%TO.P,R4,1*%
%TO.N,VCC*%
X137561136Y-83694702D03*
%TO.P,R4,2*%
%TO.N,Net-(U3-SQW{slash}~INT)*%
X139386136Y-83694702D03*
%TD*%
D17*
%TO.P,Y1,1,1_1*%
%TO.N,Net-(U3-X2)*%
X114813636Y-102157500D03*
%TO.P,Y1,2,2_2*%
%TO.N,Net-(U3-X1)*%
X114813636Y-96957500D03*
%TD*%
D14*
%TO.P,R5,1*%
%TO.N,VCC*%
X124551136Y-105190000D03*
%TO.P,R5,2*%
%TO.N,/SCK*%
X126376136Y-105190000D03*
%TD*%
D11*
%TO.P,J2,1,Pin_1_1*%
%TO.N,GND*%
X144403636Y-109814702D03*
D12*
%TO.P,J2,2,Pin_2_2*%
%TO.N,VCC*%
X146943636Y-109814702D03*
%TO.P,J2,3,Pin_3_3*%
%TO.N,/RX*%
X149483636Y-109814702D03*
%TO.P,J2,4,Pin_4_4*%
%TO.N,/TX*%
X152023636Y-109814702D03*
%TD*%
D13*
%TO.P,U1,1,A0_1*%
%TO.N,VCC*%
X119176136Y-90597202D03*
%TO.P,U1,2,A1_2*%
X119176136Y-91867202D03*
%TO.P,U1,3,A2_3*%
X119176136Y-93137202D03*
%TO.P,U1,4,GND_4*%
%TO.N,GND*%
X119176136Y-94407202D03*
%TO.P,U1,5,SDA_5*%
%TO.N,/SDA*%
X126351136Y-94407202D03*
%TO.P,U1,6,SCL_6*%
%TO.N,/SCK*%
X126351136Y-93137202D03*
%TO.P,U1,7,WP_7*%
%TO.N,GND*%
X126351136Y-91867202D03*
%TO.P,U1,8,VCC_8*%
%TO.N,VCC*%
X126351136Y-90597202D03*
%TD*%
D18*
%TO.P,U4,1,PD3_1*%
%TO.N,/D3*%
X130693636Y-89034702D03*
%TO.P,U4,2,PD4_2*%
%TO.N,/D4*%
X130693636Y-89834702D03*
%TO.P,U4,3,GND_3*%
%TO.N,GND*%
X130693636Y-90634702D03*
%TO.P,U4,4,VCC_4*%
%TO.N,VCC*%
X130693636Y-91434702D03*
%TO.P,U4,5,GND_5*%
%TO.N,GND*%
X130693636Y-92234702D03*
%TO.P,U4,6,VCC_6*%
%TO.N,VCC*%
X130693636Y-93034702D03*
%TO.P,U4,7,PB6_7*%
%TO.N,Net-(U4-PB6)*%
X130693636Y-93834702D03*
%TO.P,U4,8,PB7_8*%
%TO.N,Net-(U4-PB7)*%
X130693636Y-94634702D03*
D19*
%TO.P,U4,9,PD5_9*%
%TO.N,/D5*%
X132063636Y-96004702D03*
%TO.P,U4,10,PD6_10*%
%TO.N,/D6*%
X132863636Y-96004702D03*
%TO.P,U4,11,PD7_11*%
%TO.N,/D7*%
X133663636Y-96004702D03*
%TO.P,U4,12,PB0_12*%
%TO.N,/D8*%
X134463636Y-96004702D03*
%TO.P,U4,13,PB1_13*%
%TO.N,unconnected-(U4-PB1-Pad13)*%
X135263636Y-96004702D03*
%TO.P,U4,14,PB2_14*%
%TO.N,unconnected-(U4-PB2-Pad14)*%
X136063636Y-96004702D03*
%TO.P,U4,15,PB3_15*%
%TO.N,/MOSI*%
X136863636Y-96004702D03*
%TO.P,U4,16,PB4_16*%
%TO.N,/MISO*%
X137663636Y-96004702D03*
D18*
%TO.P,U4,17,PB5_17*%
%TO.N,/SCK*%
X139033636Y-94634702D03*
%TO.P,U4,18,AVCC_18*%
%TO.N,VCC*%
X139033636Y-93834702D03*
%TO.P,U4,19,ADC6_19*%
%TO.N,unconnected-(U4-ADC6-Pad19)*%
X139033636Y-93034702D03*
%TO.P,U4,20,AREF_20*%
%TO.N,Net-(U4-AREF)*%
X139033636Y-92234702D03*
%TO.P,U4,21,GND_21*%
%TO.N,GND*%
X139033636Y-91434702D03*
%TO.P,U4,22,ADC7_22*%
%TO.N,unconnected-(U4-ADC7-Pad22)*%
X139033636Y-90634702D03*
%TO.P,U4,23,PC0_23*%
%TO.N,unconnected-(U4-PC0-Pad23)*%
X139033636Y-89834702D03*
%TO.P,U4,24,PC1_24*%
%TO.N,unconnected-(U4-PC1-Pad24)*%
X139033636Y-89034702D03*
D19*
%TO.P,U4,25,PC2_25*%
%TO.N,unconnected-(U4-PC2-Pad25)*%
X137663636Y-87664702D03*
%TO.P,U4,26,PC3_26*%
%TO.N,unconnected-(U4-PC3-Pad26)*%
X136863636Y-87664702D03*
%TO.P,U4,27,PC4_27*%
%TO.N,/SDA*%
X136063636Y-87664702D03*
%TO.P,U4,28,PC5_28*%
%TO.N,/SCK*%
X135263636Y-87664702D03*
%TO.P,U4,29,PC6/~{RESET}_29*%
%TO.N,/RESET*%
X134463636Y-87664702D03*
%TO.P,U4,30,PD0_30*%
%TO.N,/RX*%
X133663636Y-87664702D03*
%TO.P,U4,31,PD1_31*%
%TO.N,/TX*%
X132863636Y-87664702D03*
%TO.P,U4,32,PD2_32*%
%TO.N,/D2*%
X132063636Y-87664702D03*
%TD*%
D14*
%TO.P,R1,1*%
%TO.N,Net-(D1-K)*%
X142571136Y-88324702D03*
%TO.P,R1,2*%
%TO.N,GND*%
X144396136Y-88324702D03*
%TD*%
D10*
%TO.P,C4,1*%
%TO.N,VCC*%
X149043636Y-97674702D03*
%TO.P,C4,2*%
%TO.N,GND*%
X147143636Y-97674702D03*
%TD*%
D20*
%TO.P,D2,1,K_1*%
%TO.N,Net-(D2-K)*%
X147176136Y-83739702D03*
%TO.P,D2,2,A_2*%
%TO.N,/SCK*%
X149051136Y-83739702D03*
%TD*%
%TO.P,D1,1,K_1*%
%TO.N,Net-(D1-K)*%
X142676136Y-83739702D03*
%TO.P,D1,2,A_2*%
%TO.N,VCC*%
X144551136Y-83739702D03*
%TD*%
D14*
%TO.P,R3,1*%
%TO.N,VCC*%
X129871136Y-83694702D03*
%TO.P,R3,2*%
%TO.N,Net-(U3-~{INTA})*%
X131696136Y-83694702D03*
%TD*%
%TO.P,R7,1*%
%TO.N,VCC*%
X147161136Y-93004702D03*
%TO.P,R7,2*%
%TO.N,/RESET*%
X148986136Y-93004702D03*
%TD*%
D21*
%TO.P,Y2,1,1_1*%
%TO.N,Net-(U4-PB7)*%
X132296136Y-100364702D03*
%TO.P,Y2,2,2_2*%
%TO.N,Net-(U4-PB6)*%
X137496136Y-100364702D03*
%TD*%
D10*
%TO.P,C3,1*%
%TO.N,GND*%
X132393636Y-105084702D03*
%TO.P,C3,2*%
%TO.N,Net-(U4-PB7)*%
X130493636Y-105084702D03*
%TD*%
D22*
%TO.N,VCC*%
X129540000Y-96012000D03*
X154418636Y-88797203D03*
X152439660Y-100025364D03*
X126351136Y-98129702D03*
X144780000Y-100649702D03*
X120904000Y-99568000D03*
X144471401Y-84527401D03*
X129871136Y-83694702D03*
X122393036Y-83277036D03*
X132601455Y-92614531D03*
X152832636Y-101675364D03*
X122936000Y-85344000D03*
X144423636Y-97704702D03*
X121920000Y-102108000D03*
X118364000Y-87884000D03*
X137561136Y-83694702D03*
X137160000Y-92964000D03*
X119380000Y-103632000D03*
X126888635Y-90424000D03*
X154532620Y-99505604D03*
X140716000Y-96520000D03*
%TO.N,GND*%
X124338636Y-91948000D03*
X126845080Y-91622202D03*
X123740591Y-90212590D03*
X151575000Y-98562269D03*
X152778636Y-97432452D03*
X147747483Y-97733418D03*
X145288000Y-86868000D03*
X114300000Y-92456000D03*
X134620000Y-106172000D03*
X121920000Y-86868000D03*
X124729819Y-100314181D03*
X137598636Y-90424255D03*
X132612584Y-91464585D03*
D23*
%TO.N,/SDA*%
X140368636Y-90442426D03*
X123444000Y-94488000D03*
X123952000Y-101092000D03*
%TO.N,/SCK*%
X154178636Y-94488000D03*
X135636000Y-92265000D03*
X140418636Y-91449061D03*
%TO.N,/D2*%
X132080000Y-88900000D03*
%TO.N,Net-(U4-PB6)*%
X137496136Y-100364702D03*
X133604000Y-94488000D03*
%TO.N,/RESET*%
X135892688Y-89950312D03*
X148986136Y-93004702D03*
%TO.N,/RX*%
X135620003Y-94488000D03*
%TO.N,/TX*%
X134620000Y-94488000D03*
%TO.N,Net-(U4-PB7)*%
X132296136Y-100364702D03*
X132588000Y-94488000D03*
%TD*%
%TO.N,VCC*%
D24*
X125333636Y-83694702D02*
X125228636Y-83589702D01*
X120118636Y-105926522D02*
X120118636Y-103909364D01*
X144551136Y-83739702D02*
X143426136Y-84864702D01*
X115143636Y-87749702D02*
X115143636Y-86187636D01*
X119802298Y-100669702D02*
X120904000Y-99568000D01*
X115143636Y-86187636D02*
X114808000Y-85852000D01*
X145560702Y-98824702D02*
X147893636Y-98824702D01*
X129920964Y-91434702D02*
X129533636Y-91822030D01*
X120413636Y-100244701D02*
X119988635Y-100669702D01*
X125228636Y-83589702D02*
X124243636Y-83589702D01*
X145668636Y-108539702D02*
X139568636Y-108539702D01*
X125476000Y-97254566D02*
X125476000Y-96520000D01*
X139568636Y-108539702D02*
X138293636Y-109814702D01*
X129533636Y-92647374D02*
X129920964Y-93034702D01*
X126351136Y-89040864D02*
X126492000Y-88900000D01*
X144440702Y-97704702D02*
X145560702Y-98824702D01*
X146943636Y-109814702D02*
X145668636Y-108539702D01*
X119988635Y-98129702D02*
X120413636Y-98554703D01*
X140716000Y-94744394D02*
X140716000Y-96520000D01*
X122323108Y-83277036D02*
X121920000Y-82873928D01*
X139806308Y-93834702D02*
X140716000Y-94744394D01*
X118740798Y-93137202D02*
X117898000Y-93980000D01*
X119380000Y-103632000D02*
X119380000Y-105041136D01*
X132281284Y-92934702D02*
X132601455Y-92614531D01*
X154432000Y-88783839D02*
X154418636Y-88797203D01*
X122393036Y-83277036D02*
X122323108Y-83277036D01*
X122936000Y-84897338D02*
X122936000Y-85344000D01*
X126888635Y-90424000D02*
X126524338Y-90424000D01*
X120413636Y-98554703D02*
X120413636Y-100244701D01*
X152832636Y-101675364D02*
X152832636Y-100418340D01*
X139033636Y-93834702D02*
X138030702Y-93834702D01*
X119176136Y-90597202D02*
X119176136Y-88696136D01*
X147893636Y-98824702D02*
X149043636Y-97674702D01*
X129533636Y-96005636D02*
X129540000Y-96012000D01*
X147161136Y-95792202D02*
X149043636Y-97674702D01*
X119988635Y-100669702D02*
X119176136Y-100669702D01*
X126524338Y-90424000D02*
X126351136Y-90597202D01*
X143426136Y-84864702D02*
X138731136Y-84864702D01*
X126351136Y-98129702D02*
X119176136Y-98129702D01*
X117898000Y-93980000D02*
X117898000Y-96851566D01*
X119176136Y-91867202D02*
X119176136Y-90597202D01*
X124551136Y-105190000D02*
X123426136Y-106315000D01*
X125228636Y-83589702D02*
X129766136Y-83589702D01*
X129766136Y-83589702D02*
X129871136Y-83694702D01*
X120118636Y-103909364D02*
X121920000Y-102108000D01*
X119176136Y-93137202D02*
X118740798Y-93137202D01*
X138030702Y-93834702D02*
X137160000Y-92964000D01*
X126351136Y-90597202D02*
X126351136Y-89040864D01*
X154818636Y-87754702D02*
X154818636Y-86238636D01*
X139033636Y-93834702D02*
X139806308Y-93834702D01*
X117898000Y-96851566D02*
X119176136Y-98129702D01*
X126351136Y-98129702D02*
X125476000Y-97254566D01*
X154818636Y-86238636D02*
X154432000Y-85852000D01*
X119176136Y-93137202D02*
X119176136Y-91867202D01*
X152832636Y-100418340D02*
X152439660Y-100025364D01*
X119176136Y-98129702D02*
X119988635Y-98129702D01*
X154432000Y-85852000D02*
X154432000Y-88783839D01*
X139568636Y-108539702D02*
X144780000Y-103328338D01*
X130693636Y-91434702D02*
X129920964Y-91434702D01*
X144780000Y-103328338D02*
X144780000Y-100649702D01*
X129533636Y-93422030D02*
X129533636Y-96005636D01*
X120507114Y-106315000D02*
X120118636Y-105926522D01*
X129920964Y-93034702D02*
X130693636Y-93034702D01*
X144423636Y-97704702D02*
X144440702Y-97704702D01*
X119380000Y-105041136D02*
X119231136Y-105190000D01*
X129920964Y-93034702D02*
X129533636Y-93422030D01*
X119176136Y-88696136D02*
X118364000Y-87884000D01*
X124243636Y-83589702D02*
X122936000Y-84897338D01*
X119176136Y-100669702D02*
X119802298Y-100669702D01*
X123426136Y-106315000D02*
X120507114Y-106315000D01*
X144471401Y-84527401D02*
X144471401Y-83819437D01*
X147161136Y-93004702D02*
X147161136Y-95792202D01*
X144471401Y-83819437D02*
X144551136Y-83739702D01*
X138731136Y-84864702D02*
X137561136Y-83694702D01*
X129533636Y-91822030D02*
X129533636Y-92647374D01*
X129820964Y-92934702D02*
X132281284Y-92934702D01*
X129533636Y-92647374D02*
X129820964Y-92934702D01*
%TO.N,GND*%
X144453636Y-88382202D02*
X144453636Y-93034702D01*
X144396136Y-88324702D02*
X144396136Y-87759864D01*
X144396136Y-88324702D02*
X147161136Y-88324702D01*
X152908000Y-97561816D02*
X152908000Y-98552000D01*
X144396136Y-87759864D02*
X145288000Y-86868000D01*
X152778636Y-97432452D02*
X152908000Y-97561816D01*
X142523636Y-94964702D02*
X144453636Y-93034702D01*
X132612584Y-91464585D02*
X132563415Y-91464585D01*
X120676136Y-101939702D02*
X119176136Y-101939702D01*
X121388298Y-87399702D02*
X121920000Y-86868000D01*
X144396136Y-88324702D02*
X144453636Y-88382202D01*
X126351136Y-99399702D02*
X126182838Y-99568000D01*
X126351136Y-99399702D02*
X125644298Y-99399702D01*
X144453636Y-93034702D02*
X144453636Y-92274364D01*
X138260964Y-91434702D02*
X137598636Y-90772374D01*
X118363637Y-101939702D02*
X117938636Y-101514701D01*
X123740591Y-90212590D02*
X124613636Y-91085635D01*
X130693636Y-90634702D02*
X131466308Y-90634702D01*
X147688767Y-97674702D02*
X147747483Y-97733418D01*
X123216136Y-99399702D02*
X120676136Y-101939702D01*
X118363637Y-99399702D02*
X119176136Y-99399702D01*
X132563415Y-91464585D02*
X132180626Y-91847374D01*
X143703636Y-96524702D02*
X142523636Y-97704702D01*
X115143636Y-91612364D02*
X114300000Y-92456000D01*
X132393636Y-105084702D02*
X136610000Y-105084702D01*
X131853636Y-91022030D02*
X131853636Y-91847374D01*
X139033636Y-91434702D02*
X138260964Y-91434702D01*
X120278636Y-87399702D02*
X121388298Y-87399702D01*
X131466308Y-92234702D02*
X130693636Y-92234702D01*
X131853636Y-91847374D02*
X131466308Y-92234702D01*
X131466308Y-90634702D02*
X131853636Y-91022030D01*
X117938636Y-101514701D02*
X117938636Y-99824703D01*
X132393636Y-105084702D02*
X133532702Y-105084702D01*
X124613636Y-91085635D02*
X124613636Y-91948000D01*
X132180626Y-91847374D02*
X131853636Y-91847374D01*
X142523636Y-97704702D02*
X142523636Y-94964702D01*
X147143636Y-97674702D02*
X147688767Y-97674702D01*
X115143636Y-90289702D02*
X115143636Y-91612364D01*
X152897731Y-98562269D02*
X152908000Y-98552000D01*
X137598636Y-90772374D02*
X137598636Y-90424255D01*
X126600080Y-91867202D02*
X126845080Y-91622202D01*
X119176136Y-101939702D02*
X118363637Y-101939702D01*
X119176136Y-94407202D02*
X121879434Y-94407202D01*
X147143636Y-97674702D02*
X145993636Y-96524702D01*
X117938636Y-99824703D02*
X118363637Y-99399702D01*
X151575000Y-98562269D02*
X152897731Y-98562269D01*
X133532702Y-105084702D02*
X134620000Y-106172000D01*
X121879434Y-94407202D02*
X124338636Y-91948000D01*
X126351136Y-99399702D02*
X123216136Y-99399702D01*
X145993636Y-96524702D02*
X143703636Y-96524702D01*
X126351136Y-91867202D02*
X126600080Y-91867202D01*
X125644298Y-99399702D02*
X124729819Y-100314181D01*
%TO.N,Net-(U4-AREF)*%
D25*
X141753636Y-92234702D02*
X142553636Y-93034702D01*
X139033636Y-92234702D02*
X141753636Y-92234702D01*
%TO.N,/SDA*%
X136063636Y-85695768D02*
X136063636Y-87664702D01*
X126351136Y-94407202D02*
X123524798Y-94407202D01*
X123918636Y-86518164D02*
X123918636Y-85741240D01*
X135847570Y-85479702D02*
X136063636Y-85695768D01*
X123524798Y-94407202D02*
X123444000Y-94488000D01*
X125163636Y-87464702D02*
X125163636Y-94032201D01*
X140208000Y-88777814D02*
X138034888Y-86604702D01*
X126351136Y-101939702D02*
X124306434Y-101939702D01*
X136063636Y-86929702D02*
X136063636Y-87664702D01*
X123952000Y-101092000D02*
X124799702Y-101939702D01*
X126690838Y-101600000D02*
X127000000Y-101600000D01*
X124180174Y-85479702D02*
X135847570Y-85479702D01*
X124799702Y-101939702D02*
X126351136Y-101939702D01*
X125163636Y-94032201D02*
X125538637Y-94407202D01*
X136388636Y-86604702D02*
X136063636Y-86929702D01*
X126351136Y-101939702D02*
X126690838Y-101600000D01*
X124306434Y-101939702D02*
X121056136Y-105190000D01*
X125228636Y-87399702D02*
X125163636Y-87464702D01*
X125228636Y-87399702D02*
X124800174Y-87399702D01*
X140208000Y-90281790D02*
X140208000Y-88777814D01*
X124800174Y-87399702D02*
X123918636Y-86518164D01*
X125538637Y-94407202D02*
X126351136Y-94407202D01*
X138034888Y-86604702D02*
X136388636Y-86604702D01*
X140368636Y-90442426D02*
X140208000Y-90281790D01*
X123918636Y-85741240D02*
X124180174Y-85479702D01*
%TO.N,/SCK*%
X155460034Y-96709702D02*
X154178636Y-95428304D01*
X135263636Y-88295954D02*
X136652000Y-89684318D01*
X127163635Y-93137202D02*
X127538636Y-93512203D01*
X140427697Y-91440000D02*
X141335702Y-91440000D01*
X134897570Y-86129702D02*
X125228636Y-86129702D01*
X141335702Y-91440000D02*
X143500312Y-89275390D01*
X127538636Y-100294701D02*
X127163635Y-100669702D01*
X135263636Y-87664702D02*
X135263636Y-88295954D01*
X136652000Y-89684318D02*
X136652000Y-91249000D01*
X135263636Y-86495768D02*
X134897570Y-86129702D01*
X156003636Y-104379702D02*
X156003636Y-102528001D01*
X153593636Y-86719702D02*
X153593636Y-88979702D01*
X127163635Y-93137202D02*
X126351136Y-93137202D01*
X155175337Y-101699702D02*
X154321224Y-101699702D01*
X146363636Y-84438290D02*
X146363636Y-83041114D01*
X153783636Y-99159702D02*
X153603636Y-99159702D01*
X150613636Y-83739702D02*
X153593636Y-86719702D01*
X146690048Y-82714702D02*
X148026136Y-82714702D01*
X153693636Y-99877290D02*
X153693636Y-99249702D01*
X154321224Y-101699702D02*
X153603636Y-100982114D01*
X153603636Y-96709702D02*
X155460034Y-96709702D01*
X127713635Y-92587202D02*
X127163635Y-93137202D01*
X125228636Y-86129702D02*
X126213636Y-86129702D01*
X135636000Y-92964000D02*
X135636000Y-92265000D01*
X127163635Y-100669702D02*
X126351136Y-100669702D01*
X140418636Y-91449061D02*
X140427697Y-91440000D01*
X139033636Y-94634702D02*
X137306702Y-94634702D01*
X146363636Y-83041114D02*
X146690048Y-82714702D01*
X143500312Y-89275390D02*
X143500312Y-87301614D01*
X153603636Y-100982114D02*
X153603636Y-99967290D01*
X156003636Y-102528001D02*
X155175337Y-101699702D01*
X143500312Y-87301614D02*
X146363636Y-84438290D01*
X148026136Y-82714702D02*
X149051136Y-83739702D01*
X136652000Y-91249000D02*
X135636000Y-92265000D01*
X154828636Y-105554702D02*
X156003636Y-104379702D01*
X149051136Y-83739702D02*
X150613636Y-83739702D01*
X127488636Y-104077500D02*
X126376136Y-105190000D01*
X153593636Y-88979702D02*
X152278636Y-90294702D01*
X135263636Y-87664702D02*
X135263636Y-86495768D01*
X127163635Y-100669702D02*
X127488636Y-100994703D01*
X153603636Y-99159702D02*
X153603636Y-96709702D01*
X135636000Y-92265000D02*
X135636000Y-92401760D01*
X126213636Y-86129702D02*
X127713635Y-87629701D01*
X127488636Y-100994703D02*
X127488636Y-104077500D01*
X153603636Y-99967290D02*
X153693636Y-99877290D01*
X153693636Y-99249702D02*
X153783636Y-99159702D01*
X154178636Y-95428304D02*
X154178636Y-94488000D01*
X127538636Y-93512203D02*
X127538636Y-100294701D01*
X127713635Y-87629701D02*
X127713635Y-92587202D01*
X137306702Y-94634702D02*
X135636000Y-92964000D01*
%TO.N,Net-(D2-K)*%
X147176136Y-86514702D02*
X148986136Y-88324702D01*
X147176136Y-83739702D02*
X147176136Y-86514702D01*
%TO.N,/D2*%
X132063636Y-87664702D02*
X132063636Y-88883636D01*
X132063636Y-88883636D02*
X132080000Y-88900000D01*
%TO.N,/D3*%
X130693636Y-89034702D02*
X129958636Y-89034702D01*
X128163635Y-107603889D02*
X128299448Y-107739702D01*
X128524000Y-88900000D02*
X128163635Y-89260365D01*
X124906241Y-108204000D02*
X122124338Y-108204000D01*
X125370539Y-107739702D02*
X124906241Y-108204000D01*
X128163635Y-89260365D02*
X128163635Y-107603889D01*
X129958636Y-89034702D02*
X129823934Y-88900000D01*
X128299448Y-107739702D02*
X125370539Y-107739702D01*
X129823934Y-88900000D02*
X128524000Y-88900000D01*
X122124338Y-108204000D02*
X120513636Y-109814702D01*
%TO.N,/D4*%
X128485844Y-108189702D02*
X125556935Y-108189702D01*
X128749448Y-107926098D02*
X128485844Y-108189702D01*
X128613635Y-90334365D02*
X128613635Y-107417493D01*
X128613635Y-107417493D02*
X128749448Y-107553306D01*
X129113298Y-89834702D02*
X128613635Y-90334365D01*
X130693636Y-89834702D02*
X129113298Y-89834702D01*
X125556935Y-108189702D02*
X123931935Y-109814702D01*
X123931935Y-109814702D02*
X123053636Y-109814702D01*
X128749448Y-107553306D02*
X128749448Y-107926098D01*
%TO.N,/D5*%
X129218636Y-98849702D02*
X129218636Y-108093306D01*
X129218636Y-108093306D02*
X128672240Y-108639702D01*
X132063636Y-96004702D02*
X129218636Y-98849702D01*
X126768636Y-108639702D02*
X125593636Y-109814702D01*
X128672240Y-108639702D02*
X126768636Y-108639702D01*
%TO.N,/D6*%
X132434888Y-97064702D02*
X133063636Y-96435954D01*
X133063636Y-96435954D02*
X133063636Y-96012000D01*
X129668636Y-99439364D02*
X132043298Y-97064702D01*
X132043298Y-97064702D02*
X132434888Y-97064702D01*
X128133636Y-109814702D02*
X129668636Y-108279702D01*
X129668636Y-108279702D02*
X129668636Y-99439364D01*
%TO.N,/D7*%
X133604000Y-96576318D02*
X133604000Y-96520000D01*
X133793536Y-101889702D02*
X134041236Y-101889702D01*
X134041236Y-101889702D02*
X134371136Y-101559802D01*
X134371136Y-97343454D02*
X133604000Y-96576318D01*
X131318636Y-104364602D02*
X133793536Y-101889702D01*
X134371136Y-101559802D02*
X134371136Y-97343454D01*
X130673636Y-109814702D02*
X131318636Y-109169702D01*
X131318636Y-109169702D02*
X131318636Y-104364602D01*
%TO.N,/D8*%
X134821136Y-97157058D02*
X134463636Y-96799558D01*
X133495810Y-109814702D02*
X137485000Y-105825512D01*
X134821136Y-101092000D02*
X134821136Y-97157058D01*
X137485000Y-105825512D02*
X137485000Y-103755864D01*
X137485000Y-103755864D02*
X134821136Y-101092000D01*
X134463636Y-96799558D02*
X134463636Y-96004702D01*
X133213636Y-109814702D02*
X133495810Y-109814702D01*
%TO.N,Net-(U4-PB6)*%
X133604000Y-94478695D02*
X133604000Y-94488000D01*
X130765338Y-93763000D02*
X132888305Y-93763000D01*
X132888305Y-93763000D02*
X133604000Y-94478695D01*
X130693636Y-93834702D02*
X130765338Y-93763000D01*
X138510000Y-101378566D02*
X137496136Y-100364702D01*
X138510000Y-105084702D02*
X138510000Y-101378566D01*
%TO.N,/MISO*%
X141033636Y-99374702D02*
X137663636Y-96004702D01*
X148103636Y-95118892D02*
X149918636Y-96933892D01*
X149918636Y-98415512D02*
X148959446Y-99374702D01*
X148103636Y-91929702D02*
X148103636Y-95118892D01*
X149918636Y-96933892D02*
X149918636Y-98415512D01*
X148959446Y-99374702D02*
X141033636Y-99374702D01*
X152278636Y-87754702D02*
X148103636Y-91929702D01*
%TO.N,/MOSI*%
X149145842Y-99824702D02*
X153453636Y-95516908D01*
X153453636Y-91659702D02*
X154818636Y-90294702D01*
X153453636Y-95516908D02*
X153453636Y-91659702D01*
X140847240Y-99824702D02*
X149145842Y-99824702D01*
X136863636Y-96004702D02*
X136863636Y-96739702D01*
X138963636Y-98839702D02*
X139862240Y-98839702D01*
X136863636Y-96739702D02*
X138963636Y-98839702D01*
X139862240Y-98839702D02*
X140847240Y-99824702D01*
%TO.N,/RESET*%
X148986136Y-93004702D02*
X152108636Y-93004702D01*
X135892688Y-89950312D02*
X135080948Y-89950312D01*
X135080948Y-89950312D02*
X134463636Y-89333000D01*
X152108636Y-93004702D02*
X152278636Y-92834702D01*
X134463636Y-89333000D02*
X134463636Y-87664702D01*
%TO.N,Net-(U3-X1)*%
X116898000Y-94873136D02*
X116898000Y-86302000D01*
X116898000Y-86302000D02*
X119610298Y-83589702D01*
X114813636Y-96957500D02*
X116898000Y-94873136D01*
X119610298Y-83589702D02*
X120278636Y-83589702D01*
%TO.N,Net-(U3-X2)*%
X117348000Y-99623136D02*
X117348000Y-87361876D01*
X119850174Y-84859702D02*
X120278636Y-84859702D01*
X114813636Y-102157500D02*
X117348000Y-99623136D01*
X117348000Y-87361876D02*
X119850174Y-84859702D01*
%TO.N,Net-(U3-~{INTA})*%
X124241800Y-82595000D02*
X130596434Y-82595000D01*
X120707098Y-86129702D02*
X124241800Y-82595000D01*
X120278636Y-86129702D02*
X120707098Y-86129702D01*
X130596434Y-82595000D02*
X131696136Y-83694702D01*
%TO.N,Net-(U3-SQW{slash}~INT)*%
X138286434Y-82595000D02*
X139386136Y-83694702D01*
X132063736Y-84859702D02*
X134328438Y-82595000D01*
X125228636Y-84859702D02*
X132063736Y-84859702D01*
X134328438Y-82595000D02*
X138286434Y-82595000D01*
%TO.N,/RX*%
X134620000Y-93462695D02*
X135345000Y-94187695D01*
X133663636Y-87664702D02*
X133663636Y-89169396D01*
X134620000Y-90125760D02*
X134620000Y-93462695D01*
X135345000Y-94187695D02*
X135345000Y-94488000D01*
X135345000Y-94488000D02*
X135620003Y-94488000D01*
X133663636Y-89169396D02*
X134620000Y-90125760D01*
%TO.N,/TX*%
X134112000Y-91797273D02*
X134112000Y-93970695D01*
X132863636Y-90548909D02*
X134112000Y-91797273D01*
X132863636Y-87664702D02*
X132863636Y-90548909D01*
X134620000Y-94478695D02*
X134620000Y-94488000D01*
X134112000Y-93970695D02*
X134620000Y-94478695D01*
%TO.N,Net-(U4-PB7)*%
X132441298Y-94634702D02*
X132588000Y-94488000D01*
X130693636Y-94634702D02*
X132441298Y-94634702D01*
X130493636Y-102167202D02*
X132296136Y-100364702D01*
X130493636Y-105084702D02*
X130493636Y-102167202D01*
%TO.N,Net-(D1-K)*%
X145413636Y-83020404D02*
X145413636Y-84751894D01*
X145057934Y-82664702D02*
X145413636Y-83020404D01*
X142571136Y-87594394D02*
X142571136Y-88324702D01*
X143751136Y-82664702D02*
X145057934Y-82664702D01*
X145413636Y-84751894D02*
X142571136Y-87594394D01*
X142676136Y-83739702D02*
X143751136Y-82664702D01*
%TD*%
%TA.AperFunction,Conductor*%
%TO.N,VCC*%
G36*
X117182470Y-100775770D02*
G01*
X117238403Y-100817642D01*
X117262820Y-100883106D01*
X117263136Y-100891952D01*
X117263136Y-101581236D01*
X117289093Y-101711729D01*
X117289095Y-101711737D01*
X117340014Y-101834666D01*
X117340019Y-101834676D01*
X117413937Y-101945302D01*
X117413943Y-101945310D01*
X117639804Y-102171170D01*
X117838942Y-102370308D01*
X117933031Y-102464397D01*
X117976217Y-102493252D01*
X117994074Y-102509806D01*
X117995096Y-102508785D01*
X118000398Y-102514087D01*
X118000400Y-102514090D01*
X118114248Y-102627938D01*
X118252034Y-102711233D01*
X118405749Y-102759132D01*
X118472545Y-102765202D01*
X118752339Y-102765201D01*
X118703370Y-102797922D01*
X118694818Y-102804940D01*
X118723195Y-102837689D01*
X118733139Y-102906847D01*
X118704115Y-102970403D01*
X118698083Y-102976881D01*
X118645643Y-103029321D01*
X118645636Y-103029330D01*
X118542175Y-103184170D01*
X118542173Y-103184174D01*
X118470908Y-103356225D01*
X118470905Y-103356237D01*
X118465780Y-103381999D01*
X118465781Y-103382000D01*
X120294219Y-103382000D01*
X120294219Y-103381999D01*
X120289094Y-103356237D01*
X120289091Y-103356225D01*
X120217826Y-103184174D01*
X120217824Y-103184170D01*
X120114363Y-103029330D01*
X120114357Y-103029322D01*
X120013527Y-102928492D01*
X119980042Y-102867169D01*
X119985026Y-102797477D01*
X120008678Y-102765881D01*
X119982021Y-102748070D01*
X120100238Y-102711233D01*
X120238024Y-102627938D01*
X120244605Y-102621357D01*
X120250485Y-102627237D01*
X120293659Y-102615202D01*
X120690560Y-102615202D01*
X120742667Y-102615202D01*
X120873172Y-102589243D01*
X120960339Y-102553136D01*
X121029806Y-102545668D01*
X121092285Y-102576942D01*
X121110892Y-102598807D01*
X121185639Y-102710673D01*
X121185642Y-102710677D01*
X121317322Y-102842357D01*
X121317330Y-102842363D01*
X121472170Y-102945824D01*
X121472174Y-102945826D01*
X121644225Y-103017091D01*
X121644237Y-103017094D01*
X121826879Y-103053424D01*
X121826883Y-103053425D01*
X122008757Y-103053425D01*
X122075796Y-103073110D01*
X122121551Y-103125914D01*
X122126076Y-103157385D01*
X122223547Y-103137997D01*
X121927545Y-103434000D01*
X121927544Y-103434000D01*
X121408363Y-103953181D01*
X121347040Y-103986666D01*
X121320682Y-103989500D01*
X120743634Y-103989500D01*
X120743616Y-103989501D01*
X120655142Y-103998538D01*
X120655141Y-103998540D01*
X120640839Y-104000001D01*
X120474302Y-104055186D01*
X120324980Y-104147288D01*
X120205665Y-104266603D01*
X120205665Y-104255118D01*
X120169639Y-104274789D01*
X120099948Y-104269805D01*
X120055601Y-104241304D01*
X119961981Y-104147684D01*
X119812760Y-104055643D01*
X119812755Y-104055641D01*
X119646333Y-104000494D01*
X119646326Y-104000493D01*
X119543616Y-103990000D01*
X118918664Y-103990000D01*
X118918648Y-103990001D01*
X118815938Y-104000494D01*
X118649516Y-104055641D01*
X118649507Y-104055645D01*
X118562058Y-104109584D01*
X118562058Y-104109585D01*
X118645639Y-104234674D01*
X118777322Y-104366357D01*
X118777330Y-104366363D01*
X118932170Y-104469824D01*
X118932174Y-104469826D01*
X119104225Y-104541091D01*
X119104237Y-104541094D01*
X119286879Y-104577424D01*
X119286883Y-104577425D01*
X119473117Y-104577425D01*
X119473120Y-104577424D01*
X119655762Y-104541094D01*
X119655774Y-104541091D01*
X119827825Y-104469826D01*
X119867666Y-104443205D01*
X119934343Y-104422326D01*
X120001724Y-104440810D01*
X120036502Y-104479526D01*
X120056630Y-104466078D01*
X120066048Y-104458348D01*
X120117018Y-104407376D01*
X120108822Y-104420666D01*
X120053637Y-104587203D01*
X120043136Y-104689991D01*
X120043136Y-104782317D01*
X120043136Y-104782318D01*
X120043136Y-104845501D01*
X120023451Y-104912540D01*
X119975431Y-104955986D01*
X119945305Y-104971336D01*
X119927328Y-104978782D01*
X119728822Y-105043280D01*
X119709902Y-105047822D01*
X119503758Y-105080473D01*
X119484360Y-105082000D01*
X119275643Y-105082000D01*
X119256242Y-105080473D01*
X119231136Y-105076496D01*
X119231136Y-105190000D01*
X119357136Y-105190000D01*
X119424175Y-105209685D01*
X119469930Y-105262489D01*
X119481136Y-105314000D01*
X119481136Y-106389999D01*
X119543608Y-106389999D01*
X119543622Y-106389998D01*
X119646333Y-106379505D01*
X119812755Y-106324358D01*
X119812760Y-106324356D01*
X119961978Y-106232317D01*
X120055600Y-106138695D01*
X120116923Y-106105210D01*
X120186615Y-106110194D01*
X120218044Y-106130392D01*
X120219804Y-106127536D01*
X120324980Y-106232712D01*
X120474302Y-106324814D01*
X120640839Y-106379999D01*
X120743627Y-106390500D01*
X121368644Y-106390499D01*
X121368652Y-106390498D01*
X121368655Y-106390498D01*
X121424938Y-106384748D01*
X121471433Y-106379999D01*
X121637970Y-106324814D01*
X121787292Y-106232712D01*
X121911348Y-106108656D01*
X122003450Y-105959334D01*
X122058635Y-105792797D01*
X122069136Y-105690009D01*
X122069136Y-105689986D01*
X123538637Y-105689986D01*
X123549130Y-105792697D01*
X123604277Y-105959119D01*
X123604279Y-105959124D01*
X123696320Y-106108345D01*
X123820290Y-106232315D01*
X123969511Y-106324356D01*
X123969516Y-106324358D01*
X124135938Y-106379505D01*
X124135945Y-106379506D01*
X124238655Y-106389999D01*
X124301135Y-106389998D01*
X124301136Y-106389998D01*
X124301136Y-105440000D01*
X123538637Y-105440000D01*
X123538637Y-105689986D01*
X122069136Y-105689986D01*
X122069135Y-105112950D01*
X122088819Y-105045912D01*
X122105449Y-105025275D01*
X122440711Y-104690013D01*
X123538636Y-104690013D01*
X123538636Y-104940000D01*
X124301136Y-104940000D01*
X124301136Y-103990000D01*
X124301135Y-103989999D01*
X124238664Y-103990000D01*
X124238647Y-103990001D01*
X124135938Y-104000494D01*
X123969516Y-104055641D01*
X123969511Y-104055643D01*
X123820290Y-104147684D01*
X123696320Y-104271654D01*
X123604279Y-104420875D01*
X123604277Y-104420880D01*
X123549130Y-104587302D01*
X123549129Y-104587309D01*
X123538636Y-104690013D01*
X122440711Y-104690013D01*
X124529206Y-102601521D01*
X124590529Y-102568036D01*
X124616887Y-102565202D01*
X124731962Y-102565202D01*
X124731982Y-102565203D01*
X124738096Y-102565203D01*
X124867423Y-102565203D01*
X124867443Y-102565202D01*
X125175149Y-102565202D01*
X125242188Y-102584887D01*
X125262830Y-102601521D01*
X125289244Y-102627935D01*
X125289246Y-102627936D01*
X125289248Y-102627938D01*
X125427034Y-102711233D01*
X125580749Y-102759132D01*
X125647545Y-102765202D01*
X126739136Y-102765201D01*
X126806175Y-102784886D01*
X126851930Y-102837689D01*
X126863136Y-102889201D01*
X126863136Y-103767047D01*
X126843451Y-103834086D01*
X126826821Y-103854723D01*
X126773076Y-103908469D01*
X126728363Y-103953182D01*
X126667039Y-103986666D01*
X126640682Y-103989500D01*
X126063634Y-103989500D01*
X126063616Y-103989501D01*
X125960839Y-104000000D01*
X125960836Y-104000001D01*
X125794304Y-104055185D01*
X125794299Y-104055187D01*
X125734552Y-104092038D01*
X125734552Y-104092039D01*
X125644980Y-104147288D01*
X125539804Y-104252463D01*
X125537467Y-104248673D01*
X125489639Y-104274789D01*
X125419948Y-104269805D01*
X125375601Y-104241304D01*
X125281981Y-104147684D01*
X125132760Y-104055643D01*
X125132755Y-104055641D01*
X124966333Y-104000494D01*
X124966326Y-104000493D01*
X124863622Y-103990000D01*
X124801136Y-103990000D01*
X124801136Y-106389999D01*
X124863608Y-106389999D01*
X124863622Y-106389998D01*
X124966333Y-106379505D01*
X125132755Y-106324358D01*
X125132760Y-106324356D01*
X125281978Y-106232317D01*
X125375600Y-106138695D01*
X125436923Y-106105210D01*
X125506615Y-106110194D01*
X125538044Y-106130392D01*
X125539804Y-106127536D01*
X125644980Y-106232712D01*
X125794302Y-106324814D01*
X125960839Y-106379999D01*
X126063627Y-106390500D01*
X126688644Y-106390499D01*
X126688652Y-106390498D01*
X126688655Y-106390498D01*
X126744938Y-106384748D01*
X126791433Y-106379999D01*
X126957970Y-106324814D01*
X127107292Y-106232712D01*
X127231348Y-106108656D01*
X127308596Y-105983415D01*
X127360544Y-105936691D01*
X127429506Y-105925468D01*
X127493588Y-105953311D01*
X127532445Y-106011380D01*
X127538135Y-106048512D01*
X127538135Y-106990202D01*
X127518450Y-107057241D01*
X127465646Y-107102996D01*
X127414135Y-107114202D01*
X125438280Y-107114202D01*
X125438260Y-107114201D01*
X125432146Y-107114201D01*
X125308933Y-107114201D01*
X125208136Y-107134250D01*
X125208131Y-107134250D01*
X125188092Y-107138237D01*
X125188084Y-107138239D01*
X125148652Y-107154572D01*
X125148653Y-107154573D01*
X125074250Y-107185391D01*
X124971807Y-107253842D01*
X124835276Y-107390374D01*
X124683468Y-107542182D01*
X124622148Y-107575666D01*
X124595789Y-107578500D01*
X122192079Y-107578500D01*
X122192059Y-107578499D01*
X122185945Y-107578499D01*
X122062732Y-107578499D01*
X121961935Y-107598548D01*
X121961930Y-107598548D01*
X121941889Y-107602535D01*
X121922573Y-107610536D01*
X121912008Y-107614913D01*
X121912007Y-107614913D01*
X121828059Y-107649684D01*
X121828046Y-107649691D01*
X121725605Y-107718141D01*
X121725601Y-107718144D01*
X120971473Y-108472272D01*
X120910150Y-108505757D01*
X120845478Y-108502523D01*
X120829882Y-108497456D01*
X120670875Y-108472272D01*
X120619923Y-108464202D01*
X120407349Y-108464202D01*
X120358678Y-108471910D01*
X120197396Y-108497455D01*
X119995221Y-108563146D01*
X119805815Y-108659653D01*
X119633851Y-108784591D01*
X119520309Y-108898133D01*
X119458986Y-108931617D01*
X119389294Y-108926633D01*
X119333361Y-108884761D01*
X119316446Y-108853784D01*
X119267433Y-108722373D01*
X119267429Y-108722366D01*
X119181183Y-108607157D01*
X119181180Y-108607154D01*
X119065971Y-108520908D01*
X119065964Y-108520904D01*
X118931118Y-108470610D01*
X118931119Y-108470610D01*
X118871519Y-108464203D01*
X118871517Y-108464202D01*
X118871509Y-108464202D01*
X118871500Y-108464202D01*
X117075765Y-108464202D01*
X117075759Y-108464203D01*
X117016152Y-108470610D01*
X116881307Y-108520904D01*
X116881300Y-108520908D01*
X116766091Y-108607154D01*
X116766088Y-108607157D01*
X116679842Y-108722366D01*
X116679838Y-108722373D01*
X116629544Y-108857219D01*
X116623137Y-108916818D01*
X116623136Y-108916837D01*
X116623136Y-110712572D01*
X116623137Y-110712578D01*
X116629544Y-110772185D01*
X116679838Y-110907030D01*
X116679840Y-110907033D01*
X116697923Y-110931189D01*
X116722340Y-110996654D01*
X116707488Y-111064927D01*
X116658083Y-111114332D01*
X116598656Y-111129500D01*
X115305862Y-111129500D01*
X115238823Y-111109815D01*
X115218181Y-111093181D01*
X113336319Y-109211319D01*
X113302834Y-109149996D01*
X113300254Y-109126000D01*
X115124000Y-109126000D01*
X115625136Y-109126000D01*
X115625136Y-108903454D01*
X115625181Y-108900130D01*
X115625720Y-108880029D01*
X115625853Y-108876709D01*
X115627285Y-108850022D01*
X115627507Y-108846713D01*
X115629117Y-108826720D01*
X115629428Y-108823417D01*
X115640598Y-108719527D01*
X115641665Y-108711859D01*
X115649572Y-108665673D01*
X115651117Y-108658083D01*
X115665462Y-108597372D01*
X115667478Y-108589893D01*
X115681086Y-108545030D01*
X115683565Y-108537690D01*
X115757223Y-108340200D01*
X115760611Y-108332020D01*
X115782869Y-108283283D01*
X115786831Y-108275369D01*
X115821008Y-108212779D01*
X115825526Y-108205165D01*
X115854490Y-108160098D01*
X115859538Y-108152828D01*
X115988522Y-107980529D01*
X115994075Y-107973638D01*
X116029155Y-107933153D01*
X116035187Y-107926674D01*
X116085608Y-107876253D01*
X116092087Y-107870221D01*
X116132572Y-107835141D01*
X116139463Y-107829588D01*
X116311762Y-107700604D01*
X116319032Y-107695556D01*
X116364099Y-107666592D01*
X116371713Y-107662074D01*
X116434303Y-107627897D01*
X116442087Y-107624000D01*
X115124000Y-107624000D01*
X115124000Y-109126000D01*
X113300254Y-109126000D01*
X113300000Y-109123638D01*
X113300000Y-105406000D01*
X115124000Y-105406000D01*
X115124000Y-106626000D01*
X116626000Y-106626000D01*
X116626000Y-105689986D01*
X118218637Y-105689986D01*
X118229130Y-105792697D01*
X118284277Y-105959119D01*
X118284279Y-105959124D01*
X118376320Y-106108345D01*
X118500290Y-106232315D01*
X118649511Y-106324356D01*
X118649516Y-106324358D01*
X118815938Y-106379505D01*
X118815945Y-106379506D01*
X118918655Y-106389999D01*
X118981135Y-106389998D01*
X118981136Y-106389998D01*
X118981136Y-105440000D01*
X118218637Y-105440000D01*
X118218637Y-105689986D01*
X116626000Y-105689986D01*
X116626000Y-105179944D01*
X116582178Y-105206975D01*
X116575930Y-105210582D01*
X116537513Y-105231296D01*
X116531069Y-105234533D01*
X116478423Y-105259083D01*
X116471798Y-105261940D01*
X116431236Y-105278054D01*
X116424459Y-105280521D01*
X116204510Y-105353405D01*
X116198036Y-105355356D01*
X116158563Y-105366087D01*
X116151995Y-105367682D01*
X116098744Y-105379084D01*
X116092093Y-105380319D01*
X116051664Y-105386693D01*
X116044955Y-105387564D01*
X115902430Y-105402124D01*
X115899285Y-105402405D01*
X115880237Y-105403862D01*
X115877087Y-105404063D01*
X115851717Y-105405355D01*
X115848562Y-105405475D01*
X115829491Y-105405960D01*
X115826339Y-105406000D01*
X115124000Y-105406000D01*
X113300000Y-105406000D01*
X113300000Y-104690013D01*
X118218636Y-104690013D01*
X118218636Y-104940000D01*
X118753195Y-104940000D01*
X118753195Y-104939999D01*
X118628725Y-104876578D01*
X118612136Y-104866412D01*
X118443283Y-104743734D01*
X118428487Y-104731097D01*
X118280905Y-104583515D01*
X118268268Y-104568720D01*
X118245617Y-104537545D01*
X118229130Y-104587301D01*
X118218636Y-104690013D01*
X113300000Y-104690013D01*
X113300000Y-104413801D01*
X113319685Y-104346762D01*
X113372489Y-104301007D01*
X113441647Y-104291063D01*
X113489096Y-104308262D01*
X113544302Y-104342314D01*
X113710839Y-104397499D01*
X113813628Y-104408000D01*
X113813633Y-104408000D01*
X115813639Y-104408000D01*
X115813644Y-104408000D01*
X115916433Y-104397499D01*
X116082970Y-104342314D01*
X116232291Y-104250211D01*
X116356347Y-104126155D01*
X116448450Y-103976834D01*
X116503635Y-103810297D01*
X116514136Y-103707508D01*
X116514136Y-101392952D01*
X116533821Y-101325913D01*
X116550455Y-101305271D01*
X117051455Y-100804271D01*
X117112778Y-100770786D01*
X117182470Y-100775770D01*
G37*
%TD.AperFunction*%
%TA.AperFunction,Conductor*%
G36*
X137827711Y-110007695D02*
G01*
X137893537Y-110121709D01*
X137986629Y-110214801D01*
X138100643Y-110280627D01*
X138164227Y-110297664D01*
X137534897Y-110926993D01*
X137536398Y-110946060D01*
X137547541Y-110960511D01*
X137553520Y-111030124D01*
X137529772Y-111075132D01*
X137636475Y-111129500D01*
X136623213Y-111129500D01*
X136556174Y-111109815D01*
X136510419Y-111057011D01*
X136500475Y-110987853D01*
X136529500Y-110924297D01*
X136550328Y-110905182D01*
X136633422Y-110844811D01*
X136633424Y-110844808D01*
X136633428Y-110844806D01*
X136783740Y-110694494D01*
X136783742Y-110694490D01*
X136783745Y-110694488D01*
X136797576Y-110675450D01*
X136908687Y-110522518D01*
X136956667Y-110428351D01*
X136970795Y-110456079D01*
X137031561Y-110441031D01*
X137097696Y-110463568D01*
X137136737Y-110508622D01*
X137142573Y-110520076D01*
X137181342Y-110573439D01*
X137181343Y-110573439D01*
X137810673Y-109944110D01*
X137827711Y-110007695D01*
G37*
%TD.AperFunction*%
%TA.AperFunction,Conductor*%
G36*
X150805160Y-99152486D02*
G01*
X150849507Y-99180987D01*
X150969088Y-99300568D01*
X150969092Y-99300571D01*
X151124762Y-99404587D01*
X151124768Y-99404590D01*
X151124769Y-99404591D01*
X151297749Y-99476242D01*
X151481384Y-99512769D01*
X151495978Y-99512769D01*
X151495348Y-99513712D01*
X151491048Y-99521755D01*
X151531171Y-99542743D01*
X151565745Y-99603458D01*
X151562006Y-99673228D01*
X151559631Y-99679427D01*
X151530566Y-99749598D01*
X151530565Y-99749601D01*
X151525440Y-99775363D01*
X151525441Y-99775364D01*
X152315660Y-99775364D01*
X152382699Y-99795049D01*
X152428454Y-99847853D01*
X152439660Y-99899364D01*
X152439660Y-100151364D01*
X152419975Y-100218403D01*
X152367171Y-100264158D01*
X152315660Y-100275364D01*
X151525440Y-100275364D01*
X151530565Y-100301126D01*
X151530568Y-100301138D01*
X151601833Y-100473189D01*
X151601835Y-100473193D01*
X151705296Y-100628033D01*
X151705298Y-100628035D01*
X151767325Y-100690063D01*
X151881122Y-100576266D01*
X151895919Y-100563629D01*
X152064772Y-100440951D01*
X152081362Y-100430784D01*
X152267335Y-100336025D01*
X152285312Y-100328579D01*
X152483813Y-100264083D01*
X152502733Y-100259541D01*
X152708878Y-100226891D01*
X152728276Y-100225364D01*
X152854136Y-100225364D01*
X152921175Y-100245049D01*
X152966930Y-100297853D01*
X152978136Y-100349364D01*
X152978136Y-100613928D01*
X152975919Y-100613488D01*
X152958451Y-100672978D01*
X152905647Y-100718733D01*
X152854136Y-100729939D01*
X152739515Y-100729939D01*
X152556873Y-100766269D01*
X152556861Y-100766272D01*
X152384810Y-100837537D01*
X152384806Y-100837539D01*
X152229974Y-100940994D01*
X152229963Y-100941003D01*
X152224460Y-100946505D01*
X152346539Y-100970788D01*
X152346542Y-100970789D01*
X152532777Y-100970789D01*
X152532780Y-100970788D01*
X152715422Y-100934458D01*
X152715430Y-100934456D01*
X152806683Y-100896658D01*
X152876152Y-100889189D01*
X152938631Y-100920464D01*
X152963140Y-100961771D01*
X152978136Y-100951751D01*
X152978136Y-101043721D01*
X152979879Y-101052483D01*
X153002173Y-101164566D01*
X153007387Y-101177154D01*
X153023510Y-101216080D01*
X153023510Y-101216081D01*
X153024821Y-101219246D01*
X153032288Y-101288716D01*
X153001012Y-101351194D01*
X152948577Y-101384627D01*
X152823201Y-101425364D01*
X152831109Y-101475289D01*
X152832636Y-101494687D01*
X152832636Y-101675364D01*
X152958636Y-101675364D01*
X153025675Y-101695049D01*
X153071430Y-101747853D01*
X153082636Y-101799364D01*
X153082636Y-102589582D01*
X153108399Y-102584458D01*
X153108409Y-102584455D01*
X153280459Y-102513190D01*
X153354996Y-102463386D01*
X153421674Y-102442508D01*
X153489054Y-102460992D01*
X153522344Y-102498052D01*
X153632108Y-102388288D01*
X153577079Y-102496290D01*
X153511390Y-102698459D01*
X153490841Y-102828193D01*
X153490841Y-102828194D01*
X153478384Y-102906847D01*
X153478136Y-102908415D01*
X153478136Y-103120989D01*
X153480663Y-103136942D01*
X153501859Y-103270773D01*
X153511390Y-103330945D01*
X153572638Y-103519447D01*
X153577080Y-103533116D01*
X153673587Y-103722522D01*
X153798526Y-103894488D01*
X153948849Y-104044811D01*
X154120818Y-104169752D01*
X154129582Y-104174218D01*
X154180378Y-104222193D01*
X154197172Y-104290014D01*
X154174634Y-104356149D01*
X154129582Y-104395186D01*
X154120818Y-104399651D01*
X153948849Y-104524592D01*
X153798526Y-104674915D01*
X153673587Y-104846881D01*
X153577080Y-105036287D01*
X153577079Y-105036289D01*
X153577079Y-105036290D01*
X153568858Y-105061591D01*
X153511389Y-105238462D01*
X153485161Y-105404063D01*
X153478136Y-105448415D01*
X153478136Y-105660989D01*
X153483228Y-105693136D01*
X153498996Y-105792697D01*
X153511390Y-105870945D01*
X153569085Y-106048512D01*
X153577080Y-106073116D01*
X153673587Y-106262522D01*
X153798526Y-106434488D01*
X153948849Y-106584811D01*
X154120815Y-106709750D01*
X154120817Y-106709751D01*
X154120820Y-106709753D01*
X154310224Y-106806259D01*
X154512393Y-106871948D01*
X154722349Y-106905202D01*
X154722350Y-106905202D01*
X154934922Y-106905202D01*
X154934923Y-106905202D01*
X155144879Y-106871948D01*
X155347048Y-106806259D01*
X155536452Y-106709753D01*
X155647915Y-106628771D01*
X155708422Y-106584811D01*
X155708424Y-106584808D01*
X155708428Y-106584806D01*
X155858740Y-106434494D01*
X155860376Y-106432243D01*
X155925181Y-106343045D01*
X155980511Y-106300378D01*
X156050124Y-106294399D01*
X156111919Y-106327004D01*
X156146277Y-106387842D01*
X156149500Y-106415929D01*
X156149500Y-108738840D01*
X156129815Y-108805879D01*
X156113181Y-108826521D01*
X153846521Y-111093181D01*
X153785198Y-111126666D01*
X153758840Y-111129500D01*
X152893213Y-111129500D01*
X152826174Y-111109815D01*
X152780419Y-111057011D01*
X152770475Y-110987853D01*
X152799500Y-110924297D01*
X152820328Y-110905182D01*
X152903422Y-110844811D01*
X152903424Y-110844808D01*
X152903428Y-110844806D01*
X153053740Y-110694494D01*
X153053742Y-110694490D01*
X153053745Y-110694488D01*
X153178684Y-110522522D01*
X153178685Y-110522521D01*
X153178687Y-110522518D01*
X153275193Y-110333114D01*
X153340882Y-110130945D01*
X153374136Y-109920989D01*
X153374136Y-109708415D01*
X153340882Y-109498459D01*
X153275193Y-109296290D01*
X153178687Y-109106886D01*
X153178685Y-109106883D01*
X153178684Y-109106881D01*
X153053745Y-108934915D01*
X152903422Y-108784592D01*
X152731456Y-108659653D01*
X152542050Y-108563146D01*
X152542049Y-108563145D01*
X152542048Y-108563145D01*
X152339879Y-108497456D01*
X152339877Y-108497455D01*
X152339876Y-108497455D01*
X152178593Y-108471910D01*
X152129923Y-108464202D01*
X151917349Y-108464202D01*
X151868678Y-108471910D01*
X151707396Y-108497455D01*
X151505221Y-108563146D01*
X151315815Y-108659653D01*
X151143849Y-108784592D01*
X150993526Y-108934915D01*
X150868585Y-109106884D01*
X150864120Y-109115648D01*
X150816145Y-109166444D01*
X150748324Y-109183238D01*
X150682189Y-109160700D01*
X150643152Y-109115648D01*
X150638686Y-109106884D01*
X150513745Y-108934915D01*
X150363422Y-108784592D01*
X150191456Y-108659653D01*
X150002050Y-108563146D01*
X150002049Y-108563145D01*
X150002048Y-108563145D01*
X149799879Y-108497456D01*
X149799877Y-108497455D01*
X149799876Y-108497455D01*
X149638593Y-108471910D01*
X149589923Y-108464202D01*
X149377349Y-108464202D01*
X149328678Y-108471910D01*
X149167396Y-108497455D01*
X148965221Y-108563146D01*
X148775815Y-108659653D01*
X148603849Y-108784592D01*
X148453526Y-108934915D01*
X148439694Y-108953952D01*
X148439695Y-108953954D01*
X148328585Y-109106886D01*
X148280604Y-109201052D01*
X148266476Y-109173324D01*
X148205708Y-109188372D01*
X148139573Y-109165834D01*
X148100535Y-109120781D01*
X148094701Y-109109332D01*
X148055927Y-109055963D01*
X147426598Y-109685292D01*
X147409561Y-109621709D01*
X147343735Y-109507695D01*
X147250643Y-109414603D01*
X147136629Y-109348777D01*
X147073045Y-109331739D01*
X147702373Y-108702409D01*
X147702373Y-108702408D01*
X147649010Y-108663639D01*
X147460256Y-108567463D01*
X147258790Y-108502003D01*
X147049555Y-108468864D01*
X146837717Y-108468864D01*
X146628483Y-108502003D01*
X146628480Y-108502003D01*
X146427015Y-108567463D01*
X146238259Y-108663640D01*
X146184897Y-108702408D01*
X146184897Y-108702409D01*
X146814227Y-109331739D01*
X146750643Y-109348777D01*
X146636629Y-109414603D01*
X146543537Y-109507695D01*
X146477711Y-109621709D01*
X146460673Y-109685293D01*
X145790921Y-109015541D01*
X145794220Y-109012241D01*
X145769633Y-108987924D01*
X145758587Y-108945142D01*
X145754135Y-108951269D01*
X145754135Y-108916830D01*
X145747727Y-108857219D01*
X145697432Y-108722371D01*
X145629816Y-108632048D01*
X145611183Y-108607157D01*
X145611180Y-108607154D01*
X145495971Y-108520908D01*
X145495964Y-108520904D01*
X145361118Y-108470610D01*
X145361119Y-108470610D01*
X145301519Y-108464203D01*
X145301517Y-108464202D01*
X145301509Y-108464202D01*
X145301500Y-108464202D01*
X143505765Y-108464202D01*
X143505759Y-108464203D01*
X143446152Y-108470610D01*
X143311307Y-108520904D01*
X143311300Y-108520908D01*
X143196091Y-108607154D01*
X143196088Y-108607157D01*
X143109842Y-108722366D01*
X143109838Y-108722373D01*
X143059544Y-108857219D01*
X143053137Y-108916818D01*
X143053136Y-108916837D01*
X143053136Y-110712572D01*
X143053137Y-110712578D01*
X143059544Y-110772185D01*
X143109838Y-110907030D01*
X143109840Y-110907033D01*
X143127923Y-110931189D01*
X143152340Y-110996654D01*
X143137488Y-111064927D01*
X143088083Y-111114332D01*
X143028656Y-111129500D01*
X138950796Y-111129500D01*
X139057977Y-111074888D01*
X139042487Y-111057011D01*
X139032543Y-110987853D01*
X139050716Y-110948059D01*
X139052374Y-110926993D01*
X138423044Y-110297664D01*
X138486629Y-110280627D01*
X138600643Y-110214801D01*
X138693735Y-110121709D01*
X138759561Y-110007695D01*
X138776598Y-109944110D01*
X139405927Y-110573440D01*
X139405927Y-110573439D01*
X139444699Y-110520075D01*
X139540874Y-110331322D01*
X139606334Y-110129857D01*
X139606334Y-110129854D01*
X139639474Y-109920621D01*
X139639474Y-109708782D01*
X139606334Y-109499549D01*
X139606334Y-109499546D01*
X139540874Y-109298081D01*
X139444701Y-109109332D01*
X139405927Y-109055963D01*
X138776598Y-109685292D01*
X138759561Y-109621709D01*
X138693735Y-109507695D01*
X138600643Y-109414603D01*
X138486629Y-109348777D01*
X138423045Y-109331739D01*
X139052373Y-108702409D01*
X139052373Y-108702408D01*
X138999010Y-108663639D01*
X138810256Y-108567463D01*
X138608790Y-108502003D01*
X138399555Y-108468864D01*
X138187717Y-108468864D01*
X137978483Y-108502003D01*
X137978480Y-108502003D01*
X137777015Y-108567463D01*
X137588259Y-108663640D01*
X137534897Y-108702408D01*
X137534897Y-108702409D01*
X138164227Y-109331739D01*
X138100643Y-109348777D01*
X137986629Y-109414603D01*
X137893537Y-109507695D01*
X137827711Y-109621709D01*
X137810673Y-109685293D01*
X137181343Y-109055963D01*
X137181342Y-109055963D01*
X137142572Y-109109328D01*
X137136735Y-109120784D01*
X137088759Y-109171579D01*
X137020938Y-109188372D01*
X136971682Y-109171585D01*
X136956667Y-109201052D01*
X136908687Y-109106886D01*
X136797575Y-108953952D01*
X136797576Y-108953952D01*
X136783745Y-108934915D01*
X136633422Y-108784592D01*
X136461456Y-108659653D01*
X136272050Y-108563146D01*
X136272049Y-108563145D01*
X136272048Y-108563145D01*
X136069879Y-108497456D01*
X136069877Y-108497455D01*
X136069875Y-108497455D01*
X135988907Y-108484631D01*
X135925772Y-108454702D01*
X135888841Y-108395390D01*
X135889541Y-108346403D01*
X140124000Y-108346403D01*
X140263618Y-108538575D01*
X140266399Y-108542565D01*
X140282755Y-108567042D01*
X140285380Y-108571143D01*
X140305862Y-108604564D01*
X140308325Y-108608765D01*
X140322726Y-108634478D01*
X140325023Y-108638775D01*
X140438994Y-108862455D01*
X140441118Y-108866835D01*
X140453447Y-108893578D01*
X140455398Y-108898038D01*
X140470400Y-108934254D01*
X140472175Y-108938788D01*
X140482374Y-108966432D01*
X140483970Y-108971035D01*
X140534321Y-109126000D01*
X141626000Y-109126000D01*
X141626000Y-107624000D01*
X147786170Y-107624000D01*
X147787303Y-107624368D01*
X147791906Y-107625964D01*
X147819550Y-107636163D01*
X147824084Y-107637938D01*
X147860300Y-107652940D01*
X147864762Y-107654892D01*
X147891506Y-107667222D01*
X147895884Y-107669345D01*
X148119554Y-107783311D01*
X148123848Y-107785607D01*
X148149543Y-107799997D01*
X148153743Y-107802458D01*
X148187164Y-107822938D01*
X148191263Y-107825562D01*
X148209430Y-107837700D01*
X148233563Y-107821576D01*
X148237663Y-107818952D01*
X148271086Y-107798471D01*
X148275286Y-107796009D01*
X148300982Y-107781619D01*
X148305275Y-107779324D01*
X148529617Y-107665016D01*
X148534000Y-107662891D01*
X148560775Y-107650548D01*
X148565244Y-107648593D01*
X148601461Y-107633595D01*
X148605989Y-107631823D01*
X148627196Y-107624000D01*
X150340076Y-107624000D01*
X150361283Y-107631823D01*
X150365811Y-107633595D01*
X150402028Y-107648593D01*
X150406497Y-107650548D01*
X150433272Y-107662891D01*
X150437655Y-107665016D01*
X150661997Y-107779324D01*
X150666290Y-107781619D01*
X150691986Y-107796009D01*
X150696186Y-107798471D01*
X150729609Y-107818952D01*
X150733709Y-107821576D01*
X150753636Y-107834889D01*
X150773563Y-107821576D01*
X150777663Y-107818952D01*
X150811086Y-107798471D01*
X150815286Y-107796009D01*
X150840982Y-107781619D01*
X150845275Y-107779324D01*
X151069617Y-107665016D01*
X151074000Y-107662891D01*
X151100775Y-107650548D01*
X151105244Y-107648593D01*
X151141461Y-107633595D01*
X151145989Y-107631823D01*
X151167196Y-107624000D01*
X152880076Y-107624000D01*
X152901283Y-107631823D01*
X152905811Y-107633595D01*
X152942028Y-107648593D01*
X152946497Y-107650548D01*
X152973272Y-107662891D01*
X152977655Y-107665016D01*
X153201997Y-107779324D01*
X153206290Y-107781619D01*
X153231986Y-107796009D01*
X153236186Y-107798471D01*
X153269609Y-107818952D01*
X153273709Y-107821576D01*
X153298204Y-107837942D01*
X153302201Y-107840728D01*
X153505905Y-107988727D01*
X153509793Y-107991670D01*
X153532952Y-108009929D01*
X153536717Y-108013019D01*
X153566524Y-108038480D01*
X153570163Y-108041714D01*
X153591768Y-108061688D01*
X153595272Y-108065058D01*
X153773280Y-108243066D01*
X153776650Y-108246570D01*
X153796624Y-108268175D01*
X153799858Y-108271814D01*
X153825319Y-108301621D01*
X153828409Y-108305386D01*
X153846668Y-108328545D01*
X153849611Y-108332433D01*
X153997610Y-108536137D01*
X154000396Y-108540134D01*
X154016762Y-108564629D01*
X154019386Y-108568729D01*
X154039867Y-108602152D01*
X154042329Y-108606352D01*
X154056719Y-108632048D01*
X154059014Y-108636341D01*
X154126000Y-108767808D01*
X154126000Y-107795760D01*
X153983196Y-107749360D01*
X153978599Y-107747766D01*
X153950989Y-107737581D01*
X153946461Y-107735809D01*
X153910244Y-107720811D01*
X153905775Y-107718856D01*
X153879000Y-107706513D01*
X153874617Y-107704388D01*
X153716847Y-107624000D01*
X152880076Y-107624000D01*
X151167196Y-107624000D01*
X150340076Y-107624000D01*
X148627196Y-107624000D01*
X147786170Y-107624000D01*
X141626000Y-107624000D01*
X140124000Y-107624000D01*
X140124000Y-108346403D01*
X135889541Y-108346403D01*
X135889839Y-108325528D01*
X135920622Y-108274479D01*
X137569101Y-106626000D01*
X140152442Y-106626000D01*
X141626000Y-106626000D01*
X142624000Y-106626000D01*
X144126000Y-106626000D01*
X145124000Y-106626000D01*
X146626000Y-106626000D01*
X147624000Y-106626000D01*
X149126000Y-106626000D01*
X150124000Y-106626000D01*
X151626000Y-106626000D01*
X151626000Y-105124000D01*
X150124000Y-105124000D01*
X150124000Y-106626000D01*
X149126000Y-106626000D01*
X149126000Y-105124000D01*
X147624000Y-105124000D01*
X147624000Y-106626000D01*
X146626000Y-106626000D01*
X146626000Y-105124000D01*
X145124000Y-105124000D01*
X145124000Y-106626000D01*
X144126000Y-106626000D01*
X144126000Y-105124000D01*
X142624000Y-105124000D01*
X142624000Y-106626000D01*
X141626000Y-106626000D01*
X141626000Y-105124000D01*
X140508499Y-105124000D01*
X140508500Y-105622406D01*
X140508460Y-105625559D01*
X140507975Y-105644629D01*
X140507855Y-105647782D01*
X140506563Y-105673153D01*
X140506362Y-105676304D01*
X140504905Y-105695353D01*
X140504624Y-105698498D01*
X140490064Y-105841021D01*
X140489193Y-105847730D01*
X140482819Y-105888159D01*
X140481584Y-105894810D01*
X140470182Y-105948061D01*
X140468587Y-105954628D01*
X140457856Y-105994102D01*
X140455905Y-106000577D01*
X140383023Y-106220520D01*
X140380556Y-106227298D01*
X140364446Y-106267849D01*
X140361591Y-106274468D01*
X140337044Y-106327114D01*
X140333806Y-106333562D01*
X140313088Y-106371987D01*
X140309481Y-106378234D01*
X140186879Y-106577005D01*
X140182913Y-106583035D01*
X140157872Y-106618795D01*
X140153566Y-106624579D01*
X140152442Y-106626000D01*
X137569101Y-106626000D01*
X137894036Y-106301065D01*
X137955357Y-106267582D01*
X138020715Y-106271041D01*
X138107203Y-106299701D01*
X138209991Y-106310202D01*
X138810008Y-106310201D01*
X138810016Y-106310200D01*
X138810019Y-106310200D01*
X138866302Y-106304450D01*
X138912797Y-106299701D01*
X139079334Y-106244516D01*
X139228656Y-106152414D01*
X139352712Y-106028358D01*
X139444814Y-105879036D01*
X139499999Y-105712499D01*
X139510500Y-105609711D01*
X139510499Y-104559694D01*
X139508236Y-104537545D01*
X139499999Y-104456905D01*
X139499998Y-104456902D01*
X139494666Y-104440810D01*
X139444814Y-104290368D01*
X139352712Y-104141046D01*
X139228656Y-104016990D01*
X139228653Y-104016987D01*
X139194401Y-103995860D01*
X139147678Y-103943912D01*
X139135500Y-103890323D01*
X139135500Y-102648559D01*
X140133500Y-102648559D01*
X140133500Y-103519447D01*
X140153566Y-103544825D01*
X140157872Y-103550609D01*
X140182913Y-103586369D01*
X140186879Y-103592399D01*
X140309481Y-103791170D01*
X140313088Y-103797417D01*
X140333806Y-103835842D01*
X140337044Y-103842289D01*
X140361591Y-103894934D01*
X140364447Y-103901556D01*
X140380556Y-103942106D01*
X140383022Y-103948882D01*
X140441713Y-104126000D01*
X141626000Y-104126000D01*
X142624000Y-104126000D01*
X144126000Y-104126000D01*
X145124000Y-104126000D01*
X146626000Y-104126000D01*
X147624000Y-104126000D01*
X149126000Y-104126000D01*
X150124000Y-104126000D01*
X151626000Y-104126000D01*
X151626000Y-103204500D01*
X151620584Y-103200484D01*
X151615783Y-103196737D01*
X151577900Y-103165647D01*
X151573293Y-103161673D01*
X151546006Y-103136942D01*
X151541597Y-103132744D01*
X151375256Y-102966403D01*
X151371058Y-102961994D01*
X151346327Y-102934707D01*
X151342353Y-102930100D01*
X151311263Y-102892217D01*
X151307516Y-102887416D01*
X151285583Y-102857841D01*
X151282081Y-102852867D01*
X151151392Y-102657276D01*
X151148137Y-102652137D01*
X151131272Y-102624000D01*
X150124000Y-102624000D01*
X150124000Y-104126000D01*
X149126000Y-104126000D01*
X149126000Y-102624000D01*
X147624000Y-102624000D01*
X147624000Y-104126000D01*
X146626000Y-104126000D01*
X146626000Y-102624000D01*
X145124000Y-102624000D01*
X145124000Y-104126000D01*
X144126000Y-104126000D01*
X144126000Y-102624000D01*
X142624000Y-102624000D01*
X142624000Y-104126000D01*
X141626000Y-104126000D01*
X141626000Y-102624000D01*
X140159588Y-102624000D01*
X140149948Y-102633640D01*
X140144704Y-102638588D01*
X140133500Y-102648559D01*
X139135500Y-102648559D01*
X139135500Y-102148693D01*
X139155185Y-102081654D01*
X139207989Y-102035899D01*
X139220490Y-102030989D01*
X139315470Y-101999516D01*
X139435688Y-101925364D01*
X151918416Y-101925364D01*
X151923541Y-101951126D01*
X151923544Y-101951138D01*
X151994809Y-102123189D01*
X151994811Y-102123193D01*
X152098272Y-102278033D01*
X152098278Y-102278041D01*
X152229958Y-102409721D01*
X152229966Y-102409727D01*
X152384806Y-102513188D01*
X152556862Y-102584455D01*
X152556872Y-102584458D01*
X152582635Y-102589582D01*
X152582636Y-102589581D01*
X152582636Y-101925364D01*
X151918416Y-101925364D01*
X139435688Y-101925364D01*
X139464791Y-101907413D01*
X139588847Y-101783357D01*
X139680950Y-101634036D01*
X139683613Y-101626000D01*
X140721660Y-101626000D01*
X141626000Y-101626000D01*
X147624000Y-101626000D01*
X149126000Y-101626000D01*
X149126000Y-101480719D01*
X149067645Y-101475498D01*
X149034380Y-101455962D01*
X149024924Y-101448202D01*
X147624000Y-101448202D01*
X147624000Y-101626000D01*
X141626000Y-101626000D01*
X141626000Y-101448202D01*
X140968158Y-101448202D01*
X140958702Y-101455962D01*
X140894392Y-101483274D01*
X140855845Y-101481725D01*
X140740225Y-101458725D01*
X140726200Y-101596021D01*
X140725329Y-101602730D01*
X140721660Y-101626000D01*
X139683613Y-101626000D01*
X139736135Y-101467499D01*
X139746636Y-101364710D01*
X139746636Y-100899702D01*
X143865780Y-100899702D01*
X143870905Y-100925464D01*
X143870908Y-100925476D01*
X143942173Y-101097527D01*
X143942175Y-101097531D01*
X144045636Y-101252371D01*
X144045642Y-101252379D01*
X144177322Y-101384059D01*
X144177330Y-101384065D01*
X144332170Y-101487526D01*
X144504226Y-101558793D01*
X144504236Y-101558796D01*
X144529999Y-101563920D01*
X145030000Y-101563920D01*
X145055763Y-101558796D01*
X145055773Y-101558793D01*
X145227829Y-101487526D01*
X145382669Y-101384065D01*
X145382677Y-101384059D01*
X145514357Y-101252379D01*
X145514363Y-101252371D01*
X145564858Y-101176800D01*
X150124000Y-101176800D01*
X150124000Y-101626000D01*
X150926264Y-101626000D01*
X150896628Y-101507684D01*
X150895295Y-101453363D01*
X150900865Y-101425363D01*
X151918416Y-101425363D01*
X151918417Y-101425364D01*
X152056120Y-101425364D01*
X152056119Y-101425363D01*
X151929860Y-101384339D01*
X151923544Y-101399590D01*
X151923542Y-101399596D01*
X151918416Y-101425363D01*
X150900865Y-101425363D01*
X150933586Y-101260860D01*
X150918286Y-101242216D01*
X150914540Y-101237416D01*
X150892607Y-101207841D01*
X150889105Y-101202867D01*
X150758416Y-101007276D01*
X150755161Y-101002137D01*
X150736233Y-100970559D01*
X150733233Y-100965263D01*
X150710131Y-100922044D01*
X150707393Y-100916606D01*
X150691646Y-100883312D01*
X150689180Y-100877748D01*
X150601191Y-100665323D01*
X150390375Y-100876139D01*
X150390355Y-100876165D01*
X150232936Y-101033585D01*
X150228525Y-101037784D01*
X150204326Y-101059715D01*
X150199089Y-101086047D01*
X150166704Y-101147959D01*
X150124923Y-101176418D01*
X150124000Y-101176800D01*
X145564858Y-101176800D01*
X145617824Y-101097531D01*
X145617826Y-101097527D01*
X145689091Y-100925476D01*
X145689094Y-100925464D01*
X145694219Y-100899702D01*
X145030000Y-100899702D01*
X145030000Y-101563920D01*
X144529999Y-101563920D01*
X144530000Y-101563919D01*
X144530000Y-100899702D01*
X143865780Y-100899702D01*
X139746636Y-100899702D01*
X139746636Y-99908050D01*
X139766321Y-99841011D01*
X139819125Y-99795256D01*
X139888283Y-99785312D01*
X139951839Y-99814337D01*
X139958311Y-99820364D01*
X140361381Y-100223434D01*
X140361382Y-100223435D01*
X140411414Y-100273467D01*
X140448508Y-100310561D01*
X140550947Y-100379009D01*
X140550956Y-100379014D01*
X140569995Y-100386900D01*
X140664788Y-100426165D01*
X140671097Y-100427420D01*
X140702615Y-100433690D01*
X140702645Y-100433695D01*
X140785630Y-100450201D01*
X140785632Y-100450202D01*
X140785633Y-100450202D01*
X143469069Y-100450202D01*
X143729307Y-100450202D01*
X145830693Y-100450202D01*
X146090931Y-100450202D01*
X149207450Y-100450202D01*
X149207450Y-100450201D01*
X149290437Y-100433695D01*
X149290439Y-100433695D01*
X149309493Y-100429904D01*
X149328294Y-100426165D01*
X149372638Y-100407797D01*
X149442128Y-100379014D01*
X149493351Y-100344786D01*
X149495381Y-100343430D01*
X149517607Y-100328579D01*
X149544575Y-100310560D01*
X149631700Y-100223435D01*
X149631700Y-100223433D01*
X149641908Y-100213226D01*
X149641910Y-100213223D01*
X150674147Y-99180985D01*
X150735468Y-99147502D01*
X150805160Y-99152486D01*
G37*
%TD.AperFunction*%
%TA.AperFunction,Conductor*%
G36*
X148055927Y-110573440D02*
G01*
X148055927Y-110573439D01*
X148094700Y-110520073D01*
X148100534Y-110508625D01*
X148148507Y-110457828D01*
X148216328Y-110441031D01*
X148265590Y-110457817D01*
X148280604Y-110428350D01*
X148328585Y-110522518D01*
X148439694Y-110675448D01*
X148439694Y-110675450D01*
X148453526Y-110694488D01*
X148603849Y-110844811D01*
X148686944Y-110905182D01*
X148729610Y-110960511D01*
X148735589Y-111030125D01*
X148702984Y-111091920D01*
X148642145Y-111126277D01*
X148614059Y-111129500D01*
X147600796Y-111129500D01*
X147707977Y-111074888D01*
X147692487Y-111057011D01*
X147682543Y-110987853D01*
X147700716Y-110948059D01*
X147702374Y-110926993D01*
X147073044Y-110297664D01*
X147136629Y-110280627D01*
X147250643Y-110214801D01*
X147343735Y-110121709D01*
X147409561Y-110007695D01*
X147426598Y-109944111D01*
X148055927Y-110573440D01*
G37*
%TD.AperFunction*%
%TA.AperFunction,Conductor*%
G36*
X120632391Y-99679503D02*
G01*
X120666710Y-99703753D01*
X120716190Y-99753233D01*
X120730809Y-99770837D01*
X120839581Y-99929625D01*
X120850715Y-99949616D01*
X120928453Y-100125675D01*
X120935725Y-100147371D01*
X120980119Y-100336125D01*
X120983115Y-100355927D01*
X120988338Y-100431163D01*
X120988636Y-100439751D01*
X120988636Y-100520444D01*
X121013677Y-100566304D01*
X121008693Y-100635996D01*
X121008083Y-100636944D01*
X121015332Y-100636231D01*
X121026534Y-100634002D01*
X120569180Y-101091356D01*
X120593101Y-101014589D01*
X120546748Y-101011275D01*
X120490814Y-100969404D01*
X120482125Y-100955544D01*
X120356676Y-100914784D01*
X120338699Y-100907338D01*
X120152726Y-100812579D01*
X120136136Y-100802412D01*
X119967283Y-100679734D01*
X119952487Y-100667097D01*
X119804902Y-100519512D01*
X119792265Y-100504716D01*
X119732231Y-100422086D01*
X119708751Y-100356280D01*
X119724577Y-100288226D01*
X119763496Y-100250401D01*
X119750656Y-100225201D01*
X119879726Y-100225201D01*
X119946523Y-100219132D01*
X120082010Y-100176912D01*
X120151871Y-100175761D01*
X120206582Y-100207617D01*
X120301322Y-100302357D01*
X120301330Y-100302363D01*
X120456162Y-100405818D01*
X120456180Y-100405828D01*
X120485388Y-100417926D01*
X120482571Y-100386911D01*
X120482568Y-100386900D01*
X120434708Y-100233308D01*
X120434707Y-100233306D01*
X120353718Y-100099336D01*
X120335881Y-100031781D01*
X120353716Y-99971038D01*
X120435167Y-99836304D01*
X120479001Y-99695633D01*
X120492423Y-99704828D01*
X120493227Y-99705632D01*
X120499380Y-99696397D01*
X120563405Y-99668422D01*
X120632391Y-99679503D01*
G37*
%TD.AperFunction*%
%TA.AperFunction,Conductor*%
G36*
X154328636Y-100540528D02*
G01*
X154362711Y-100667695D01*
X154428537Y-100781709D01*
X154521629Y-100874801D01*
X154635643Y-100940627D01*
X154674893Y-100951144D01*
X154656378Y-100954077D01*
X154636980Y-100955604D01*
X154513079Y-100955604D01*
X154446040Y-100935919D01*
X154425398Y-100919285D01*
X154320677Y-100814564D01*
X154229136Y-100723023D01*
X154229136Y-100535613D01*
X154235978Y-100536974D01*
X154248821Y-100493239D01*
X154301625Y-100447484D01*
X154328636Y-100443600D01*
X154328636Y-100540528D01*
G37*
%TD.AperFunction*%
%TA.AperFunction,Conductor*%
G36*
X156084925Y-99196307D02*
G01*
X156134331Y-99245711D01*
X156149500Y-99305140D01*
X156149500Y-99644853D01*
X156129815Y-99711892D01*
X156077011Y-99757647D01*
X156007853Y-99767591D01*
X155970045Y-99755604D01*
X155961097Y-99755604D01*
X155948442Y-99835510D01*
X155943899Y-99854431D01*
X155879404Y-100052927D01*
X155871958Y-100070904D01*
X155777199Y-100256877D01*
X155767032Y-100273467D01*
X155644354Y-100442320D01*
X155631717Y-100457116D01*
X155484132Y-100604701D01*
X155469336Y-100617338D01*
X155300483Y-100740016D01*
X155283893Y-100750183D01*
X155231533Y-100776861D01*
X155294561Y-100667695D01*
X155328636Y-100540528D01*
X155328636Y-100408876D01*
X155294561Y-100281709D01*
X155228735Y-100167695D01*
X155218149Y-100157109D01*
X155266977Y-100108281D01*
X155266983Y-100108273D01*
X155370444Y-99953433D01*
X155370446Y-99953429D01*
X155441711Y-99781378D01*
X155441714Y-99781366D01*
X155446839Y-99755604D01*
X154656620Y-99755604D01*
X154589581Y-99735919D01*
X154543826Y-99683115D01*
X154532620Y-99631604D01*
X154532620Y-99409201D01*
X154552305Y-99342162D01*
X154605109Y-99296407D01*
X154656620Y-99285201D01*
X155579155Y-99285201D01*
X155726508Y-99285201D01*
X155786119Y-99278793D01*
X155920967Y-99228498D01*
X155979526Y-99184659D01*
X155987279Y-99192412D01*
X156016652Y-99181456D01*
X156084925Y-99196307D01*
G37*
%TD.AperFunction*%
%TA.AperFunction,Conductor*%
G36*
X119369175Y-100244886D02*
G01*
X119414930Y-100297690D01*
X119426136Y-100349201D01*
X119426136Y-100545702D01*
X119406451Y-100612741D01*
X119353647Y-100658496D01*
X119302136Y-100669702D01*
X119050136Y-100669702D01*
X118983097Y-100650017D01*
X118937342Y-100597213D01*
X118926136Y-100545702D01*
X118926136Y-100349201D01*
X118945821Y-100282162D01*
X118998625Y-100236407D01*
X119050136Y-100225201D01*
X119302136Y-100225201D01*
X119369175Y-100244886D01*
G37*
%TD.AperFunction*%
%TA.AperFunction,Conductor*%
G36*
X122552462Y-94791987D02*
G01*
X122608395Y-94833858D01*
X122623687Y-94860711D01*
X122630958Y-94878263D01*
X122645988Y-94914549D01*
X122645990Y-94914553D01*
X122744535Y-95062034D01*
X122744538Y-95062038D01*
X122869961Y-95187461D01*
X122869965Y-95187464D01*
X123017446Y-95286009D01*
X123017459Y-95286016D01*
X123113875Y-95325952D01*
X123181334Y-95353894D01*
X123181336Y-95353894D01*
X123181341Y-95353896D01*
X123355304Y-95388499D01*
X123355307Y-95388500D01*
X123355309Y-95388500D01*
X123532693Y-95388500D01*
X123532694Y-95388499D01*
X123590682Y-95376964D01*
X123706658Y-95353896D01*
X123706661Y-95353894D01*
X123706666Y-95353894D01*
X123870547Y-95286013D01*
X124018035Y-95187464D01*
X124069500Y-95135999D01*
X124136479Y-95069021D01*
X124197802Y-95035536D01*
X124224160Y-95032702D01*
X125175149Y-95032702D01*
X125242188Y-95052387D01*
X125262830Y-95069021D01*
X125289244Y-95095435D01*
X125289246Y-95095436D01*
X125289248Y-95095438D01*
X125427034Y-95178733D01*
X125580749Y-95226632D01*
X125647545Y-95232702D01*
X126789136Y-95232701D01*
X126856175Y-95252386D01*
X126901930Y-95305189D01*
X126913136Y-95356701D01*
X126913136Y-97219030D01*
X126903727Y-97212744D01*
X126893451Y-97247741D01*
X126840647Y-97293496D01*
X126789136Y-97304702D01*
X126601136Y-97304702D01*
X126601136Y-98005702D01*
X126581451Y-98072741D01*
X126528647Y-98118496D01*
X126477136Y-98129702D01*
X126351136Y-98129702D01*
X126351136Y-98255702D01*
X126331451Y-98322741D01*
X126278647Y-98368496D01*
X126227136Y-98379702D01*
X125436916Y-98379702D01*
X125442041Y-98405464D01*
X125442044Y-98405476D01*
X125472032Y-98477874D01*
X125479501Y-98547343D01*
X125448225Y-98609822D01*
X125421622Y-98631442D01*
X125406433Y-98640623D01*
X125406433Y-98640624D01*
X125289248Y-98711466D01*
X125276512Y-98724202D01*
X123149605Y-98724202D01*
X123149603Y-98724202D01*
X123019105Y-98750160D01*
X123019095Y-98750163D01*
X122896173Y-98801078D01*
X122896160Y-98801085D01*
X122821507Y-98850968D01*
X122785527Y-98875008D01*
X122785524Y-98875011D01*
X122225473Y-99435062D01*
X122225473Y-99435063D01*
X121970002Y-99690534D01*
X121972231Y-99679332D01*
X121973425Y-99667208D01*
X121973425Y-99631030D01*
X121930091Y-99627931D01*
X121874158Y-99586059D01*
X121849741Y-99520595D01*
X121849425Y-99511749D01*
X121849425Y-99474883D01*
X121849424Y-99474879D01*
X121813094Y-99292237D01*
X121813091Y-99292225D01*
X121741826Y-99120174D01*
X121741824Y-99120170D01*
X121638363Y-98965330D01*
X121638357Y-98965322D01*
X121506677Y-98833642D01*
X121506669Y-98833636D01*
X121351829Y-98730175D01*
X121351825Y-98730173D01*
X121179774Y-98658908D01*
X121179762Y-98658905D01*
X121154000Y-98653780D01*
X121154000Y-99444000D01*
X121134315Y-99511039D01*
X121081511Y-99556794D01*
X121030000Y-99568000D01*
X120778000Y-99568000D01*
X120710961Y-99548315D01*
X120665206Y-99495511D01*
X120654000Y-99444000D01*
X120654000Y-99108361D01*
X120647989Y-99105871D01*
X120605386Y-99129134D01*
X120535694Y-99124149D01*
X120494035Y-99092962D01*
X120492423Y-99094575D01*
X120479000Y-99103769D01*
X120435167Y-98963100D01*
X120351872Y-98825314D01*
X120238024Y-98711466D01*
X120100238Y-98628171D01*
X119999858Y-98596891D01*
X120017822Y-98578928D01*
X119991338Y-98518307D01*
X120002421Y-98449322D01*
X120041465Y-98402368D01*
X120072663Y-98379702D01*
X119426136Y-98379702D01*
X119426136Y-98450202D01*
X119406451Y-98517241D01*
X119353647Y-98562996D01*
X119302136Y-98574202D01*
X119050136Y-98574202D01*
X118983097Y-98554517D01*
X118937342Y-98501713D01*
X118926136Y-98450202D01*
X118926136Y-97879702D01*
X119426136Y-97879702D01*
X120485551Y-97879702D01*
X120485550Y-97879701D01*
X125436916Y-97879701D01*
X125436917Y-97879702D01*
X126101136Y-97879702D01*
X126101136Y-97304702D01*
X125884116Y-97304702D01*
X125748459Y-97395343D01*
X125616778Y-97527024D01*
X125616772Y-97527032D01*
X125513311Y-97681872D01*
X125513309Y-97681876D01*
X125442044Y-97853927D01*
X125442041Y-97853939D01*
X125436916Y-97879701D01*
X120485550Y-97879701D01*
X120482571Y-97846909D01*
X120482568Y-97846899D01*
X120478421Y-97833590D01*
X122624000Y-97833590D01*
X122659820Y-97818754D01*
X122665496Y-97816564D01*
X122700156Y-97804162D01*
X122705935Y-97802253D01*
X122752829Y-97788027D01*
X122758695Y-97786404D01*
X122794419Y-97777455D01*
X122800358Y-97776121D01*
X122978935Y-97740598D01*
X122984933Y-97739557D01*
X123021366Y-97734153D01*
X123027408Y-97733408D01*
X123076181Y-97728605D01*
X123082250Y-97728157D01*
X123119022Y-97726351D01*
X123125105Y-97726202D01*
X124126000Y-97726202D01*
X124126000Y-97624000D01*
X122624000Y-97624000D01*
X122624000Y-97833590D01*
X120478421Y-97833590D01*
X120434708Y-97693309D01*
X120351472Y-97555621D01*
X120237716Y-97441865D01*
X120100032Y-97358631D01*
X119946428Y-97310767D01*
X119879679Y-97304702D01*
X119426136Y-97304702D01*
X119426136Y-97879702D01*
X118926136Y-97879702D01*
X118926136Y-97304702D01*
X118472593Y-97304702D01*
X118405843Y-97310767D01*
X118252239Y-97358631D01*
X118161650Y-97413395D01*
X118094095Y-97431231D01*
X118027622Y-97409713D01*
X118002274Y-97378784D01*
X117973500Y-97407558D01*
X117973500Y-96208881D01*
X120124000Y-96208881D01*
X120124000Y-96328536D01*
X120167013Y-96337092D01*
X120173405Y-96338541D01*
X120211834Y-96348321D01*
X120218141Y-96350104D01*
X120425735Y-96414792D01*
X120432815Y-96417236D01*
X120475200Y-96433310D01*
X120482123Y-96436177D01*
X120537137Y-96460938D01*
X120543870Y-96464217D01*
X120584002Y-96485280D01*
X120590526Y-96488959D01*
X120779826Y-96603396D01*
X120786114Y-96607462D01*
X120812972Y-96626000D01*
X121626000Y-96626000D01*
X122624000Y-96626000D01*
X124126000Y-96626000D01*
X124126000Y-96616768D01*
X125124000Y-96616768D01*
X125134283Y-96608329D01*
X125139082Y-96604584D01*
X125168657Y-96582650D01*
X125173633Y-96579145D01*
X125390951Y-96433940D01*
X125406824Y-96424949D01*
X125506843Y-96377643D01*
X125523863Y-96371077D01*
X125664947Y-96328278D01*
X125682749Y-96324280D01*
X125792201Y-96308044D01*
X125810396Y-96306702D01*
X125915136Y-96306702D01*
X125915136Y-96230701D01*
X125636224Y-96230702D01*
X125633412Y-96230670D01*
X125616394Y-96230284D01*
X125613580Y-96230188D01*
X125590991Y-96229162D01*
X125588189Y-96229003D01*
X125571265Y-96227850D01*
X125568471Y-96227628D01*
X125464149Y-96218148D01*
X125457639Y-96217383D01*
X125418390Y-96211712D01*
X125411931Y-96210604D01*
X125360168Y-96200308D01*
X125353774Y-96198859D01*
X125315344Y-96189078D01*
X125309040Y-96187295D01*
X125124000Y-96129635D01*
X125124000Y-96616768D01*
X124126000Y-96616768D01*
X124126000Y-96260427D01*
X124065949Y-96285301D01*
X124060272Y-96287491D01*
X124025620Y-96299890D01*
X124019845Y-96301798D01*
X123972952Y-96316025D01*
X123967084Y-96317649D01*
X123931349Y-96326601D01*
X123925408Y-96327935D01*
X123703357Y-96372104D01*
X123697360Y-96373145D01*
X123660929Y-96378549D01*
X123654888Y-96379294D01*
X123606116Y-96384097D01*
X123600046Y-96384545D01*
X123563274Y-96386351D01*
X123557191Y-96386500D01*
X123330809Y-96386500D01*
X123324726Y-96386351D01*
X123287954Y-96384545D01*
X123281884Y-96384097D01*
X123233112Y-96379294D01*
X123227071Y-96378549D01*
X123190640Y-96373145D01*
X123184643Y-96372104D01*
X122962592Y-96327935D01*
X122956651Y-96326601D01*
X122920916Y-96317649D01*
X122915048Y-96316025D01*
X122868155Y-96301798D01*
X122862380Y-96299890D01*
X122827728Y-96287491D01*
X122822051Y-96285301D01*
X122624000Y-96203266D01*
X122624000Y-96626000D01*
X121626000Y-96626000D01*
X121626000Y-96080702D01*
X120527841Y-96080702D01*
X120482328Y-96101186D01*
X120475409Y-96104053D01*
X120433026Y-96120127D01*
X120425944Y-96122570D01*
X120218233Y-96187295D01*
X120211928Y-96189079D01*
X120173491Y-96198862D01*
X120167094Y-96200311D01*
X120124000Y-96208881D01*
X117973500Y-96208881D01*
X117973500Y-95230210D01*
X117993185Y-95163171D01*
X118045989Y-95117416D01*
X118115147Y-95107472D01*
X118161647Y-95124092D01*
X118252034Y-95178733D01*
X118405749Y-95226632D01*
X118472545Y-95232702D01*
X119879726Y-95232701D01*
X119879733Y-95232701D01*
X119946518Y-95226633D01*
X119946521Y-95226632D01*
X119946523Y-95226632D01*
X120100238Y-95178733D01*
X120229510Y-95100584D01*
X120293659Y-95082702D01*
X121945966Y-95082702D01*
X121945967Y-95082701D01*
X122076470Y-95056743D01*
X122199403Y-95005822D01*
X122310040Y-94931897D01*
X122421448Y-94820488D01*
X122482770Y-94787003D01*
X122552462Y-94791987D01*
G37*
%TD.AperFunction*%
%TA.AperFunction,Conductor*%
G36*
X141496175Y-92879887D02*
G01*
X141541930Y-92932691D01*
X141553136Y-92984202D01*
X141553136Y-93559703D01*
X141553137Y-93559721D01*
X141563636Y-93662498D01*
X141563637Y-93662501D01*
X141618821Y-93829033D01*
X141618823Y-93829038D01*
X141631262Y-93849205D01*
X141710924Y-93978358D01*
X141834980Y-94102414D01*
X141984302Y-94194516D01*
X142059529Y-94219443D01*
X142116973Y-94259216D01*
X142143796Y-94323731D01*
X142131481Y-94392507D01*
X142108206Y-94424830D01*
X141998940Y-94534096D01*
X141925019Y-94644726D01*
X141925014Y-94644736D01*
X141874095Y-94767665D01*
X141874093Y-94767673D01*
X141860742Y-94834796D01*
X141852262Y-94877428D01*
X141848136Y-94898171D01*
X141848136Y-96610371D01*
X141804980Y-96636990D01*
X141777674Y-96664295D01*
X141784231Y-96631332D01*
X141785425Y-96619208D01*
X141785425Y-96420792D01*
X141784231Y-96408668D01*
X141757584Y-96274704D01*
X141706489Y-96282051D01*
X141642933Y-96253026D01*
X141609575Y-96206765D01*
X141553826Y-96072174D01*
X141553824Y-96072170D01*
X141450363Y-95917330D01*
X141450357Y-95917322D01*
X141318677Y-95785642D01*
X141318669Y-95785636D01*
X141163829Y-95682175D01*
X141163825Y-95682173D01*
X140991774Y-95610908D01*
X140991762Y-95610905D01*
X140966000Y-95605780D01*
X140966000Y-97434218D01*
X140991763Y-97429094D01*
X140991773Y-97429091D01*
X141163829Y-97357824D01*
X141318661Y-97254369D01*
X141320465Y-97252889D01*
X141321595Y-97252408D01*
X141323740Y-97250976D01*
X141324011Y-97251382D01*
X141384774Y-97225573D01*
X141453642Y-97237360D01*
X141483622Y-97264774D01*
X141523136Y-97225260D01*
X141523136Y-97572606D01*
X141523136Y-97572607D01*
X141523136Y-98229703D01*
X141523137Y-98229721D01*
X141533636Y-98332498D01*
X141533637Y-98332501D01*
X141588821Y-98499033D01*
X141588823Y-98499038D01*
X141597956Y-98513844D01*
X141626490Y-98560106D01*
X141644930Y-98627498D01*
X141624007Y-98694161D01*
X141570365Y-98738931D01*
X141520951Y-98749202D01*
X141344089Y-98749202D01*
X141277050Y-98729517D01*
X141256408Y-98712883D01*
X140333472Y-97789947D01*
X140333471Y-97789946D01*
X139446051Y-96902526D01*
X139313525Y-96770000D01*
X139801780Y-96770000D01*
X139806905Y-96795762D01*
X139806908Y-96795774D01*
X139878173Y-96967824D01*
X139917377Y-97026497D01*
X139938255Y-97093175D01*
X139919770Y-97160555D01*
X139881054Y-97195331D01*
X139881922Y-97196630D01*
X139889651Y-97206048D01*
X140029952Y-97346349D01*
X140039370Y-97354078D01*
X140041542Y-97355529D01*
X140066301Y-97322457D01*
X140131765Y-97298040D01*
X140200038Y-97312892D01*
X140209502Y-97318622D01*
X140268173Y-97357825D01*
X140440226Y-97429091D01*
X140440236Y-97429094D01*
X140465999Y-97434218D01*
X140466000Y-97434217D01*
X140466000Y-96770000D01*
X139801780Y-96770000D01*
X139313525Y-96770000D01*
X138813524Y-96269999D01*
X139801780Y-96269999D01*
X139801781Y-96270000D01*
X140466000Y-96270000D01*
X140466000Y-95605781D01*
X140465999Y-95605780D01*
X140440237Y-95610905D01*
X140440225Y-95610908D01*
X140268174Y-95682173D01*
X140268170Y-95682175D01*
X140113330Y-95785636D01*
X140113322Y-95785642D01*
X139981642Y-95917322D01*
X139981636Y-95917330D01*
X139878175Y-96072170D01*
X139878173Y-96072174D01*
X139806908Y-96244225D01*
X139806905Y-96244237D01*
X139801780Y-96269999D01*
X138813524Y-96269999D01*
X138475454Y-95931929D01*
X138441969Y-95870606D01*
X138439135Y-95844248D01*
X138439135Y-95534201D01*
X138458820Y-95467162D01*
X138511624Y-95421407D01*
X138563135Y-95410201D01*
X139737198Y-95410201D01*
X139848482Y-95395551D01*
X139848481Y-95395551D01*
X139848490Y-95395550D01*
X139986967Y-95338191D01*
X140105880Y-95246946D01*
X140197125Y-95128033D01*
X140254484Y-94989556D01*
X140269136Y-94878263D01*
X140269135Y-94391142D01*
X140268029Y-94382743D01*
X140254485Y-94279855D01*
X140254484Y-94279854D01*
X140254484Y-94279848D01*
X140254481Y-94279842D01*
X140252381Y-94272002D01*
X140254097Y-94271542D01*
X140247701Y-94212028D01*
X140252022Y-94197315D01*
X140251893Y-94197281D01*
X140253996Y-94189431D01*
X140267784Y-94084702D01*
X140214791Y-94084702D01*
X140147752Y-94065017D01*
X140116415Y-94036188D01*
X140113379Y-94032231D01*
X140105880Y-94022458D01*
X139989396Y-93933077D01*
X139948194Y-93876650D01*
X139944039Y-93806904D01*
X139978251Y-93745984D01*
X139989392Y-93736329D01*
X140105880Y-93646946D01*
X140116415Y-93633215D01*
X140172843Y-93592013D01*
X140214791Y-93584702D01*
X140267784Y-93584702D01*
X140253996Y-93479973D01*
X140251893Y-93472124D01*
X140253960Y-93471570D01*
X140247701Y-93413335D01*
X140252404Y-93397317D01*
X140254483Y-93389560D01*
X140254794Y-93387202D01*
X140269136Y-93278263D01*
X140269135Y-92873452D01*
X140305151Y-92903010D01*
X140341623Y-92871408D01*
X140393135Y-92860202D01*
X141429136Y-92860202D01*
X141496175Y-92879887D01*
G37*
%TD.AperFunction*%
%TA.AperFunction,Conductor*%
G36*
X145799635Y-97286002D02*
G01*
X146106817Y-97593184D01*
X146140302Y-97654507D01*
X146143136Y-97680865D01*
X146143136Y-98199703D01*
X146143137Y-98199721D01*
X146153636Y-98302498D01*
X146153637Y-98302501D01*
X146208821Y-98469033D01*
X146208823Y-98469038D01*
X146215401Y-98479702D01*
X146264994Y-98560106D01*
X146283434Y-98627498D01*
X146262511Y-98694161D01*
X146208869Y-98738931D01*
X146159455Y-98749202D01*
X145225000Y-98749202D01*
X145225000Y-98479702D01*
X145187768Y-98442470D01*
X145154283Y-98381147D01*
X145159267Y-98311455D01*
X145172347Y-98285898D01*
X145261462Y-98152526D01*
X145332727Y-97980476D01*
X145332730Y-97980464D01*
X145337855Y-97954702D01*
X144547636Y-97954702D01*
X144480597Y-97935017D01*
X144434842Y-97882213D01*
X144423636Y-97830702D01*
X144423636Y-97578702D01*
X144443321Y-97511663D01*
X144496125Y-97465908D01*
X144547636Y-97454702D01*
X145337855Y-97454702D01*
X145337855Y-97454701D01*
X145332730Y-97428939D01*
X145332728Y-97428931D01*
X145309004Y-97371655D01*
X145301535Y-97302185D01*
X145332810Y-97239706D01*
X145377566Y-97213150D01*
X145373691Y-97203794D01*
X145371771Y-97200202D01*
X145713835Y-97200202D01*
X145799635Y-97286002D01*
G37*
%TD.AperFunction*%
%TA.AperFunction,Conductor*%
G36*
X148099572Y-98689290D02*
G01*
X148108531Y-98700620D01*
X148157113Y-98749202D01*
X147851287Y-98749202D01*
X147862292Y-98742414D01*
X147940574Y-98664131D01*
X148024734Y-98647391D01*
X148063758Y-98631226D01*
X148099572Y-98689290D01*
G37*
%TD.AperFunction*%
%TA.AperFunction,Conductor*%
G36*
X131231175Y-95429886D02*
G01*
X131276930Y-95482690D01*
X131288136Y-95534201D01*
X131288136Y-95844248D01*
X131268451Y-95911287D01*
X131251817Y-95931929D01*
X130819924Y-96363820D01*
X130819922Y-96363823D01*
X129891823Y-97291923D01*
X129891821Y-97291924D01*
X129450816Y-97732930D01*
X129389493Y-97766415D01*
X129319801Y-97761431D01*
X129263868Y-97719559D01*
X129239451Y-97654095D01*
X129239135Y-97645249D01*
X129239135Y-97306875D01*
X129239135Y-97042530D01*
X129239135Y-97026609D01*
X129258820Y-96959570D01*
X129284469Y-96930757D01*
X129289999Y-96926218D01*
X129790000Y-96926218D01*
X129815763Y-96921094D01*
X129815773Y-96921091D01*
X129987829Y-96849824D01*
X129993197Y-96846955D01*
X129994361Y-96849132D01*
X130050677Y-96831485D01*
X130118062Y-96849955D01*
X130152866Y-96888683D01*
X130216630Y-96846078D01*
X130226048Y-96838349D01*
X130366349Y-96698048D01*
X130374078Y-96688630D01*
X130417270Y-96623986D01*
X130384198Y-96599228D01*
X130359781Y-96533764D01*
X130374633Y-96465491D01*
X130376032Y-96463180D01*
X130377826Y-96459825D01*
X130449091Y-96287774D01*
X130449094Y-96287762D01*
X130454219Y-96262000D01*
X129790000Y-96262000D01*
X129790000Y-96926218D01*
X129289999Y-96926218D01*
X129290000Y-96926217D01*
X129290000Y-96136000D01*
X129309685Y-96068961D01*
X129362489Y-96023206D01*
X129414000Y-96012000D01*
X129540000Y-96012000D01*
X129540000Y-95886000D01*
X129559685Y-95818961D01*
X129612489Y-95773206D01*
X129664000Y-95762000D01*
X130454219Y-95762000D01*
X130454219Y-95761999D01*
X130449094Y-95736237D01*
X130449091Y-95736225D01*
X130385066Y-95581653D01*
X130377597Y-95512184D01*
X130408872Y-95449705D01*
X130438663Y-95432029D01*
X130424078Y-95410201D01*
X131164136Y-95410201D01*
X131231175Y-95429886D01*
G37*
%TD.AperFunction*%
%TA.AperFunction,Conductor*%
G36*
X146160226Y-89019887D02*
G01*
X146205981Y-89072691D01*
X146210892Y-89085195D01*
X146212438Y-89089861D01*
X146213822Y-89094036D01*
X146305924Y-89243358D01*
X146429980Y-89367414D01*
X146579302Y-89459516D01*
X146745839Y-89514701D01*
X146848627Y-89525202D01*
X147473644Y-89525201D01*
X147473652Y-89525200D01*
X147473655Y-89525200D01*
X147529938Y-89519450D01*
X147576433Y-89514701D01*
X147742970Y-89459516D01*
X147892292Y-89367414D01*
X147985955Y-89273751D01*
X148047278Y-89240266D01*
X148116970Y-89245250D01*
X148161317Y-89273751D01*
X148254980Y-89367414D01*
X148404302Y-89459516D01*
X148570839Y-89514701D01*
X148673627Y-89525202D01*
X149298644Y-89525201D01*
X149313767Y-89523656D01*
X149382460Y-89536425D01*
X149433345Y-89584306D01*
X149450266Y-89652095D01*
X149427851Y-89718272D01*
X149414051Y-89734695D01*
X148559213Y-90589534D01*
X147704905Y-91443842D01*
X147704903Y-91443844D01*
X147617778Y-91530969D01*
X147594681Y-91565536D01*
X147549324Y-91633416D01*
X147527716Y-91685583D01*
X147527714Y-91685583D01*
X147525487Y-91690962D01*
X147525487Y-91690965D01*
X147510082Y-91728154D01*
X147466243Y-91782557D01*
X147416835Y-91799002D01*
X147411136Y-91804702D01*
X147411136Y-94204701D01*
X147441817Y-94235382D01*
X147475302Y-94296705D01*
X147478136Y-94323063D01*
X147478136Y-94328631D01*
X147478136Y-94580701D01*
X147478136Y-95180502D01*
X147490154Y-95240921D01*
X147499124Y-95286016D01*
X147502173Y-95301345D01*
X147515889Y-95334457D01*
X147515889Y-95334458D01*
X147549321Y-95415172D01*
X147549326Y-95415181D01*
X147576133Y-95455299D01*
X147576134Y-95455301D01*
X147617776Y-95517623D01*
X147617777Y-95517624D01*
X147617778Y-95517625D01*
X147704903Y-95604750D01*
X147704904Y-95604750D01*
X147711971Y-95611817D01*
X147711970Y-95611817D01*
X147711974Y-95611820D01*
X148291309Y-96191155D01*
X148482290Y-96382136D01*
X148470193Y-96386145D01*
X148484306Y-96411990D01*
X148479322Y-96481682D01*
X148437450Y-96537615D01*
X148428238Y-96543886D01*
X148325292Y-96607384D01*
X148201319Y-96731357D01*
X148201317Y-96731360D01*
X148199465Y-96734363D01*
X148197657Y-96735988D01*
X148196838Y-96737025D01*
X148196660Y-96736884D01*
X148147516Y-96781085D01*
X148078553Y-96792305D01*
X148030827Y-96771566D01*
X148021083Y-96787362D01*
X147986348Y-96731046D01*
X147862292Y-96606990D01*
X147842778Y-96594954D01*
X147842779Y-96594954D01*
X147712972Y-96514889D01*
X147712967Y-96514887D01*
X147683610Y-96505159D01*
X147546433Y-96459703D01*
X147546431Y-96459702D01*
X147443652Y-96449202D01*
X147443645Y-96449202D01*
X146924799Y-96449202D01*
X146857760Y-96429517D01*
X146837118Y-96412883D01*
X146424245Y-96000009D01*
X146424241Y-96000006D01*
X146313611Y-95926085D01*
X146313601Y-95926080D01*
X146190672Y-95875161D01*
X146190664Y-95875159D01*
X146060171Y-95849202D01*
X146060167Y-95849202D01*
X143770167Y-95849202D01*
X143637105Y-95849202D01*
X143637100Y-95849202D01*
X143506607Y-95875159D01*
X143506599Y-95875161D01*
X143383661Y-95926083D01*
X143381577Y-95927198D01*
X143380361Y-95927450D01*
X143378039Y-95928413D01*
X143377856Y-95927972D01*
X143313172Y-95941432D01*
X143247931Y-95916424D01*
X143206567Y-95860114D01*
X143199136Y-95817833D01*
X143199136Y-95295864D01*
X143218821Y-95228825D01*
X143235451Y-95208187D01*
X144147118Y-94296519D01*
X144208441Y-94263035D01*
X144234799Y-94260201D01*
X144753638Y-94260201D01*
X144753644Y-94260201D01*
X144856433Y-94249701D01*
X145022970Y-94194516D01*
X145172292Y-94102414D01*
X145296348Y-93978358D01*
X145388450Y-93829036D01*
X145443635Y-93662499D01*
X145454136Y-93559711D01*
X145454136Y-93504688D01*
X146148637Y-93504688D01*
X146159130Y-93607399D01*
X146214277Y-93773821D01*
X146214279Y-93773826D01*
X146306320Y-93923047D01*
X146430290Y-94047017D01*
X146579511Y-94139058D01*
X146579516Y-94139060D01*
X146745938Y-94194207D01*
X146745945Y-94194208D01*
X146848655Y-94204701D01*
X146911135Y-94204700D01*
X146911136Y-94204700D01*
X146911136Y-93254702D01*
X146148637Y-93254702D01*
X146148637Y-93504688D01*
X145454136Y-93504688D01*
X145454135Y-92509694D01*
X145453626Y-92504715D01*
X146148636Y-92504715D01*
X146148636Y-92754702D01*
X146911136Y-92754702D01*
X146911136Y-91804702D01*
X146911135Y-91804701D01*
X146848664Y-91804702D01*
X146848647Y-91804703D01*
X146745938Y-91815196D01*
X146579516Y-91870343D01*
X146579511Y-91870345D01*
X146430290Y-91962386D01*
X146306320Y-92086356D01*
X146214279Y-92235577D01*
X146214277Y-92235582D01*
X146159130Y-92402004D01*
X146159129Y-92402011D01*
X146148636Y-92504715D01*
X145453626Y-92504715D01*
X145443635Y-92406905D01*
X145443634Y-92406902D01*
X145428852Y-92362293D01*
X145388450Y-92240368D01*
X145296348Y-92091046D01*
X145172292Y-91966990D01*
X145167185Y-91961883D01*
X145169071Y-91959996D01*
X145135848Y-91913077D01*
X145129136Y-91872834D01*
X145129136Y-90980273D01*
X146127136Y-90980273D01*
X146131433Y-90978116D01*
X146184079Y-90953568D01*
X146190703Y-90950711D01*
X146231254Y-90934602D01*
X146238029Y-90932136D01*
X146457872Y-90859286D01*
X146464349Y-90857334D01*
X146503844Y-90846598D01*
X146510416Y-90845003D01*
X146563669Y-90833604D01*
X146570319Y-90832369D01*
X146610729Y-90826000D01*
X146617432Y-90825130D01*
X146626000Y-90824254D01*
X146626000Y-90505653D01*
X146617317Y-90504766D01*
X146610608Y-90503895D01*
X146570179Y-90497521D01*
X146563528Y-90496286D01*
X146510277Y-90484884D01*
X146503710Y-90483289D01*
X146464236Y-90472558D01*
X146457761Y-90470607D01*
X146237818Y-90397725D01*
X146231040Y-90395258D01*
X146190489Y-90379148D01*
X146183870Y-90376293D01*
X146131224Y-90351746D01*
X146127136Y-90349693D01*
X146127136Y-90980273D01*
X145129136Y-90980273D01*
X145129136Y-89416932D01*
X145148821Y-89349893D01*
X145165455Y-89329251D01*
X145204801Y-89289905D01*
X145251348Y-89243358D01*
X145343450Y-89094036D01*
X145346380Y-89085195D01*
X145386154Y-89027751D01*
X145450671Y-89000930D01*
X145464085Y-89000202D01*
X146093187Y-89000202D01*
X146160226Y-89019887D01*
G37*
%TD.AperFunction*%
%TA.AperFunction,Conductor*%
G36*
X129458137Y-94878262D02*
G01*
X129466603Y-94942575D01*
X129440792Y-94942575D01*
X129428668Y-94943769D01*
X129239135Y-94981469D01*
X129239135Y-94717123D01*
X129435640Y-94686000D01*
X129458137Y-94686000D01*
X129458137Y-94878262D01*
G37*
%TD.AperFunction*%
%TA.AperFunction,Conductor*%
G36*
X137765530Y-92900210D02*
G01*
X137798136Y-92873451D01*
X137798136Y-93232345D01*
X137798136Y-93232347D01*
X137798136Y-93278264D01*
X137812786Y-93389553D01*
X137814891Y-93397406D01*
X137813175Y-93397865D01*
X137819569Y-93457383D01*
X137815251Y-93472088D01*
X137815379Y-93472123D01*
X137813275Y-93479973D01*
X137798636Y-93591164D01*
X137798636Y-93662396D01*
X137801147Y-93659885D01*
X137862470Y-93626399D01*
X137932162Y-93631383D01*
X137964314Y-93649188D01*
X138080305Y-93738191D01*
X138200400Y-93787936D01*
X138171416Y-93827831D01*
X138105919Y-93893327D01*
X138089019Y-93923421D01*
X138077874Y-93933078D01*
X138027567Y-93971679D01*
X138027561Y-93971684D01*
X138002526Y-93990894D01*
X137977329Y-94009202D01*
X137565793Y-94009202D01*
X137334955Y-93778364D01*
X137301470Y-93717041D01*
X137298636Y-93690683D01*
X137298636Y-93582042D01*
X137299233Y-93569889D01*
X137312902Y-93431096D01*
X137317644Y-93407254D01*
X137371667Y-93229164D01*
X137380970Y-93206706D01*
X137468695Y-93042584D01*
X137482200Y-93022372D01*
X137578283Y-92905295D01*
X137636029Y-92865961D01*
X137705873Y-92864090D01*
X137765530Y-92900210D01*
G37*
%TD.AperFunction*%
%TA.AperFunction,Conductor*%
G36*
X129458136Y-90832346D02*
G01*
X129427261Y-90872584D01*
X129419133Y-90886661D01*
X129355604Y-91040034D01*
X129351397Y-91055735D01*
X129335167Y-91179011D01*
X129334636Y-91187113D01*
X129334636Y-91682291D01*
X129335167Y-91690393D01*
X129351397Y-91813669D01*
X129355604Y-91829370D01*
X129421583Y-91988659D01*
X129458136Y-92001738D01*
X129458136Y-92467664D01*
X129421583Y-92480744D01*
X129355604Y-92640034D01*
X129351397Y-92655735D01*
X129335167Y-92779011D01*
X129334636Y-92787113D01*
X129334636Y-93282291D01*
X129335167Y-93290393D01*
X129351397Y-93413669D01*
X129355604Y-93429370D01*
X129419133Y-93582743D01*
X129427261Y-93596820D01*
X129458136Y-93637056D01*
X129458136Y-93995951D01*
X129356114Y-93912223D01*
X129239135Y-93769684D01*
X129239135Y-92299012D01*
X129256908Y-92265762D01*
X129256908Y-92203642D01*
X129239135Y-92170390D01*
X129239135Y-90699718D01*
X129356114Y-90557180D01*
X129458136Y-90473452D01*
X129458136Y-90832346D01*
G37*
%TD.AperFunction*%
%TA.AperFunction,Conductor*%
G36*
X117980268Y-93866113D02*
G01*
X117973500Y-93877311D01*
X117973500Y-93859345D01*
X117980268Y-93866113D01*
G37*
%TD.AperFunction*%
%TA.AperFunction,Conductor*%
G36*
X123129039Y-85363685D02*
G01*
X123174794Y-85416489D01*
X123186000Y-85468000D01*
X123186000Y-86258217D01*
X123202188Y-86271504D01*
X123214536Y-86272609D01*
X123269713Y-86315472D01*
X123284437Y-86357209D01*
X123293136Y-86353605D01*
X123293136Y-86456557D01*
X123293136Y-86579771D01*
X123301062Y-86619621D01*
X123301062Y-86619622D01*
X123304524Y-86637028D01*
X123305154Y-86640193D01*
X123317173Y-86700616D01*
X123317174Y-86700619D01*
X123317175Y-86700623D01*
X123321627Y-86711370D01*
X123321628Y-86711372D01*
X123364321Y-86814445D01*
X123364323Y-86814448D01*
X123364324Y-86814450D01*
X123378636Y-86835868D01*
X123384997Y-86845388D01*
X123384998Y-86845390D01*
X123432777Y-86916896D01*
X123432780Y-86916900D01*
X123524222Y-87008342D01*
X123524244Y-87008362D01*
X123706817Y-87190935D01*
X123740302Y-87252258D01*
X123743136Y-87278616D01*
X123743136Y-87658590D01*
X123757915Y-87770853D01*
X123757918Y-87770864D01*
X123815778Y-87910552D01*
X123815779Y-87910554D01*
X123815780Y-87910555D01*
X123907826Y-88030512D01*
X124027783Y-88122558D01*
X124027784Y-88122558D01*
X124027785Y-88122559D01*
X124058308Y-88135202D01*
X124167477Y-88180421D01*
X124279749Y-88195202D01*
X124414136Y-88195201D01*
X124481175Y-88214885D01*
X124526930Y-88267689D01*
X124538136Y-88319201D01*
X124538136Y-89370347D01*
X124518451Y-89437386D01*
X124465647Y-89483141D01*
X124396489Y-89493085D01*
X124345246Y-89473449D01*
X124190833Y-89370274D01*
X124190819Y-89370266D01*
X124017842Y-89298617D01*
X124017834Y-89298615D01*
X123834211Y-89262090D01*
X123834207Y-89262090D01*
X123646975Y-89262090D01*
X123646970Y-89262090D01*
X123463347Y-89298615D01*
X123463339Y-89298617D01*
X123290362Y-89370266D01*
X123290353Y-89370271D01*
X123134683Y-89474287D01*
X123134679Y-89474290D01*
X123002291Y-89606678D01*
X123002288Y-89606682D01*
X122898272Y-89762352D01*
X122898267Y-89762361D01*
X122826618Y-89935338D01*
X122826616Y-89935346D01*
X122790091Y-90118969D01*
X122790091Y-90306210D01*
X122826616Y-90489833D01*
X122826618Y-90489841D01*
X122898267Y-90662818D01*
X122898272Y-90662827D01*
X123002288Y-90818497D01*
X123002291Y-90818501D01*
X123134679Y-90950889D01*
X123134683Y-90950892D01*
X123290353Y-91054908D01*
X123290362Y-91054913D01*
X123308662Y-91062493D01*
X123463340Y-91126563D01*
X123530260Y-91139874D01*
X123592170Y-91172258D01*
X123626744Y-91232974D01*
X123623005Y-91302743D01*
X123603695Y-91337012D01*
X123603718Y-91337027D01*
X123603522Y-91337320D01*
X123601931Y-91340144D01*
X123600337Y-91342085D01*
X123496317Y-91497762D01*
X123496312Y-91497771D01*
X123424663Y-91670748D01*
X123424661Y-91670756D01*
X123388136Y-91854379D01*
X123388136Y-91891837D01*
X123368451Y-91958876D01*
X123351817Y-91979518D01*
X121635952Y-93695383D01*
X121574629Y-93728868D01*
X121548271Y-93731702D01*
X120484025Y-93731702D01*
X120494568Y-93714262D01*
X120486922Y-93712017D01*
X120441167Y-93659213D01*
X120431223Y-93590055D01*
X120435576Y-93570812D01*
X120482568Y-93420004D01*
X120482571Y-93419994D01*
X120485550Y-93387202D01*
X119300136Y-93387202D01*
X119233097Y-93367517D01*
X119187342Y-93314713D01*
X119176136Y-93263202D01*
X119176136Y-93192202D01*
X118458686Y-93192202D01*
X118450099Y-93191904D01*
X118374862Y-93186681D01*
X118355059Y-93183685D01*
X118166305Y-93139291D01*
X118144609Y-93132019D01*
X118047414Y-93089103D01*
X117994037Y-93044017D01*
X117973510Y-92977231D01*
X117973500Y-92975669D01*
X117973500Y-92909928D01*
X117973500Y-92589344D01*
X118000447Y-92616292D01*
X118045989Y-92576831D01*
X118115147Y-92566887D01*
X118161651Y-92583509D01*
X118252238Y-92638271D01*
X118405843Y-92686136D01*
X118472593Y-92692202D01*
X118926136Y-92692202D01*
X119426136Y-92692202D01*
X119879679Y-92692202D01*
X119946428Y-92686136D01*
X120100032Y-92638272D01*
X120237714Y-92555039D01*
X120290551Y-92502202D01*
X120237714Y-92449364D01*
X120100032Y-92366131D01*
X119946428Y-92318267D01*
X119879679Y-92312202D01*
X119426136Y-92312202D01*
X119426136Y-92692202D01*
X118926136Y-92692202D01*
X118926136Y-92312202D01*
X118472593Y-92312202D01*
X118405843Y-92318267D01*
X118252239Y-92366131D01*
X118161650Y-92420895D01*
X118094095Y-92438731D01*
X118027622Y-92417213D01*
X118002274Y-92386284D01*
X117973500Y-92415058D01*
X117973500Y-92028734D01*
X117993185Y-91961695D01*
X118045989Y-91915940D01*
X118047414Y-91915300D01*
X118144612Y-91872383D01*
X118157421Y-91868089D01*
X118157421Y-91866313D01*
X118144607Y-91862018D01*
X118047414Y-91819103D01*
X117994037Y-91774017D01*
X117973510Y-91707231D01*
X117973500Y-91705669D01*
X117973500Y-91639928D01*
X117973500Y-91626000D01*
X121218721Y-91626000D01*
X121626000Y-91626000D01*
X121626000Y-90124000D01*
X121462248Y-90124000D01*
X121466545Y-90145603D01*
X121467653Y-90152061D01*
X121473323Y-90191308D01*
X121474088Y-90197817D01*
X121498705Y-90468742D01*
X121492733Y-90519527D01*
X121391886Y-90819079D01*
X121365929Y-90863135D01*
X121271701Y-90966311D01*
X121279113Y-90984205D01*
X121288552Y-91031657D01*
X121288552Y-91432747D01*
X121279113Y-91480199D01*
X121218721Y-91626000D01*
X117973500Y-91626000D01*
X117973500Y-91319344D01*
X118000447Y-91346292D01*
X118045989Y-91306831D01*
X118115147Y-91296887D01*
X118161651Y-91313509D01*
X118252238Y-91368271D01*
X118405843Y-91416136D01*
X118472593Y-91422202D01*
X118926136Y-91422202D01*
X119426136Y-91422202D01*
X119879679Y-91422202D01*
X119946428Y-91416136D01*
X120100032Y-91368272D01*
X120237714Y-91285039D01*
X120290551Y-91232202D01*
X120237714Y-91179364D01*
X120100032Y-91096131D01*
X119946428Y-91048267D01*
X119879679Y-91042202D01*
X119426136Y-91042202D01*
X119426136Y-91422202D01*
X118926136Y-91422202D01*
X118926136Y-91042202D01*
X118472593Y-91042202D01*
X118405843Y-91048267D01*
X118252239Y-91096131D01*
X118161650Y-91150895D01*
X118094095Y-91168731D01*
X118027622Y-91147213D01*
X118002274Y-91116284D01*
X117973500Y-91145058D01*
X117973500Y-90758734D01*
X117993185Y-90691695D01*
X118045989Y-90645940D01*
X118047415Y-90645299D01*
X118144615Y-90602382D01*
X118166310Y-90595111D01*
X118355059Y-90550718D01*
X118374863Y-90547722D01*
X118450100Y-90542500D01*
X118458686Y-90542202D01*
X118926136Y-90542202D01*
X118926136Y-90347202D01*
X119426136Y-90347202D01*
X120485551Y-90347202D01*
X120485550Y-90347201D01*
X120482571Y-90314409D01*
X120482568Y-90314399D01*
X120434708Y-90160809D01*
X120351472Y-90023121D01*
X120237716Y-89909365D01*
X120100032Y-89826131D01*
X119946428Y-89778267D01*
X119879679Y-89772202D01*
X119426136Y-89772202D01*
X119426136Y-90347202D01*
X118926136Y-90347202D01*
X118926136Y-89772202D01*
X118472593Y-89772202D01*
X118405843Y-89778267D01*
X118252239Y-89826131D01*
X118161650Y-89880895D01*
X118094095Y-89898731D01*
X118027622Y-89877213D01*
X118002274Y-89846284D01*
X117973500Y-89875058D01*
X117973500Y-88879786D01*
X117984384Y-88884295D01*
X117993185Y-88854325D01*
X118045989Y-88808570D01*
X118113153Y-88798912D01*
X118114000Y-88798217D01*
X118114000Y-88134000D01*
X118097500Y-88134000D01*
X118030461Y-88114315D01*
X117984706Y-88061511D01*
X117973500Y-88010000D01*
X117973500Y-87758000D01*
X117993185Y-87690961D01*
X118045989Y-87645206D01*
X118097500Y-87634000D01*
X118240000Y-87634000D01*
X118307039Y-87653685D01*
X118352794Y-87706489D01*
X118364000Y-87758000D01*
X118364000Y-87884000D01*
X118490000Y-87884000D01*
X118557039Y-87903685D01*
X118602794Y-87956489D01*
X118614000Y-88008000D01*
X118614000Y-88798218D01*
X118639763Y-88793094D01*
X118639773Y-88793091D01*
X118811829Y-88721824D01*
X118966669Y-88618363D01*
X118966677Y-88618357D01*
X119098357Y-88486677D01*
X119098363Y-88486669D01*
X119201818Y-88331837D01*
X119201825Y-88331825D01*
X119226708Y-88271750D01*
X119270548Y-88217346D01*
X119336842Y-88195280D01*
X119341214Y-88195201D01*
X121227522Y-88195201D01*
X121227524Y-88195201D01*
X121339787Y-88180422D01*
X121339786Y-88180422D01*
X121339795Y-88180421D01*
X121479489Y-88122558D01*
X121550402Y-88068143D01*
X121580225Y-88052832D01*
X121579705Y-88051575D01*
X121633386Y-88029339D01*
X121708267Y-87998322D01*
X121818904Y-87924397D01*
X121888483Y-87854817D01*
X121949804Y-87821334D01*
X121976163Y-87818500D01*
X122013617Y-87818500D01*
X122013618Y-87818499D01*
X122197251Y-87781973D01*
X122370231Y-87710322D01*
X122525908Y-87606302D01*
X122658302Y-87473908D01*
X122762322Y-87318231D01*
X122833973Y-87145251D01*
X122870500Y-86961616D01*
X122870500Y-86774384D01*
X122866747Y-86755518D01*
X122849737Y-86670000D01*
X122833973Y-86590749D01*
X122762322Y-86417769D01*
X122748498Y-86397080D01*
X122706898Y-86334820D01*
X122686020Y-86268142D01*
X122686000Y-86265929D01*
X122686000Y-85468000D01*
X122705685Y-85400961D01*
X122758489Y-85355206D01*
X122810000Y-85344000D01*
X123062000Y-85344000D01*
X123129039Y-85363685D01*
G37*
%TD.AperFunction*%
%TA.AperFunction,Conductor*%
G36*
X131651400Y-93115439D02*
G01*
X131657143Y-93126183D01*
X131664705Y-93137500D01*
X131655160Y-93137500D01*
X131646967Y-93131213D01*
X131508490Y-93073854D01*
X131397197Y-93059202D01*
X131351697Y-93059202D01*
X131335776Y-93010201D01*
X131397196Y-93010201D01*
X131508490Y-92995550D01*
X131588084Y-92962580D01*
X131651400Y-93115439D01*
G37*
%TD.AperFunction*%
%TA.AperFunction,Conductor*%
G36*
X132335602Y-92525349D02*
G01*
X132390780Y-92568210D01*
X132408868Y-92604753D01*
X132409628Y-92607259D01*
X132414368Y-92631091D01*
X132428039Y-92769887D01*
X132428636Y-92782042D01*
X132428636Y-93013500D01*
X132408951Y-93080539D01*
X132356147Y-93126294D01*
X132304636Y-93137500D01*
X132052636Y-93137500D01*
X131985597Y-93117815D01*
X131939842Y-93065011D01*
X131928636Y-93013500D01*
X131928636Y-92791168D01*
X131928405Y-92787645D01*
X131943661Y-92719461D01*
X131964448Y-92691862D01*
X132133437Y-92522874D01*
X132247157Y-92522874D01*
X132266013Y-92519123D01*
X132335602Y-92525349D01*
G37*
%TD.AperFunction*%
%TA.AperFunction,Conductor*%
G36*
X121610232Y-82519685D02*
G01*
X121655987Y-82572489D01*
X121665931Y-82641647D01*
X121646295Y-82692891D01*
X121575636Y-82798639D01*
X121522024Y-82843444D01*
X121452699Y-82852151D01*
X121425082Y-82844309D01*
X121416254Y-82840652D01*
X121416253Y-82840653D01*
X121339795Y-82808983D01*
X121227523Y-82794202D01*
X121155678Y-82794202D01*
X119329747Y-82794202D01*
X119217484Y-82808981D01*
X119217473Y-82808984D01*
X119077785Y-82866844D01*
X118957826Y-82958892D01*
X118865778Y-83078851D01*
X118807918Y-83218539D01*
X118807917Y-83218543D01*
X118793136Y-83330807D01*
X118793136Y-83470910D01*
X118773451Y-83537949D01*
X118756817Y-83558591D01*
X117612770Y-84702639D01*
X116499269Y-85816140D01*
X116499267Y-85816142D01*
X116470501Y-85844908D01*
X116412142Y-85903266D01*
X116409839Y-85906713D01*
X116382753Y-85947251D01*
X116377118Y-85955684D01*
X116343687Y-86005714D01*
X116329910Y-86038978D01*
X116317849Y-86068096D01*
X116317849Y-86068097D01*
X116312953Y-86079914D01*
X116296586Y-86119431D01*
X116296537Y-86119549D01*
X116276872Y-86218416D01*
X116272500Y-86240394D01*
X116272500Y-86337720D01*
X116260260Y-86333155D01*
X116252815Y-86358510D01*
X116200011Y-86404265D01*
X116130853Y-86414209D01*
X116105171Y-86407655D01*
X116101014Y-86406104D01*
X116101008Y-86406103D01*
X116041480Y-86399702D01*
X115393636Y-86399702D01*
X115393636Y-87316690D01*
X115336629Y-87283777D01*
X115209462Y-87249702D01*
X115077810Y-87249702D01*
X114950643Y-87283777D01*
X114893636Y-87316690D01*
X114893636Y-86399702D01*
X114245791Y-86399702D01*
X114186263Y-86406103D01*
X114186256Y-86406105D01*
X114051549Y-86456347D01*
X114051542Y-86456351D01*
X113936448Y-86542511D01*
X113936445Y-86542514D01*
X113850285Y-86657608D01*
X113850281Y-86657615D01*
X113800039Y-86792322D01*
X113800037Y-86792329D01*
X113793636Y-86851857D01*
X113793636Y-88647546D01*
X113800037Y-88707074D01*
X113800039Y-88707081D01*
X113850281Y-88841788D01*
X113850285Y-88841795D01*
X113936445Y-88956889D01*
X113936448Y-88956892D01*
X114051542Y-89043052D01*
X114051549Y-89043056D01*
X114183106Y-89092124D01*
X114239040Y-89133995D01*
X114263457Y-89199460D01*
X114258183Y-89223702D01*
X114313251Y-89223702D01*
X114263844Y-89259598D01*
X114113532Y-89409910D01*
X114083811Y-89450817D01*
X114083809Y-89450817D01*
X113988587Y-89581881D01*
X113892080Y-89771287D01*
X113826389Y-89973462D01*
X113802673Y-90123203D01*
X113793136Y-90183415D01*
X113793136Y-90395989D01*
X113797573Y-90424000D01*
X113825825Y-90602382D01*
X113826390Y-90605945D01*
X113887877Y-90795183D01*
X113892080Y-90808116D01*
X113988587Y-90997522D01*
X114113526Y-91169488D01*
X114245156Y-91301118D01*
X114278641Y-91362441D01*
X114273657Y-91432133D01*
X114231785Y-91488066D01*
X114181666Y-91510416D01*
X114022756Y-91542025D01*
X114022748Y-91542027D01*
X113849771Y-91613676D01*
X113849762Y-91613681D01*
X113694092Y-91717697D01*
X113694088Y-91717700D01*
X113561700Y-91850088D01*
X113527102Y-91901868D01*
X113473489Y-91946672D01*
X113404164Y-91955379D01*
X113341137Y-91925224D01*
X113304418Y-91865781D01*
X113300000Y-91832976D01*
X113300000Y-84451362D01*
X113319685Y-84384323D01*
X113336319Y-84363681D01*
X113712616Y-83987384D01*
X115124000Y-83987384D01*
X115124000Y-84126000D01*
X116626000Y-84126000D01*
X116626000Y-83498000D01*
X115613384Y-83498000D01*
X115124000Y-83987384D01*
X113712616Y-83987384D01*
X115163681Y-82536319D01*
X115225004Y-82502834D01*
X115251362Y-82500000D01*
X121543193Y-82500000D01*
X121610232Y-82519685D01*
G37*
%TD.AperFunction*%
%TA.AperFunction,Conductor*%
G36*
X126869588Y-87682807D02*
G01*
X126908460Y-87709116D01*
X127051816Y-87852472D01*
X127085301Y-87913795D01*
X127088135Y-87940153D01*
X127088135Y-89650731D01*
X127088135Y-90300000D01*
X127068450Y-90367039D01*
X127015646Y-90412794D01*
X126964135Y-90424000D01*
X126762635Y-90424000D01*
X126695596Y-90404315D01*
X126649841Y-90351511D01*
X126638635Y-90300000D01*
X126638635Y-89772202D01*
X126601136Y-89772202D01*
X126601136Y-90473202D01*
X126581451Y-90540241D01*
X126528647Y-90585996D01*
X126477136Y-90597202D01*
X126225136Y-90597202D01*
X126158097Y-90577517D01*
X126112342Y-90524713D01*
X126101136Y-90473202D01*
X126101136Y-89900854D01*
X126101135Y-89900854D01*
X126050816Y-89976162D01*
X126050808Y-89976177D01*
X126027697Y-90031973D01*
X125983856Y-90086376D01*
X125917562Y-90108441D01*
X125867137Y-90095571D01*
X125862650Y-90106405D01*
X125859113Y-90118064D01*
X125820404Y-90312668D01*
X125819210Y-90324792D01*
X125819210Y-90523208D01*
X125820404Y-90535332D01*
X125859113Y-90729936D01*
X125862650Y-90741595D01*
X125938580Y-90924908D01*
X125944323Y-90935652D01*
X126015183Y-91041702D01*
X125789136Y-91041702D01*
X125789136Y-88319201D01*
X125808821Y-88252162D01*
X125861625Y-88206407D01*
X125913136Y-88195201D01*
X126177524Y-88195201D01*
X126289787Y-88180422D01*
X126289786Y-88180422D01*
X126289795Y-88180421D01*
X126429489Y-88122558D01*
X126549446Y-88030512D01*
X126641492Y-87910555D01*
X126699355Y-87770861D01*
X126699356Y-87770848D01*
X126701003Y-87764707D01*
X126737366Y-87705045D01*
X126800213Y-87674514D01*
X126869588Y-87682807D01*
G37*
%TD.AperFunction*%
%TA.AperFunction,Conductor*%
G36*
X141930986Y-82519685D02*
G01*
X141976741Y-82572489D01*
X141986685Y-82641647D01*
X141957660Y-82705203D01*
X141951628Y-82711681D01*
X141844610Y-82818698D01*
X141844607Y-82818702D01*
X141753278Y-82966768D01*
X141753273Y-82966779D01*
X141698549Y-83131925D01*
X141688136Y-83233846D01*
X141688136Y-84245557D01*
X141698549Y-84347478D01*
X141753273Y-84512624D01*
X141753278Y-84512635D01*
X141844607Y-84660701D01*
X141844610Y-84660705D01*
X141967632Y-84783727D01*
X141967636Y-84783730D01*
X142115702Y-84875059D01*
X142115705Y-84875060D01*
X142115711Y-84875064D01*
X142280861Y-84929789D01*
X142382788Y-84940202D01*
X142382793Y-84940202D01*
X142969479Y-84940202D01*
X142969484Y-84940202D01*
X143071411Y-84929789D01*
X143236561Y-84875064D01*
X143384639Y-84783728D01*
X143507662Y-84660705D01*
X143541084Y-84606518D01*
X143550445Y-84621695D01*
X143560337Y-84612799D01*
X143629300Y-84601575D01*
X143693382Y-84629417D01*
X143715397Y-84654825D01*
X143715524Y-84654725D01*
X143717749Y-84657540D01*
X143719469Y-84659524D01*
X143720001Y-84660387D01*
X143720005Y-84660392D01*
X143842944Y-84783331D01*
X143990921Y-84874605D01*
X143990926Y-84874607D01*
X144112111Y-84914764D01*
X144169556Y-84954537D01*
X144196379Y-85019052D01*
X144189518Y-85057368D01*
X144220414Y-85060524D01*
X143685501Y-85595437D01*
X142172406Y-87108533D01*
X142172399Y-87108538D01*
X142172400Y-87108539D01*
X142162252Y-87118686D01*
X142113580Y-87148706D01*
X141989302Y-87189888D01*
X141839978Y-87281991D01*
X141715925Y-87406044D01*
X141623823Y-87555365D01*
X141623821Y-87555370D01*
X141618247Y-87572191D01*
X141568637Y-87721905D01*
X141568637Y-87721906D01*
X141568636Y-87721906D01*
X141558136Y-87824685D01*
X141558136Y-88824703D01*
X141558137Y-88824721D01*
X141568636Y-88927498D01*
X141568637Y-88927501D01*
X141623821Y-89094033D01*
X141623823Y-89094038D01*
X141648469Y-89133995D01*
X141715924Y-89243358D01*
X141839980Y-89367414D01*
X141989302Y-89459516D01*
X142130684Y-89506365D01*
X142188127Y-89546136D01*
X142214950Y-89610652D01*
X142202635Y-89679428D01*
X142179359Y-89711751D01*
X141477680Y-90413430D01*
X141416357Y-90446915D01*
X141346665Y-90441931D01*
X141290732Y-90400059D01*
X141268382Y-90349941D01*
X141236827Y-90191308D01*
X141234530Y-90179760D01*
X141208433Y-90116755D01*
X141166652Y-90015885D01*
X141166645Y-90015872D01*
X141068100Y-89868391D01*
X141068097Y-89868387D01*
X140942675Y-89742965D01*
X140930298Y-89734695D01*
X140888606Y-89706836D01*
X140843803Y-89653224D01*
X140833500Y-89603736D01*
X140833500Y-88716205D01*
X140829220Y-88694693D01*
X140829220Y-88694688D01*
X140814037Y-88618357D01*
X140809463Y-88595362D01*
X140762311Y-88481528D01*
X140762310Y-88481526D01*
X140724801Y-88425389D01*
X140724801Y-88425390D01*
X140693859Y-88379082D01*
X140664679Y-88349902D01*
X140606733Y-88291956D01*
X140606732Y-88291955D01*
X138527815Y-86213039D01*
X138527813Y-86213036D01*
X138527813Y-86213037D01*
X138520746Y-86205970D01*
X138520746Y-86205969D01*
X138433621Y-86118844D01*
X138433620Y-86118843D01*
X138433619Y-86118842D01*
X138382397Y-86084617D01*
X138331174Y-86050390D01*
X138233445Y-86009910D01*
X138233442Y-86009908D01*
X138233441Y-86009908D01*
X138217343Y-86003240D01*
X138217341Y-86003239D01*
X138217340Y-86003239D01*
X138156917Y-85991220D01*
X138096498Y-85979202D01*
X138096495Y-85979202D01*
X138096494Y-85979202D01*
X136813136Y-85979202D01*
X136746097Y-85959517D01*
X136700342Y-85906713D01*
X136689136Y-85855202D01*
X136689136Y-85829178D01*
X140124000Y-85829178D01*
X140124000Y-86397839D01*
X140352161Y-86626000D01*
X141084586Y-86626000D01*
X141154823Y-86555763D01*
X141160067Y-86550815D01*
X141192665Y-86521804D01*
X141198192Y-86517166D01*
X141243759Y-86481136D01*
X141249543Y-86476830D01*
X141285303Y-86451789D01*
X141291333Y-86447823D01*
X141490100Y-86325224D01*
X141496345Y-86321618D01*
X141534759Y-86300905D01*
X141541206Y-86297668D01*
X141593850Y-86273120D01*
X141598395Y-86271158D01*
X141626000Y-86243554D01*
X141626000Y-85745085D01*
X141622759Y-85743338D01*
X141616509Y-85739729D01*
X141418982Y-85617892D01*
X141412954Y-85613928D01*
X141377196Y-85588889D01*
X141371410Y-85584581D01*
X141325844Y-85548551D01*
X141320318Y-85543914D01*
X141287720Y-85514903D01*
X141282476Y-85509955D01*
X141118383Y-85345862D01*
X141113435Y-85340618D01*
X141084424Y-85308020D01*
X141079787Y-85302494D01*
X141043757Y-85256928D01*
X141039449Y-85251142D01*
X141025307Y-85230945D01*
X141006172Y-85255146D01*
X141001534Y-85260673D01*
X140972523Y-85293271D01*
X140967575Y-85298515D01*
X140802449Y-85463641D01*
X140797205Y-85468589D01*
X140764607Y-85497600D01*
X140759080Y-85502238D01*
X140713513Y-85538268D01*
X140707729Y-85542574D01*
X140671969Y-85567615D01*
X140665939Y-85571581D01*
X140467168Y-85694183D01*
X140460921Y-85697790D01*
X140422496Y-85718508D01*
X140416049Y-85721746D01*
X140363404Y-85746293D01*
X140356782Y-85749149D01*
X140316232Y-85765258D01*
X140309456Y-85767724D01*
X140124000Y-85829178D01*
X136689136Y-85829178D01*
X136689136Y-85634161D01*
X136689135Y-85634157D01*
X136675899Y-85567615D01*
X136665099Y-85513316D01*
X136617947Y-85399482D01*
X136617946Y-85399481D01*
X136617943Y-85399475D01*
X136549495Y-85297036D01*
X136507605Y-85255146D01*
X136462369Y-85209910D01*
X136462368Y-85209909D01*
X136333429Y-85080970D01*
X136333428Y-85080969D01*
X136246303Y-84993844D01*
X136246302Y-84993843D01*
X136246301Y-84993842D01*
X136195079Y-84959617D01*
X136166023Y-84940202D01*
X136143856Y-84925390D01*
X136143853Y-84925388D01*
X136143850Y-84925387D01*
X136063362Y-84892049D01*
X136030023Y-84878239D01*
X136014035Y-84875059D01*
X135969599Y-84866220D01*
X135909180Y-84854202D01*
X135909177Y-84854202D01*
X135909176Y-84854202D01*
X133253188Y-84854202D01*
X133186149Y-84834517D01*
X133140394Y-84781713D01*
X133130450Y-84712555D01*
X133159475Y-84648999D01*
X133165507Y-84642521D01*
X133863326Y-83944702D01*
X136646916Y-83944702D01*
X136652041Y-83970464D01*
X136652044Y-83970476D01*
X136723309Y-84142527D01*
X136723311Y-84142531D01*
X136826772Y-84297371D01*
X136826778Y-84297379D01*
X136958458Y-84429059D01*
X136958466Y-84429065D01*
X137113306Y-84532526D01*
X137285362Y-84603793D01*
X137285372Y-84603796D01*
X137311135Y-84608920D01*
X137311136Y-84608919D01*
X137311136Y-83944702D01*
X136646916Y-83944702D01*
X133863326Y-83944702D01*
X134551209Y-83256819D01*
X134612532Y-83223334D01*
X134638890Y-83220500D01*
X136600019Y-83220500D01*
X136594449Y-83233946D01*
X136615696Y-83240185D01*
X136661451Y-83292989D01*
X136671395Y-83362147D01*
X136663218Y-83391952D01*
X136652044Y-83418927D01*
X136652041Y-83418939D01*
X136646916Y-83444701D01*
X136646917Y-83444702D01*
X137437136Y-83444702D01*
X137504175Y-83464387D01*
X137549930Y-83517191D01*
X137561136Y-83568702D01*
X137561136Y-83694702D01*
X137687136Y-83694702D01*
X137754175Y-83714387D01*
X137799930Y-83767191D01*
X137811136Y-83818702D01*
X137811136Y-84608920D01*
X137836899Y-84603796D01*
X137836909Y-84603793D01*
X138008965Y-84532526D01*
X138163805Y-84429065D01*
X138163807Y-84429064D01*
X138219515Y-84373356D01*
X138280838Y-84339871D01*
X138350530Y-84344855D01*
X138391669Y-84375651D01*
X138395214Y-84371332D01*
X138403829Y-84358437D01*
X138438822Y-84464036D01*
X138530924Y-84613358D01*
X138654980Y-84737414D01*
X138804302Y-84829516D01*
X138970839Y-84884701D01*
X139073627Y-84895202D01*
X139698644Y-84895201D01*
X139698652Y-84895200D01*
X139698655Y-84895200D01*
X139754938Y-84889450D01*
X139801433Y-84884701D01*
X139967970Y-84829516D01*
X140117292Y-84737414D01*
X140241348Y-84613358D01*
X140333450Y-84464036D01*
X140388635Y-84297499D01*
X140399136Y-84194711D01*
X140399135Y-83694702D01*
X140399135Y-83194700D01*
X140399134Y-83194682D01*
X140388635Y-83091905D01*
X140388634Y-83091902D01*
X140371401Y-83039897D01*
X140333450Y-82925368D01*
X140241348Y-82776046D01*
X140176983Y-82711681D01*
X140143498Y-82650358D01*
X140148482Y-82580666D01*
X140190354Y-82524733D01*
X140255818Y-82500316D01*
X140264664Y-82500000D01*
X141863947Y-82500000D01*
X141930986Y-82519685D01*
G37*
%TD.AperFunction*%
%TA.AperFunction,Conductor*%
G36*
X155355353Y-87685468D02*
G01*
X155370149Y-87698106D01*
X155517733Y-87845690D01*
X155530370Y-87860486D01*
X155653048Y-88029339D01*
X155663215Y-88045929D01*
X155757974Y-88231902D01*
X155765420Y-88249879D01*
X155812612Y-88395122D01*
X155812614Y-88395126D01*
X155930926Y-88513438D01*
X155935947Y-88513043D01*
X155980515Y-88478679D01*
X156050129Y-88472701D01*
X156111923Y-88505309D01*
X156146278Y-88566149D01*
X156149500Y-88594231D01*
X156149500Y-89447237D01*
X156129815Y-89514276D01*
X156077011Y-89560031D01*
X156007853Y-89569975D01*
X155944297Y-89540950D01*
X155925182Y-89520122D01*
X155848745Y-89414916D01*
X155848741Y-89414911D01*
X155698422Y-89264592D01*
X155680803Y-89251791D01*
X155680802Y-89251792D01*
X155526452Y-89139651D01*
X155428734Y-89089861D01*
X155428735Y-89089861D01*
X155337050Y-89043146D01*
X155337049Y-89043145D01*
X155337048Y-89043145D01*
X155134879Y-88977456D01*
X155134877Y-88977455D01*
X155134876Y-88977455D01*
X154973593Y-88951910D01*
X154924923Y-88944202D01*
X154712349Y-88944202D01*
X154562033Y-88968009D01*
X154492740Y-88959054D01*
X154439288Y-88914058D01*
X154418649Y-88847306D01*
X154418636Y-88845536D01*
X154418636Y-88671203D01*
X154438321Y-88604164D01*
X154491125Y-88558409D01*
X154542636Y-88547203D01*
X155257583Y-88547203D01*
X155257583Y-88547202D01*
X154948045Y-88237664D01*
X155011629Y-88220627D01*
X155125643Y-88154801D01*
X155218735Y-88061709D01*
X155284561Y-87947695D01*
X155318636Y-87820528D01*
X155318636Y-87688876D01*
X155308626Y-87651519D01*
X155355353Y-87685468D01*
G37*
%TD.AperFunction*%
%TA.AperFunction,Conductor*%
G36*
X116215539Y-87519387D02*
G01*
X116261294Y-87572191D01*
X116272500Y-87623702D01*
X116272500Y-87875702D01*
X116252815Y-87942741D01*
X116200011Y-87988496D01*
X116148500Y-87999702D01*
X115576648Y-87999702D01*
X115609561Y-87942695D01*
X115643636Y-87815528D01*
X115643636Y-87683876D01*
X115609561Y-87556709D01*
X115576648Y-87499702D01*
X116148500Y-87499702D01*
X116215539Y-87519387D01*
G37*
%TD.AperFunction*%
%TA.AperFunction,Conductor*%
G36*
X154524272Y-87347303D02*
G01*
X154511629Y-87354603D01*
X154418537Y-87447695D01*
X154352711Y-87561709D01*
X154318636Y-87688876D01*
X154318636Y-87820528D01*
X154325632Y-87846638D01*
X154276097Y-87832093D01*
X154230342Y-87779289D01*
X154223041Y-87745732D01*
X154219136Y-87746508D01*
X154219136Y-87471203D01*
X154238821Y-87404164D01*
X154291625Y-87358409D01*
X154343136Y-87347203D01*
X154522996Y-87347203D01*
X154524272Y-87347303D01*
G37*
%TD.AperFunction*%
%TA.AperFunction,Conductor*%
G36*
X152244313Y-82519685D02*
G01*
X152264955Y-82536319D01*
X156113181Y-86384545D01*
X156146666Y-86445868D01*
X156149500Y-86472226D01*
X156149500Y-86915169D01*
X156129815Y-86982208D01*
X156077011Y-87027963D01*
X156007853Y-87037907D01*
X155944297Y-87008882D01*
X155932558Y-86996091D01*
X155930927Y-86995963D01*
X155301598Y-87625290D01*
X155284561Y-87561709D01*
X155218735Y-87447695D01*
X155125643Y-87354603D01*
X155011629Y-87288777D01*
X154948043Y-87271739D01*
X155577373Y-86642409D01*
X155577373Y-86642408D01*
X155524010Y-86603639D01*
X155335256Y-86507463D01*
X155133790Y-86442003D01*
X154924555Y-86408864D01*
X154712717Y-86408864D01*
X154503483Y-86442003D01*
X154503480Y-86442003D01*
X154305921Y-86506194D01*
X154236080Y-86508189D01*
X154176247Y-86472108D01*
X154157125Y-86442120D01*
X154155943Y-86442721D01*
X154147947Y-86423416D01*
X154094016Y-86342703D01*
X154079494Y-86320969D01*
X153992369Y-86233844D01*
X153992368Y-86233843D01*
X151106563Y-83348039D01*
X151106561Y-83348036D01*
X151106561Y-83348037D01*
X151099494Y-83340970D01*
X151099494Y-83340969D01*
X151012369Y-83253844D01*
X150959537Y-83218543D01*
X150959538Y-83218543D01*
X150959536Y-83218541D01*
X150909926Y-83185392D01*
X150909922Y-83185390D01*
X150904273Y-83183050D01*
X150822818Y-83149311D01*
X150822816Y-83149309D01*
X150796091Y-83138240D01*
X150796089Y-83138239D01*
X150796088Y-83138239D01*
X150735665Y-83126220D01*
X150675246Y-83114202D01*
X150675243Y-83114202D01*
X150675242Y-83114202D01*
X150112391Y-83114202D01*
X150045352Y-83094517D01*
X149999597Y-83041713D01*
X149994685Y-83029206D01*
X149993006Y-83024140D01*
X149973998Y-82966777D01*
X149973992Y-82966768D01*
X149882664Y-82818702D01*
X149882661Y-82818698D01*
X149775644Y-82711681D01*
X149742159Y-82650358D01*
X149747143Y-82580666D01*
X149789015Y-82524733D01*
X149854479Y-82500316D01*
X149863325Y-82500000D01*
X152177274Y-82500000D01*
X152244313Y-82519685D01*
G37*
%TD.AperFunction*%
%TA.AperFunction,Conductor*%
G36*
X123762529Y-84061373D02*
G01*
X123817571Y-84102068D01*
X123853433Y-84148804D01*
X123878627Y-84213973D01*
X123864589Y-84282418D01*
X123853434Y-84299776D01*
X123836690Y-84321596D01*
X123836691Y-84321596D01*
X123815780Y-84348849D01*
X123757917Y-84488543D01*
X123743136Y-84600815D01*
X123743136Y-84638739D01*
X123714085Y-84609688D01*
X123664551Y-84642360D01*
X123594686Y-84643191D01*
X123543573Y-84613273D01*
X123543384Y-84613505D01*
X123541929Y-84612311D01*
X123540523Y-84611488D01*
X123538677Y-84609642D01*
X123538673Y-84609639D01*
X123408381Y-84522580D01*
X123363576Y-84468968D01*
X123354869Y-84399643D01*
X123370713Y-84366526D01*
X123359506Y-84361883D01*
X123664158Y-84057231D01*
X123669164Y-84069315D01*
X123692837Y-84056389D01*
X123762529Y-84061373D01*
G37*
%TD.AperFunction*%
%TA.AperFunction,Conductor*%
G36*
X128904449Y-83233946D02*
G01*
X128925696Y-83240185D01*
X128971451Y-83292989D01*
X128981395Y-83362147D01*
X128973218Y-83391952D01*
X128962044Y-83418927D01*
X128962041Y-83418939D01*
X128956916Y-83444701D01*
X128956917Y-83444702D01*
X129747136Y-83444702D01*
X129814175Y-83464387D01*
X129859930Y-83517191D01*
X129871136Y-83568702D01*
X129871136Y-83820702D01*
X129851451Y-83887741D01*
X129798647Y-83933496D01*
X129747136Y-83944702D01*
X128956916Y-83944702D01*
X128962041Y-83970464D01*
X128962044Y-83970476D01*
X129000265Y-84062750D01*
X129007734Y-84132219D01*
X128976458Y-84194698D01*
X128935337Y-84219095D01*
X128945431Y-84234202D01*
X126694609Y-84234202D01*
X126708688Y-84215854D01*
X126704133Y-84214517D01*
X126658378Y-84161713D01*
X126648434Y-84092555D01*
X126656611Y-84062750D01*
X126698866Y-83960734D01*
X126698867Y-83960730D01*
X126713635Y-83848565D01*
X126713636Y-83848551D01*
X126713636Y-83839702D01*
X125352636Y-83839702D01*
X125285597Y-83820017D01*
X125239842Y-83767213D01*
X125228636Y-83715702D01*
X125228636Y-83463702D01*
X125248321Y-83396663D01*
X125301125Y-83350908D01*
X125352636Y-83339702D01*
X126713636Y-83339702D01*
X126715630Y-83337707D01*
X126733321Y-83277461D01*
X126786125Y-83231706D01*
X126824553Y-83223346D01*
X126824178Y-83220500D01*
X128910019Y-83220500D01*
X128904449Y-83233946D01*
G37*
%TD.AperFunction*%
%TA.AperFunction,Conductor*%
G36*
X144788136Y-83501155D02*
G01*
X144781181Y-83499045D01*
X144768451Y-83542401D01*
X144715647Y-83588156D01*
X144646489Y-83598100D01*
X144639945Y-83596979D01*
X144564521Y-83581976D01*
X144378280Y-83581976D01*
X144195638Y-83618306D01*
X144195626Y-83618309D01*
X144023575Y-83689574D01*
X144023571Y-83689576D01*
X143868731Y-83793036D01*
X143866799Y-83794623D01*
X143865588Y-83795137D01*
X143863661Y-83796425D01*
X143863416Y-83796059D01*
X143802489Y-83821935D01*
X143733621Y-83810142D01*
X143703661Y-83782743D01*
X143664136Y-83822268D01*
X143664136Y-83636292D01*
X144010227Y-83290202D01*
X144788136Y-83290202D01*
X144788136Y-83501155D01*
G37*
%TD.AperFunction*%
%TD*%
M02*
