%TF.GenerationSoftware,KiCad,Pcbnew,10.0.6*%
%TF.CreationDate,2026-09-24T23:32:33+05:30*%
%TF.ProjectId,MCU Datalogger,4d435520-4461-4746-916c-6f676765722e,1*%
%TF.SameCoordinates,Original*%
%TF.FileFunction,Copper,L2,Bot*%
%TF.FilePolarity,Positive*%
%FSLAX46Y46*%
G04 Gerber Fmt 4.6, Leading zero omitted, Abs format (unit mm)*
G04 Created by KiCad (PCBNEW 10.0.6) date 2026-09-24 23:32:33*
%MOMM*%
%LPD*%
G01*
G04 APERTURE LIST*
%TA.AperFunction,ComponentPad*%
%ADD10R,1.700000X1.700000*%
%TD*%
%TA.AperFunction,ComponentPad*%
%ADD11C,1.700000*%
%TD*%
%TA.AperFunction,ViaPad*%
%ADD12C,0.900000*%
%TD*%
%TA.AperFunction,ViaPad*%
%ADD13C,0.800000*%
%TD*%
%TA.AperFunction,Conductor*%
%ADD14C,0.350000*%
%TD*%
%TA.AperFunction,Conductor*%
%ADD15C,0.250000*%
%TD*%
G04 APERTURE END LIST*
D10*
%TO.P,BT1,1,+_1*%
%TO.N,VCC*%
X115143636Y-87749702D03*
D11*
%TO.P,BT1,2,-_2*%
%TO.N,GND*%
X115143636Y-90289702D03*
%TD*%
D10*
%TO.P,J3,1,Pin_1_1*%
%TO.N,/D2*%
X117973636Y-109814702D03*
D11*
%TO.P,J3,2,Pin_2_2*%
%TO.N,/D3*%
X120513636Y-109814702D03*
%TO.P,J3,3,Pin_3_3*%
%TO.N,/D4*%
X123053636Y-109814702D03*
%TO.P,J3,4,Pin_4_4*%
%TO.N,/D5*%
X125593636Y-109814702D03*
%TO.P,J3,5,Pin_5_5*%
%TO.N,/D6*%
X128133636Y-109814702D03*
%TO.P,J3,6,Pin_6_6*%
%TO.N,/D7*%
X130673636Y-109814702D03*
%TO.P,J3,7,Pin_7_7*%
%TO.N,/D8*%
X133213636Y-109814702D03*
%TO.P,J3,8,Pin_8_8*%
%TO.N,GND*%
X135753636Y-109814702D03*
%TO.P,J3,9,Pin_9_9*%
%TO.N,VCC*%
X138293636Y-109814702D03*
%TD*%
D10*
%TO.P,J1,1,Pin_1_1*%
%TO.N,GND*%
X154828636Y-97934702D03*
D11*
%TO.P,J1,2,Pin_2_2*%
%TO.N,VCC*%
X154828636Y-100474702D03*
%TO.P,J1,3,Pin_3_3*%
%TO.N,/SDA*%
X154828636Y-103014702D03*
%TO.P,J1,4,Pin_4_4*%
%TO.N,/SCK*%
X154828636Y-105554702D03*
%TD*%
D10*
%TO.P,J4,1,Pin_1_1*%
%TO.N,/MISO*%
X152278636Y-87754702D03*
D11*
%TO.P,J4,2,Pin_2_2*%
%TO.N,VCC*%
X154818636Y-87754702D03*
%TO.P,J4,3,Pin_3_3*%
%TO.N,/SCK*%
X152278636Y-90294702D03*
%TO.P,J4,4,Pin_4_4*%
%TO.N,/MOSI*%
X154818636Y-90294702D03*
%TO.P,J4,5,Pin_5_5*%
%TO.N,/RESET*%
X152278636Y-92834702D03*
%TO.P,J4,6,Pin_6_6*%
%TO.N,GND*%
X154818636Y-92834702D03*
%TD*%
D10*
%TO.P,J2,1,Pin_1_1*%
%TO.N,GND*%
X144403636Y-109814702D03*
D11*
%TO.P,J2,2,Pin_2_2*%
%TO.N,VCC*%
X146943636Y-109814702D03*
%TO.P,J2,3,Pin_3_3*%
%TO.N,/RX*%
X149483636Y-109814702D03*
%TO.P,J2,4,Pin_4_4*%
%TO.N,/TX*%
X152023636Y-109814702D03*
%TD*%
D12*
%TO.N,VCC*%
X129540000Y-96012000D03*
X154418636Y-88797203D03*
X152439660Y-100025364D03*
X126351136Y-98129702D03*
X144780000Y-100649702D03*
X120904000Y-99568000D03*
X144471401Y-84527401D03*
X129871136Y-83694702D03*
X122393036Y-83277036D03*
X132601455Y-92614531D03*
X152832636Y-101675364D03*
X122936000Y-85344000D03*
X144423636Y-97704702D03*
X121920000Y-102108000D03*
X118364000Y-87884000D03*
X137561136Y-83694702D03*
X137160000Y-92964000D03*
X119380000Y-103632000D03*
X126888635Y-90424000D03*
X154532620Y-99505604D03*
X140716000Y-96520000D03*
%TO.N,GND*%
X124338636Y-91948000D03*
X126845080Y-91622202D03*
X123740591Y-90212590D03*
X151575000Y-98562269D03*
X152778636Y-97432452D03*
X147747483Y-97733418D03*
X145288000Y-86868000D03*
X114300000Y-92456000D03*
X134620000Y-106172000D03*
X121920000Y-86868000D03*
X124729819Y-100314181D03*
X137598636Y-90424255D03*
X132612584Y-91464585D03*
D13*
%TO.N,/SDA*%
X140368636Y-90442426D03*
X123444000Y-94488000D03*
X123952000Y-101092000D03*
%TO.N,/SCK*%
X154178636Y-94488000D03*
X135636000Y-92265000D03*
X140418636Y-91449061D03*
%TO.N,/D2*%
X132080000Y-88900000D03*
%TO.N,Net-(U4-PB6)*%
X137496136Y-100364702D03*
X133604000Y-94488000D03*
%TO.N,/RESET*%
X135892688Y-89950312D03*
X148986136Y-93004702D03*
%TO.N,/RX*%
X135620003Y-94488000D03*
%TO.N,/TX*%
X134620000Y-94488000D03*
%TO.N,Net-(U4-PB7)*%
X132296136Y-100364702D03*
X132588000Y-94488000D03*
%TD*%
%TO.N,VCC*%
D14*
X154828636Y-99801620D02*
X154532620Y-99505604D01*
X137034000Y-93090000D02*
X133076924Y-93090000D01*
X137160000Y-92964000D02*
X137034000Y-93090000D01*
X144780000Y-100649702D02*
X144780000Y-98061066D01*
X119380000Y-101092000D02*
X119380000Y-103632000D01*
X129871136Y-83694702D02*
X129996434Y-83820000D01*
X154470224Y-99568000D02*
X153416000Y-99568000D01*
X151601335Y-84527401D02*
X144471401Y-84527401D01*
X144780000Y-98061066D02*
X144423636Y-97704702D01*
X121920000Y-100584000D02*
X120904000Y-99568000D01*
X129996434Y-83820000D02*
X137435838Y-83820000D01*
X120904000Y-99568000D02*
X119380000Y-101092000D01*
X144423636Y-97704702D02*
X148394298Y-101675364D01*
X154418636Y-87344702D02*
X151601335Y-84527401D01*
X154532620Y-99505604D02*
X154470224Y-99568000D01*
X154828636Y-100474702D02*
X154828636Y-99801620D01*
X132366563Y-90424000D02*
X126888635Y-90424000D01*
X132601455Y-92614531D02*
X132525094Y-92614531D01*
X137435838Y-83820000D02*
X137561136Y-83694702D01*
X127422298Y-98129702D02*
X126351136Y-98129702D01*
X152439660Y-100025364D02*
X152958636Y-100025364D01*
X154828636Y-100474702D02*
X154830702Y-100474702D01*
X118364000Y-87884000D02*
X115277934Y-87884000D01*
X122936000Y-85344000D02*
X122936000Y-83820000D01*
X140716000Y-96520000D02*
X141900702Y-97704702D01*
X115277934Y-87884000D02*
X115143636Y-87749702D01*
X141900702Y-97704702D02*
X144423636Y-97704702D01*
X133076924Y-93090000D02*
X132601455Y-92614531D01*
X154418636Y-88797203D02*
X154418636Y-87344702D01*
X121920000Y-102108000D02*
X121920000Y-100584000D01*
X152958636Y-100025364D02*
X153416000Y-99568000D01*
X148394298Y-101675364D02*
X152832636Y-101675364D01*
X129540000Y-96012000D02*
X127422298Y-98129702D01*
X131713000Y-91802437D02*
X131713000Y-91077563D01*
X132525094Y-92614531D02*
X131713000Y-91802437D01*
X122936000Y-83820000D02*
X122393036Y-83277036D01*
X131713000Y-91077563D02*
X132366563Y-90424000D01*
%TO.N,GND*%
X136582891Y-91440000D02*
X137598636Y-90424255D01*
X147747483Y-97733418D02*
X150070398Y-97733418D01*
X124729819Y-100314181D02*
X130587638Y-106172000D01*
X134620000Y-108681066D02*
X134620000Y-106172000D01*
X130587638Y-106172000D02*
X134620000Y-106172000D01*
X125878181Y-88075000D02*
X123740591Y-90212590D01*
X153059298Y-97934702D02*
X152950000Y-98044000D01*
X132637169Y-91440000D02*
X134280000Y-91440000D01*
X150070398Y-97733418D02*
X150825908Y-96977908D01*
X154828636Y-97934702D02*
X153059298Y-97934702D01*
X134280000Y-91440000D02*
X136582891Y-91440000D01*
X150825908Y-96977908D02*
X150825908Y-97813177D01*
X150825908Y-97813177D02*
X151575000Y-98562269D01*
X135753636Y-109814702D02*
X134620000Y-108681066D01*
X155003636Y-93019702D02*
X154818636Y-92834702D01*
X132612584Y-91464585D02*
X132637169Y-91440000D01*
X134280000Y-89933273D02*
X132421727Y-88075000D01*
X154818636Y-92834702D02*
X155956000Y-91697338D01*
X152950000Y-98044000D02*
X152950000Y-97603816D01*
X152950000Y-97603816D02*
X152778636Y-97432452D01*
X154828636Y-97934702D02*
X155003636Y-97759702D01*
X155003636Y-97759702D02*
X155003636Y-93019702D01*
X132421727Y-88075000D02*
X125878181Y-88075000D01*
X155956000Y-91697338D02*
X155956000Y-91440000D01*
X134280000Y-91440000D02*
X134280000Y-89933273D01*
%TO.N,/SDA*%
D15*
X150906004Y-99060000D02*
X149860000Y-99060000D01*
X153174364Y-100850364D02*
X154828636Y-102504636D01*
X145380129Y-90424000D02*
X148685831Y-93729702D01*
X140368636Y-90442426D02*
X140387062Y-90424000D01*
X152400000Y-98220542D02*
X152400000Y-98903996D01*
X151233273Y-99387269D02*
X150906004Y-99060000D01*
X151133702Y-93729702D02*
X151892000Y-94488000D01*
X140387062Y-90424000D02*
X145380129Y-90424000D01*
X151916727Y-99387269D02*
X151233273Y-99387269D01*
X149860000Y-99060000D02*
X149860000Y-100584000D01*
X148685831Y-93729702D02*
X151133702Y-93729702D01*
X151892000Y-94488000D02*
X151892000Y-97712542D01*
X149860000Y-100584000D02*
X150126364Y-100850364D01*
X152400000Y-98903996D02*
X151916727Y-99387269D01*
X123444000Y-94488000D02*
X123444000Y-100584000D01*
X154828636Y-102504636D02*
X154828636Y-103014702D01*
X123444000Y-100584000D02*
X123952000Y-101092000D01*
X150126364Y-100850364D02*
X153174364Y-100850364D01*
X151892000Y-97712542D02*
X152400000Y-98220542D01*
%TO.N,/SCK*%
X152278636Y-90294702D02*
X153593636Y-91609702D01*
X137118000Y-91990000D02*
X137668000Y-91440000D01*
X135636000Y-92265000D02*
X135911000Y-91990000D01*
X153593636Y-93903000D02*
X154178636Y-94488000D01*
X135911000Y-91990000D02*
X137118000Y-91990000D01*
X153593636Y-91609702D02*
X153593636Y-93903000D01*
X140418636Y-91449061D02*
X140427697Y-91440000D01*
X137668000Y-91440000D02*
X140409575Y-91440000D01*
X140409575Y-91440000D02*
X140418636Y-91449061D01*
%TO.N,/D2*%
X125711045Y-89408864D02*
X123513636Y-91606273D01*
X123513636Y-91606273D02*
X123513636Y-92386364D01*
X131571136Y-89408864D02*
X125711045Y-89408864D01*
X132080000Y-88900000D02*
X131571136Y-89408864D01*
X117973636Y-97926364D02*
X117973636Y-109814702D01*
X123513636Y-92386364D02*
X117973636Y-97926364D01*
%TO.N,Net-(U4-PB6)*%
X133604000Y-94488000D02*
X133604000Y-96472566D01*
X133604000Y-96472566D02*
X137496136Y-100364702D01*
%TO.N,/RESET*%
X136435000Y-89408000D02*
X145389434Y-89408000D01*
X145389434Y-89408000D02*
X148986136Y-93004702D01*
X135892688Y-89950312D02*
X136435000Y-89408000D01*
%TO.N,/RX*%
X135620003Y-95951069D02*
X149483636Y-109814702D01*
X135620003Y-94488000D02*
X135620003Y-95951069D01*
%TO.N,/TX*%
X135319698Y-93763000D02*
X135971934Y-93763000D01*
X134620000Y-94488000D02*
X134620000Y-94462698D01*
X135971934Y-93763000D02*
X152023636Y-109814702D01*
X134620000Y-94462698D02*
X135319698Y-93763000D01*
%TO.N,Net-(U4-PB7)*%
X132588000Y-94488000D02*
X132588000Y-100072838D01*
X132588000Y-100072838D02*
X132296136Y-100364702D01*
%TD*%
%TA.AperFunction,Conductor*%
%TO.N,GND*%
G36*
X121624248Y-82490185D02*
G01*
X121670003Y-82542989D01*
X121679947Y-82612147D01*
X121656628Y-82665068D01*
X121658118Y-82666063D01*
X121550717Y-82826798D01*
X121550712Y-82826807D01*
X121479063Y-82999784D01*
X121479061Y-82999792D01*
X121442536Y-83183415D01*
X121442536Y-83370656D01*
X121479061Y-83554279D01*
X121479063Y-83554287D01*
X121550712Y-83727264D01*
X121550717Y-83727273D01*
X121654733Y-83882943D01*
X121654736Y-83882947D01*
X121787124Y-84015335D01*
X121787128Y-84015338D01*
X121942798Y-84119354D01*
X121942804Y-84119357D01*
X121942805Y-84119358D01*
X122115785Y-84191009D01*
X122160691Y-84199941D01*
X122222601Y-84232324D01*
X122257176Y-84293039D01*
X122260500Y-84321558D01*
X122260500Y-84623927D01*
X122240815Y-84690966D01*
X122224181Y-84711608D01*
X122197700Y-84738088D01*
X122197697Y-84738092D01*
X122093681Y-84893762D01*
X122093676Y-84893771D01*
X122022027Y-85066748D01*
X122022025Y-85066756D01*
X121985500Y-85250379D01*
X121985500Y-85437620D01*
X122006263Y-85542000D01*
X122022027Y-85621251D01*
X122093678Y-85794231D01*
X122107501Y-85814919D01*
X122149102Y-85877179D01*
X122169980Y-85943856D01*
X122170000Y-85946070D01*
X122170000Y-86618000D01*
X122834219Y-86618000D01*
X122834219Y-86617999D01*
X122829094Y-86592237D01*
X122829091Y-86592225D01*
X122776788Y-86465952D01*
X122769319Y-86396483D01*
X122800595Y-86334004D01*
X122835531Y-86313275D01*
X122820012Y-86290050D01*
X122842384Y-86294500D01*
X123029616Y-86294500D01*
X123213251Y-86257973D01*
X123386231Y-86186322D01*
X123541908Y-86082302D01*
X123674302Y-85949908D01*
X123778322Y-85794231D01*
X123849973Y-85621251D01*
X123886500Y-85437616D01*
X123886500Y-85250384D01*
X123849973Y-85066749D01*
X123778322Y-84893769D01*
X123778321Y-84893768D01*
X123778318Y-84893762D01*
X123674302Y-84738092D01*
X123674299Y-84738088D01*
X123647819Y-84711608D01*
X123614334Y-84650285D01*
X123611500Y-84623927D01*
X123611500Y-84126000D01*
X125124000Y-84126000D01*
X126626000Y-84126000D01*
X127624000Y-84126000D01*
X127970254Y-84126000D01*
X127937032Y-83958983D01*
X127935991Y-83952988D01*
X127930587Y-83916560D01*
X127929842Y-83910517D01*
X127925039Y-83861748D01*
X127924591Y-83855677D01*
X127922785Y-83818902D01*
X127922636Y-83812820D01*
X127922636Y-83601081D01*
X128920636Y-83601081D01*
X128920636Y-83788322D01*
X128957161Y-83971945D01*
X128957163Y-83971953D01*
X129028812Y-84144930D01*
X129028817Y-84144939D01*
X129132833Y-84300609D01*
X129132836Y-84300613D01*
X129265224Y-84433001D01*
X129265228Y-84433004D01*
X129420898Y-84537020D01*
X129420907Y-84537025D01*
X129460092Y-84553256D01*
X129593885Y-84608675D01*
X129777515Y-84645201D01*
X129777519Y-84645202D01*
X129777520Y-84645202D01*
X129964753Y-84645202D01*
X129964754Y-84645201D01*
X130148387Y-84608675D01*
X130321367Y-84537024D01*
X130321372Y-84537020D01*
X130321375Y-84537019D01*
X130352235Y-84516399D01*
X130418912Y-84495520D01*
X130421127Y-84495500D01*
X137011145Y-84495500D01*
X137078184Y-84515185D01*
X137080037Y-84516399D01*
X137110896Y-84537019D01*
X137110907Y-84537025D01*
X137150092Y-84553256D01*
X137283885Y-84608675D01*
X137467515Y-84645201D01*
X137467519Y-84645202D01*
X137467520Y-84645202D01*
X137654753Y-84645202D01*
X137654754Y-84645201D01*
X137838387Y-84608675D01*
X138011367Y-84537024D01*
X138167044Y-84433004D01*
X138299438Y-84300610D01*
X138403458Y-84144933D01*
X138411300Y-84126000D01*
X140124000Y-84126000D01*
X141626000Y-84126000D01*
X141626000Y-83468500D01*
X152909120Y-83468500D01*
X153566620Y-84126000D01*
X153964616Y-84126000D01*
X153307116Y-83468500D01*
X152909120Y-83468500D01*
X141626000Y-83468500D01*
X140124000Y-83468500D01*
X140124000Y-84126000D01*
X138411300Y-84126000D01*
X138475109Y-83971953D01*
X138511636Y-83788318D01*
X138511636Y-83601086D01*
X138475109Y-83417451D01*
X138403458Y-83244471D01*
X138403457Y-83244470D01*
X138403454Y-83244464D01*
X138299438Y-83088794D01*
X138299435Y-83088790D01*
X138167047Y-82956402D01*
X138167043Y-82956399D01*
X138011373Y-82852383D01*
X138011364Y-82852378D01*
X137838387Y-82780729D01*
X137838379Y-82780727D01*
X137654756Y-82744202D01*
X137654752Y-82744202D01*
X137467520Y-82744202D01*
X137467515Y-82744202D01*
X137283892Y-82780727D01*
X137283884Y-82780729D01*
X137110907Y-82852378D01*
X137110898Y-82852383D01*
X136955228Y-82956399D01*
X136955224Y-82956402D01*
X136822834Y-83088792D01*
X136822437Y-83089388D01*
X136822147Y-83089629D01*
X136818970Y-83093502D01*
X136818235Y-83092899D01*
X136768826Y-83134194D01*
X136719333Y-83144500D01*
X130712939Y-83144500D01*
X130645900Y-83124815D01*
X130613694Y-83093179D01*
X130613302Y-83093502D01*
X130610303Y-83089848D01*
X130609835Y-83089388D01*
X130609437Y-83088792D01*
X130477047Y-82956402D01*
X130477043Y-82956399D01*
X130321373Y-82852383D01*
X130321364Y-82852378D01*
X130148387Y-82780729D01*
X130148379Y-82780727D01*
X129964756Y-82744202D01*
X129964752Y-82744202D01*
X129777520Y-82744202D01*
X129777515Y-82744202D01*
X129593892Y-82780727D01*
X129593884Y-82780729D01*
X129420907Y-82852378D01*
X129420898Y-82852383D01*
X129265228Y-82956399D01*
X129265224Y-82956402D01*
X129132836Y-83088790D01*
X129132833Y-83088794D01*
X129028817Y-83244464D01*
X129028812Y-83244473D01*
X128957163Y-83417450D01*
X128957161Y-83417458D01*
X128920636Y-83601081D01*
X127922636Y-83601081D01*
X127922636Y-83576584D01*
X127922785Y-83570502D01*
X127924591Y-83533727D01*
X127925039Y-83527656D01*
X127929842Y-83478887D01*
X127930587Y-83472844D01*
X127931231Y-83468500D01*
X127624000Y-83468500D01*
X127624000Y-84126000D01*
X126626000Y-84126000D01*
X126626000Y-83468500D01*
X125124000Y-83468500D01*
X125124000Y-84126000D01*
X123611500Y-84126000D01*
X123611500Y-83753466D01*
X123585541Y-83622969D01*
X123585540Y-83622968D01*
X123585540Y-83622964D01*
X123534620Y-83500031D01*
X123533860Y-83498894D01*
X123460698Y-83389398D01*
X123460692Y-83389390D01*
X123379855Y-83308553D01*
X123346370Y-83247230D01*
X123343536Y-83220872D01*
X123343536Y-83183419D01*
X123343535Y-83183415D01*
X123336577Y-83148436D01*
X123307009Y-82999785D01*
X123235358Y-82826805D01*
X123235357Y-82826804D01*
X123235354Y-82826798D01*
X123127954Y-82666063D01*
X123129543Y-82665001D01*
X123105697Y-82608859D01*
X123117486Y-82539991D01*
X123164637Y-82488429D01*
X123228863Y-82470500D01*
X153669138Y-82470500D01*
X153736177Y-82490185D01*
X153756819Y-82506819D01*
X156113181Y-84863181D01*
X156146666Y-84924504D01*
X156149500Y-84950862D01*
X156149500Y-86907237D01*
X156129815Y-86974276D01*
X156077011Y-87020031D01*
X156007853Y-87029975D01*
X155944297Y-87000950D01*
X155925182Y-86980122D01*
X155848745Y-86874916D01*
X155848741Y-86874911D01*
X155698422Y-86724592D01*
X155526456Y-86599653D01*
X155337050Y-86503146D01*
X155337049Y-86503145D01*
X155337048Y-86503145D01*
X155134879Y-86437456D01*
X155134877Y-86437455D01*
X155134876Y-86437455D01*
X154973593Y-86411910D01*
X154924923Y-86404202D01*
X154712349Y-86404202D01*
X154533974Y-86432453D01*
X154464681Y-86423498D01*
X154426896Y-86397661D01*
X152031944Y-84002708D01*
X152031940Y-84002705D01*
X151921310Y-83928784D01*
X151921300Y-83928779D01*
X151798371Y-83877860D01*
X151798363Y-83877858D01*
X151667870Y-83851901D01*
X151667866Y-83851901D01*
X145191474Y-83851901D01*
X145124435Y-83832216D01*
X145103793Y-83815582D01*
X145077312Y-83789101D01*
X145077308Y-83789098D01*
X144921638Y-83685082D01*
X144921629Y-83685077D01*
X144748652Y-83613428D01*
X144748644Y-83613426D01*
X144565021Y-83576901D01*
X144565017Y-83576901D01*
X144377785Y-83576901D01*
X144377780Y-83576901D01*
X144194157Y-83613426D01*
X144194149Y-83613428D01*
X144021172Y-83685077D01*
X144021163Y-83685082D01*
X143865493Y-83789098D01*
X143865489Y-83789101D01*
X143733101Y-83921489D01*
X143733098Y-83921493D01*
X143629082Y-84077163D01*
X143629077Y-84077172D01*
X143557428Y-84250149D01*
X143557426Y-84250157D01*
X143520901Y-84433780D01*
X143520901Y-84621021D01*
X143557426Y-84804644D01*
X143557428Y-84804652D01*
X143629077Y-84977629D01*
X143629082Y-84977638D01*
X143733098Y-85133308D01*
X143733101Y-85133312D01*
X143865489Y-85265700D01*
X143865493Y-85265703D01*
X144021163Y-85369719D01*
X144021172Y-85369724D01*
X144060357Y-85385955D01*
X144194150Y-85441374D01*
X144336470Y-85469683D01*
X144377780Y-85477900D01*
X144377784Y-85477901D01*
X144377785Y-85477901D01*
X144565018Y-85477901D01*
X144565019Y-85477900D01*
X144748652Y-85441374D01*
X144921632Y-85369723D01*
X145077309Y-85265703D01*
X145077312Y-85265700D01*
X145103793Y-85239220D01*
X145165116Y-85205735D01*
X145191474Y-85202901D01*
X151270172Y-85202901D01*
X151337211Y-85222586D01*
X151357853Y-85239220D01*
X152311154Y-86192521D01*
X152344639Y-86253844D01*
X152339655Y-86323536D01*
X152297783Y-86379469D01*
X152232319Y-86403886D01*
X152223473Y-86404202D01*
X151380765Y-86404202D01*
X151380759Y-86404203D01*
X151321152Y-86410610D01*
X151186307Y-86460904D01*
X151186300Y-86460908D01*
X151071091Y-86547154D01*
X151071088Y-86547157D01*
X150984842Y-86662366D01*
X150984838Y-86662373D01*
X150934544Y-86797219D01*
X150928137Y-86856818D01*
X150928136Y-86856837D01*
X150928136Y-88652572D01*
X150928137Y-88652578D01*
X150934544Y-88712185D01*
X150984838Y-88847030D01*
X150984842Y-88847037D01*
X151071088Y-88962246D01*
X151071091Y-88962249D01*
X151186300Y-89048495D01*
X151186307Y-89048499D01*
X151317718Y-89097512D01*
X151373652Y-89139383D01*
X151398069Y-89204847D01*
X151383218Y-89273120D01*
X151362067Y-89301375D01*
X151248525Y-89414917D01*
X151123587Y-89586881D01*
X151027080Y-89776287D01*
X150961389Y-89978462D01*
X150928136Y-90188415D01*
X150928136Y-90400988D01*
X150961364Y-90610785D01*
X150961390Y-90610945D01*
X151021133Y-90794815D01*
X151027080Y-90813116D01*
X151123587Y-91002522D01*
X151248526Y-91174488D01*
X151398849Y-91324811D01*
X151570818Y-91449752D01*
X151579582Y-91454218D01*
X151630378Y-91502193D01*
X151647172Y-91570014D01*
X151624634Y-91636149D01*
X151579582Y-91675186D01*
X151570818Y-91679651D01*
X151398849Y-91804592D01*
X151248526Y-91954915D01*
X151123587Y-92126881D01*
X151027080Y-92316287D01*
X150961389Y-92518462D01*
X150935126Y-92684282D01*
X150928136Y-92728415D01*
X150928136Y-92940989D01*
X150931274Y-92960804D01*
X150922321Y-93030095D01*
X150877326Y-93083548D01*
X150810575Y-93104189D01*
X150808802Y-93104202D01*
X150010636Y-93104202D01*
X149943597Y-93084517D01*
X149897842Y-93031713D01*
X149886636Y-92980202D01*
X149886636Y-92916008D01*
X149886635Y-92916006D01*
X149852032Y-92742043D01*
X149852029Y-92742034D01*
X149845936Y-92727325D01*
X149820536Y-92666002D01*
X149784152Y-92578161D01*
X149784145Y-92578148D01*
X149685600Y-92430667D01*
X149685597Y-92430663D01*
X149560174Y-92305240D01*
X149560170Y-92305237D01*
X149412689Y-92206692D01*
X149412676Y-92206685D01*
X149248803Y-92138808D01*
X149248794Y-92138805D01*
X149074830Y-92104202D01*
X149074827Y-92104202D01*
X149021588Y-92104202D01*
X148954549Y-92084517D01*
X148933907Y-92067883D01*
X146990024Y-90124000D01*
X148401408Y-90124000D01*
X149126000Y-90848592D01*
X149126000Y-90124000D01*
X148401408Y-90124000D01*
X146990024Y-90124000D01*
X145992024Y-89126000D01*
X147624000Y-89126000D01*
X149126000Y-89126000D01*
X149126000Y-87624000D01*
X147624000Y-87624000D01*
X147624000Y-89126000D01*
X145992024Y-89126000D01*
X145879632Y-89013608D01*
X145879612Y-89013586D01*
X145788167Y-88922141D01*
X145736943Y-88887915D01*
X145685720Y-88853688D01*
X145685717Y-88853686D01*
X145685714Y-88853685D01*
X145605226Y-88820347D01*
X145571887Y-88806537D01*
X145561861Y-88804543D01*
X145511463Y-88794518D01*
X145451044Y-88782500D01*
X145451041Y-88782500D01*
X145451040Y-88782500D01*
X136496607Y-88782500D01*
X136373393Y-88782500D01*
X136373389Y-88782500D01*
X136312971Y-88794518D01*
X136275259Y-88802019D01*
X136252550Y-88806536D01*
X136252548Y-88806537D01*
X136219207Y-88820347D01*
X136138719Y-88853684D01*
X136138705Y-88853692D01*
X136036272Y-88922138D01*
X136036264Y-88922144D01*
X135949142Y-89009267D01*
X135949134Y-89009273D01*
X135944915Y-89013493D01*
X135943172Y-89014444D01*
X135935861Y-89020786D01*
X135935857Y-89020789D01*
X135934606Y-89019121D01*
X135883592Y-89046978D01*
X135857234Y-89049812D01*
X135803994Y-89049812D01*
X135630029Y-89084415D01*
X135630020Y-89084418D01*
X135466147Y-89152295D01*
X135466134Y-89152302D01*
X135318653Y-89250847D01*
X135318649Y-89250850D01*
X135193226Y-89376273D01*
X135193223Y-89376277D01*
X135094678Y-89523758D01*
X135094671Y-89523771D01*
X135026794Y-89687644D01*
X135026791Y-89687653D01*
X134992188Y-89861616D01*
X134992188Y-90039007D01*
X135026791Y-90212970D01*
X135026794Y-90212979D01*
X135094671Y-90376852D01*
X135094678Y-90376865D01*
X135193223Y-90524346D01*
X135193226Y-90524350D01*
X135318649Y-90649773D01*
X135318653Y-90649776D01*
X135466134Y-90748321D01*
X135466147Y-90748328D01*
X135517518Y-90769606D01*
X135630022Y-90816206D01*
X135630024Y-90816206D01*
X135630029Y-90816208D01*
X135803992Y-90850811D01*
X135803995Y-90850812D01*
X135803997Y-90850812D01*
X135981381Y-90850812D01*
X135981382Y-90850811D01*
X136043089Y-90838537D01*
X136155346Y-90816208D01*
X136155349Y-90816206D01*
X136155354Y-90816206D01*
X136319235Y-90748325D01*
X136466723Y-90649776D01*
X136538784Y-90577714D01*
X136543810Y-90602980D01*
X136611209Y-90607799D01*
X136667144Y-90649669D01*
X136687092Y-90694399D01*
X136687774Y-90694193D01*
X136689420Y-90699620D01*
X136689497Y-90699792D01*
X136689543Y-90700025D01*
X136689544Y-90700029D01*
X136760809Y-90872080D01*
X136760811Y-90872084D01*
X136864272Y-91026924D01*
X136864278Y-91026932D01*
X136942696Y-91105350D01*
X136976181Y-91166673D01*
X136971197Y-91236365D01*
X136946542Y-91274727D01*
X136947825Y-91275584D01*
X136858910Y-91364500D01*
X135849394Y-91364500D01*
X135849388Y-91364500D01*
X135811226Y-91372090D01*
X135762850Y-91372090D01*
X135744558Y-91368451D01*
X135724691Y-91364500D01*
X135547309Y-91364500D01*
X135547306Y-91364500D01*
X135373341Y-91399103D01*
X135373332Y-91399106D01*
X135209459Y-91466983D01*
X135209446Y-91466990D01*
X135061965Y-91565535D01*
X135061961Y-91565538D01*
X134936538Y-91690961D01*
X134936535Y-91690965D01*
X134837990Y-91838446D01*
X134837983Y-91838459D01*
X134770106Y-92002332D01*
X134770103Y-92002341D01*
X134735500Y-92176304D01*
X134735500Y-92290500D01*
X134715815Y-92357539D01*
X134663011Y-92403294D01*
X134611500Y-92414500D01*
X133630268Y-92414500D01*
X133563229Y-92394815D01*
X133560616Y-92391799D01*
X133537915Y-92414500D01*
X133530788Y-92414500D01*
X133515428Y-92337280D01*
X133443777Y-92164300D01*
X133408971Y-92112209D01*
X133388093Y-92045532D01*
X133406577Y-91978152D01*
X133408971Y-91974426D01*
X133450411Y-91912406D01*
X133521675Y-91740359D01*
X133521678Y-91740347D01*
X133526803Y-91714585D01*
X132937235Y-91714585D01*
X132889782Y-91705146D01*
X132878706Y-91700558D01*
X132878698Y-91700556D01*
X132712393Y-91667476D01*
X132650482Y-91635091D01*
X132615908Y-91574376D01*
X132612584Y-91545859D01*
X132612584Y-91338585D01*
X132632269Y-91271546D01*
X132685073Y-91225791D01*
X132736584Y-91214585D01*
X133526803Y-91214585D01*
X133526803Y-91214584D01*
X133521678Y-91188822D01*
X133521675Y-91188810D01*
X133450410Y-91016759D01*
X133450408Y-91016755D01*
X133346947Y-90861915D01*
X133346941Y-90861907D01*
X133215258Y-90730224D01*
X133089187Y-90645987D01*
X133044382Y-90592375D01*
X133035675Y-90523050D01*
X133036454Y-90518725D01*
X133042063Y-90490531D01*
X133042063Y-90357469D01*
X133016104Y-90226964D01*
X132965183Y-90104031D01*
X132965181Y-90104028D01*
X132965179Y-90104024D01*
X132891258Y-89993394D01*
X132891255Y-89993390D01*
X132797172Y-89899307D01*
X132797168Y-89899304D01*
X132686538Y-89825383D01*
X132686529Y-89825378D01*
X132672077Y-89819392D01*
X132617675Y-89775549D01*
X132595612Y-89709255D01*
X132612893Y-89641556D01*
X132650653Y-89601723D01*
X132654035Y-89599464D01*
X132779464Y-89474035D01*
X132878013Y-89326547D01*
X132945894Y-89162666D01*
X132947957Y-89152299D01*
X132974116Y-89020786D01*
X132980500Y-88988691D01*
X132980500Y-88811309D01*
X132980500Y-88811306D01*
X132980499Y-88811304D01*
X132945896Y-88637341D01*
X132945893Y-88637333D01*
X132915395Y-88563702D01*
X132878016Y-88473459D01*
X132878009Y-88473446D01*
X132779464Y-88325965D01*
X132779461Y-88325961D01*
X132654038Y-88200538D01*
X132654034Y-88200535D01*
X132506553Y-88101990D01*
X132506540Y-88101983D01*
X132342667Y-88034106D01*
X132342658Y-88034103D01*
X132168694Y-87999500D01*
X132168691Y-87999500D01*
X131991309Y-87999500D01*
X131991306Y-87999500D01*
X131817341Y-88034103D01*
X131817332Y-88034106D01*
X131653459Y-88101983D01*
X131653446Y-88101990D01*
X131505965Y-88200535D01*
X131505961Y-88200538D01*
X131380538Y-88325961D01*
X131380535Y-88325965D01*
X131281990Y-88473446D01*
X131281983Y-88473459D01*
X131214106Y-88637332D01*
X131214106Y-88637333D01*
X131213448Y-88640643D01*
X131204911Y-88683556D01*
X131172528Y-88745466D01*
X131111813Y-88780040D01*
X131083295Y-88783364D01*
X125778786Y-88783364D01*
X125778766Y-88783363D01*
X125772652Y-88783363D01*
X125649439Y-88783363D01*
X125548642Y-88803412D01*
X125548637Y-88803412D01*
X125528594Y-88807400D01*
X125528592Y-88807400D01*
X125481442Y-88826931D01*
X125414764Y-88854549D01*
X125414762Y-88854550D01*
X125312311Y-88923005D01*
X124808626Y-89426689D01*
X124808627Y-89426690D01*
X124624611Y-89610706D01*
X124621667Y-89606299D01*
X124576534Y-89630944D01*
X124506842Y-89625960D01*
X124462495Y-89597459D01*
X124343268Y-89478232D01*
X124343260Y-89478226D01*
X124188420Y-89374765D01*
X124188416Y-89374763D01*
X124016365Y-89303498D01*
X124016353Y-89303495D01*
X123990591Y-89298370D01*
X123990591Y-90088590D01*
X123970906Y-90155629D01*
X123918102Y-90201384D01*
X123866591Y-90212590D01*
X123740591Y-90212590D01*
X123740591Y-90338590D01*
X123720906Y-90405629D01*
X123668102Y-90451384D01*
X123616591Y-90462590D01*
X122826371Y-90462590D01*
X122831496Y-90488352D01*
X122831499Y-90488364D01*
X122902764Y-90660415D01*
X122902766Y-90660419D01*
X123006227Y-90815259D01*
X123006233Y-90815267D01*
X123125460Y-90934494D01*
X123158945Y-90995817D01*
X123153961Y-91065509D01*
X123135395Y-91094397D01*
X123138707Y-91096610D01*
X123114905Y-91120413D01*
X123114903Y-91120415D01*
X123027778Y-91207540D01*
X122994895Y-91256753D01*
X122971016Y-91292488D01*
X122959323Y-91309988D01*
X122959321Y-91309991D01*
X122930296Y-91380065D01*
X122930296Y-91380068D01*
X122921215Y-91401993D01*
X122912173Y-91423822D01*
X122912171Y-91423829D01*
X122888136Y-91544662D01*
X122888136Y-92075911D01*
X122868451Y-92142950D01*
X122851817Y-92163592D01*
X117487780Y-97527628D01*
X117487774Y-97527636D01*
X117419328Y-97630069D01*
X117419320Y-97630083D01*
X117389947Y-97701001D01*
X117385983Y-97710571D01*
X117382104Y-97719936D01*
X117372173Y-97743909D01*
X117372171Y-97743917D01*
X117348136Y-97864753D01*
X117348136Y-108340202D01*
X117328451Y-108407241D01*
X117275647Y-108452996D01*
X117224137Y-108464202D01*
X117075766Y-108464202D01*
X117075759Y-108464203D01*
X117016152Y-108470610D01*
X116881307Y-108520904D01*
X116881300Y-108520908D01*
X116766091Y-108607154D01*
X116766088Y-108607157D01*
X116679842Y-108722366D01*
X116679838Y-108722373D01*
X116629544Y-108857219D01*
X116623137Y-108916818D01*
X116623136Y-108916837D01*
X116623136Y-110712572D01*
X116623137Y-110712578D01*
X116629544Y-110772185D01*
X116679838Y-110907030D01*
X116679840Y-110907033D01*
X116697923Y-110931189D01*
X116722340Y-110996654D01*
X116707488Y-111064927D01*
X116658083Y-111114332D01*
X116598656Y-111129500D01*
X115130862Y-111129500D01*
X115063823Y-111109815D01*
X115043181Y-111093181D01*
X113206819Y-109256819D01*
X113173334Y-109195496D01*
X113170500Y-109169138D01*
X113170500Y-109126000D01*
X115124000Y-109126000D01*
X115625136Y-109126000D01*
X115625136Y-108903454D01*
X115625181Y-108900130D01*
X115625720Y-108880029D01*
X115625853Y-108876709D01*
X115627285Y-108850022D01*
X115627507Y-108846713D01*
X115629117Y-108826720D01*
X115629428Y-108823417D01*
X115640598Y-108719527D01*
X115641665Y-108711859D01*
X115649572Y-108665673D01*
X115651117Y-108658083D01*
X115665462Y-108597372D01*
X115667478Y-108589893D01*
X115681086Y-108545030D01*
X115683565Y-108537690D01*
X115757223Y-108340200D01*
X115760611Y-108332020D01*
X115782869Y-108283283D01*
X115786831Y-108275369D01*
X115821008Y-108212779D01*
X115825526Y-108205165D01*
X115854490Y-108160098D01*
X115859538Y-108152828D01*
X115988522Y-107980529D01*
X115994075Y-107973638D01*
X116029155Y-107933153D01*
X116035187Y-107926674D01*
X116085608Y-107876253D01*
X116092087Y-107870221D01*
X116132572Y-107835141D01*
X116139463Y-107829588D01*
X116311762Y-107700604D01*
X116319032Y-107695556D01*
X116350136Y-107675565D01*
X116350136Y-107624000D01*
X115124000Y-107624000D01*
X115124000Y-109126000D01*
X113170500Y-109126000D01*
X113170500Y-106626000D01*
X115124000Y-106626000D01*
X116350136Y-106626000D01*
X116350136Y-105124000D01*
X115124000Y-105124000D01*
X115124000Y-106626000D01*
X113170500Y-106626000D01*
X113170500Y-104126000D01*
X115124000Y-104126000D01*
X116350136Y-104126000D01*
X116350136Y-102624000D01*
X115124000Y-102624000D01*
X115124000Y-104126000D01*
X113170500Y-104126000D01*
X113170500Y-101626000D01*
X115124000Y-101626000D01*
X116350136Y-101626000D01*
X116350136Y-100124000D01*
X115124000Y-100124000D01*
X115124000Y-101626000D01*
X113170500Y-101626000D01*
X113170500Y-99126000D01*
X115124000Y-99126000D01*
X116350136Y-99126000D01*
X116350136Y-97840256D01*
X116350285Y-97834174D01*
X116352091Y-97797399D01*
X116352539Y-97791328D01*
X116357342Y-97742559D01*
X116358087Y-97736518D01*
X116363490Y-97700092D01*
X116364531Y-97694095D01*
X116378473Y-97624000D01*
X115124000Y-97624000D01*
X115124000Y-99126000D01*
X113170500Y-99126000D01*
X113170500Y-96626000D01*
X115124000Y-96626000D01*
X116626000Y-96626000D01*
X116626000Y-95980025D01*
X117624000Y-95980025D01*
X118480025Y-95124000D01*
X117624000Y-95124000D01*
X117624000Y-95980025D01*
X116626000Y-95980025D01*
X116626000Y-95124000D01*
X115124000Y-95124000D01*
X115124000Y-96626000D01*
X113170500Y-96626000D01*
X113170500Y-94126000D01*
X115298740Y-94126000D01*
X116626000Y-94126000D01*
X117624000Y-94126000D01*
X119126000Y-94126000D01*
X119126000Y-93480025D01*
X120124000Y-93480025D01*
X120980025Y-92624000D01*
X120124000Y-92624000D01*
X120124000Y-93480025D01*
X119126000Y-93480025D01*
X119126000Y-92624000D01*
X117624000Y-92624000D01*
X117624000Y-94126000D01*
X116626000Y-94126000D01*
X116626000Y-92624000D01*
X116236016Y-92624000D01*
X116237341Y-92678000D01*
X116183135Y-92950508D01*
X116181802Y-92956445D01*
X116172853Y-92992172D01*
X116171229Y-92998042D01*
X116157002Y-93044937D01*
X116155094Y-93050712D01*
X116142692Y-93085374D01*
X116140501Y-93091053D01*
X116050480Y-93308384D01*
X116048014Y-93313948D01*
X116032267Y-93347242D01*
X116029529Y-93352680D01*
X116006427Y-93395899D01*
X116003427Y-93401195D01*
X115984499Y-93432773D01*
X115981244Y-93437912D01*
X115850555Y-93633503D01*
X115847053Y-93638477D01*
X115825120Y-93668052D01*
X115821373Y-93672853D01*
X115790283Y-93710736D01*
X115786309Y-93715343D01*
X115761578Y-93742630D01*
X115757380Y-93747039D01*
X115591039Y-93913380D01*
X115586630Y-93917578D01*
X115559343Y-93942309D01*
X115554736Y-93946283D01*
X115516853Y-93977373D01*
X115512052Y-93981120D01*
X115482477Y-94003053D01*
X115477503Y-94006555D01*
X115298740Y-94126000D01*
X113170500Y-94126000D01*
X113170500Y-92823050D01*
X113190185Y-92756011D01*
X113242989Y-92710256D01*
X113249000Y-92709391D01*
X113249000Y-92653958D01*
X113259719Y-92707850D01*
X113312147Y-92700312D01*
X113375703Y-92729337D01*
X113409061Y-92775598D01*
X113462173Y-92903825D01*
X113462175Y-92903829D01*
X113565636Y-93058669D01*
X113565642Y-93058677D01*
X113697322Y-93190357D01*
X113697330Y-93190363D01*
X113852170Y-93293824D01*
X114024226Y-93365091D01*
X114024236Y-93365094D01*
X114049999Y-93370218D01*
X114550000Y-93370218D01*
X114575763Y-93365094D01*
X114575773Y-93365091D01*
X114747829Y-93293824D01*
X114902669Y-93190363D01*
X114902677Y-93190357D01*
X115034357Y-93058677D01*
X115034363Y-93058669D01*
X115137824Y-92903829D01*
X115137826Y-92903825D01*
X115209091Y-92731774D01*
X115209094Y-92731762D01*
X115214219Y-92706000D01*
X114550000Y-92706000D01*
X114550000Y-93370218D01*
X114049999Y-93370218D01*
X114050000Y-93370217D01*
X114050000Y-92580000D01*
X114069685Y-92512961D01*
X114122489Y-92467206D01*
X114174000Y-92456000D01*
X114300000Y-92456000D01*
X114300000Y-92330000D01*
X114319685Y-92262961D01*
X114372489Y-92217206D01*
X114424000Y-92206000D01*
X115214219Y-92206000D01*
X115214219Y-92205999D01*
X115209095Y-92180237D01*
X115209093Y-92180233D01*
X115192306Y-92139702D01*
X115030507Y-92139702D01*
X115014322Y-92138641D01*
X114790006Y-92109109D01*
X114774097Y-92105945D01*
X114555545Y-92047383D01*
X114540186Y-92042169D01*
X114331153Y-91955585D01*
X114316606Y-91948411D01*
X114120664Y-91835284D01*
X114107178Y-91826273D01*
X114009913Y-91751640D01*
X113982995Y-91745616D01*
X113955389Y-91724821D01*
X113856568Y-91626000D01*
X117624000Y-91626000D01*
X119126000Y-91626000D01*
X120124000Y-91626000D01*
X121626000Y-91626000D01*
X121626000Y-90124000D01*
X120124000Y-90124000D01*
X120124000Y-91626000D01*
X119126000Y-91626000D01*
X119126000Y-90124000D01*
X117624000Y-90124000D01*
X117624000Y-91626000D01*
X113856568Y-91626000D01*
X113850116Y-91619548D01*
X113850115Y-91619548D01*
X113697326Y-91721639D01*
X113697322Y-91721642D01*
X113565642Y-91853322D01*
X113565636Y-91853330D01*
X113462177Y-92008169D01*
X113462173Y-92008174D01*
X113409061Y-92136401D01*
X113365220Y-92190805D01*
X113298926Y-92212870D01*
X113259963Y-92202925D01*
X113249000Y-92258041D01*
X113249000Y-92200127D01*
X113231227Y-92195591D01*
X113183616Y-92144454D01*
X113170500Y-92088949D01*
X113170500Y-86851837D01*
X113793136Y-86851837D01*
X113793136Y-88647572D01*
X113793137Y-88647578D01*
X113799544Y-88707185D01*
X113849838Y-88842030D01*
X113849842Y-88842037D01*
X113936088Y-88957246D01*
X113936091Y-88957249D01*
X113966994Y-88980382D01*
X113978092Y-88988691D01*
X113992744Y-88999659D01*
X114051305Y-89043498D01*
X114186153Y-89093793D01*
X114245763Y-89100202D01*
X114280201Y-89100201D01*
X114273475Y-89105089D01*
X114323862Y-89119881D01*
X114341374Y-89140087D01*
X114344475Y-89136987D01*
X115014227Y-89806739D01*
X114950643Y-89823777D01*
X114836629Y-89889603D01*
X114743537Y-89982695D01*
X114677711Y-90096709D01*
X114660673Y-90160293D01*
X114031343Y-89530963D01*
X114031342Y-89530963D01*
X113992574Y-89584325D01*
X113896397Y-89773081D01*
X113830937Y-89974546D01*
X113830937Y-89974549D01*
X113797798Y-90183782D01*
X113797798Y-90395621D01*
X113830937Y-90604854D01*
X113830937Y-90604857D01*
X113896397Y-90806322D01*
X113992571Y-90995073D01*
X113992573Y-90995077D01*
X114019638Y-91032329D01*
X114052687Y-91027094D01*
X114052689Y-91027093D01*
X114660673Y-90419110D01*
X114677711Y-90482695D01*
X114743537Y-90596709D01*
X114836629Y-90689801D01*
X114950643Y-90755627D01*
X115014226Y-90772664D01*
X114719279Y-91067610D01*
X114847325Y-91109216D01*
X114865301Y-91116662D01*
X115051273Y-91211420D01*
X115067863Y-91221587D01*
X115236716Y-91344265D01*
X115251512Y-91356902D01*
X115399096Y-91504486D01*
X115411733Y-91519282D01*
X115469574Y-91598894D01*
X115469575Y-91598894D01*
X115660253Y-91536941D01*
X115660259Y-91536939D01*
X115849009Y-91440765D01*
X115902373Y-91401993D01*
X115902374Y-91401993D01*
X115273045Y-90772664D01*
X115336629Y-90755627D01*
X115450643Y-90689801D01*
X115543735Y-90596709D01*
X115609561Y-90482695D01*
X115626598Y-90419111D01*
X116255927Y-91048440D01*
X116255927Y-91048439D01*
X116294699Y-90995075D01*
X116390874Y-90806322D01*
X116456334Y-90604857D01*
X116456334Y-90604854D01*
X116489474Y-90395621D01*
X116489474Y-90183782D01*
X116456334Y-89974549D01*
X116456334Y-89974546D01*
X116452449Y-89962589D01*
X122826371Y-89962589D01*
X122826372Y-89962590D01*
X123490591Y-89962590D01*
X123490591Y-89298371D01*
X123490590Y-89298370D01*
X123464828Y-89303495D01*
X123464816Y-89303498D01*
X123292765Y-89374763D01*
X123292761Y-89374765D01*
X123137921Y-89478226D01*
X123137913Y-89478232D01*
X123006233Y-89609912D01*
X123006227Y-89609920D01*
X122902766Y-89764760D01*
X122902764Y-89764764D01*
X122831499Y-89936815D01*
X122831496Y-89936827D01*
X122826371Y-89962589D01*
X116452449Y-89962589D01*
X116390874Y-89773081D01*
X116294701Y-89584332D01*
X116255927Y-89530963D01*
X115626598Y-90160292D01*
X115609561Y-90096709D01*
X115543735Y-89982695D01*
X115450643Y-89889603D01*
X115336629Y-89823777D01*
X115273045Y-89806739D01*
X115942796Y-89136987D01*
X115946094Y-89140285D01*
X115970181Y-89115827D01*
X116013215Y-89104667D01*
X116007068Y-89100201D01*
X116041508Y-89100201D01*
X116101119Y-89093793D01*
X116235967Y-89043498D01*
X116351182Y-88957248D01*
X116437432Y-88842033D01*
X116487727Y-88707185D01*
X116491699Y-88670244D01*
X116518437Y-88605693D01*
X116575830Y-88565845D01*
X116614988Y-88559500D01*
X117643927Y-88559500D01*
X117710966Y-88579185D01*
X117731608Y-88595819D01*
X117758088Y-88622299D01*
X117758092Y-88622302D01*
X117913762Y-88726318D01*
X117913768Y-88726321D01*
X117913769Y-88726322D01*
X118086749Y-88797973D01*
X118232332Y-88826931D01*
X118270379Y-88834499D01*
X118270383Y-88834500D01*
X118270384Y-88834500D01*
X118457617Y-88834500D01*
X118457618Y-88834499D01*
X118641251Y-88797973D01*
X118813413Y-88726661D01*
X120124000Y-88726661D01*
X120124000Y-89126000D01*
X121626000Y-89126000D01*
X121626000Y-88791010D01*
X121425535Y-88751145D01*
X121419595Y-88749812D01*
X121383868Y-88740864D01*
X121378001Y-88739240D01*
X121331095Y-88725012D01*
X121325316Y-88723103D01*
X121290636Y-88710695D01*
X121284956Y-88708504D01*
X121067615Y-88618479D01*
X121062049Y-88616012D01*
X121028756Y-88600265D01*
X121023320Y-88597529D01*
X120980102Y-88574428D01*
X120974805Y-88571427D01*
X120943227Y-88552499D01*
X120938088Y-88549244D01*
X120742497Y-88418555D01*
X120737523Y-88415053D01*
X120707948Y-88393120D01*
X120703147Y-88389373D01*
X120665264Y-88358283D01*
X120660657Y-88354309D01*
X120648846Y-88343604D01*
X123191153Y-88343604D01*
X123198549Y-88341361D01*
X123204419Y-88339737D01*
X123240146Y-88330788D01*
X123246083Y-88329455D01*
X123518591Y-88275249D01*
X123572912Y-88276582D01*
X123740591Y-88318583D01*
X123908270Y-88276582D01*
X123962591Y-88275249D01*
X124126000Y-88307753D01*
X124126000Y-87894761D01*
X125124000Y-87894761D01*
X125169310Y-87875994D01*
X125174986Y-87873804D01*
X125209640Y-87861404D01*
X125215415Y-87859496D01*
X125262297Y-87845272D01*
X125268167Y-87843648D01*
X125303883Y-87834701D01*
X125309815Y-87833368D01*
X125353916Y-87824593D01*
X125353925Y-87824591D01*
X125478779Y-87799757D01*
X125484775Y-87798717D01*
X125521200Y-87793314D01*
X125527240Y-87792569D01*
X125576008Y-87787766D01*
X125582080Y-87787318D01*
X125618855Y-87785512D01*
X125624937Y-87785363D01*
X125797468Y-87785363D01*
X125797508Y-87785364D01*
X126626000Y-87785364D01*
X127624000Y-87785364D01*
X129126000Y-87785364D01*
X129126000Y-87624000D01*
X133488884Y-87624000D01*
X133502484Y-87637600D01*
X133506682Y-87642009D01*
X133531413Y-87669296D01*
X133535387Y-87673903D01*
X133566476Y-87711785D01*
X133570221Y-87716583D01*
X133592153Y-87746155D01*
X133595657Y-87751131D01*
X133721434Y-87939368D01*
X133724691Y-87944512D01*
X133743627Y-87976106D01*
X133746627Y-87981401D01*
X133769729Y-88024623D01*
X133772466Y-88030062D01*
X133788206Y-88063344D01*
X133790671Y-88068905D01*
X133877301Y-88278051D01*
X133879491Y-88283728D01*
X133891890Y-88318380D01*
X133893798Y-88324155D01*
X133908025Y-88371048D01*
X133909649Y-88376916D01*
X133918601Y-88412651D01*
X133919935Y-88418592D01*
X133964104Y-88640643D01*
X133965145Y-88646640D01*
X133970549Y-88683071D01*
X133971294Y-88689112D01*
X133976097Y-88737884D01*
X133976545Y-88743954D01*
X133978351Y-88780726D01*
X133978500Y-88786809D01*
X133978500Y-89013191D01*
X133978351Y-89019274D01*
X133976545Y-89056046D01*
X133976097Y-89062116D01*
X133971294Y-89110888D01*
X133970549Y-89116929D01*
X133969203Y-89126000D01*
X134126000Y-89126000D01*
X134126000Y-88213791D01*
X135124000Y-88213791D01*
X135270739Y-88153011D01*
X135276416Y-88150821D01*
X135311068Y-88138422D01*
X135316843Y-88136514D01*
X135363736Y-88122287D01*
X135369604Y-88120663D01*
X135405339Y-88111711D01*
X135411278Y-88110377D01*
X135473260Y-88098046D01*
X135604625Y-88010270D01*
X135609771Y-88007011D01*
X135641367Y-87988074D01*
X135646660Y-87985076D01*
X135689883Y-87961973D01*
X135695321Y-87959235D01*
X135728604Y-87943494D01*
X135734168Y-87941028D01*
X135837298Y-87898312D01*
X135893267Y-87875130D01*
X135898942Y-87872941D01*
X135933592Y-87860542D01*
X135939369Y-87858633D01*
X135986263Y-87844406D01*
X135992130Y-87842782D01*
X136027868Y-87833829D01*
X136033810Y-87832495D01*
X136118275Y-87815694D01*
X136202731Y-87798895D01*
X136208730Y-87797854D01*
X136245159Y-87792451D01*
X136251198Y-87791706D01*
X136299969Y-87786903D01*
X136306039Y-87786455D01*
X136342811Y-87784649D01*
X136348894Y-87784500D01*
X136626000Y-87784500D01*
X137624000Y-87784500D01*
X139126000Y-87784500D01*
X140124000Y-87784500D01*
X141626000Y-87784500D01*
X142624000Y-87784500D01*
X143569065Y-87784500D01*
X143558471Y-87764680D01*
X143555733Y-87759242D01*
X143539986Y-87725948D01*
X143537520Y-87720384D01*
X143497597Y-87624000D01*
X142624000Y-87624000D01*
X142624000Y-87784500D01*
X141626000Y-87784500D01*
X141626000Y-87624000D01*
X140124000Y-87624000D01*
X140124000Y-87784500D01*
X139126000Y-87784500D01*
X139126000Y-87624000D01*
X137624000Y-87624000D01*
X137624000Y-87784500D01*
X136626000Y-87784500D01*
X136626000Y-87624000D01*
X135124000Y-87624000D01*
X135124000Y-88213791D01*
X134126000Y-88213791D01*
X134126000Y-87624000D01*
X133488884Y-87624000D01*
X129126000Y-87624000D01*
X127624000Y-87624000D01*
X127624000Y-87785364D01*
X126626000Y-87785364D01*
X126626000Y-87624000D01*
X125124000Y-87624000D01*
X125124000Y-87894761D01*
X124126000Y-87894761D01*
X124126000Y-87624000D01*
X123710403Y-87624000D01*
X123670480Y-87720384D01*
X123668014Y-87725948D01*
X123652267Y-87759242D01*
X123649529Y-87764680D01*
X123626427Y-87807899D01*
X123623427Y-87813195D01*
X123604499Y-87844773D01*
X123601244Y-87849912D01*
X123470555Y-88045503D01*
X123467053Y-88050477D01*
X123445120Y-88080052D01*
X123441373Y-88084853D01*
X123410283Y-88122736D01*
X123406309Y-88127343D01*
X123381578Y-88154630D01*
X123377380Y-88159039D01*
X123211039Y-88325380D01*
X123206630Y-88329578D01*
X123191153Y-88343604D01*
X120648846Y-88343604D01*
X120633370Y-88329578D01*
X120628961Y-88325380D01*
X120462620Y-88159039D01*
X120458422Y-88154630D01*
X120433691Y-88127343D01*
X120429717Y-88122736D01*
X120398627Y-88084853D01*
X120394880Y-88080052D01*
X120372947Y-88050477D01*
X120369445Y-88045503D01*
X120312500Y-87960278D01*
X120312500Y-88002118D01*
X120312351Y-88008200D01*
X120310545Y-88044975D01*
X120310097Y-88051046D01*
X120305294Y-88099815D01*
X120304549Y-88105858D01*
X120299145Y-88142286D01*
X120298104Y-88148281D01*
X120252015Y-88379987D01*
X120250682Y-88385924D01*
X120241733Y-88421652D01*
X120240109Y-88427522D01*
X120225882Y-88474418D01*
X120223973Y-88480197D01*
X120211570Y-88514859D01*
X120209380Y-88520535D01*
X120124000Y-88726661D01*
X118813413Y-88726661D01*
X118814231Y-88726322D01*
X118969908Y-88622302D01*
X119102302Y-88489908D01*
X119206322Y-88334231D01*
X119277973Y-88161251D01*
X119314500Y-87977616D01*
X119314500Y-87790384D01*
X119277973Y-87606749D01*
X119206322Y-87433769D01*
X119206321Y-87433768D01*
X119206318Y-87433762D01*
X119102302Y-87278092D01*
X119102299Y-87278088D01*
X118969911Y-87145700D01*
X118969907Y-87145697D01*
X118928456Y-87118000D01*
X121005780Y-87118000D01*
X121010905Y-87143762D01*
X121010908Y-87143774D01*
X121082173Y-87315825D01*
X121082175Y-87315829D01*
X121185636Y-87470669D01*
X121185642Y-87470677D01*
X121317322Y-87602357D01*
X121317330Y-87602363D01*
X121472170Y-87705824D01*
X121644226Y-87777091D01*
X121644236Y-87777094D01*
X121669999Y-87782218D01*
X122170000Y-87782218D01*
X122195763Y-87777094D01*
X122195773Y-87777091D01*
X122367829Y-87705824D01*
X122522669Y-87602363D01*
X122522677Y-87602357D01*
X122654357Y-87470677D01*
X122654363Y-87470669D01*
X122757824Y-87315829D01*
X122757826Y-87315825D01*
X122829091Y-87143774D01*
X122829094Y-87143762D01*
X122834219Y-87118000D01*
X144373780Y-87118000D01*
X144378905Y-87143762D01*
X144378908Y-87143774D01*
X144450173Y-87315825D01*
X144450175Y-87315829D01*
X144553636Y-87470669D01*
X144553642Y-87470677D01*
X144685322Y-87602357D01*
X144685330Y-87602363D01*
X144840170Y-87705824D01*
X145012226Y-87777091D01*
X145012236Y-87777094D01*
X145037999Y-87782218D01*
X145538000Y-87782218D01*
X145563763Y-87777094D01*
X145563773Y-87777091D01*
X145735829Y-87705824D01*
X145890669Y-87602363D01*
X145890677Y-87602357D01*
X146022357Y-87470677D01*
X146022363Y-87470669D01*
X146125824Y-87315829D01*
X146125826Y-87315825D01*
X146197091Y-87143774D01*
X146197094Y-87143762D01*
X146202219Y-87118000D01*
X145538000Y-87118000D01*
X145538000Y-87782218D01*
X145037999Y-87782218D01*
X145038000Y-87782217D01*
X145038000Y-87118000D01*
X144373780Y-87118000D01*
X122834219Y-87118000D01*
X122170000Y-87118000D01*
X122170000Y-87782218D01*
X121669999Y-87782218D01*
X121670000Y-87782217D01*
X121670000Y-87118000D01*
X121005780Y-87118000D01*
X118928456Y-87118000D01*
X118814237Y-87041681D01*
X118814228Y-87041676D01*
X118641251Y-86970027D01*
X118641243Y-86970025D01*
X118457620Y-86933500D01*
X118457616Y-86933500D01*
X118270384Y-86933500D01*
X118270379Y-86933500D01*
X118086756Y-86970025D01*
X118086748Y-86970027D01*
X117913771Y-87041676D01*
X117913762Y-87041681D01*
X117758092Y-87145697D01*
X117758088Y-87145700D01*
X117731608Y-87172181D01*
X117670285Y-87205666D01*
X117643927Y-87208500D01*
X116618135Y-87208500D01*
X116551096Y-87188815D01*
X116505341Y-87136011D01*
X116494135Y-87084500D01*
X116494135Y-86851831D01*
X116494134Y-86851825D01*
X116494133Y-86851818D01*
X116488935Y-86803459D01*
X116487727Y-86792218D01*
X116437433Y-86657373D01*
X116437429Y-86657366D01*
X116413949Y-86626000D01*
X125124000Y-86626000D01*
X126626000Y-86626000D01*
X127624000Y-86626000D01*
X129126000Y-86626000D01*
X129126000Y-85630651D01*
X130124000Y-85630651D01*
X130124000Y-86626000D01*
X131626000Y-86626000D01*
X132624000Y-86626000D01*
X134126000Y-86626000D01*
X135124000Y-86626000D01*
X136626000Y-86626000D01*
X136626000Y-85643202D01*
X137624000Y-85643202D01*
X137624000Y-86626000D01*
X139126000Y-86626000D01*
X140124000Y-86626000D01*
X141626000Y-86626000D01*
X142624000Y-86626000D01*
X143354637Y-86626000D01*
X147624000Y-86626000D01*
X149126000Y-86626000D01*
X149126000Y-86200901D01*
X147624000Y-86200901D01*
X147624000Y-86626000D01*
X143354637Y-86626000D01*
X143356229Y-86617999D01*
X144373780Y-86617999D01*
X144373781Y-86618000D01*
X145038000Y-86618000D01*
X145538000Y-86618000D01*
X146202219Y-86618000D01*
X146202219Y-86617999D01*
X146197094Y-86592237D01*
X146197091Y-86592225D01*
X146125826Y-86420174D01*
X146125824Y-86420170D01*
X146022363Y-86265330D01*
X146022357Y-86265322D01*
X145890677Y-86133642D01*
X145890669Y-86133636D01*
X145735829Y-86030175D01*
X145735825Y-86030173D01*
X145563774Y-85958908D01*
X145563762Y-85958905D01*
X145538000Y-85953780D01*
X145538000Y-86618000D01*
X145038000Y-86618000D01*
X145038000Y-85953781D01*
X145037999Y-85953780D01*
X145012237Y-85958905D01*
X145012225Y-85958908D01*
X144840174Y-86030173D01*
X144840170Y-86030175D01*
X144685330Y-86133636D01*
X144685322Y-86133642D01*
X144553642Y-86265322D01*
X144553636Y-86265330D01*
X144450175Y-86420170D01*
X144450173Y-86420174D01*
X144378908Y-86592225D01*
X144378905Y-86592237D01*
X144373780Y-86617999D01*
X143356229Y-86617999D01*
X143404865Y-86373492D01*
X143406198Y-86367555D01*
X143415147Y-86331828D01*
X143416771Y-86325958D01*
X143430998Y-86279063D01*
X143432906Y-86273288D01*
X143445308Y-86238626D01*
X143447499Y-86232948D01*
X143462504Y-86196719D01*
X143290661Y-86081897D01*
X143285687Y-86078394D01*
X143256113Y-86056461D01*
X143251313Y-86052715D01*
X143213431Y-86021626D01*
X143208824Y-86017652D01*
X143181537Y-85992921D01*
X143177128Y-85988723D01*
X143010079Y-85821674D01*
X143005881Y-85817265D01*
X142981150Y-85789978D01*
X142977176Y-85785371D01*
X142946087Y-85747489D01*
X142942341Y-85742689D01*
X142920408Y-85713115D01*
X142916905Y-85708141D01*
X142785657Y-85511715D01*
X142782400Y-85506571D01*
X142763465Y-85474979D01*
X142760465Y-85469683D01*
X142737364Y-85426462D01*
X142734628Y-85421027D01*
X142718888Y-85387747D01*
X142716422Y-85382184D01*
X142626021Y-85163936D01*
X142624000Y-85158698D01*
X142624000Y-86626000D01*
X141626000Y-86626000D01*
X141626000Y-85124000D01*
X140124000Y-85124000D01*
X140124000Y-86626000D01*
X139126000Y-86626000D01*
X139126000Y-85124000D01*
X138887433Y-85124000D01*
X138855409Y-85156024D01*
X138851000Y-85160222D01*
X138823713Y-85184953D01*
X138819106Y-85188927D01*
X138781224Y-85220016D01*
X138776424Y-85223762D01*
X138746850Y-85245695D01*
X138741876Y-85249198D01*
X138545450Y-85380446D01*
X138540306Y-85383703D01*
X138508714Y-85402638D01*
X138503418Y-85405638D01*
X138460197Y-85428739D01*
X138454762Y-85431475D01*
X138421482Y-85447215D01*
X138415919Y-85449681D01*
X138197671Y-85540082D01*
X138191995Y-85542272D01*
X138157333Y-85554675D01*
X138151554Y-85556584D01*
X138104658Y-85570811D01*
X138098788Y-85572435D01*
X138063060Y-85581384D01*
X138057123Y-85582717D01*
X137825417Y-85628806D01*
X137819422Y-85629847D01*
X137782994Y-85635251D01*
X137776951Y-85635996D01*
X137728182Y-85640799D01*
X137722111Y-85641247D01*
X137685336Y-85643053D01*
X137679254Y-85643202D01*
X137624000Y-85643202D01*
X136626000Y-85643202D01*
X136626000Y-85493500D01*
X135124000Y-85493500D01*
X135124000Y-86626000D01*
X134126000Y-86626000D01*
X134126000Y-85493500D01*
X132624000Y-85493500D01*
X132624000Y-86626000D01*
X131626000Y-86626000D01*
X131626000Y-85493500D01*
X130620130Y-85493500D01*
X130507671Y-85540082D01*
X130501995Y-85542272D01*
X130467333Y-85554675D01*
X130461554Y-85556584D01*
X130414658Y-85570811D01*
X130408788Y-85572435D01*
X130373060Y-85581384D01*
X130367123Y-85582717D01*
X130135417Y-85628806D01*
X130129422Y-85629847D01*
X130124000Y-85630651D01*
X129126000Y-85630651D01*
X129126000Y-85495097D01*
X129016354Y-85449681D01*
X129010790Y-85447215D01*
X128977510Y-85431475D01*
X128972075Y-85428739D01*
X128928854Y-85405638D01*
X128923558Y-85402638D01*
X128891966Y-85383703D01*
X128886822Y-85380446D01*
X128690396Y-85249198D01*
X128685422Y-85245695D01*
X128655848Y-85223762D01*
X128651048Y-85220016D01*
X128613166Y-85188927D01*
X128608559Y-85184953D01*
X128581272Y-85160222D01*
X128576863Y-85156024D01*
X128544839Y-85124000D01*
X127624000Y-85124000D01*
X127624000Y-86626000D01*
X126626000Y-86626000D01*
X126626000Y-85124000D01*
X125124000Y-85124000D01*
X125124000Y-86626000D01*
X116413949Y-86626000D01*
X116407959Y-86617999D01*
X121005780Y-86617999D01*
X121005781Y-86618000D01*
X121670000Y-86618000D01*
X121670000Y-85953781D01*
X121669999Y-85953780D01*
X121644237Y-85958905D01*
X121644225Y-85958908D01*
X121472174Y-86030173D01*
X121472170Y-86030175D01*
X121317330Y-86133636D01*
X121317322Y-86133642D01*
X121185642Y-86265322D01*
X121185636Y-86265330D01*
X121082175Y-86420170D01*
X121082173Y-86420174D01*
X121010908Y-86592225D01*
X121010905Y-86592237D01*
X121005780Y-86617999D01*
X116407959Y-86617999D01*
X116351183Y-86542157D01*
X116351180Y-86542154D01*
X116235971Y-86455908D01*
X116235964Y-86455904D01*
X116101118Y-86405610D01*
X116101119Y-86405610D01*
X116041519Y-86399203D01*
X116041517Y-86399202D01*
X116041509Y-86399202D01*
X116041500Y-86399202D01*
X114245765Y-86399202D01*
X114245759Y-86399203D01*
X114186152Y-86405610D01*
X114051307Y-86455904D01*
X114051300Y-86455908D01*
X113936091Y-86542154D01*
X113936088Y-86542157D01*
X113849842Y-86657366D01*
X113849838Y-86657373D01*
X113799544Y-86792219D01*
X113793137Y-86851818D01*
X113793137Y-86851825D01*
X113793136Y-86851837D01*
X113170500Y-86851837D01*
X113170500Y-86125511D01*
X120124000Y-86125511D01*
X120169520Y-86015616D01*
X120171986Y-86010052D01*
X120187733Y-85976758D01*
X120190471Y-85971320D01*
X120213573Y-85928101D01*
X120216573Y-85922805D01*
X120235501Y-85891227D01*
X120238756Y-85886088D01*
X120369445Y-85690497D01*
X120372947Y-85685523D01*
X120394880Y-85655948D01*
X120398627Y-85651147D01*
X120429717Y-85613264D01*
X120433691Y-85608657D01*
X120458422Y-85581370D01*
X120462620Y-85576961D01*
X120628961Y-85410620D01*
X120633370Y-85406422D01*
X120660657Y-85381691D01*
X120665264Y-85377717D01*
X120703147Y-85346627D01*
X120707948Y-85342880D01*
X120737523Y-85320947D01*
X120742497Y-85317445D01*
X120938088Y-85186756D01*
X120943227Y-85183501D01*
X120974805Y-85164573D01*
X120980101Y-85161573D01*
X120992046Y-85155187D01*
X120994706Y-85128185D01*
X120995222Y-85124000D01*
X120124000Y-85124000D01*
X120124000Y-86125511D01*
X113170500Y-86125511D01*
X113170500Y-86081476D01*
X117624000Y-86081476D01*
X117727465Y-86038620D01*
X117733141Y-86036430D01*
X117767803Y-86024027D01*
X117773582Y-86022118D01*
X117820478Y-86007891D01*
X117826348Y-86006267D01*
X117862076Y-85997318D01*
X117868013Y-85995985D01*
X118099719Y-85949896D01*
X118105714Y-85948855D01*
X118142142Y-85943451D01*
X118148185Y-85942706D01*
X118196954Y-85937903D01*
X118203025Y-85937455D01*
X118239800Y-85935649D01*
X118245882Y-85935500D01*
X118482118Y-85935500D01*
X118488200Y-85935649D01*
X118524975Y-85937455D01*
X118531046Y-85937903D01*
X118579815Y-85942706D01*
X118585858Y-85943451D01*
X118622286Y-85948855D01*
X118628281Y-85949896D01*
X118859987Y-85995985D01*
X118865924Y-85997318D01*
X118901652Y-86006267D01*
X118907522Y-86007891D01*
X118954418Y-86022118D01*
X118960197Y-86024027D01*
X118994859Y-86036430D01*
X119000535Y-86038620D01*
X119126000Y-86090589D01*
X119126000Y-85124000D01*
X117624000Y-85124000D01*
X117624000Y-86081476D01*
X113170500Y-86081476D01*
X113170500Y-85401202D01*
X115124000Y-85401202D01*
X116054884Y-85401202D01*
X116058208Y-85401247D01*
X116078309Y-85401786D01*
X116081629Y-85401919D01*
X116108316Y-85403351D01*
X116111625Y-85403573D01*
X116131618Y-85405183D01*
X116134921Y-85405494D01*
X116238811Y-85416664D01*
X116246479Y-85417731D01*
X116292665Y-85425638D01*
X116300255Y-85427183D01*
X116360966Y-85441528D01*
X116368445Y-85443544D01*
X116413308Y-85457152D01*
X116420648Y-85459631D01*
X116618138Y-85533289D01*
X116626000Y-85536545D01*
X116626000Y-85124000D01*
X115124000Y-85124000D01*
X115124000Y-85401202D01*
X113170500Y-85401202D01*
X113170500Y-84405862D01*
X113190185Y-84338823D01*
X113206819Y-84318181D01*
X113712616Y-83812384D01*
X115124000Y-83812384D01*
X115124000Y-84126000D01*
X116626000Y-84126000D01*
X117624000Y-84126000D01*
X119126000Y-84126000D01*
X120124000Y-84126000D01*
X120635647Y-84126000D01*
X120547656Y-83913571D01*
X120545466Y-83907895D01*
X120533063Y-83873233D01*
X120531154Y-83867454D01*
X120516927Y-83820558D01*
X120515303Y-83814688D01*
X120506354Y-83778960D01*
X120505021Y-83773023D01*
X120458932Y-83541317D01*
X120457891Y-83535322D01*
X120452487Y-83498894D01*
X120451742Y-83492851D01*
X120449344Y-83468500D01*
X120124000Y-83468500D01*
X120124000Y-84126000D01*
X119126000Y-84126000D01*
X119126000Y-83468500D01*
X117624000Y-83468500D01*
X117624000Y-84126000D01*
X116626000Y-84126000D01*
X116626000Y-83468500D01*
X115467884Y-83468500D01*
X115124000Y-83812384D01*
X113712616Y-83812384D01*
X115018181Y-82506819D01*
X115079504Y-82473334D01*
X115105862Y-82470500D01*
X121557209Y-82470500D01*
X121624248Y-82490185D01*
G37*
%TD.AperFunction*%
%TA.AperFunction,Conductor*%
G36*
X135287711Y-110007695D02*
G01*
X135353537Y-110121709D01*
X135446629Y-110214801D01*
X135560643Y-110280627D01*
X135624227Y-110297664D01*
X134994897Y-110926993D01*
X134996398Y-110946060D01*
X135007541Y-110960511D01*
X135013520Y-111030124D01*
X134989772Y-111075132D01*
X135096475Y-111129500D01*
X134083213Y-111129500D01*
X134016174Y-111109815D01*
X133970419Y-111057011D01*
X133960475Y-110987853D01*
X133989500Y-110924297D01*
X134010328Y-110905182D01*
X134093422Y-110844811D01*
X134093424Y-110844808D01*
X134093428Y-110844806D01*
X134243740Y-110694494D01*
X134243742Y-110694490D01*
X134243745Y-110694488D01*
X134257576Y-110675450D01*
X134368687Y-110522518D01*
X134416667Y-110428351D01*
X134430795Y-110456079D01*
X134491561Y-110441031D01*
X134557696Y-110463568D01*
X134596737Y-110508622D01*
X134602573Y-110520076D01*
X134641342Y-110573439D01*
X134641343Y-110573439D01*
X135270673Y-109944110D01*
X135287711Y-110007695D01*
G37*
%TD.AperFunction*%
%TA.AperFunction,Conductor*%
G36*
X136865927Y-110573440D02*
G01*
X136865927Y-110573439D01*
X136904700Y-110520073D01*
X136910534Y-110508625D01*
X136958507Y-110457828D01*
X137026328Y-110441031D01*
X137075590Y-110457817D01*
X137090604Y-110428350D01*
X137138585Y-110522518D01*
X137249694Y-110675448D01*
X137249694Y-110675450D01*
X137263526Y-110694488D01*
X137413849Y-110844811D01*
X137496944Y-110905182D01*
X137539610Y-110960511D01*
X137545589Y-111030125D01*
X137512984Y-111091920D01*
X137452145Y-111126277D01*
X137424059Y-111129500D01*
X136410796Y-111129500D01*
X136517977Y-111074888D01*
X136502487Y-111057011D01*
X136492543Y-110987853D01*
X136510716Y-110948059D01*
X136512374Y-110926993D01*
X135883044Y-110297664D01*
X135946629Y-110280627D01*
X136060643Y-110214801D01*
X136153735Y-110121709D01*
X136219561Y-110007695D01*
X136236598Y-109944110D01*
X136865927Y-110573440D01*
G37*
%TD.AperFunction*%
%TA.AperFunction,Conductor*%
G36*
X125857469Y-90249544D02*
G01*
X125913402Y-90291416D01*
X125937819Y-90356880D01*
X125938135Y-90365726D01*
X125938135Y-90517620D01*
X125960745Y-90631287D01*
X125974662Y-90701251D01*
X126046313Y-90874231D01*
X126060067Y-90894816D01*
X126060067Y-90894817D01*
X126081027Y-90926184D01*
X126101905Y-90992862D01*
X126083421Y-91060242D01*
X126081028Y-91063965D01*
X126007252Y-91174378D01*
X125935988Y-91346427D01*
X125935985Y-91346439D01*
X125930860Y-91372201D01*
X125930861Y-91372202D01*
X126771254Y-91372202D01*
X126788951Y-91373945D01*
X126788956Y-91373903D01*
X126795018Y-91374500D01*
X126795019Y-91374500D01*
X126982252Y-91374500D01*
X126988314Y-91373903D01*
X126988318Y-91373945D01*
X127006016Y-91372202D01*
X127759299Y-91372202D01*
X127759299Y-91372201D01*
X127754174Y-91346439D01*
X127754171Y-91346427D01*
X127722909Y-91270952D01*
X127715440Y-91201483D01*
X127746716Y-91139004D01*
X127790663Y-91112928D01*
X127789392Y-91110550D01*
X127782009Y-91099500D01*
X130913500Y-91099500D01*
X130980539Y-91119185D01*
X131026294Y-91171989D01*
X131037500Y-91223500D01*
X131037500Y-91868972D01*
X131063457Y-91999465D01*
X131063459Y-91999473D01*
X131114378Y-92122402D01*
X131114383Y-92122412D01*
X131188304Y-92233042D01*
X131188307Y-92233046D01*
X131621264Y-92666002D01*
X131654749Y-92727325D01*
X131655200Y-92729492D01*
X131687480Y-92891774D01*
X131687482Y-92891782D01*
X131759131Y-93064759D01*
X131759136Y-93064768D01*
X131863152Y-93220438D01*
X131863155Y-93220442D01*
X131995543Y-93352830D01*
X131995547Y-93352833D01*
X132151217Y-93456849D01*
X132151230Y-93456856D01*
X132161177Y-93460976D01*
X132215582Y-93504815D01*
X132237649Y-93571109D01*
X132220372Y-93638808D01*
X132169236Y-93686420D01*
X132161616Y-93689899D01*
X132161446Y-93689990D01*
X132013965Y-93788535D01*
X132013961Y-93788538D01*
X131888538Y-93913961D01*
X131888535Y-93913965D01*
X131789990Y-94061446D01*
X131789983Y-94061459D01*
X131722106Y-94225332D01*
X131722103Y-94225341D01*
X131687500Y-94399304D01*
X131687500Y-94576695D01*
X131722103Y-94750658D01*
X131722106Y-94750667D01*
X131789983Y-94914540D01*
X131789990Y-94914553D01*
X131888535Y-95062034D01*
X131888538Y-95062038D01*
X131926180Y-95099679D01*
X131959666Y-95161001D01*
X131962500Y-95187361D01*
X131962500Y-99445349D01*
X131942815Y-99512388D01*
X131890011Y-99558143D01*
X131885955Y-99559909D01*
X131869592Y-99566686D01*
X131869591Y-99566687D01*
X131722101Y-99665237D01*
X131722097Y-99665240D01*
X131596674Y-99790663D01*
X131596671Y-99790667D01*
X131498126Y-99938148D01*
X131498119Y-99938161D01*
X131430242Y-100102034D01*
X131430239Y-100102043D01*
X131395636Y-100276006D01*
X131395636Y-100453397D01*
X131430239Y-100627360D01*
X131430242Y-100627369D01*
X131498119Y-100791242D01*
X131498126Y-100791255D01*
X131596671Y-100938736D01*
X131596674Y-100938740D01*
X131722097Y-101064163D01*
X131722101Y-101064166D01*
X131869582Y-101162711D01*
X131869595Y-101162718D01*
X131962882Y-101201358D01*
X132033470Y-101230596D01*
X132033472Y-101230596D01*
X132033477Y-101230598D01*
X132207440Y-101265201D01*
X132207443Y-101265202D01*
X132207445Y-101265202D01*
X132384829Y-101265202D01*
X132384830Y-101265201D01*
X132442818Y-101253666D01*
X132558794Y-101230598D01*
X132558797Y-101230596D01*
X132558802Y-101230596D01*
X132722683Y-101162715D01*
X132870171Y-101064166D01*
X132995600Y-100938737D01*
X133094149Y-100791249D01*
X133162030Y-100627368D01*
X133162689Y-100624059D01*
X133191622Y-100478600D01*
X133196636Y-100453393D01*
X133196636Y-100276011D01*
X133196636Y-100276008D01*
X133195802Y-100271817D01*
X133195800Y-100223430D01*
X133197483Y-100214973D01*
X133208723Y-100158459D01*
X133208723Y-100158458D01*
X133208724Y-100158458D01*
X133208724Y-100158453D01*
X133213500Y-100134445D01*
X133213500Y-100011231D01*
X133213500Y-97266018D01*
X133233185Y-97198979D01*
X133285989Y-97153224D01*
X133355147Y-97143280D01*
X133418703Y-97172305D01*
X133425181Y-97178337D01*
X136559317Y-100312473D01*
X136592802Y-100373796D01*
X136595636Y-100400154D01*
X136595636Y-100453397D01*
X136630239Y-100627360D01*
X136630242Y-100627369D01*
X136698119Y-100791242D01*
X136698126Y-100791255D01*
X136796671Y-100938736D01*
X136796674Y-100938740D01*
X136922097Y-101064163D01*
X136922101Y-101064166D01*
X137069582Y-101162711D01*
X137069595Y-101162718D01*
X137162882Y-101201358D01*
X137233470Y-101230596D01*
X137233472Y-101230596D01*
X137233477Y-101230598D01*
X137407440Y-101265201D01*
X137407443Y-101265202D01*
X137407445Y-101265202D01*
X137584829Y-101265202D01*
X137584830Y-101265201D01*
X137642818Y-101253666D01*
X137758794Y-101230598D01*
X137758797Y-101230596D01*
X137758802Y-101230596D01*
X137922683Y-101162715D01*
X138070171Y-101064166D01*
X138195600Y-100938737D01*
X138294149Y-100791249D01*
X138362030Y-100627368D01*
X138362689Y-100624059D01*
X138391622Y-100478600D01*
X138396636Y-100453393D01*
X138396636Y-100276011D01*
X138396636Y-100276008D01*
X138396635Y-100276006D01*
X138362032Y-100102043D01*
X138362029Y-100102034D01*
X138361544Y-100100864D01*
X138332252Y-100030144D01*
X138294152Y-99938161D01*
X138294145Y-99938148D01*
X138195600Y-99790667D01*
X138195597Y-99790663D01*
X138070174Y-99665240D01*
X138070170Y-99665237D01*
X137922689Y-99566692D01*
X137922676Y-99566685D01*
X137758803Y-99498808D01*
X137758794Y-99498805D01*
X137584830Y-99464202D01*
X137584827Y-99464202D01*
X137531589Y-99464202D01*
X137464550Y-99444517D01*
X137443908Y-99427883D01*
X134265819Y-96249794D01*
X134232334Y-96188471D01*
X134229500Y-96162113D01*
X134229500Y-95479560D01*
X134249185Y-95412521D01*
X134301989Y-95366766D01*
X134371147Y-95356822D01*
X134377674Y-95357940D01*
X134422046Y-95366766D01*
X134531306Y-95388500D01*
X134531309Y-95388500D01*
X134708693Y-95388500D01*
X134769315Y-95376440D01*
X134846312Y-95361125D01*
X134915902Y-95367352D01*
X134971080Y-95410214D01*
X134994325Y-95476104D01*
X134994503Y-95482742D01*
X134994503Y-96012680D01*
X135018538Y-96133513D01*
X135018543Y-96133530D01*
X135065688Y-96247350D01*
X135065691Y-96247355D01*
X135093685Y-96289249D01*
X135093686Y-96289252D01*
X135134141Y-96349797D01*
X135134147Y-96349805D01*
X135225589Y-96441247D01*
X135225611Y-96441267D01*
X147036865Y-108252521D01*
X147070350Y-108313844D01*
X147065366Y-108383536D01*
X147023494Y-108439469D01*
X146958030Y-108463886D01*
X146949184Y-108464202D01*
X146837349Y-108464202D01*
X146788678Y-108471910D01*
X146627396Y-108497455D01*
X146425221Y-108563146D01*
X146235815Y-108659653D01*
X146104751Y-108754875D01*
X146104751Y-108754877D01*
X146063844Y-108784598D01*
X145913532Y-108934910D01*
X145877636Y-108984316D01*
X145877636Y-108931221D01*
X145818906Y-108927021D01*
X145762973Y-108885149D01*
X145746058Y-108854172D01*
X145696990Y-108722615D01*
X145696986Y-108722608D01*
X145610826Y-108607514D01*
X145610823Y-108607511D01*
X145495729Y-108521351D01*
X145495722Y-108521347D01*
X145361015Y-108471105D01*
X145361008Y-108471103D01*
X145301480Y-108464702D01*
X144653636Y-108464702D01*
X144653636Y-109381690D01*
X144596629Y-109348777D01*
X144469462Y-109314702D01*
X144337810Y-109314702D01*
X144210643Y-109348777D01*
X144153636Y-109381690D01*
X144153636Y-108464702D01*
X143505791Y-108464702D01*
X143446263Y-108471103D01*
X143446256Y-108471105D01*
X143311549Y-108521347D01*
X143311542Y-108521351D01*
X143196448Y-108607511D01*
X143196445Y-108607514D01*
X143110285Y-108722608D01*
X143110281Y-108722615D01*
X143060039Y-108857322D01*
X143060037Y-108857329D01*
X143053636Y-108916857D01*
X143053636Y-109564702D01*
X143970624Y-109564702D01*
X143937711Y-109621709D01*
X143903636Y-109748876D01*
X143903636Y-109880528D01*
X143937711Y-110007695D01*
X143970624Y-110064702D01*
X143053636Y-110064702D01*
X143053636Y-110712546D01*
X143060037Y-110772074D01*
X143060039Y-110772081D01*
X143110281Y-110906788D01*
X143110283Y-110906791D01*
X143128547Y-110931188D01*
X143152965Y-110996652D01*
X143138114Y-111064925D01*
X143101315Y-111101725D01*
X143102495Y-111103301D01*
X143115037Y-111115843D01*
X143133280Y-111129500D01*
X139163213Y-111129500D01*
X139096174Y-111109815D01*
X139050419Y-111057011D01*
X139040475Y-110987853D01*
X139069500Y-110924297D01*
X139090328Y-110905182D01*
X139173422Y-110844811D01*
X139173424Y-110844808D01*
X139173428Y-110844806D01*
X139323740Y-110694494D01*
X139323742Y-110694490D01*
X139323745Y-110694488D01*
X139448684Y-110522522D01*
X139448683Y-110522522D01*
X139448687Y-110522518D01*
X139545193Y-110333114D01*
X139610882Y-110130945D01*
X139644136Y-109920989D01*
X139644136Y-109708415D01*
X139610882Y-109498459D01*
X139545193Y-109296290D01*
X139448687Y-109106886D01*
X139448685Y-109106883D01*
X139448684Y-109106881D01*
X139323745Y-108934915D01*
X139173422Y-108784592D01*
X139001456Y-108659653D01*
X138812050Y-108563146D01*
X138812049Y-108563145D01*
X138812048Y-108563145D01*
X138609879Y-108497456D01*
X138609877Y-108497455D01*
X138609876Y-108497455D01*
X138448593Y-108471910D01*
X138399923Y-108464202D01*
X138187349Y-108464202D01*
X138138678Y-108471910D01*
X137977396Y-108497455D01*
X137775221Y-108563146D01*
X137585815Y-108659653D01*
X137413849Y-108784592D01*
X137263526Y-108934915D01*
X137249694Y-108953952D01*
X137249695Y-108953954D01*
X137138585Y-109106886D01*
X137090604Y-109201052D01*
X137076476Y-109173324D01*
X137015708Y-109188372D01*
X136949573Y-109165834D01*
X136910535Y-109120781D01*
X136904701Y-109109332D01*
X136865927Y-109055963D01*
X136236598Y-109685292D01*
X136219561Y-109621709D01*
X136153735Y-109507695D01*
X136060643Y-109414603D01*
X135946629Y-109348777D01*
X135883045Y-109331739D01*
X136512373Y-108702409D01*
X136512373Y-108702408D01*
X136459010Y-108663639D01*
X136270256Y-108567463D01*
X136068790Y-108502003D01*
X135859555Y-108468864D01*
X135647717Y-108468864D01*
X135438483Y-108502003D01*
X135438480Y-108502003D01*
X135237015Y-108567463D01*
X135048259Y-108663640D01*
X134994897Y-108702408D01*
X134994897Y-108702409D01*
X135624227Y-109331739D01*
X135560643Y-109348777D01*
X135446629Y-109414603D01*
X135353537Y-109507695D01*
X135287711Y-109621709D01*
X135270673Y-109685293D01*
X134641343Y-109055963D01*
X134641342Y-109055963D01*
X134602572Y-109109328D01*
X134596735Y-109120784D01*
X134548759Y-109171579D01*
X134480938Y-109188372D01*
X134431682Y-109171585D01*
X134416667Y-109201052D01*
X134368687Y-109106886D01*
X134257575Y-108953952D01*
X134257576Y-108953952D01*
X134243745Y-108934915D01*
X134093422Y-108784592D01*
X133921456Y-108659653D01*
X133732050Y-108563146D01*
X133732049Y-108563145D01*
X133732048Y-108563145D01*
X133529879Y-108497456D01*
X133529877Y-108497455D01*
X133529876Y-108497455D01*
X133368593Y-108471910D01*
X133319923Y-108464202D01*
X133107349Y-108464202D01*
X133058678Y-108471910D01*
X132897396Y-108497455D01*
X132695221Y-108563146D01*
X132505815Y-108659653D01*
X132333849Y-108784592D01*
X132183526Y-108934915D01*
X132058585Y-109106884D01*
X132054120Y-109115648D01*
X132006145Y-109166444D01*
X131938324Y-109183238D01*
X131872189Y-109160700D01*
X131833152Y-109115648D01*
X131828686Y-109106884D01*
X131703745Y-108934915D01*
X131553422Y-108784592D01*
X131381456Y-108659653D01*
X131192050Y-108563146D01*
X131192049Y-108563145D01*
X131192048Y-108563145D01*
X130989879Y-108497456D01*
X130989877Y-108497455D01*
X130989876Y-108497455D01*
X130828593Y-108471910D01*
X130779923Y-108464202D01*
X130567349Y-108464202D01*
X130518678Y-108471910D01*
X130357396Y-108497455D01*
X130155221Y-108563146D01*
X129965815Y-108659653D01*
X129793849Y-108784592D01*
X129643526Y-108934915D01*
X129518585Y-109106884D01*
X129514120Y-109115648D01*
X129466145Y-109166444D01*
X129398324Y-109183238D01*
X129332189Y-109160700D01*
X129293152Y-109115648D01*
X129288686Y-109106884D01*
X129163745Y-108934915D01*
X129013422Y-108784592D01*
X128841456Y-108659653D01*
X128652050Y-108563146D01*
X128652049Y-108563145D01*
X128652048Y-108563145D01*
X128449879Y-108497456D01*
X128449877Y-108497455D01*
X128449876Y-108497455D01*
X128288593Y-108471910D01*
X128239923Y-108464202D01*
X128027349Y-108464202D01*
X127978678Y-108471910D01*
X127817396Y-108497455D01*
X127615221Y-108563146D01*
X127425815Y-108659653D01*
X127253849Y-108784592D01*
X127103526Y-108934915D01*
X126978585Y-109106884D01*
X126974120Y-109115648D01*
X126926145Y-109166444D01*
X126858324Y-109183238D01*
X126792189Y-109160700D01*
X126753152Y-109115648D01*
X126748686Y-109106884D01*
X126623745Y-108934915D01*
X126473422Y-108784592D01*
X126301456Y-108659653D01*
X126112050Y-108563146D01*
X126112049Y-108563145D01*
X126112048Y-108563145D01*
X125909879Y-108497456D01*
X125909877Y-108497455D01*
X125909876Y-108497455D01*
X125748593Y-108471910D01*
X125699923Y-108464202D01*
X125487349Y-108464202D01*
X125438678Y-108471910D01*
X125277396Y-108497455D01*
X125075221Y-108563146D01*
X124885815Y-108659653D01*
X124713849Y-108784592D01*
X124563526Y-108934915D01*
X124438585Y-109106884D01*
X124434120Y-109115648D01*
X124386145Y-109166444D01*
X124318324Y-109183238D01*
X124252189Y-109160700D01*
X124213152Y-109115648D01*
X124208686Y-109106884D01*
X124083745Y-108934915D01*
X123933422Y-108784592D01*
X123761456Y-108659653D01*
X123572050Y-108563146D01*
X123572049Y-108563145D01*
X123572048Y-108563145D01*
X123369879Y-108497456D01*
X123369877Y-108497455D01*
X123369876Y-108497455D01*
X123208593Y-108471910D01*
X123159923Y-108464202D01*
X122947349Y-108464202D01*
X122898678Y-108471910D01*
X122737396Y-108497455D01*
X122535221Y-108563146D01*
X122345815Y-108659653D01*
X122173849Y-108784592D01*
X122023526Y-108934915D01*
X121898585Y-109106884D01*
X121894120Y-109115648D01*
X121846145Y-109166444D01*
X121778324Y-109183238D01*
X121712189Y-109160700D01*
X121673152Y-109115648D01*
X121668686Y-109106884D01*
X121543745Y-108934915D01*
X121393422Y-108784592D01*
X121221456Y-108659653D01*
X121032050Y-108563146D01*
X121032049Y-108563145D01*
X121032048Y-108563145D01*
X120829879Y-108497456D01*
X120829877Y-108497455D01*
X120829876Y-108497455D01*
X120668593Y-108471910D01*
X120619923Y-108464202D01*
X120407349Y-108464202D01*
X120358678Y-108471910D01*
X120197396Y-108497455D01*
X119995221Y-108563146D01*
X119805815Y-108659653D01*
X119633851Y-108784591D01*
X119520309Y-108898133D01*
X119458986Y-108931617D01*
X119389294Y-108926633D01*
X119333361Y-108884761D01*
X119316446Y-108853784D01*
X119267433Y-108722373D01*
X119267429Y-108722366D01*
X119181183Y-108607157D01*
X119181180Y-108607154D01*
X119065971Y-108520908D01*
X119065964Y-108520904D01*
X118931118Y-108470610D01*
X118931119Y-108470610D01*
X118871519Y-108464203D01*
X118871517Y-108464202D01*
X118871509Y-108464202D01*
X118871501Y-108464202D01*
X118723136Y-108464202D01*
X118656097Y-108444517D01*
X118610342Y-108391713D01*
X118599136Y-108340202D01*
X118599136Y-108338473D01*
X140124000Y-108338473D01*
X140267610Y-108536137D01*
X140270396Y-108540134D01*
X140286762Y-108564629D01*
X140289386Y-108568729D01*
X140309867Y-108602152D01*
X140312329Y-108606352D01*
X140326719Y-108632048D01*
X140329014Y-108636341D01*
X140443322Y-108860683D01*
X140445447Y-108865066D01*
X140457790Y-108891841D01*
X140459745Y-108896310D01*
X140474743Y-108932527D01*
X140476515Y-108937055D01*
X140486700Y-108964665D01*
X140488294Y-108969262D01*
X140539222Y-109126000D01*
X141626000Y-109126000D01*
X141626000Y-107624000D01*
X140124000Y-107624000D01*
X140124000Y-108338473D01*
X118599136Y-108338473D01*
X118599136Y-105432866D01*
X120124000Y-105432866D01*
X120124000Y-106626000D01*
X121626000Y-106626000D01*
X122624000Y-106626000D01*
X124126000Y-106626000D01*
X125124000Y-106626000D01*
X126626000Y-106626000D01*
X127624000Y-106626000D01*
X129126000Y-106626000D01*
X130124000Y-106626000D01*
X131626000Y-106626000D01*
X132624000Y-106626000D01*
X132728807Y-106626000D01*
X132688229Y-106422000D01*
X133705780Y-106422000D01*
X133710905Y-106447762D01*
X133710908Y-106447774D01*
X133782173Y-106619825D01*
X133782175Y-106619829D01*
X133885636Y-106774669D01*
X133885642Y-106774677D01*
X134017322Y-106906357D01*
X134017330Y-106906363D01*
X134172170Y-107009824D01*
X134344226Y-107081091D01*
X134344236Y-107081094D01*
X134369999Y-107086218D01*
X134870000Y-107086218D01*
X134895763Y-107081094D01*
X134895773Y-107081091D01*
X135067829Y-107009824D01*
X135222669Y-106906363D01*
X135222677Y-106906357D01*
X135354357Y-106774677D01*
X135354363Y-106774669D01*
X135457824Y-106619829D01*
X135457826Y-106619825D01*
X135529091Y-106447774D01*
X135529094Y-106447762D01*
X135534219Y-106422000D01*
X134870000Y-106422000D01*
X134870000Y-107086218D01*
X134369999Y-107086218D01*
X134370000Y-107086217D01*
X134370000Y-106422000D01*
X133705780Y-106422000D01*
X132688229Y-106422000D01*
X132682659Y-106394000D01*
X132683992Y-106339679D01*
X132725993Y-106172000D01*
X132683992Y-106004321D01*
X132682659Y-105950000D01*
X132688229Y-105921999D01*
X133705780Y-105921999D01*
X133705781Y-105922000D01*
X134370000Y-105922000D01*
X134870000Y-105922000D01*
X135534219Y-105922000D01*
X135534219Y-105921999D01*
X135529094Y-105896237D01*
X135529091Y-105896225D01*
X135457826Y-105724174D01*
X135457824Y-105724170D01*
X135354363Y-105569330D01*
X135354357Y-105569322D01*
X135222677Y-105437642D01*
X135222669Y-105437636D01*
X135067829Y-105334175D01*
X135067825Y-105334173D01*
X134895774Y-105262908D01*
X134895762Y-105262905D01*
X134870000Y-105257780D01*
X134870000Y-105922000D01*
X134370000Y-105922000D01*
X134370000Y-105257781D01*
X134369999Y-105257780D01*
X134344237Y-105262905D01*
X134344225Y-105262908D01*
X134172174Y-105334173D01*
X134172170Y-105334175D01*
X134017330Y-105437636D01*
X134017322Y-105437642D01*
X133885642Y-105569322D01*
X133885636Y-105569330D01*
X133782175Y-105724170D01*
X133782173Y-105724174D01*
X133710908Y-105896225D01*
X133710905Y-105896237D01*
X133705780Y-105921999D01*
X132688229Y-105921999D01*
X132736865Y-105677492D01*
X132738198Y-105671555D01*
X132747147Y-105635828D01*
X132748771Y-105629958D01*
X132762998Y-105583063D01*
X132764906Y-105577288D01*
X132777308Y-105542626D01*
X132779499Y-105536947D01*
X132869520Y-105319616D01*
X132871986Y-105314052D01*
X132887733Y-105280758D01*
X132890471Y-105275320D01*
X132913573Y-105232101D01*
X132916573Y-105226805D01*
X132935501Y-105195227D01*
X132938756Y-105190088D01*
X132982914Y-105124000D01*
X136257086Y-105124000D01*
X136301244Y-105190088D01*
X136304499Y-105195227D01*
X136323427Y-105226805D01*
X136326427Y-105232101D01*
X136349529Y-105275320D01*
X136352267Y-105280758D01*
X136368014Y-105314052D01*
X136370480Y-105319616D01*
X136460501Y-105536947D01*
X136462692Y-105542626D01*
X136475094Y-105577288D01*
X136477002Y-105583063D01*
X136491229Y-105629958D01*
X136492853Y-105635828D01*
X136501802Y-105671555D01*
X136503135Y-105677492D01*
X136557341Y-105950000D01*
X136556008Y-106004322D01*
X136514006Y-106172000D01*
X136556008Y-106339678D01*
X136557341Y-106394000D01*
X136511193Y-106626000D01*
X136626000Y-106626000D01*
X137624000Y-106626000D01*
X139126000Y-106626000D01*
X140124000Y-106626000D01*
X141626000Y-106626000D01*
X142624000Y-106626000D01*
X143998960Y-106626000D01*
X142624000Y-105251040D01*
X142624000Y-106626000D01*
X141626000Y-106626000D01*
X141626000Y-105124000D01*
X140124000Y-105124000D01*
X140124000Y-106626000D01*
X139126000Y-106626000D01*
X139126000Y-105124000D01*
X137624000Y-105124000D01*
X137624000Y-106626000D01*
X136626000Y-106626000D01*
X136626000Y-105124000D01*
X136257086Y-105124000D01*
X132982914Y-105124000D01*
X132624000Y-105124000D01*
X132624000Y-106626000D01*
X131626000Y-106626000D01*
X131626000Y-105124000D01*
X130124000Y-105124000D01*
X130124000Y-106626000D01*
X129126000Y-106626000D01*
X129126000Y-105124000D01*
X127624000Y-105124000D01*
X127624000Y-106626000D01*
X126626000Y-106626000D01*
X126626000Y-105124000D01*
X125124000Y-105124000D01*
X125124000Y-106626000D01*
X124126000Y-106626000D01*
X124126000Y-105124000D01*
X122624000Y-105124000D01*
X122624000Y-106626000D01*
X121626000Y-106626000D01*
X121626000Y-105124000D01*
X120640549Y-105124000D01*
X120637970Y-105126225D01*
X120600088Y-105157314D01*
X120595288Y-105161060D01*
X120565714Y-105182993D01*
X120560740Y-105186496D01*
X120364314Y-105317744D01*
X120359170Y-105321001D01*
X120327578Y-105339936D01*
X120322282Y-105342936D01*
X120279061Y-105366037D01*
X120273626Y-105368773D01*
X120240346Y-105384513D01*
X120234782Y-105386979D01*
X120124000Y-105432866D01*
X118599136Y-105432866D01*
X118599136Y-104485388D01*
X118618821Y-104418349D01*
X118671625Y-104372594D01*
X118740783Y-104362650D01*
X118792027Y-104382286D01*
X118929762Y-104474318D01*
X118929771Y-104474323D01*
X118968956Y-104490554D01*
X119102749Y-104545973D01*
X119286379Y-104582499D01*
X119286383Y-104582500D01*
X119286384Y-104582500D01*
X119473617Y-104582500D01*
X119473618Y-104582499D01*
X119657251Y-104545973D01*
X119830231Y-104474322D01*
X119985908Y-104370302D01*
X120118302Y-104237908D01*
X120222322Y-104082231D01*
X120287269Y-103925435D01*
X122624000Y-103925435D01*
X122624000Y-104126000D01*
X124126000Y-104126000D01*
X125124000Y-104126000D01*
X126626000Y-104126000D01*
X127624000Y-104126000D01*
X129126000Y-104126000D01*
X130124000Y-104126000D01*
X131626000Y-104126000D01*
X132624000Y-104126000D01*
X134126000Y-104126000D01*
X135124000Y-104126000D01*
X136626000Y-104126000D01*
X137624000Y-104126000D01*
X139126000Y-104126000D01*
X140124000Y-104126000D01*
X141498960Y-104126000D01*
X140124000Y-102751040D01*
X140124000Y-104126000D01*
X139126000Y-104126000D01*
X139126000Y-102624000D01*
X137624000Y-102624000D01*
X137624000Y-104126000D01*
X136626000Y-104126000D01*
X136626000Y-102624000D01*
X135124000Y-102624000D01*
X135124000Y-104126000D01*
X134126000Y-104126000D01*
X134126000Y-102624000D01*
X132624000Y-102624000D01*
X132624000Y-104126000D01*
X131626000Y-104126000D01*
X131626000Y-102624000D01*
X130124000Y-102624000D01*
X130124000Y-104126000D01*
X129126000Y-104126000D01*
X129126000Y-102624000D01*
X127624000Y-102624000D01*
X127624000Y-104126000D01*
X126626000Y-104126000D01*
X126626000Y-102624000D01*
X125124000Y-102624000D01*
X125124000Y-104126000D01*
X124126000Y-104126000D01*
X124126000Y-102986926D01*
X124114116Y-102988097D01*
X124108046Y-102988545D01*
X124071274Y-102990351D01*
X124065191Y-102990500D01*
X123838809Y-102990500D01*
X123832726Y-102990351D01*
X123795954Y-102988545D01*
X123789884Y-102988097D01*
X123741112Y-102983294D01*
X123735071Y-102982549D01*
X123698640Y-102977145D01*
X123692642Y-102976104D01*
X123670890Y-102971777D01*
X123656773Y-103001626D01*
X123654037Y-103007061D01*
X123630936Y-103050282D01*
X123627936Y-103055578D01*
X123609001Y-103087170D01*
X123605744Y-103092314D01*
X123474496Y-103288740D01*
X123470993Y-103293714D01*
X123449060Y-103323288D01*
X123445314Y-103328088D01*
X123414225Y-103365970D01*
X123410251Y-103370577D01*
X123385520Y-103397864D01*
X123381322Y-103402273D01*
X123214273Y-103569322D01*
X123209864Y-103573520D01*
X123182577Y-103598251D01*
X123177970Y-103602225D01*
X123140088Y-103633314D01*
X123135288Y-103637060D01*
X123105714Y-103658993D01*
X123100740Y-103662496D01*
X122904314Y-103793744D01*
X122899170Y-103797001D01*
X122867578Y-103815936D01*
X122862282Y-103818936D01*
X122819061Y-103842037D01*
X122813626Y-103844773D01*
X122780346Y-103860513D01*
X122774783Y-103862979D01*
X122624000Y-103925435D01*
X120287269Y-103925435D01*
X120293973Y-103909251D01*
X120330500Y-103725616D01*
X120330500Y-103538384D01*
X120293973Y-103354749D01*
X120222322Y-103181769D01*
X120222321Y-103181768D01*
X120222318Y-103181762D01*
X120118302Y-103026092D01*
X120118299Y-103026088D01*
X120091819Y-102999608D01*
X120058334Y-102938285D01*
X120055500Y-102911927D01*
X120055500Y-101423163D01*
X120075185Y-101356124D01*
X120091819Y-101335482D01*
X120816319Y-100610982D01*
X120877642Y-100577497D01*
X120947334Y-100582481D01*
X120991681Y-100610982D01*
X121208181Y-100827482D01*
X121241666Y-100888805D01*
X121244500Y-100915163D01*
X121244500Y-101387927D01*
X121224815Y-101454966D01*
X121208181Y-101475608D01*
X121181700Y-101502088D01*
X121181697Y-101502092D01*
X121077681Y-101657762D01*
X121077676Y-101657771D01*
X121006027Y-101830748D01*
X121006025Y-101830756D01*
X120969500Y-102014379D01*
X120969500Y-102201620D01*
X121006025Y-102385243D01*
X121006027Y-102385251D01*
X121077676Y-102558228D01*
X121077681Y-102558237D01*
X121181697Y-102713907D01*
X121181700Y-102713911D01*
X121314088Y-102846299D01*
X121314092Y-102846302D01*
X121469762Y-102950318D01*
X121469768Y-102950321D01*
X121469769Y-102950322D01*
X121642749Y-103021973D01*
X121785069Y-103050282D01*
X121826379Y-103058499D01*
X121826383Y-103058500D01*
X121826384Y-103058500D01*
X122013617Y-103058500D01*
X122013618Y-103058499D01*
X122197251Y-103021973D01*
X122370231Y-102950322D01*
X122525908Y-102846302D01*
X122658302Y-102713908D01*
X122762322Y-102558231D01*
X122833973Y-102385251D01*
X122870500Y-102201616D01*
X122870500Y-102014384D01*
X122833973Y-101830749D01*
X122765746Y-101666035D01*
X122762323Y-101657771D01*
X122762318Y-101657762D01*
X122658302Y-101502092D01*
X122658299Y-101502088D01*
X122631819Y-101475608D01*
X122598334Y-101414285D01*
X122595500Y-101387927D01*
X122595500Y-100783505D01*
X122615185Y-100716466D01*
X122667989Y-100670711D01*
X122737147Y-100660767D01*
X122800703Y-100689792D01*
X122838477Y-100748570D01*
X122841114Y-100759302D01*
X122842537Y-100766452D01*
X122842538Y-100766454D01*
X122842539Y-100766459D01*
X122852807Y-100791246D01*
X122852808Y-100791249D01*
X122889685Y-100880281D01*
X122889688Y-100880286D01*
X122910858Y-100911968D01*
X122910859Y-100911971D01*
X122910860Y-100911971D01*
X122958140Y-100982731D01*
X122958141Y-100982732D01*
X122958142Y-100982733D01*
X123015182Y-101039773D01*
X123048666Y-101101094D01*
X123051500Y-101127453D01*
X123051500Y-101180695D01*
X123086103Y-101354658D01*
X123086106Y-101354667D01*
X123153983Y-101518540D01*
X123153990Y-101518553D01*
X123252535Y-101666034D01*
X123252538Y-101666038D01*
X123377961Y-101791461D01*
X123377965Y-101791464D01*
X123525446Y-101890009D01*
X123525459Y-101890016D01*
X123648363Y-101940923D01*
X123689334Y-101957894D01*
X123689336Y-101957894D01*
X123689341Y-101957896D01*
X123863304Y-101992499D01*
X123863307Y-101992500D01*
X123863309Y-101992500D01*
X124040693Y-101992500D01*
X124040694Y-101992499D01*
X124098682Y-101980964D01*
X124214658Y-101957896D01*
X124214661Y-101957894D01*
X124214666Y-101957894D01*
X124378547Y-101890013D01*
X124526035Y-101791464D01*
X124651464Y-101666035D01*
X124678215Y-101626000D01*
X126166419Y-101626000D01*
X126626000Y-101626000D01*
X127624000Y-101626000D01*
X129126000Y-101626000D01*
X130124000Y-101626000D01*
X130872603Y-101626000D01*
X133719669Y-101626000D01*
X134126000Y-101626000D01*
X135124000Y-101626000D01*
X136072603Y-101626000D01*
X136069454Y-101622693D01*
X136044723Y-101595406D01*
X136040749Y-101590799D01*
X136009660Y-101552917D01*
X136005915Y-101548119D01*
X135983983Y-101518547D01*
X135980479Y-101513571D01*
X135854702Y-101325334D01*
X135851445Y-101320190D01*
X135832509Y-101288596D01*
X135829509Y-101283301D01*
X135806407Y-101240079D01*
X135803670Y-101234640D01*
X135787930Y-101201358D01*
X135785465Y-101195797D01*
X135698835Y-100986651D01*
X135696645Y-100980974D01*
X135684246Y-100946322D01*
X135682338Y-100940547D01*
X135668111Y-100893654D01*
X135666487Y-100887786D01*
X135657535Y-100852051D01*
X135656201Y-100846111D01*
X135649901Y-100814441D01*
X135124000Y-100288540D01*
X135124000Y-101626000D01*
X134126000Y-101626000D01*
X134126000Y-100886927D01*
X134125785Y-100887786D01*
X134124161Y-100893654D01*
X134109934Y-100940547D01*
X134108026Y-100946322D01*
X134095627Y-100980974D01*
X134093437Y-100986651D01*
X134006807Y-101195797D01*
X134004342Y-101201358D01*
X133988602Y-101234640D01*
X133985865Y-101240079D01*
X133962763Y-101283301D01*
X133959763Y-101288596D01*
X133940827Y-101320190D01*
X133937570Y-101325334D01*
X133811793Y-101513571D01*
X133808289Y-101518547D01*
X133786357Y-101548119D01*
X133782612Y-101552917D01*
X133751523Y-101590799D01*
X133747549Y-101595406D01*
X133722818Y-101622693D01*
X133719669Y-101626000D01*
X130872603Y-101626000D01*
X130869454Y-101622693D01*
X130844723Y-101595406D01*
X130840749Y-101590799D01*
X130809660Y-101552917D01*
X130805915Y-101548119D01*
X130783983Y-101518547D01*
X130780479Y-101513571D01*
X130654702Y-101325334D01*
X130651445Y-101320190D01*
X130632509Y-101288596D01*
X130629509Y-101283301D01*
X130606407Y-101240079D01*
X130603670Y-101234640D01*
X130587930Y-101201358D01*
X130585465Y-101195797D01*
X130498835Y-100986651D01*
X130496645Y-100980974D01*
X130484246Y-100946322D01*
X130482338Y-100940547D01*
X130468111Y-100893654D01*
X130466487Y-100887786D01*
X130457535Y-100852051D01*
X130456201Y-100846110D01*
X130412032Y-100624059D01*
X130410991Y-100618062D01*
X130405587Y-100581631D01*
X130404842Y-100575590D01*
X130400039Y-100526818D01*
X130399591Y-100520748D01*
X130397785Y-100483976D01*
X130397636Y-100477893D01*
X130397636Y-100251511D01*
X130397785Y-100245428D01*
X130399591Y-100208656D01*
X130400039Y-100202586D01*
X130404842Y-100153814D01*
X130405587Y-100147773D01*
X130409113Y-100124000D01*
X130124000Y-100124000D01*
X130124000Y-101626000D01*
X129126000Y-101626000D01*
X129126000Y-100124000D01*
X127624000Y-100124000D01*
X127624000Y-101626000D01*
X126626000Y-101626000D01*
X126626000Y-100743103D01*
X126612954Y-100808689D01*
X126611621Y-100814626D01*
X126602672Y-100850353D01*
X126601048Y-100856223D01*
X126586821Y-100903118D01*
X126584913Y-100908893D01*
X126572511Y-100943555D01*
X126570320Y-100949234D01*
X126480299Y-101166565D01*
X126477833Y-101172129D01*
X126462086Y-101205423D01*
X126459348Y-101210861D01*
X126436246Y-101254080D01*
X126433246Y-101259376D01*
X126414318Y-101290954D01*
X126411063Y-101296093D01*
X126280374Y-101491684D01*
X126276872Y-101496658D01*
X126254939Y-101526233D01*
X126251192Y-101531034D01*
X126220102Y-101568917D01*
X126216128Y-101573524D01*
X126191397Y-101600811D01*
X126187199Y-101605220D01*
X126166419Y-101626000D01*
X124678215Y-101626000D01*
X124750013Y-101518547D01*
X124817894Y-101354666D01*
X124821847Y-101334788D01*
X124854230Y-101272878D01*
X124914944Y-101238301D01*
X124926827Y-101238937D01*
X125005582Y-101223275D01*
X125005592Y-101223272D01*
X125177648Y-101152005D01*
X125332488Y-101048544D01*
X125332496Y-101048538D01*
X125464176Y-100916858D01*
X125464182Y-100916850D01*
X125567643Y-100762010D01*
X125567645Y-100762006D01*
X125638910Y-100589955D01*
X125638913Y-100589943D01*
X125644038Y-100564181D01*
X124979819Y-100564181D01*
X124979819Y-100600607D01*
X124960134Y-100667646D01*
X124907330Y-100713401D01*
X124838172Y-100723345D01*
X124774616Y-100694320D01*
X124752717Y-100669498D01*
X124651464Y-100517965D01*
X124651461Y-100517961D01*
X124526040Y-100392540D01*
X124525160Y-100391818D01*
X124524822Y-100391322D01*
X124521728Y-100388228D01*
X124522314Y-100387641D01*
X124485822Y-100334075D01*
X124482689Y-100314181D01*
X126623825Y-100314181D01*
X126626000Y-100322862D01*
X126626000Y-100305499D01*
X126623825Y-100314181D01*
X124482689Y-100314181D01*
X124479819Y-100295960D01*
X124479819Y-100064181D01*
X124979819Y-100064181D01*
X125644038Y-100064181D01*
X125644038Y-100064180D01*
X125638913Y-100038418D01*
X125638910Y-100038406D01*
X125567645Y-99866355D01*
X125567643Y-99866351D01*
X125464182Y-99711511D01*
X125464176Y-99711503D01*
X125332496Y-99579823D01*
X125332488Y-99579817D01*
X125177648Y-99476356D01*
X125177644Y-99476354D01*
X125005593Y-99405089D01*
X125005581Y-99405086D01*
X124979819Y-99399961D01*
X124979819Y-100064181D01*
X124479819Y-100064181D01*
X124479819Y-99399962D01*
X124479818Y-99399961D01*
X124454056Y-99405086D01*
X124454044Y-99405089D01*
X124281993Y-99476354D01*
X124262388Y-99489454D01*
X124195710Y-99510330D01*
X124128330Y-99491844D01*
X124093557Y-99453129D01*
X124069500Y-99469203D01*
X124069500Y-98036081D01*
X125400636Y-98036081D01*
X125400636Y-98223322D01*
X125437161Y-98406945D01*
X125437163Y-98406953D01*
X125508812Y-98579930D01*
X125508817Y-98579939D01*
X125612833Y-98735609D01*
X125612836Y-98735613D01*
X125745224Y-98868001D01*
X125745228Y-98868004D01*
X125900898Y-98972020D01*
X125900904Y-98972023D01*
X125900905Y-98972024D01*
X126073885Y-99043675D01*
X126212636Y-99071274D01*
X126257515Y-99080201D01*
X126257519Y-99080202D01*
X126257520Y-99080202D01*
X126444753Y-99080202D01*
X126444754Y-99080201D01*
X126628387Y-99043675D01*
X126801367Y-98972024D01*
X126957044Y-98868004D01*
X126957047Y-98868001D01*
X126983528Y-98841521D01*
X127044851Y-98808036D01*
X127071209Y-98805202D01*
X127488830Y-98805202D01*
X127488831Y-98805201D01*
X127619334Y-98779243D01*
X127742267Y-98728322D01*
X127852904Y-98654397D01*
X128631472Y-97875829D01*
X130124000Y-97875829D01*
X130124000Y-99126000D01*
X130851972Y-99126000D01*
X130869454Y-99106711D01*
X130873652Y-99102302D01*
X130964500Y-99011454D01*
X130964500Y-97624000D01*
X130634679Y-97624000D01*
X130524314Y-97697744D01*
X130519170Y-97701001D01*
X130487578Y-97719936D01*
X130482282Y-97722936D01*
X130439061Y-97746037D01*
X130433626Y-97748773D01*
X130400346Y-97764513D01*
X130394783Y-97766979D01*
X130176535Y-97857380D01*
X130170859Y-97859570D01*
X130136197Y-97871973D01*
X130130418Y-97873882D01*
X130124000Y-97875829D01*
X128631472Y-97875829D01*
X129508482Y-96998819D01*
X129569805Y-96965334D01*
X129596163Y-96962500D01*
X129633617Y-96962500D01*
X129633618Y-96962499D01*
X129817251Y-96925973D01*
X129990231Y-96854322D01*
X130145908Y-96750302D01*
X130278302Y-96617908D01*
X130382322Y-96462231D01*
X130453973Y-96289251D01*
X130490500Y-96105616D01*
X130490500Y-95918384D01*
X130453973Y-95734749D01*
X130382322Y-95561769D01*
X130382321Y-95561768D01*
X130382318Y-95561762D01*
X130278302Y-95406092D01*
X130278299Y-95406088D01*
X130145911Y-95273700D01*
X130145907Y-95273697D01*
X129990237Y-95169681D01*
X129990228Y-95169676D01*
X129817251Y-95098027D01*
X129817243Y-95098025D01*
X129633620Y-95061500D01*
X129633616Y-95061500D01*
X129446384Y-95061500D01*
X129446379Y-95061500D01*
X129262756Y-95098025D01*
X129262748Y-95098027D01*
X129089771Y-95169676D01*
X129089762Y-95169681D01*
X128934092Y-95273697D01*
X128934088Y-95273700D01*
X128801700Y-95406088D01*
X128801697Y-95406092D01*
X128697681Y-95561762D01*
X128697676Y-95561771D01*
X128626027Y-95734748D01*
X128626025Y-95734756D01*
X128589500Y-95918379D01*
X128589500Y-95955837D01*
X128569815Y-96022876D01*
X128553181Y-96043518D01*
X127178816Y-97417883D01*
X127117493Y-97451368D01*
X127091135Y-97454202D01*
X127071209Y-97454202D01*
X127004170Y-97434517D01*
X126983528Y-97417883D01*
X126957047Y-97391402D01*
X126957043Y-97391399D01*
X126801373Y-97287383D01*
X126801364Y-97287378D01*
X126628387Y-97215729D01*
X126628379Y-97215727D01*
X126444756Y-97179202D01*
X126444752Y-97179202D01*
X126257520Y-97179202D01*
X126257515Y-97179202D01*
X126073892Y-97215727D01*
X126073884Y-97215729D01*
X125900907Y-97287378D01*
X125900898Y-97287383D01*
X125745228Y-97391399D01*
X125745224Y-97391402D01*
X125612836Y-97523790D01*
X125612833Y-97523794D01*
X125508817Y-97679464D01*
X125508812Y-97679473D01*
X125437163Y-97852450D01*
X125437161Y-97852458D01*
X125400636Y-98036081D01*
X124069500Y-98036081D01*
X124069500Y-95381579D01*
X125124000Y-95381579D01*
X125124000Y-96610172D01*
X125131048Y-96604388D01*
X125135848Y-96600642D01*
X125165422Y-96578709D01*
X125170396Y-96575206D01*
X125366822Y-96443958D01*
X125371966Y-96440701D01*
X125403558Y-96421766D01*
X125408854Y-96418766D01*
X125452075Y-96395665D01*
X125457510Y-96392929D01*
X125490790Y-96377189D01*
X125496353Y-96374723D01*
X125714601Y-96284322D01*
X125720277Y-96282132D01*
X125754939Y-96269729D01*
X125760718Y-96267820D01*
X125807614Y-96253593D01*
X125813484Y-96251969D01*
X125849212Y-96243020D01*
X125855149Y-96241687D01*
X126086855Y-96195598D01*
X126092850Y-96194557D01*
X126129278Y-96189153D01*
X126135321Y-96188408D01*
X126184090Y-96183605D01*
X126190161Y-96183157D01*
X126226936Y-96181351D01*
X126233018Y-96181202D01*
X126469254Y-96181202D01*
X126475336Y-96181351D01*
X126512111Y-96183157D01*
X126518182Y-96183605D01*
X126566951Y-96188408D01*
X126572994Y-96189153D01*
X126609422Y-96194557D01*
X126615416Y-96195597D01*
X126626000Y-96197702D01*
X126626000Y-95124000D01*
X125235481Y-95124000D01*
X125154671Y-95319095D01*
X125152206Y-95324656D01*
X125136466Y-95357938D01*
X125133729Y-95363377D01*
X125124000Y-95381579D01*
X124069500Y-95381579D01*
X124069500Y-95187361D01*
X124089185Y-95120322D01*
X124105820Y-95099679D01*
X124143461Y-95062038D01*
X124143464Y-95062035D01*
X124242013Y-94914547D01*
X124309894Y-94750666D01*
X124310606Y-94747090D01*
X124344499Y-94576695D01*
X124344500Y-94576693D01*
X124344500Y-94399306D01*
X124344499Y-94399304D01*
X124309896Y-94225341D01*
X124309893Y-94225332D01*
X124305845Y-94215560D01*
X124289887Y-94177032D01*
X124242016Y-94061459D01*
X124242009Y-94061446D01*
X124143464Y-93913965D01*
X124143461Y-93913961D01*
X124018038Y-93788538D01*
X124018034Y-93788535D01*
X123893379Y-93705242D01*
X125174692Y-93705242D01*
X125241301Y-93866051D01*
X125243491Y-93871728D01*
X125255890Y-93906380D01*
X125257798Y-93912155D01*
X125272025Y-93959048D01*
X125273649Y-93964916D01*
X125282601Y-94000651D01*
X125283935Y-94006592D01*
X125307687Y-94126000D01*
X126626000Y-94126000D01*
X126626000Y-93559468D01*
X126623120Y-93559539D01*
X126350615Y-93505347D01*
X126344675Y-93504014D01*
X126308948Y-93495066D01*
X126303081Y-93493442D01*
X126256175Y-93479214D01*
X126250396Y-93477305D01*
X126215716Y-93464897D01*
X126210036Y-93462706D01*
X126066158Y-93403110D01*
X127624000Y-93403110D01*
X127624000Y-94126000D01*
X129035353Y-94126000D01*
X130124000Y-94126000D01*
X130724313Y-94126000D01*
X130748065Y-94006592D01*
X130749399Y-94000651D01*
X130758351Y-93964916D01*
X130759975Y-93959048D01*
X130774202Y-93912155D01*
X130776110Y-93906380D01*
X130788509Y-93871728D01*
X130790699Y-93866051D01*
X130877329Y-93656905D01*
X130879794Y-93651344D01*
X130895534Y-93618062D01*
X130898271Y-93612623D01*
X130910302Y-93590112D01*
X130893519Y-93562109D01*
X130890519Y-93556813D01*
X130867418Y-93513592D01*
X130864682Y-93508157D01*
X130848942Y-93474877D01*
X130846476Y-93469314D01*
X130756075Y-93251066D01*
X130753885Y-93245390D01*
X130741482Y-93210728D01*
X130739574Y-93204951D01*
X130735543Y-93191666D01*
X130465285Y-92921408D01*
X130461087Y-92916999D01*
X130436356Y-92889712D01*
X130432381Y-92885104D01*
X130401292Y-92847221D01*
X130397549Y-92842424D01*
X130375616Y-92812851D01*
X130372111Y-92807875D01*
X130270958Y-92656489D01*
X130267701Y-92651345D01*
X130251311Y-92624000D01*
X130124000Y-92624000D01*
X130124000Y-94126000D01*
X129035353Y-94126000D01*
X129038076Y-94125318D01*
X129044012Y-94123985D01*
X129126000Y-94107676D01*
X129126000Y-92624000D01*
X128513037Y-92624000D01*
X128395635Y-92799705D01*
X128392133Y-92804679D01*
X128370200Y-92834254D01*
X128366453Y-92839055D01*
X128335363Y-92876938D01*
X128331389Y-92881545D01*
X128306658Y-92908832D01*
X128302460Y-92913241D01*
X128136119Y-93079582D01*
X128131710Y-93083780D01*
X128104423Y-93108511D01*
X128099816Y-93112485D01*
X128061933Y-93143575D01*
X128057132Y-93147322D01*
X128027557Y-93169255D01*
X128022583Y-93172757D01*
X127826992Y-93303446D01*
X127821853Y-93306701D01*
X127790275Y-93325629D01*
X127784978Y-93328630D01*
X127741760Y-93351731D01*
X127736324Y-93354467D01*
X127703031Y-93370214D01*
X127697465Y-93372681D01*
X127624000Y-93403110D01*
X126066158Y-93403110D01*
X125992695Y-93372681D01*
X125987129Y-93370214D01*
X125953836Y-93354467D01*
X125948400Y-93351731D01*
X125905182Y-93328630D01*
X125899885Y-93325629D01*
X125868307Y-93306701D01*
X125863168Y-93303447D01*
X125784303Y-93250751D01*
X125629675Y-93405380D01*
X125625266Y-93409578D01*
X125597979Y-93434309D01*
X125593372Y-93438283D01*
X125555489Y-93469373D01*
X125550688Y-93473120D01*
X125521113Y-93495053D01*
X125516139Y-93498555D01*
X125320548Y-93629244D01*
X125315409Y-93632499D01*
X125283831Y-93651427D01*
X125278534Y-93654428D01*
X125235316Y-93677529D01*
X125229880Y-93680265D01*
X125196587Y-93696012D01*
X125191021Y-93698479D01*
X125174692Y-93705242D01*
X123893379Y-93705242D01*
X123870553Y-93689990D01*
X123870540Y-93689983D01*
X123706667Y-93622106D01*
X123706658Y-93622103D01*
X123532694Y-93587500D01*
X123532691Y-93587500D01*
X123496451Y-93587500D01*
X123429412Y-93567815D01*
X123383657Y-93515011D01*
X123373713Y-93445853D01*
X123402738Y-93382297D01*
X123408770Y-93375819D01*
X123543346Y-93241243D01*
X123905298Y-92879290D01*
X123905306Y-92879284D01*
X123908546Y-92876044D01*
X123911053Y-92874674D01*
X123926399Y-92862364D01*
X123926410Y-92862357D01*
X123928265Y-92865272D01*
X123969864Y-92842550D01*
X124039557Y-92847524D01*
X124043698Y-92849153D01*
X124062861Y-92857091D01*
X124062872Y-92857094D01*
X124088635Y-92862218D01*
X124588636Y-92862218D01*
X124614399Y-92857094D01*
X124614409Y-92857091D01*
X124786465Y-92785824D01*
X124941305Y-92682363D01*
X124941313Y-92682357D01*
X125072993Y-92550677D01*
X125072999Y-92550669D01*
X125176460Y-92395829D01*
X125176462Y-92395825D01*
X125247727Y-92223774D01*
X125247730Y-92223762D01*
X125252855Y-92198000D01*
X124588636Y-92198000D01*
X124588636Y-92862218D01*
X124088635Y-92862218D01*
X124088636Y-92862217D01*
X124088636Y-92657367D01*
X124098074Y-92609918D01*
X124105716Y-92591467D01*
X124105718Y-92591464D01*
X124115096Y-92568823D01*
X124115095Y-92568823D01*
X124115099Y-92568816D01*
X124127117Y-92508393D01*
X124139136Y-92447971D01*
X124139136Y-92324757D01*
X124139136Y-91916725D01*
X124152210Y-91872202D01*
X125930860Y-91872202D01*
X125935985Y-91897964D01*
X125935988Y-91897976D01*
X126007253Y-92070027D01*
X126007255Y-92070031D01*
X126110716Y-92224871D01*
X126110722Y-92224879D01*
X126242402Y-92356559D01*
X126242410Y-92356565D01*
X126397250Y-92460026D01*
X126569306Y-92531293D01*
X126569316Y-92531296D01*
X126595079Y-92536420D01*
X127095080Y-92536420D01*
X127120843Y-92531296D01*
X127120853Y-92531293D01*
X127292909Y-92460026D01*
X127447749Y-92356565D01*
X127447757Y-92356559D01*
X127579437Y-92224879D01*
X127579443Y-92224871D01*
X127682904Y-92070031D01*
X127682906Y-92070027D01*
X127754171Y-91897976D01*
X127754174Y-91897964D01*
X127759299Y-91872202D01*
X127095080Y-91872202D01*
X127095080Y-92536420D01*
X126595079Y-92536420D01*
X126595080Y-92536419D01*
X126595080Y-91872202D01*
X125930860Y-91872202D01*
X124152210Y-91872202D01*
X124158821Y-91849686D01*
X124175455Y-91829044D01*
X124270180Y-91734319D01*
X124331503Y-91700834D01*
X124357861Y-91698000D01*
X125252855Y-91698000D01*
X125252855Y-91697999D01*
X125247730Y-91672237D01*
X125247727Y-91672225D01*
X125176462Y-91500174D01*
X125176460Y-91500170D01*
X125072999Y-91345330D01*
X125072993Y-91345322D01*
X124953766Y-91226095D01*
X124920281Y-91164772D01*
X124925265Y-91095080D01*
X124943831Y-91066191D01*
X124940520Y-91063978D01*
X125726455Y-90278043D01*
X125787777Y-90244560D01*
X125857469Y-90249544D01*
G37*
%TD.AperFunction*%
%TA.AperFunction,Conductor*%
G36*
X145136716Y-91069185D02*
G01*
X145157358Y-91085819D01*
X148287094Y-94215557D01*
X148287098Y-94215560D01*
X148389541Y-94284011D01*
X148389542Y-94284011D01*
X148389546Y-94284014D01*
X148441537Y-94305549D01*
X148503379Y-94331165D01*
X148523428Y-94335153D01*
X148557027Y-94341836D01*
X148624223Y-94355203D01*
X148624225Y-94355203D01*
X148753552Y-94355203D01*
X148753572Y-94355202D01*
X150823250Y-94355202D01*
X150890289Y-94374887D01*
X150910931Y-94391521D01*
X151230181Y-94710771D01*
X151263666Y-94772094D01*
X151266500Y-94798452D01*
X151266500Y-97268601D01*
X151266500Y-97533524D01*
X151266500Y-97583878D01*
X151246815Y-97650917D01*
X151194011Y-97696672D01*
X151189953Y-97698439D01*
X151127171Y-97724444D01*
X151127170Y-97724444D01*
X150972330Y-97827905D01*
X150972322Y-97827911D01*
X150840642Y-97959591D01*
X150840636Y-97959599D01*
X150737175Y-98114439D01*
X150737173Y-98114443D01*
X150665908Y-98286494D01*
X150665907Y-98286498D01*
X150656322Y-98334690D01*
X150623937Y-98396601D01*
X150563222Y-98431176D01*
X150534704Y-98434500D01*
X149921606Y-98434500D01*
X149798394Y-98434500D01*
X149798389Y-98434500D01*
X149677555Y-98458535D01*
X149677545Y-98458538D01*
X149563716Y-98505687D01*
X149563707Y-98505692D01*
X149461267Y-98574141D01*
X149461263Y-98574144D01*
X149374144Y-98661263D01*
X149374141Y-98661267D01*
X149305692Y-98763707D01*
X149305687Y-98763716D01*
X149258538Y-98877545D01*
X149258535Y-98877555D01*
X149234500Y-98998389D01*
X149234500Y-100645609D01*
X149240327Y-100674902D01*
X149240327Y-100674904D01*
X149258535Y-100766446D01*
X149258539Y-100766459D01*
X149265600Y-100783505D01*
X149268808Y-100791249D01*
X149284202Y-100828414D01*
X149291670Y-100897882D01*
X149260394Y-100960361D01*
X149200305Y-100996013D01*
X149169640Y-100999864D01*
X148725461Y-100999864D01*
X148658422Y-100980179D01*
X148637780Y-100963545D01*
X145657653Y-97983418D01*
X146833263Y-97983418D01*
X146838388Y-98009180D01*
X146838391Y-98009192D01*
X146909656Y-98181243D01*
X146909658Y-98181247D01*
X147013119Y-98336087D01*
X147013125Y-98336095D01*
X147144805Y-98467775D01*
X147144813Y-98467781D01*
X147299653Y-98571242D01*
X147471709Y-98642509D01*
X147471719Y-98642512D01*
X147497482Y-98647636D01*
X147997483Y-98647636D01*
X148023246Y-98642512D01*
X148023256Y-98642509D01*
X148195312Y-98571242D01*
X148350152Y-98467781D01*
X148350160Y-98467775D01*
X148481840Y-98336095D01*
X148481846Y-98336087D01*
X148585307Y-98181247D01*
X148585309Y-98181243D01*
X148656574Y-98009192D01*
X148656577Y-98009180D01*
X148661702Y-97983418D01*
X147997483Y-97983418D01*
X147997483Y-98647636D01*
X147497482Y-98647636D01*
X147497483Y-98647635D01*
X147497483Y-97983418D01*
X146833263Y-97983418D01*
X145657653Y-97983418D01*
X145410455Y-97736220D01*
X145376970Y-97674897D01*
X145374136Y-97648539D01*
X145374136Y-97611085D01*
X145374135Y-97611081D01*
X145366502Y-97572706D01*
X145348741Y-97483417D01*
X146833263Y-97483417D01*
X146833264Y-97483418D01*
X147497483Y-97483418D01*
X147997483Y-97483418D01*
X148661702Y-97483418D01*
X148661702Y-97483417D01*
X148656577Y-97457655D01*
X148656574Y-97457643D01*
X148585309Y-97285592D01*
X148585307Y-97285588D01*
X148481846Y-97130748D01*
X148481840Y-97130740D01*
X148350160Y-96999060D01*
X148350152Y-96999054D01*
X148195312Y-96895593D01*
X148195308Y-96895591D01*
X148023257Y-96824326D01*
X148023245Y-96824323D01*
X147997483Y-96819198D01*
X147997483Y-97483418D01*
X147497483Y-97483418D01*
X147497483Y-96819199D01*
X147497482Y-96819198D01*
X147471720Y-96824323D01*
X147471708Y-96824326D01*
X147299657Y-96895591D01*
X147299653Y-96895593D01*
X147144813Y-96999054D01*
X147144805Y-96999060D01*
X147013125Y-97130740D01*
X147013119Y-97130748D01*
X146909658Y-97285588D01*
X146909656Y-97285592D01*
X146838391Y-97457643D01*
X146838388Y-97457655D01*
X146833263Y-97483417D01*
X145348741Y-97483417D01*
X145337609Y-97427451D01*
X145265958Y-97254471D01*
X145265957Y-97254470D01*
X145265954Y-97254464D01*
X145161938Y-97098794D01*
X145161935Y-97098790D01*
X145029547Y-96966402D01*
X145029543Y-96966399D01*
X144873873Y-96862383D01*
X144873864Y-96862378D01*
X144700887Y-96790729D01*
X144700879Y-96790727D01*
X144517256Y-96754202D01*
X144517252Y-96754202D01*
X144330020Y-96754202D01*
X144330015Y-96754202D01*
X144146392Y-96790727D01*
X144146384Y-96790729D01*
X143973407Y-96862378D01*
X143973398Y-96862383D01*
X143817728Y-96966399D01*
X143817724Y-96966402D01*
X143791244Y-96992883D01*
X143729921Y-97026368D01*
X143703563Y-97029202D01*
X142231865Y-97029202D01*
X142164826Y-97009517D01*
X142144184Y-96992883D01*
X141702819Y-96551518D01*
X141669334Y-96490195D01*
X141666500Y-96463837D01*
X141666500Y-96426383D01*
X141666499Y-96426379D01*
X141657340Y-96380334D01*
X141629973Y-96242749D01*
X141558322Y-96069769D01*
X141558321Y-96069768D01*
X141558318Y-96069762D01*
X141532553Y-96031202D01*
X142624000Y-96031202D01*
X143420998Y-96031202D01*
X143439322Y-96018958D01*
X143444466Y-96015701D01*
X143476058Y-95996766D01*
X143481354Y-95993766D01*
X143524575Y-95970665D01*
X143530010Y-95967929D01*
X143563290Y-95952189D01*
X143568853Y-95949723D01*
X143723274Y-95885760D01*
X145124000Y-95885760D01*
X145278419Y-95949723D01*
X145283982Y-95952189D01*
X145317262Y-95967929D01*
X145322697Y-95970665D01*
X145365918Y-95993766D01*
X145371214Y-95996766D01*
X145402806Y-96015701D01*
X145407950Y-96018958D01*
X145604376Y-96150206D01*
X145609350Y-96153709D01*
X145638924Y-96175642D01*
X145643724Y-96179388D01*
X145681606Y-96210477D01*
X145686213Y-96214451D01*
X145713500Y-96239182D01*
X145717909Y-96243380D01*
X145884958Y-96410429D01*
X145889156Y-96414838D01*
X145913887Y-96442125D01*
X145917861Y-96446732D01*
X145948950Y-96484614D01*
X145952696Y-96489414D01*
X145974629Y-96518988D01*
X145978132Y-96523962D01*
X146046312Y-96626000D01*
X146150099Y-96626000D01*
X150124000Y-96626000D01*
X150268500Y-96626000D01*
X150268500Y-95353202D01*
X150124000Y-95353202D01*
X150124000Y-96626000D01*
X146150099Y-96626000D01*
X146196928Y-96555915D01*
X146200430Y-96550941D01*
X146222363Y-96521366D01*
X146226110Y-96516565D01*
X146257200Y-96478682D01*
X146261174Y-96474075D01*
X146285905Y-96446788D01*
X146290103Y-96442379D01*
X146456444Y-96276038D01*
X146460853Y-96271840D01*
X146488140Y-96247109D01*
X146492747Y-96243135D01*
X146530630Y-96212045D01*
X146535431Y-96208298D01*
X146565006Y-96186365D01*
X146569979Y-96182863D01*
X146626000Y-96145430D01*
X146626000Y-95808480D01*
X147624000Y-95808480D01*
X147747483Y-95839411D01*
X147915162Y-95797410D01*
X147969483Y-95796077D01*
X148241991Y-95850283D01*
X148247928Y-95851616D01*
X148283655Y-95860565D01*
X148289525Y-95862189D01*
X148336420Y-95876416D01*
X148342195Y-95878324D01*
X148376857Y-95890726D01*
X148382536Y-95892917D01*
X148599867Y-95982938D01*
X148605431Y-95985404D01*
X148638725Y-96001151D01*
X148644163Y-96003889D01*
X148687382Y-96026991D01*
X148692678Y-96029991D01*
X148724256Y-96048919D01*
X148729395Y-96052174D01*
X148924986Y-96182863D01*
X148929960Y-96186365D01*
X148959535Y-96208298D01*
X148964336Y-96212045D01*
X149002219Y-96243135D01*
X149006826Y-96247109D01*
X149034113Y-96271840D01*
X149038522Y-96276038D01*
X149126000Y-96363516D01*
X149126000Y-95353202D01*
X148772294Y-95353202D01*
X148772254Y-95353203D01*
X148599725Y-95353203D01*
X148593642Y-95353054D01*
X148556870Y-95351248D01*
X148550801Y-95350800D01*
X148502028Y-95345997D01*
X148495987Y-95345252D01*
X148459553Y-95339848D01*
X148453554Y-95338807D01*
X148328744Y-95313979D01*
X148328744Y-95313980D01*
X148284655Y-95305211D01*
X148278715Y-95303877D01*
X148242980Y-95294926D01*
X148237111Y-95293302D01*
X148190212Y-95279074D01*
X148184433Y-95277165D01*
X148149771Y-95264762D01*
X148144095Y-95262572D01*
X148019924Y-95211138D01*
X148019924Y-95211139D01*
X147985011Y-95196678D01*
X147984980Y-95196664D01*
X147849427Y-95140516D01*
X147828932Y-95124000D01*
X147624000Y-95124000D01*
X147624000Y-95808480D01*
X146626000Y-95808480D01*
X146626000Y-95124000D01*
X145124000Y-95124000D01*
X145124000Y-95885760D01*
X143723274Y-95885760D01*
X143787101Y-95859322D01*
X143792777Y-95857132D01*
X143827439Y-95844729D01*
X143833218Y-95842820D01*
X143880114Y-95828593D01*
X143885984Y-95826969D01*
X143921712Y-95818020D01*
X143927649Y-95816687D01*
X144126000Y-95777232D01*
X144126000Y-95124000D01*
X142624000Y-95124000D01*
X142624000Y-96031202D01*
X141532553Y-96031202D01*
X141454302Y-95914092D01*
X141454299Y-95914088D01*
X141321911Y-95781700D01*
X141321907Y-95781697D01*
X141166237Y-95677681D01*
X141166228Y-95677676D01*
X140993251Y-95606027D01*
X140993243Y-95606025D01*
X140809620Y-95569500D01*
X140809616Y-95569500D01*
X140622384Y-95569500D01*
X140622379Y-95569500D01*
X140438756Y-95606025D01*
X140438748Y-95606027D01*
X140265771Y-95677676D01*
X140265762Y-95677681D01*
X140110092Y-95781697D01*
X140110088Y-95781700D01*
X139977700Y-95914088D01*
X139977697Y-95914092D01*
X139873681Y-96069762D01*
X139873676Y-96069771D01*
X139802027Y-96242748D01*
X139802025Y-96242754D01*
X139770011Y-96403700D01*
X139737626Y-96465611D01*
X139676910Y-96500185D01*
X139607141Y-96496445D01*
X139560713Y-96467189D01*
X137219524Y-94126000D01*
X138727018Y-94126000D01*
X139126000Y-94126000D01*
X139126000Y-93326147D01*
X140124000Y-93326147D01*
X140124000Y-94126000D01*
X141626000Y-94126000D01*
X142624000Y-94126000D01*
X144126000Y-94126000D01*
X145124000Y-94126000D01*
X146626000Y-94126000D01*
X146626000Y-93965845D01*
X145284155Y-92624000D01*
X145124000Y-92624000D01*
X145124000Y-94126000D01*
X144126000Y-94126000D01*
X144126000Y-92624000D01*
X142624000Y-92624000D01*
X142624000Y-94126000D01*
X141626000Y-94126000D01*
X141626000Y-92919821D01*
X141606851Y-92935537D01*
X141602053Y-92939282D01*
X141572481Y-92961214D01*
X141567505Y-92964718D01*
X141379268Y-93090495D01*
X141374124Y-93093752D01*
X141342530Y-93112688D01*
X141337235Y-93115688D01*
X141294013Y-93138790D01*
X141288574Y-93141527D01*
X141255292Y-93157267D01*
X141249731Y-93159732D01*
X141040585Y-93246362D01*
X141034908Y-93248552D01*
X141000256Y-93260951D01*
X140994481Y-93262859D01*
X140947588Y-93277086D01*
X140941720Y-93278710D01*
X140905985Y-93287662D01*
X140900044Y-93288996D01*
X140677993Y-93333165D01*
X140671996Y-93334206D01*
X140635565Y-93339610D01*
X140629524Y-93340355D01*
X140580752Y-93345158D01*
X140574682Y-93345606D01*
X140537910Y-93347412D01*
X140531827Y-93347561D01*
X140305445Y-93347561D01*
X140299362Y-93347412D01*
X140262590Y-93345606D01*
X140256520Y-93345158D01*
X140207748Y-93340355D01*
X140201707Y-93339610D01*
X140165276Y-93334206D01*
X140159278Y-93333165D01*
X140124000Y-93326147D01*
X139126000Y-93326147D01*
X139126000Y-93063500D01*
X139108500Y-93063500D01*
X139108500Y-93082118D01*
X139108351Y-93088200D01*
X139106545Y-93124975D01*
X139106097Y-93131046D01*
X139101294Y-93179815D01*
X139100549Y-93185858D01*
X139095145Y-93222286D01*
X139094104Y-93228281D01*
X139048015Y-93459987D01*
X139046682Y-93465924D01*
X139037733Y-93501652D01*
X139036109Y-93507522D01*
X139021882Y-93554418D01*
X139019973Y-93560197D01*
X139007570Y-93594859D01*
X139005380Y-93600535D01*
X138914979Y-93818783D01*
X138912513Y-93824346D01*
X138896773Y-93857626D01*
X138894037Y-93863061D01*
X138870936Y-93906282D01*
X138867936Y-93911578D01*
X138849001Y-93943170D01*
X138845744Y-93948314D01*
X138727018Y-94126000D01*
X137219524Y-94126000D01*
X137212810Y-94119286D01*
X137179325Y-94057963D01*
X137184309Y-93988271D01*
X137226181Y-93932338D01*
X137276300Y-93909988D01*
X137298471Y-93905577D01*
X137437251Y-93877973D01*
X137610231Y-93806322D01*
X137765908Y-93702302D01*
X137898302Y-93569908D01*
X138002322Y-93414231D01*
X138073973Y-93241251D01*
X138110500Y-93057616D01*
X138110500Y-92870384D01*
X138073973Y-92686749D01*
X138002322Y-92513769D01*
X138002321Y-92513768D01*
X138002318Y-92513762D01*
X137898302Y-92358092D01*
X137898299Y-92358088D01*
X137854082Y-92313871D01*
X137820597Y-92252548D01*
X137825581Y-92182856D01*
X137854083Y-92138508D01*
X137890774Y-92101818D01*
X137952098Y-92068333D01*
X137978454Y-92065500D01*
X139710214Y-92065500D01*
X139777253Y-92085185D01*
X139797896Y-92101820D01*
X139844597Y-92148522D01*
X139844601Y-92148525D01*
X139992082Y-92247070D01*
X139992095Y-92247077D01*
X140114999Y-92297984D01*
X140155970Y-92314955D01*
X140155972Y-92314955D01*
X140155977Y-92314957D01*
X140329940Y-92349560D01*
X140329943Y-92349561D01*
X140329945Y-92349561D01*
X140507329Y-92349561D01*
X140507330Y-92349560D01*
X140592183Y-92332682D01*
X140681294Y-92314957D01*
X140681297Y-92314955D01*
X140681302Y-92314955D01*
X140821171Y-92257019D01*
X140845176Y-92247077D01*
X140845176Y-92247076D01*
X140845183Y-92247074D01*
X140992671Y-92148525D01*
X141118100Y-92023096D01*
X141216649Y-91875608D01*
X141284530Y-91711727D01*
X141284735Y-91710699D01*
X141313609Y-91565536D01*
X141319136Y-91537752D01*
X141319136Y-91360370D01*
X141319136Y-91360367D01*
X141286777Y-91197692D01*
X141293004Y-91128100D01*
X141335867Y-91072923D01*
X141401756Y-91049678D01*
X141408394Y-91049500D01*
X145069677Y-91049500D01*
X145136716Y-91069185D01*
G37*
%TD.AperFunction*%
%TA.AperFunction,Conductor*%
G36*
X155930927Y-93593440D02*
G01*
X155935950Y-93593044D01*
X155980512Y-93558683D01*
X156050125Y-93552704D01*
X156091350Y-93574456D01*
X156149500Y-93460331D01*
X156149500Y-96672449D01*
X156129777Y-96646103D01*
X156122199Y-96638525D01*
X156077011Y-96677681D01*
X156007853Y-96687625D01*
X155951190Y-96664154D01*
X155920729Y-96641351D01*
X155920722Y-96641347D01*
X155786015Y-96591105D01*
X155786008Y-96591103D01*
X155726480Y-96584702D01*
X155078636Y-96584702D01*
X155078636Y-97501690D01*
X155021629Y-97468777D01*
X154894462Y-97434702D01*
X154762810Y-97434702D01*
X154635643Y-97468777D01*
X154578636Y-97501690D01*
X154578636Y-96584702D01*
X153955009Y-96584702D01*
X153955008Y-96584703D01*
X154013050Y-96664591D01*
X154023217Y-96681181D01*
X154117974Y-96867151D01*
X154125420Y-96885128D01*
X154189916Y-97083629D01*
X154194458Y-97102549D01*
X154227109Y-97308693D01*
X154228636Y-97328091D01*
X154228636Y-97536812D01*
X154227109Y-97556210D01*
X154194458Y-97762354D01*
X154189916Y-97781274D01*
X154125420Y-97979775D01*
X154117974Y-97997752D01*
X154023215Y-98183725D01*
X154013048Y-98200315D01*
X153890370Y-98369168D01*
X153877733Y-98383964D01*
X153730148Y-98531549D01*
X153715352Y-98544186D01*
X153546499Y-98666864D01*
X153529910Y-98677030D01*
X153478636Y-98703156D01*
X153478636Y-98768500D01*
X153458951Y-98835539D01*
X153406147Y-98881294D01*
X153360237Y-98891281D01*
X153360368Y-98892500D01*
X153349469Y-98892500D01*
X153218964Y-98918460D01*
X153117749Y-98960383D01*
X153111711Y-98939280D01*
X153110582Y-98926585D01*
X153065003Y-98903770D01*
X153029351Y-98843680D01*
X153025500Y-98813016D01*
X153025500Y-98794660D01*
X153025500Y-98158936D01*
X153019266Y-98127597D01*
X153001463Y-98038090D01*
X153000237Y-98035129D01*
X152988075Y-98005767D01*
X152978636Y-97958315D01*
X152978636Y-97432452D01*
X152652636Y-97432452D01*
X152585597Y-97412767D01*
X152539842Y-97359963D01*
X152528636Y-97308452D01*
X152528636Y-97036857D01*
X153478636Y-97036857D01*
X153478636Y-98069486D01*
X153512993Y-98035129D01*
X153512999Y-98035121D01*
X153616460Y-97880281D01*
X153616462Y-97880277D01*
X153687727Y-97708226D01*
X153687730Y-97708214D01*
X153724060Y-97525572D01*
X153724061Y-97525569D01*
X153724061Y-97339335D01*
X153724060Y-97339331D01*
X153687730Y-97156689D01*
X153687727Y-97156677D01*
X153616464Y-96984631D01*
X153616457Y-96984618D01*
X153530371Y-96855782D01*
X153485039Y-96977322D01*
X153485037Y-96977329D01*
X153478636Y-97036857D01*
X152528636Y-97036857D01*
X152528636Y-96769705D01*
X153028636Y-96769705D01*
X153041726Y-96723958D01*
X153051033Y-96700659D01*
X153127771Y-96553747D01*
X153127772Y-96553747D01*
X153054410Y-96523360D01*
X153054398Y-96523357D01*
X153028636Y-96518232D01*
X153028636Y-96769705D01*
X152528636Y-96769705D01*
X152528636Y-96496090D01*
X152523499Y-96488548D01*
X152517500Y-96450446D01*
X152517500Y-96394018D01*
X152517500Y-94426394D01*
X152503340Y-94355203D01*
X152492275Y-94299574D01*
X152494871Y-94299057D01*
X152494342Y-94240667D01*
X152531583Y-94181549D01*
X152590343Y-94153884D01*
X152590151Y-94153083D01*
X152594013Y-94152155D01*
X152594240Y-94152049D01*
X152594879Y-94151948D01*
X152797048Y-94086259D01*
X152838923Y-94064922D01*
X152907589Y-94052026D01*
X152972330Y-94078301D01*
X153009777Y-94127953D01*
X153039324Y-94199286D01*
X153039325Y-94199288D01*
X153039326Y-94199289D01*
X153039327Y-94199292D01*
X153072446Y-94248855D01*
X153072447Y-94248859D01*
X153072448Y-94248859D01*
X153107774Y-94301728D01*
X153107780Y-94301736D01*
X153199222Y-94393178D01*
X153199244Y-94393198D01*
X153241817Y-94435771D01*
X153275302Y-94497094D01*
X153278136Y-94523452D01*
X153278136Y-94576695D01*
X153312739Y-94750658D01*
X153312742Y-94750667D01*
X153380619Y-94914540D01*
X153380626Y-94914553D01*
X153479171Y-95062034D01*
X153479174Y-95062038D01*
X153604597Y-95187461D01*
X153604601Y-95187464D01*
X153752082Y-95286009D01*
X153752095Y-95286016D01*
X153845382Y-95324656D01*
X153915970Y-95353894D01*
X153915972Y-95353894D01*
X153915977Y-95353896D01*
X154089940Y-95388499D01*
X154089943Y-95388500D01*
X154089945Y-95388500D01*
X154267329Y-95388500D01*
X154267330Y-95388499D01*
X154325318Y-95376964D01*
X154441294Y-95353896D01*
X154441297Y-95353894D01*
X154441302Y-95353894D01*
X154605183Y-95286013D01*
X154752671Y-95187464D01*
X154878100Y-95062035D01*
X154976649Y-94914547D01*
X155044530Y-94750666D01*
X155045242Y-94747090D01*
X155079135Y-94576695D01*
X155079136Y-94576693D01*
X155079136Y-94541299D01*
X155079136Y-94399309D01*
X155056437Y-94285197D01*
X155057095Y-94285093D01*
X155063112Y-94217853D01*
X155105975Y-94162676D01*
X155140185Y-94145322D01*
X155335254Y-94081941D01*
X155524009Y-93985765D01*
X155577373Y-93946993D01*
X155577374Y-93946993D01*
X154948045Y-93317664D01*
X155011629Y-93300627D01*
X155125643Y-93234801D01*
X155218735Y-93141709D01*
X155284561Y-93027695D01*
X155301598Y-92964110D01*
X155930927Y-93593440D01*
G37*
%TD.AperFunction*%
%TA.AperFunction,Conductor*%
G36*
X156111920Y-91053241D02*
G01*
X156146277Y-91114080D01*
X156149500Y-91142166D01*
X156149500Y-92209072D01*
X156091559Y-92095357D01*
X156077011Y-92107963D01*
X156007853Y-92117907D01*
X155944297Y-92088882D01*
X155932558Y-92076091D01*
X155930927Y-92075963D01*
X155301598Y-92705292D01*
X155284561Y-92641709D01*
X155218735Y-92527695D01*
X155125643Y-92434603D01*
X155011629Y-92368777D01*
X154948043Y-92351738D01*
X155577373Y-91722409D01*
X155577373Y-91722408D01*
X155524010Y-91683639D01*
X155512556Y-91677803D01*
X155461760Y-91629828D01*
X155444965Y-91562007D01*
X155461751Y-91512747D01*
X155432285Y-91497733D01*
X155526452Y-91449753D01*
X155679384Y-91338642D01*
X155679463Y-91338585D01*
X155683535Y-91335625D01*
X155698422Y-91324811D01*
X155698424Y-91324808D01*
X155698428Y-91324806D01*
X155848740Y-91174494D01*
X155848742Y-91174490D01*
X155848745Y-91174488D01*
X155925182Y-91069281D01*
X155980511Y-91026615D01*
X156050125Y-91020636D01*
X156111920Y-91053241D01*
G37*
%TD.AperFunction*%
%TA.AperFunction,Conductor*%
G36*
X139447779Y-90053185D02*
G01*
X139493534Y-90105989D01*
X139503478Y-90175147D01*
X139502357Y-90181691D01*
X139468136Y-90353730D01*
X139468136Y-90531121D01*
X139495027Y-90666309D01*
X139488800Y-90735900D01*
X139445937Y-90791078D01*
X139380047Y-90814322D01*
X139373410Y-90814500D01*
X138594528Y-90814500D01*
X138599031Y-90803629D01*
X138569014Y-90794815D01*
X138523259Y-90742011D01*
X138513657Y-90675232D01*
X138512855Y-90674255D01*
X137722636Y-90674255D01*
X137655597Y-90654570D01*
X137609842Y-90601766D01*
X137598636Y-90550255D01*
X137598636Y-90298255D01*
X137618321Y-90231216D01*
X137671125Y-90185461D01*
X137722636Y-90174255D01*
X138512855Y-90174255D01*
X138515261Y-90171322D01*
X138520562Y-90112099D01*
X138563426Y-90056922D01*
X138598843Y-90044427D01*
X138594317Y-90033500D01*
X139380740Y-90033500D01*
X139447779Y-90053185D01*
G37*
%TD.AperFunction*%
%TD*%
M02*
