%TF.GenerationSoftware,KiCad,Pcbnew,10.0.6*%
%TF.CreationDate,2026-09-23T21:48:20+05:30*%
%TF.ProjectId,breadboard,62726561-6462-46f6-9172-642e6b696361,rev?*%
%TF.SameCoordinates,Original*%
%TF.FileFunction,Legend,Bot*%
%TF.FilePolarity,Positive*%
%FSLAX46Y46*%
G04 Gerber Fmt 4.6, Leading zero omitted, Abs format (unit mm)*
G04 Created by KiCad (PCBNEW 10.0.6) date 2026-09-23 21:48:20*
%MOMM*%
%LPD*%
G01*
G04 APERTURE LIST*
%ADD10C,0.400000*%
%ADD11C,0.130000*%
G04 APERTURE END LIST*
D10*
X168880895Y-69000000D02*
G75*
G02*
X165119105Y-69000000I-1880895J0D01*
G01*
X165119105Y-69000000D02*
G75*
G02*
X168880895Y-69000000I1880895J0D01*
G01*
D11*
X166595335Y-68052192D02*
X167395335Y-68285526D01*
X167395335Y-68285526D02*
X166595335Y-68518859D01*
X166595335Y-68885526D02*
X166595335Y-68952192D01*
X166595335Y-68952192D02*
X166633430Y-69018859D01*
X166633430Y-69018859D02*
X166671525Y-69052192D01*
X166671525Y-69052192D02*
X166747716Y-69085526D01*
X166747716Y-69085526D02*
X166900097Y-69118859D01*
X166900097Y-69118859D02*
X167090573Y-69118859D01*
X167090573Y-69118859D02*
X167242954Y-69085526D01*
X167242954Y-69085526D02*
X167319144Y-69052192D01*
X167319144Y-69052192D02*
X167357240Y-69018859D01*
X167357240Y-69018859D02*
X167395335Y-68952192D01*
X167395335Y-68952192D02*
X167395335Y-68885526D01*
X167395335Y-68885526D02*
X167357240Y-68818859D01*
X167357240Y-68818859D02*
X167319144Y-68785526D01*
X167319144Y-68785526D02*
X167242954Y-68752192D01*
X167242954Y-68752192D02*
X167090573Y-68718859D01*
X167090573Y-68718859D02*
X166900097Y-68718859D01*
X166900097Y-68718859D02*
X166747716Y-68752192D01*
X166747716Y-68752192D02*
X166671525Y-68785526D01*
X166671525Y-68785526D02*
X166633430Y-68818859D01*
X166633430Y-68818859D02*
X166595335Y-68885526D01*
X167319144Y-69418859D02*
X167357240Y-69452193D01*
X167357240Y-69452193D02*
X167395335Y-69418859D01*
X167395335Y-69418859D02*
X167357240Y-69385526D01*
X167357240Y-69385526D02*
X167319144Y-69418859D01*
X167319144Y-69418859D02*
X167395335Y-69418859D01*
X166671525Y-69718859D02*
X166633430Y-69752192D01*
X166633430Y-69752192D02*
X166595335Y-69818859D01*
X166595335Y-69818859D02*
X166595335Y-69985526D01*
X166595335Y-69985526D02*
X166633430Y-70052192D01*
X166633430Y-70052192D02*
X166671525Y-70085526D01*
X166671525Y-70085526D02*
X166747716Y-70118859D01*
X166747716Y-70118859D02*
X166823906Y-70118859D01*
X166823906Y-70118859D02*
X166938192Y-70085526D01*
X166938192Y-70085526D02*
X167395335Y-69685526D01*
X167395335Y-69685526D02*
X167395335Y-70118859D01*
X169600377Y-66885526D02*
X169638472Y-66985526D01*
X169638472Y-66985526D02*
X169676568Y-67018859D01*
X169676568Y-67018859D02*
X169752758Y-67052192D01*
X169752758Y-67052192D02*
X169867044Y-67052192D01*
X169867044Y-67052192D02*
X169943234Y-67018859D01*
X169943234Y-67018859D02*
X169981330Y-66985526D01*
X169981330Y-66985526D02*
X170019425Y-66918859D01*
X170019425Y-66918859D02*
X170019425Y-66652192D01*
X170019425Y-66652192D02*
X169219425Y-66652192D01*
X169219425Y-66652192D02*
X169219425Y-66885526D01*
X169219425Y-66885526D02*
X169257520Y-66952192D01*
X169257520Y-66952192D02*
X169295615Y-66985526D01*
X169295615Y-66985526D02*
X169371806Y-67018859D01*
X169371806Y-67018859D02*
X169447996Y-67018859D01*
X169447996Y-67018859D02*
X169524187Y-66985526D01*
X169524187Y-66985526D02*
X169562282Y-66952192D01*
X169562282Y-66952192D02*
X169600377Y-66885526D01*
X169600377Y-66885526D02*
X169600377Y-66652192D01*
X170019425Y-67352192D02*
X169486091Y-67352192D01*
X169638472Y-67352192D02*
X169562282Y-67385526D01*
X169562282Y-67385526D02*
X169524187Y-67418859D01*
X169524187Y-67418859D02*
X169486091Y-67485526D01*
X169486091Y-67485526D02*
X169486091Y-67552192D01*
X169981330Y-68052192D02*
X170019425Y-67985525D01*
X170019425Y-67985525D02*
X170019425Y-67852192D01*
X170019425Y-67852192D02*
X169981330Y-67785525D01*
X169981330Y-67785525D02*
X169905139Y-67752192D01*
X169905139Y-67752192D02*
X169600377Y-67752192D01*
X169600377Y-67752192D02*
X169524187Y-67785525D01*
X169524187Y-67785525D02*
X169486091Y-67852192D01*
X169486091Y-67852192D02*
X169486091Y-67985525D01*
X169486091Y-67985525D02*
X169524187Y-68052192D01*
X169524187Y-68052192D02*
X169600377Y-68085525D01*
X169600377Y-68085525D02*
X169676568Y-68085525D01*
X169676568Y-68085525D02*
X169752758Y-67752192D01*
X170019425Y-68685525D02*
X169600377Y-68685525D01*
X169600377Y-68685525D02*
X169524187Y-68652192D01*
X169524187Y-68652192D02*
X169486091Y-68585525D01*
X169486091Y-68585525D02*
X169486091Y-68452192D01*
X169486091Y-68452192D02*
X169524187Y-68385525D01*
X169981330Y-68685525D02*
X170019425Y-68618859D01*
X170019425Y-68618859D02*
X170019425Y-68452192D01*
X170019425Y-68452192D02*
X169981330Y-68385525D01*
X169981330Y-68385525D02*
X169905139Y-68352192D01*
X169905139Y-68352192D02*
X169828949Y-68352192D01*
X169828949Y-68352192D02*
X169752758Y-68385525D01*
X169752758Y-68385525D02*
X169714663Y-68452192D01*
X169714663Y-68452192D02*
X169714663Y-68618859D01*
X169714663Y-68618859D02*
X169676568Y-68685525D01*
X170019425Y-69318858D02*
X169219425Y-69318858D01*
X169981330Y-69318858D02*
X170019425Y-69252192D01*
X170019425Y-69252192D02*
X170019425Y-69118858D01*
X170019425Y-69118858D02*
X169981330Y-69052192D01*
X169981330Y-69052192D02*
X169943234Y-69018858D01*
X169943234Y-69018858D02*
X169867044Y-68985525D01*
X169867044Y-68985525D02*
X169638472Y-68985525D01*
X169638472Y-68985525D02*
X169562282Y-69018858D01*
X169562282Y-69018858D02*
X169524187Y-69052192D01*
X169524187Y-69052192D02*
X169486091Y-69118858D01*
X169486091Y-69118858D02*
X169486091Y-69252192D01*
X169486091Y-69252192D02*
X169524187Y-69318858D01*
X170019425Y-69652191D02*
X169219425Y-69652191D01*
X169524187Y-69652191D02*
X169486091Y-69718858D01*
X169486091Y-69718858D02*
X169486091Y-69852191D01*
X169486091Y-69852191D02*
X169524187Y-69918858D01*
X169524187Y-69918858D02*
X169562282Y-69952191D01*
X169562282Y-69952191D02*
X169638472Y-69985525D01*
X169638472Y-69985525D02*
X169867044Y-69985525D01*
X169867044Y-69985525D02*
X169943234Y-69952191D01*
X169943234Y-69952191D02*
X169981330Y-69918858D01*
X169981330Y-69918858D02*
X170019425Y-69852191D01*
X170019425Y-69852191D02*
X170019425Y-69718858D01*
X170019425Y-69718858D02*
X169981330Y-69652191D01*
X170019425Y-70385524D02*
X169981330Y-70318858D01*
X169981330Y-70318858D02*
X169943234Y-70285524D01*
X169943234Y-70285524D02*
X169867044Y-70252191D01*
X169867044Y-70252191D02*
X169638472Y-70252191D01*
X169638472Y-70252191D02*
X169562282Y-70285524D01*
X169562282Y-70285524D02*
X169524187Y-70318858D01*
X169524187Y-70318858D02*
X169486091Y-70385524D01*
X169486091Y-70385524D02*
X169486091Y-70485524D01*
X169486091Y-70485524D02*
X169524187Y-70552191D01*
X169524187Y-70552191D02*
X169562282Y-70585524D01*
X169562282Y-70585524D02*
X169638472Y-70618858D01*
X169638472Y-70618858D02*
X169867044Y-70618858D01*
X169867044Y-70618858D02*
X169943234Y-70585524D01*
X169943234Y-70585524D02*
X169981330Y-70552191D01*
X169981330Y-70552191D02*
X170019425Y-70485524D01*
X170019425Y-70485524D02*
X170019425Y-70385524D01*
X170019425Y-71218857D02*
X169600377Y-71218857D01*
X169600377Y-71218857D02*
X169524187Y-71185524D01*
X169524187Y-71185524D02*
X169486091Y-71118857D01*
X169486091Y-71118857D02*
X169486091Y-70985524D01*
X169486091Y-70985524D02*
X169524187Y-70918857D01*
X169981330Y-71218857D02*
X170019425Y-71152191D01*
X170019425Y-71152191D02*
X170019425Y-70985524D01*
X170019425Y-70985524D02*
X169981330Y-70918857D01*
X169981330Y-70918857D02*
X169905139Y-70885524D01*
X169905139Y-70885524D02*
X169828949Y-70885524D01*
X169828949Y-70885524D02*
X169752758Y-70918857D01*
X169752758Y-70918857D02*
X169714663Y-70985524D01*
X169714663Y-70985524D02*
X169714663Y-71152191D01*
X169714663Y-71152191D02*
X169676568Y-71218857D01*
X170019425Y-71552190D02*
X169486091Y-71552190D01*
X169638472Y-71552190D02*
X169562282Y-71585524D01*
X169562282Y-71585524D02*
X169524187Y-71618857D01*
X169524187Y-71618857D02*
X169486091Y-71685524D01*
X169486091Y-71685524D02*
X169486091Y-71752190D01*
X170019425Y-72285523D02*
X169219425Y-72285523D01*
X169981330Y-72285523D02*
X170019425Y-72218857D01*
X170019425Y-72218857D02*
X170019425Y-72085523D01*
X170019425Y-72085523D02*
X169981330Y-72018857D01*
X169981330Y-72018857D02*
X169943234Y-71985523D01*
X169943234Y-71985523D02*
X169867044Y-71952190D01*
X169867044Y-71952190D02*
X169638472Y-71952190D01*
X169638472Y-71952190D02*
X169562282Y-71985523D01*
X169562282Y-71985523D02*
X169524187Y-72018857D01*
X169524187Y-72018857D02*
X169486091Y-72085523D01*
X169486091Y-72085523D02*
X169486091Y-72218857D01*
X169486091Y-72218857D02*
X169524187Y-72285523D01*
X171307380Y-67718858D02*
X170507380Y-67718858D01*
X170507380Y-67718858D02*
X170507380Y-67985525D01*
X170507380Y-67985525D02*
X170545475Y-68052192D01*
X170545475Y-68052192D02*
X170583570Y-68085525D01*
X170583570Y-68085525D02*
X170659761Y-68118858D01*
X170659761Y-68118858D02*
X170774046Y-68118858D01*
X170774046Y-68118858D02*
X170850237Y-68085525D01*
X170850237Y-68085525D02*
X170888332Y-68052192D01*
X170888332Y-68052192D02*
X170926427Y-67985525D01*
X170926427Y-67985525D02*
X170926427Y-67718858D01*
X171307380Y-68518858D02*
X171269285Y-68452192D01*
X171269285Y-68452192D02*
X171231189Y-68418858D01*
X171231189Y-68418858D02*
X171154999Y-68385525D01*
X171154999Y-68385525D02*
X170926427Y-68385525D01*
X170926427Y-68385525D02*
X170850237Y-68418858D01*
X170850237Y-68418858D02*
X170812142Y-68452192D01*
X170812142Y-68452192D02*
X170774046Y-68518858D01*
X170774046Y-68518858D02*
X170774046Y-68618858D01*
X170774046Y-68618858D02*
X170812142Y-68685525D01*
X170812142Y-68685525D02*
X170850237Y-68718858D01*
X170850237Y-68718858D02*
X170926427Y-68752192D01*
X170926427Y-68752192D02*
X171154999Y-68752192D01*
X171154999Y-68752192D02*
X171231189Y-68718858D01*
X171231189Y-68718858D02*
X171269285Y-68685525D01*
X171269285Y-68685525D02*
X171307380Y-68618858D01*
X171307380Y-68618858D02*
X171307380Y-68518858D01*
X170774046Y-68985525D02*
X171307380Y-69118858D01*
X171307380Y-69118858D02*
X170926427Y-69252191D01*
X170926427Y-69252191D02*
X171307380Y-69385525D01*
X171307380Y-69385525D02*
X170774046Y-69518858D01*
X171269285Y-70052191D02*
X171307380Y-69985524D01*
X171307380Y-69985524D02*
X171307380Y-69852191D01*
X171307380Y-69852191D02*
X171269285Y-69785524D01*
X171269285Y-69785524D02*
X171193094Y-69752191D01*
X171193094Y-69752191D02*
X170888332Y-69752191D01*
X170888332Y-69752191D02*
X170812142Y-69785524D01*
X170812142Y-69785524D02*
X170774046Y-69852191D01*
X170774046Y-69852191D02*
X170774046Y-69985524D01*
X170774046Y-69985524D02*
X170812142Y-70052191D01*
X170812142Y-70052191D02*
X170888332Y-70085524D01*
X170888332Y-70085524D02*
X170964523Y-70085524D01*
X170964523Y-70085524D02*
X171040713Y-69752191D01*
X171307380Y-70385524D02*
X170774046Y-70385524D01*
X170926427Y-70385524D02*
X170850237Y-70418858D01*
X170850237Y-70418858D02*
X170812142Y-70452191D01*
X170812142Y-70452191D02*
X170774046Y-70518858D01*
X170774046Y-70518858D02*
X170774046Y-70585524D01*
X172557240Y-67152192D02*
X172595335Y-67252192D01*
X172595335Y-67252192D02*
X172595335Y-67418859D01*
X172595335Y-67418859D02*
X172557240Y-67485525D01*
X172557240Y-67485525D02*
X172519144Y-67518859D01*
X172519144Y-67518859D02*
X172442954Y-67552192D01*
X172442954Y-67552192D02*
X172366763Y-67552192D01*
X172366763Y-67552192D02*
X172290573Y-67518859D01*
X172290573Y-67518859D02*
X172252478Y-67485525D01*
X172252478Y-67485525D02*
X172214382Y-67418859D01*
X172214382Y-67418859D02*
X172176287Y-67285525D01*
X172176287Y-67285525D02*
X172138192Y-67218859D01*
X172138192Y-67218859D02*
X172100097Y-67185525D01*
X172100097Y-67185525D02*
X172023906Y-67152192D01*
X172023906Y-67152192D02*
X171947716Y-67152192D01*
X171947716Y-67152192D02*
X171871525Y-67185525D01*
X171871525Y-67185525D02*
X171833430Y-67218859D01*
X171833430Y-67218859D02*
X171795335Y-67285525D01*
X171795335Y-67285525D02*
X171795335Y-67452192D01*
X171795335Y-67452192D02*
X171833430Y-67552192D01*
X172062001Y-68152192D02*
X172595335Y-68152192D01*
X172062001Y-67852192D02*
X172481049Y-67852192D01*
X172481049Y-67852192D02*
X172557240Y-67885526D01*
X172557240Y-67885526D02*
X172595335Y-67952192D01*
X172595335Y-67952192D02*
X172595335Y-68052192D01*
X172595335Y-68052192D02*
X172557240Y-68118859D01*
X172557240Y-68118859D02*
X172519144Y-68152192D01*
X172062001Y-68485525D02*
X172862001Y-68485525D01*
X172100097Y-68485525D02*
X172062001Y-68552192D01*
X172062001Y-68552192D02*
X172062001Y-68685525D01*
X172062001Y-68685525D02*
X172100097Y-68752192D01*
X172100097Y-68752192D02*
X172138192Y-68785525D01*
X172138192Y-68785525D02*
X172214382Y-68818859D01*
X172214382Y-68818859D02*
X172442954Y-68818859D01*
X172442954Y-68818859D02*
X172519144Y-68785525D01*
X172519144Y-68785525D02*
X172557240Y-68752192D01*
X172557240Y-68752192D02*
X172595335Y-68685525D01*
X172595335Y-68685525D02*
X172595335Y-68552192D01*
X172595335Y-68552192D02*
X172557240Y-68485525D01*
X172062001Y-69118858D02*
X172862001Y-69118858D01*
X172100097Y-69118858D02*
X172062001Y-69185525D01*
X172062001Y-69185525D02*
X172062001Y-69318858D01*
X172062001Y-69318858D02*
X172100097Y-69385525D01*
X172100097Y-69385525D02*
X172138192Y-69418858D01*
X172138192Y-69418858D02*
X172214382Y-69452192D01*
X172214382Y-69452192D02*
X172442954Y-69452192D01*
X172442954Y-69452192D02*
X172519144Y-69418858D01*
X172519144Y-69418858D02*
X172557240Y-69385525D01*
X172557240Y-69385525D02*
X172595335Y-69318858D01*
X172595335Y-69318858D02*
X172595335Y-69185525D01*
X172595335Y-69185525D02*
X172557240Y-69118858D01*
X172595335Y-69852191D02*
X172557240Y-69785525D01*
X172557240Y-69785525D02*
X172481049Y-69752191D01*
X172481049Y-69752191D02*
X171795335Y-69752191D01*
X172062001Y-70052192D02*
X172595335Y-70218858D01*
X172062001Y-70385525D02*
X172595335Y-70218858D01*
X172595335Y-70218858D02*
X172785811Y-70152192D01*
X172785811Y-70152192D02*
X172823906Y-70118858D01*
X172823906Y-70118858D02*
X172862001Y-70052192D01*
M02*
