%TF.GenerationSoftware,KiCad,Pcbnew,10.0.6*%
%TF.CreationDate,2026-09-23T21:48:20+05:30*%
%TF.ProjectId,breadboard,62726561-6462-46f6-9172-642e6b696361,rev?*%
%TF.SameCoordinates,Original*%
%TF.FileFunction,Copper,L1,Top*%
%TF.FilePolarity,Positive*%
%FSLAX46Y46*%
G04 Gerber Fmt 4.6, Leading zero omitted, Abs format (unit mm)*
G04 Created by KiCad (PCBNEW 10.0.6) date 2026-09-23 21:48:20*
%MOMM*%
%LPD*%
G01*
G04 APERTURE LIST*
G04 Aperture macros list*
%AMRoundRect*
0 Rectangle with rounded corners*
0 $1 Rounding radius*
0 $2 $3 $4 $5 $6 $7 $8 $9 X,Y pos of 4 corners*
0 Add a 4 corners polygon primitive as box body*
4,1,4,$2,$3,$4,$5,$6,$7,$8,$9,$2,$3,0*
0 Add four circle primitives for the rounded corners*
1,1,$1+$1,$2,$3*
1,1,$1+$1,$4,$5*
1,1,$1+$1,$6,$7*
1,1,$1+$1,$8,$9*
0 Add four rect primitives between the rounded corners*
20,1,$1+$1,$2,$3,$4,$5,0*
20,1,$1+$1,$4,$5,$6,$7,0*
20,1,$1+$1,$6,$7,$8,$9,0*
20,1,$1+$1,$8,$9,$2,$3,0*%
G04 Aperture macros list end*
%TA.AperFunction,ComponentPad*%
%ADD10R,3.000000X3.000000*%
%TD*%
%TA.AperFunction,ComponentPad*%
%ADD11C,3.000000*%
%TD*%
%TA.AperFunction,ComponentPad*%
%ADD12C,1.508000*%
%TD*%
%TA.AperFunction,ComponentPad*%
%ADD13R,1.700000X1.700000*%
%TD*%
%TA.AperFunction,ComponentPad*%
%ADD14C,1.700000*%
%TD*%
%TA.AperFunction,ComponentPad*%
%ADD15C,1.400000*%
%TD*%
%TA.AperFunction,ComponentPad*%
%ADD16R,1.905000X2.000000*%
%TD*%
%TA.AperFunction,ComponentPad*%
%ADD17O,1.905000X2.000000*%
%TD*%
%TA.AperFunction,ComponentPad*%
%ADD18R,3.500000X3.500000*%
%TD*%
%TA.AperFunction,ComponentPad*%
%ADD19RoundRect,0.750000X-0.750000X-1.000000X0.750000X-1.000000X0.750000X1.000000X-0.750000X1.000000X0*%
%TD*%
%TA.AperFunction,ComponentPad*%
%ADD20RoundRect,0.875000X-0.875000X-0.875000X0.875000X-0.875000X0.875000X0.875000X-0.875000X0.875000X0*%
%TD*%
%TA.AperFunction,ComponentPad*%
%ADD21C,1.600000*%
%TD*%
%TA.AperFunction,ComponentPad*%
%ADD22R,1.800000X1.800000*%
%TD*%
%TA.AperFunction,ComponentPad*%
%ADD23C,1.800000*%
%TD*%
%TA.AperFunction,Conductor*%
%ADD24C,0.250000*%
%TD*%
G04 APERTURE END LIST*
D10*
%TO.P,J7,1,Pin_1_1*%
%TO.N,/PWR_output*%
X184170000Y-54750000D03*
D11*
%TO.P,J7,2,Pin_2_2*%
%TO.N,GND*%
X189250000Y-54750000D03*
%TD*%
D10*
%TO.P,J4,1,Pin_1_1*%
%TO.N,/PWR_output*%
X184170000Y-102020000D03*
D11*
%TO.P,J4,2,Pin_2_2*%
%TO.N,GND*%
X189250000Y-102020000D03*
%TD*%
D12*
%TO.P,S1,2*%
%TO.N,/PWR_input*%
X185125000Y-63195200D03*
%TO.P,S1,1*%
%TO.N,/12V*%
X182625000Y-63195200D03*
%TO.P,S1,3*%
%TO.N,unconnected-(S1-Pad3)*%
X187625000Y-63195200D03*
%TD*%
D13*
%TO.P,J5,1,Pin_1_1*%
%TO.N,GND*%
X195834000Y-101700000D03*
D14*
%TO.P,J5,2,Pin_2_2*%
%TO.N,/PWR_output*%
X195834000Y-104240000D03*
%TD*%
D15*
%TO.P,R2,1*%
%TO.N,GND*%
X181215000Y-85225000D03*
%TO.P,R2,2*%
%TO.N,Net-(U2-ADJ)*%
X188835000Y-85225000D03*
%TD*%
D13*
%TO.P,J3,1,Pin_1_1*%
%TO.N,/3.3V*%
X171460000Y-52500000D03*
D14*
%TO.P,J3,2,Pin_2_2*%
%TO.N,/PWR_output*%
X174000000Y-52500000D03*
%TO.P,J3,3,Pin_3_3*%
%TO.N,/5v*%
X176540000Y-52500000D03*
%TD*%
D16*
%TO.P,U2,1,ADJ_1*%
%TO.N,Net-(U2-ADJ)*%
X167710000Y-93450000D03*
D17*
%TO.P,U2,2,VO_2*%
%TO.N,/3.3V*%
X170250000Y-93450000D03*
%TO.P,U2,3,VI_3*%
%TO.N,/12V*%
X172790000Y-93450000D03*
%TD*%
D13*
%TO.P,J1,1,Pin_1_1*%
%TO.N,/3.3V*%
X171460000Y-104250000D03*
D14*
%TO.P,J1,2,Pin_2_2*%
%TO.N,/PWR_output*%
X174000000Y-104250000D03*
%TO.P,J1,3,Pin_3_3*%
%TO.N,/5v*%
X176540000Y-104250000D03*
%TD*%
D18*
%TO.P,J6,1*%
%TO.N,/PWR_input*%
X178175000Y-77542500D03*
D19*
%TO.P,J6,2*%
%TO.N,GND*%
X172175000Y-77542500D03*
D20*
%TO.P,J6,3*%
X175175000Y-82242500D03*
%TD*%
D16*
%TO.P,U1,1,VI_1*%
%TO.N,/12V*%
X167710000Y-63475000D03*
D17*
%TO.P,U1,2,GND_2*%
%TO.N,GND*%
X170250000Y-63475000D03*
%TO.P,U1,3,VO_3*%
%TO.N,/5v*%
X172790000Y-63475000D03*
%TD*%
D21*
%TO.P,C1,1*%
%TO.N,/12V*%
X166250000Y-56450000D03*
%TO.P,C1,2*%
%TO.N,GND*%
X168750000Y-56450000D03*
%TD*%
D22*
%TO.P,D1,1,K_1*%
%TO.N,Net-(D1-K)*%
X184750000Y-78600000D03*
D23*
%TO.P,D1,2,A_2*%
%TO.N,Net-(D1-A)*%
X184750000Y-76060000D03*
%TD*%
D15*
%TO.P,R1,1*%
%TO.N,Net-(D1-A)*%
X188835000Y-70100000D03*
%TO.P,R1,2*%
%TO.N,/12V*%
X181215000Y-70100000D03*
%TD*%
D13*
%TO.P,J2,1,Pin_1_1*%
%TO.N,GND*%
X195834000Y-52520000D03*
D14*
%TO.P,J2,2,Pin_2_2*%
%TO.N,/PWR_output*%
X195834000Y-55060000D03*
%TD*%
D15*
%TO.P,R3,1*%
%TO.N,Net-(U2-ADJ)*%
X181215000Y-92450000D03*
%TO.P,R3,2*%
%TO.N,/3.3V*%
X188835000Y-92450000D03*
%TD*%
D21*
%TO.P,C2,1*%
%TO.N,/5v*%
X173575000Y-56450000D03*
%TO.P,C2,2*%
%TO.N,GND*%
X176075000Y-56450000D03*
%TD*%
%TO.P,C3,1*%
%TO.N,/3.3V*%
X169750000Y-98900000D03*
%TO.P,C3,2*%
%TO.N,Net-(D1-K)*%
X167250000Y-98900000D03*
%TD*%
%TO.N,/3.3V*%
D24*
X165404800Y-98145600D02*
X165776400Y-97774000D01*
X165404800Y-99454800D02*
X165404800Y-98145600D01*
X170200000Y-104250000D02*
X165404800Y-99454800D01*
X165776400Y-97774000D02*
X168624000Y-97774000D01*
X171460000Y-104250000D02*
X170200000Y-104250000D01*
X168624000Y-97774000D02*
X169750000Y-98900000D01*
%TO.N,/5v*%
X177740000Y-58525000D02*
X172790000Y-63475000D01*
X188500000Y-58525000D02*
X177740000Y-58525000D01*
X191173000Y-61198000D02*
X188500000Y-58525000D01*
X191173000Y-63708010D02*
X191173000Y-61198000D01*
%TO.N,/12V*%
X181215000Y-70100000D02*
X181215000Y-64605200D01*
%TO.N,/PWR_input*%
X182525000Y-73192500D02*
X182525000Y-65795200D01*
X182525000Y-65795200D02*
X185125000Y-63195200D01*
X178175000Y-77542500D02*
X182525000Y-73192500D01*
%TO.N,/12V*%
X181215000Y-64605200D02*
X182625000Y-63195200D01*
%TO.N,/PWR_output*%
X194649000Y-105425000D02*
X195834000Y-104240000D01*
X183155000Y-103075000D02*
X175175000Y-103075000D01*
X195524000Y-54750000D02*
X195834000Y-55060000D01*
X174000000Y-52500000D02*
X175176000Y-51324000D01*
X195834000Y-55060000D02*
X193688248Y-55060000D01*
X195834000Y-104240000D02*
X191625000Y-100031000D01*
X175175000Y-103075000D02*
X174000000Y-104250000D01*
X193688248Y-55060000D02*
X191625000Y-57123248D01*
X191625000Y-61013604D02*
X191625000Y-100031000D01*
X182659600Y-57759600D02*
X188370996Y-57759600D01*
X175175000Y-105425000D02*
X194649000Y-105425000D01*
X174000000Y-104250000D02*
X175175000Y-105425000D01*
X181825000Y-56925000D02*
X182659600Y-57759600D01*
X181900000Y-54750000D02*
X181825000Y-54675000D01*
X181825000Y-54675000D02*
X181825000Y-56925000D01*
X184210000Y-102020000D02*
X183155000Y-103075000D01*
X184170000Y-54750000D02*
X181900000Y-54750000D01*
X175176000Y-51324000D02*
X178474000Y-51324000D01*
X191625000Y-57123248D02*
X191625000Y-61013604D01*
X178474000Y-51324000D02*
X181825000Y-54675000D01*
X188370996Y-57759600D02*
X191625000Y-61013604D01*
%TO.N,Net-(U2-ADJ)*%
X181215000Y-92450000D02*
X180515000Y-91750000D01*
X181215000Y-92450000D02*
X188440000Y-85225000D01*
X180515000Y-91750000D02*
X169410000Y-91750000D01*
X169410000Y-91750000D02*
X167710000Y-93450000D01*
X188440000Y-85225000D02*
X188835000Y-85225000D01*
%TO.N,/3.3V*%
X170250000Y-93450000D02*
X170250000Y-98400000D01*
X171576000Y-94776000D02*
X170250000Y-93450000D01*
X167200000Y-52500000D02*
X164725000Y-54975000D01*
X171460000Y-52500000D02*
X167200000Y-52500000D01*
X188835000Y-92450000D02*
X186509000Y-94776000D01*
X164725000Y-93069500D02*
X166431500Y-94776000D01*
X164725000Y-54975000D02*
X164725000Y-93069500D01*
X168924000Y-94776000D02*
X170250000Y-93450000D01*
X186509000Y-94776000D02*
X171576000Y-94776000D01*
X166431500Y-94776000D02*
X168924000Y-94776000D01*
X170250000Y-98400000D02*
X169750000Y-98900000D01*
%TO.N,/5v*%
X173575000Y-55465000D02*
X173575000Y-56450000D01*
X176540000Y-52500000D02*
X173575000Y-55465000D01*
X185716400Y-104250000D02*
X176540000Y-104250000D01*
X186774400Y-103192000D02*
X185716400Y-104250000D01*
X173575000Y-56450000D02*
X173575000Y-62690000D01*
X173575000Y-62690000D02*
X172790000Y-63475000D01*
X191173000Y-96727000D02*
X186774400Y-101125600D01*
X186774400Y-101125600D02*
X186774400Y-103192000D01*
X191173000Y-62837810D02*
X191173000Y-96727000D01*
%TO.N,/12V*%
X186451000Y-79826000D02*
X176306500Y-79826000D01*
X167710000Y-63475000D02*
X167710000Y-67435000D01*
X167710000Y-67435000D02*
X170375000Y-70100000D01*
X166250000Y-56525000D02*
X167710000Y-57985000D01*
X190175000Y-83550000D02*
X186451000Y-79826000D01*
X166250000Y-56450000D02*
X166250000Y-56525000D01*
X185799000Y-93476000D02*
X190175000Y-89100000D01*
X176099000Y-75216000D02*
X181215000Y-70100000D01*
X172790000Y-93450000D02*
X172816000Y-93476000D01*
X190175000Y-89100000D02*
X190175000Y-83550000D01*
X176099000Y-79618500D02*
X176099000Y-75216000D01*
X176306500Y-79826000D02*
X176099000Y-79618500D01*
X167710000Y-57985000D02*
X167710000Y-63475000D01*
X170375000Y-70100000D02*
X181215000Y-70100000D01*
X172816000Y-93476000D02*
X185799000Y-93476000D01*
%TO.N,Net-(D1-K)*%
X167250000Y-98900000D02*
X170700000Y-102350000D01*
X190675000Y-96425000D02*
X190675000Y-79300000D01*
X187500000Y-99600000D02*
X190675000Y-96425000D01*
X182575000Y-99600000D02*
X187500000Y-99600000D01*
X170700000Y-102350000D02*
X179825000Y-102350000D01*
X179825000Y-102350000D02*
X182575000Y-99600000D01*
X189975000Y-78600000D02*
X184750000Y-78600000D01*
X190675000Y-79300000D02*
X189975000Y-78600000D01*
%TO.N,Net-(D1-A)*%
X188835000Y-70100000D02*
X188835000Y-71975000D01*
X188835000Y-71975000D02*
X184750000Y-76060000D01*
%TD*%
M02*
