%TF.GenerationSoftware,KiCad,Pcbnew,10.0.6*%
%TF.CreationDate,2026-09-23T21:48:20+05:30*%
%TF.ProjectId,breadboard,62726561-6462-46f6-9172-642e6b696361,rev?*%
%TF.SameCoordinates,Original*%
%TF.FileFunction,Profile,NP*%
%FSLAX46Y46*%
G04 Gerber Fmt 4.6, Leading zero omitted, Abs format (unit mm)*
G04 Created by KiCad (PCBNEW 10.0.6) date 2026-09-23 21:48:20*
%MOMM*%
%LPD*%
G01*
G04 APERTURE LIST*
%TA.AperFunction,Profile*%
%ADD10C,0.050000*%
%TD*%
G04 APERTURE END LIST*
D10*
X164000000Y-52000000D02*
X164000000Y-104750000D01*
X164000000Y-52000000D02*
G75*
G02*
X165500000Y-50500000I1500000J0D01*
G01*
X165500000Y-106250000D02*
G75*
G02*
X164000000Y-104750000I0J1500000D01*
G01*
X165625000Y-106250000D02*
X165500000Y-106250000D01*
X165625000Y-106250000D02*
X197000000Y-106250000D01*
X192250000Y-57750000D02*
G75*
G02*
X193000000Y-57000000I750000J0D01*
G01*
X192250000Y-98000000D02*
X192250000Y-57750000D01*
X192250000Y-99000000D02*
X192250000Y-98000000D01*
X193000000Y-57000000D02*
X197000000Y-57000000D01*
X193000000Y-99750000D02*
G75*
G02*
X192250000Y-99000000I0J750000D01*
G01*
X196950000Y-99750000D02*
X193000000Y-99750000D01*
X196950000Y-99750000D02*
X197500000Y-99750000D01*
X197000000Y-50500000D02*
X165500000Y-50500000D01*
X197000000Y-50500000D02*
X197250000Y-50500000D01*
X197000000Y-57000000D02*
X197500000Y-57000000D01*
X197250000Y-50500000D02*
G75*
G02*
X197750000Y-51000000I0J-500000D01*
G01*
X197500000Y-99750000D02*
G75*
G02*
X197750000Y-100000000I0J-250000D01*
G01*
X197750000Y-51000000D02*
X197750000Y-51250000D01*
X197750000Y-56250000D02*
X197750000Y-51250000D01*
X197750000Y-56750000D02*
G75*
G02*
X197500000Y-57000000I-250000J0D01*
G01*
X197750000Y-56750000D02*
X197750000Y-56250000D01*
X197750000Y-100750000D02*
X197750000Y-100000000D01*
X197750000Y-105500000D02*
G75*
G02*
X197000000Y-106250000I-750000J0D01*
G01*
X197750000Y-105500000D02*
X197750000Y-100750000D01*
M02*
