%TF.GenerationSoftware,KiCad,Pcbnew,10.0.6*%
%TF.CreationDate,2026-09-23T21:48:20+05:30*%
%TF.ProjectId,breadboard,62726561-6462-46f6-9172-642e6b696361,rev?*%
%TF.SameCoordinates,Original*%
%TF.FileFunction,Soldermask,Bot*%
%TF.FilePolarity,Negative*%
%FSLAX46Y46*%
G04 Gerber Fmt 4.6, Leading zero omitted, Abs format (unit mm)*
G04 Created by KiCad (PCBNEW 10.0.6) date 2026-09-23 21:48:20*
%MOMM*%
%LPD*%
G01*
G04 APERTURE LIST*
G04 Aperture macros list*
%AMRoundRect*
0 Rectangle with rounded corners*
0 $1 Rounding radius*
0 $2 $3 $4 $5 $6 $7 $8 $9 X,Y pos of 4 corners*
0 Add a 4 corners polygon primitive as box body*
4,1,4,$2,$3,$4,$5,$6,$7,$8,$9,$2,$3,0*
0 Add four circle primitives for the rounded corners*
1,1,$1+$1,$2,$3*
1,1,$1+$1,$4,$5*
1,1,$1+$1,$6,$7*
1,1,$1+$1,$8,$9*
0 Add four rect primitives between the rounded corners*
20,1,$1+$1,$2,$3,$4,$5,0*
20,1,$1+$1,$4,$5,$6,$7,0*
20,1,$1+$1,$6,$7,$8,$9,0*
20,1,$1+$1,$8,$9,$2,$3,0*%
G04 Aperture macros list end*
%ADD10R,3.000000X3.000000*%
%ADD11C,3.000000*%
%ADD12C,1.712000*%
%ADD13R,1.700000X1.700000*%
%ADD14C,1.700000*%
%ADD15C,1.400000*%
%ADD16R,1.905000X2.000000*%
%ADD17O,1.905000X2.000000*%
%ADD18R,3.500000X3.500000*%
%ADD19RoundRect,0.750000X-0.750000X-1.000000X0.750000X-1.000000X0.750000X1.000000X-0.750000X1.000000X0*%
%ADD20RoundRect,0.875000X-0.875000X-0.875000X0.875000X-0.875000X0.875000X0.875000X-0.875000X0.875000X0*%
%ADD21C,1.600000*%
%ADD22R,1.800000X1.800000*%
%ADD23C,1.800000*%
G04 APERTURE END LIST*
D10*
%TO.C,J7*%
X184170000Y-54750000D03*
D11*
X189250000Y-54750000D03*
%TD*%
D10*
%TO.C,J4*%
X184170000Y-102020000D03*
D11*
X189250000Y-102020000D03*
%TD*%
D12*
%TO.C,S1*%
X185125000Y-63195200D03*
X182625000Y-63195200D03*
X187625000Y-63195200D03*
%TD*%
D13*
%TO.C,J5*%
X195834000Y-101700000D03*
D14*
X195834000Y-104240000D03*
%TD*%
D15*
%TO.C,R2*%
X181215000Y-85225000D03*
X188835000Y-85225000D03*
%TD*%
D13*
%TO.C,J3*%
X171460000Y-52500000D03*
D14*
X174000000Y-52500000D03*
X176540000Y-52500000D03*
%TD*%
D16*
%TO.C,U2*%
X167710000Y-93450000D03*
D17*
X170250000Y-93450000D03*
X172790000Y-93450000D03*
%TD*%
D13*
%TO.C,J1*%
X171460000Y-104250000D03*
D14*
X174000000Y-104250000D03*
X176540000Y-104250000D03*
%TD*%
D18*
%TO.C,J6*%
X178175000Y-77542500D03*
D19*
X172175000Y-77542500D03*
D20*
X175175000Y-82242500D03*
%TD*%
D16*
%TO.C,U1*%
X167710000Y-63475000D03*
D17*
X170250000Y-63475000D03*
X172790000Y-63475000D03*
%TD*%
D21*
%TO.C,C1*%
X166250000Y-56450000D03*
X168750000Y-56450000D03*
%TD*%
D22*
%TO.C,D1*%
X184750000Y-78600000D03*
D23*
X184750000Y-76060000D03*
%TD*%
D15*
%TO.C,R1*%
X188835000Y-70100000D03*
X181215000Y-70100000D03*
%TD*%
D13*
%TO.C,J2*%
X195834000Y-52520000D03*
D14*
X195834000Y-55060000D03*
%TD*%
D15*
%TO.C,R3*%
X181215000Y-92450000D03*
X188835000Y-92450000D03*
%TD*%
D21*
%TO.C,C2*%
X173575000Y-56450000D03*
X176075000Y-56450000D03*
%TD*%
%TO.C,C3*%
X169750000Y-98900000D03*
X167250000Y-98900000D03*
%TD*%
M02*
