M48
; DRILL file KiCad 10.0.6 date 2026-09-23T21:48:25
; FORMAT={-:-/ absolute / metric / decimal}
; #@! TF.CreationDate,2026-09-23T21:48:25+05:30
; #@! TF.GenerationSoftware,Kicad,Pcbnew,10.0.6
; #@! TF.FileFunction,Plated,1,2,PTH
FMAT,2
METRIC
; #@! TA.AperFunction,Plated,PTH,ComponentDrill
T1C0.700
; #@! TA.AperFunction,Plated,PTH,ComponentDrill
T2C0.800
; #@! TA.AperFunction,Plated,PTH,ComponentDrill
T3C0.900
; #@! TA.AperFunction,Plated,PTH,ComponentDrill
T4C1.000
; #@! TA.AperFunction,Plated,PTH,ComponentDrill
T5C1.100
; #@! TA.AperFunction,Plated,PTH,ComponentDrill
T6C1.520
%
G90
G05
T1
X181.215Y-70.1
X181.215Y-85.225
X181.215Y-92.45
X188.835Y-70.1
X188.835Y-85.225
X188.835Y-92.45
T2
X166.25Y-56.45
X167.25Y-98.9
X168.75Y-56.45
X169.75Y-98.9
X173.575Y-56.45
X176.075Y-56.45
T3
X184.75Y-76.06
X184.75Y-78.6
T4
X171.46Y-52.5
X171.46Y-104.25
X174.0Y-52.5
X174.0Y-104.25
X176.54Y-52.5
X176.54Y-104.25
X182.625Y-63.195
X185.125Y-63.195
X187.625Y-63.195
X195.834Y-52.52
X195.834Y-55.06
X195.834Y-101.7
X195.834Y-104.24
T5
X167.71Y-63.475
X167.71Y-93.45
X170.25Y-63.475
X170.25Y-93.45
X172.79Y-63.475
X172.79Y-93.45
T6
X184.17Y-54.75
X184.17Y-102.02
X189.25Y-54.75
X189.25Y-102.02
T4
G00X172.175Y-76.542
M15
G01X172.175Y-78.542
M16
G05
G00X174.175Y-82.242
M15
G01X176.175Y-82.242
M16
G05
G00X178.175Y-76.542
M15
G01X178.175Y-78.542
M16
G05
M30
