M48
; DRILL file KiCad 10.0.6 date 2026-09-24T23:24:57
; FORMAT={-:-/ absolute / metric / decimal}
; #@! TF.CreationDate,2026-09-24T23:24:57+05:30
; #@! TF.GenerationSoftware,Kicad,Pcbnew,10.0.6
; #@! TF.FileFunction,Plated,1,4,PTH
FMAT,2
METRIC
; #@! TA.AperFunction,Plated,PTH,ViaDrill
T1C0.400
; #@! TA.AperFunction,Plated,PTH,ComponentDrill
T2C1.000
%
G90
G05
T1
X114.68Y-93.36
X117.644Y-98.79
X118.14Y-106.61
X118.18Y-89.72
X120.04Y-96.9
X121.48Y-94.35
X121.63Y-99.43
X123.32Y-84.88
X123.81Y-104.07
X124.744Y-89.85
X124.744Y-91.0
X126.34Y-96.9
X127.215Y-99.67
X131.18Y-86.94
X132.039Y-90.86
X132.039Y-92.897
X132.296Y-100.365
X132.368Y-94.677
X132.74Y-103.97
X133.361Y-94.555
X134.35Y-94.41
X134.51Y-89.33
X134.79Y-83.56
X135.317Y-94.154
X135.96Y-90.77
X137.24Y-91.9
X137.496Y-100.365
X139.32Y-95.8
X139.45Y-97.23
X140.762Y-93.192
X145.48Y-83.38
X145.72Y-95.71
X145.83Y-92.85
X146.52Y-99.605
T2
X115.144Y-87.75
X115.144Y-90.29
X117.974Y-109.815
X120.514Y-109.815
X123.054Y-109.815
X125.594Y-109.815
X128.134Y-109.815
X130.674Y-109.815
X133.214Y-109.815
X135.754Y-109.815
X138.294Y-109.815
X144.404Y-109.815
X146.944Y-109.815
X149.484Y-109.815
X152.024Y-109.815
X152.279Y-87.755
X152.279Y-90.295
X152.279Y-92.835
X154.819Y-87.755
X154.819Y-90.295
X154.819Y-92.835
X154.829Y-97.935
X154.829Y-100.475
X154.829Y-103.015
X154.829Y-105.555
M30
