%TF.GenerationSoftware,KiCad,Pcbnew,10.0.6*%
%TF.CreationDate,2026-09-24T23:24:54+05:30*%
%TF.ProjectId,MCU Datalogger,4d435520-4461-4746-916c-6f676765722e,1*%
%TF.SameCoordinates,Original*%
%TF.FileFunction,Copper,L2,Inr*%
%TF.FilePolarity,Positive*%
%FSLAX46Y46*%
G04 Gerber Fmt 4.6, Leading zero omitted, Abs format (unit mm)*
G04 Created by KiCad (PCBNEW 10.0.6) date 2026-09-24 23:24:54*
%MOMM*%
%LPD*%
G01*
G04 APERTURE LIST*
%TA.AperFunction,ComponentPad*%
%ADD10R,1.700000X1.700000*%
%TD*%
%TA.AperFunction,ComponentPad*%
%ADD11C,1.700000*%
%TD*%
%TA.AperFunction,ViaPad*%
%ADD12C,0.900000*%
%TD*%
%TA.AperFunction,ViaPad*%
%ADD13C,0.800000*%
%TD*%
%TA.AperFunction,Conductor*%
%ADD14C,0.350000*%
%TD*%
%TA.AperFunction,Conductor*%
%ADD15C,0.250000*%
%TD*%
G04 APERTURE END LIST*
D10*
%TO.N,VCC*%
%TO.C,BT1*%
X115143636Y-87749702D03*
D11*
%TO.N,GND*%
X115143636Y-90289702D03*
%TD*%
D10*
%TO.N,/D2*%
%TO.C,J3*%
X117973636Y-109814702D03*
D11*
%TO.N,/D3*%
X120513636Y-109814702D03*
%TO.N,/D4*%
X123053636Y-109814702D03*
%TO.N,/D5*%
X125593636Y-109814702D03*
%TO.N,/D6*%
X128133636Y-109814702D03*
%TO.N,/D7*%
X130673636Y-109814702D03*
%TO.N,/D8*%
X133213636Y-109814702D03*
%TO.N,GND*%
X135753636Y-109814702D03*
%TO.N,VCC*%
X138293636Y-109814702D03*
%TD*%
D10*
%TO.N,GND*%
%TO.C,J1*%
X154828636Y-97934702D03*
D11*
%TO.N,VCC*%
X154828636Y-100474702D03*
%TO.N,/SDA*%
X154828636Y-103014702D03*
%TO.N,/SCK*%
X154828636Y-105554702D03*
%TD*%
D10*
%TO.N,/MISO*%
%TO.C,J4*%
X152278636Y-87754702D03*
D11*
%TO.N,VCC*%
X154818636Y-87754702D03*
%TO.N,/SCK*%
X152278636Y-90294702D03*
%TO.N,/MOSI*%
X154818636Y-90294702D03*
%TO.N,/RESET*%
X152278636Y-92834702D03*
%TO.N,GND*%
X154818636Y-92834702D03*
%TD*%
D10*
%TO.N,GND*%
%TO.C,J2*%
X144403636Y-109814702D03*
D11*
%TO.N,VCC*%
X146943636Y-109814702D03*
%TO.N,/RX*%
X149483636Y-109814702D03*
%TO.N,/TX*%
X152023636Y-109814702D03*
%TD*%
D12*
%TO.N,VCC*%
X124743636Y-89849997D03*
X140761636Y-93191636D03*
X118140000Y-106610000D03*
X126340000Y-96900000D03*
X118180000Y-89720000D03*
X146520000Y-99605000D03*
X132038636Y-92896566D03*
X145830000Y-92850000D03*
X123810000Y-104070000D03*
X123320000Y-84880000D03*
X145480000Y-83380000D03*
X120040000Y-96900000D03*
X134790000Y-83560000D03*
%TO.N,GND*%
X114680000Y-93360000D03*
X137240000Y-91900000D03*
X121480000Y-94350000D03*
X145720000Y-95710000D03*
X121630000Y-99430000D03*
X127215000Y-99670491D03*
X124743636Y-91000000D03*
X117643636Y-98790000D03*
X132740000Y-103970000D03*
X132038636Y-90860000D03*
D13*
%TO.N,/SDA*%
X131180000Y-86939702D03*
X135960000Y-90770000D03*
%TO.N,Net-(U4-PB6)*%
X133360791Y-94554997D03*
X137496136Y-100364702D03*
%TO.N,/MISO*%
X139320000Y-95800000D03*
%TO.N,/MOSI*%
X139450000Y-97230000D03*
%TO.N,/RESET*%
X134510000Y-89330000D03*
%TO.N,/RX*%
X135316877Y-94153762D03*
%TO.N,/TX*%
X134350180Y-94409693D03*
%TO.N,Net-(U4-PB7)*%
X132296136Y-100364702D03*
X132368226Y-94676730D03*
%TD*%
%TO.N,GND*%
D14*
X143128636Y-108539702D02*
X144403636Y-109814702D01*
X137028636Y-108539702D02*
X143128636Y-108539702D01*
X135753636Y-109814702D02*
X137028636Y-108539702D01*
%TO.N,/SDA*%
D15*
X140086396Y-99920000D02*
X144427031Y-99920000D01*
X144937031Y-100430000D02*
X152243934Y-100430000D01*
X144427031Y-99920000D02*
X144937031Y-100430000D01*
X136260000Y-96990000D02*
X136890000Y-97620000D01*
X131180000Y-87240000D02*
X131180000Y-86939702D01*
X136890000Y-97620000D02*
X137786396Y-97620000D01*
X136260000Y-91070000D02*
X136260000Y-96990000D01*
X152243934Y-100430000D02*
X154828636Y-103014702D01*
X137786396Y-97620000D02*
X140086396Y-99920000D01*
X135960000Y-90770000D02*
X134710000Y-90770000D01*
X135960000Y-90770000D02*
X136260000Y-91070000D01*
X134710000Y-90770000D02*
X131180000Y-87240000D01*
%TO.N,Net-(U4-PB6)*%
X136444702Y-100364702D02*
X137496136Y-100364702D01*
X133360791Y-94554997D02*
X133360791Y-97280791D01*
X133360791Y-97280791D02*
X136444702Y-100364702D01*
%TO.N,/MISO*%
X139320000Y-95800000D02*
X147365298Y-87754702D01*
X147365298Y-87754702D02*
X152278636Y-87754702D01*
%TO.N,/MOSI*%
X149545039Y-97230000D02*
X139450000Y-97230000D01*
X153453636Y-92348001D02*
X153453636Y-93321403D01*
X154818636Y-90983001D02*
X153453636Y-92348001D01*
X154818636Y-90294702D02*
X154818636Y-90983001D01*
X153453636Y-93321403D02*
X149545039Y-97230000D01*
%TO.N,/RESET*%
X153520000Y-91593338D02*
X152278636Y-92834702D01*
X153520000Y-86050000D02*
X153520000Y-91593338D01*
X138010000Y-85830000D02*
X153300000Y-85830000D01*
X153300000Y-85830000D02*
X153520000Y-86050000D01*
X134510000Y-89330000D02*
X138010000Y-85830000D01*
%TO.N,/RX*%
X135810000Y-94646885D02*
X135810000Y-97176396D01*
X135810000Y-97176396D02*
X136703604Y-98070000D01*
X152510337Y-110989702D02*
X150658636Y-110989702D01*
X153198636Y-110301403D02*
X152510337Y-110989702D01*
X137600000Y-98070000D02*
X139900000Y-100370000D01*
X135316877Y-94153762D02*
X135810000Y-94646885D01*
X139900000Y-100370000D02*
X144240635Y-100370000D01*
X153198636Y-109328001D02*
X153198636Y-110301403D01*
X136703604Y-98070000D02*
X137600000Y-98070000D01*
X144240635Y-100370000D02*
X153198636Y-109328001D01*
X150658636Y-110989702D02*
X149483636Y-109814702D01*
%TO.N,/TX*%
X135150000Y-98433604D02*
X135366396Y-98650000D01*
X137450000Y-98650000D02*
X139620000Y-100820000D01*
X135150000Y-95209513D02*
X135150000Y-98433604D01*
X135366396Y-98650000D02*
X137450000Y-98650000D01*
X143028934Y-100820000D02*
X152023636Y-109814702D01*
X134350180Y-94409693D02*
X135150000Y-95209513D01*
X139620000Y-100820000D02*
X143028934Y-100820000D01*
%TO.N,Net-(U4-PB7)*%
X132368226Y-94676730D02*
X132368226Y-100292612D01*
X132368226Y-100292612D02*
X132296136Y-100364702D01*
%TD*%
M02*
