%TF.GenerationSoftware,KiCad,Pcbnew,10.0.6*%
%TF.CreationDate,2026-09-24T23:24:54+05:30*%
%TF.ProjectId,MCU Datalogger,4d435520-4461-4746-916c-6f676765722e,1*%
%TF.SameCoordinates,Original*%
%TF.FileFunction,Legend,Top*%
%TF.FilePolarity,Positive*%
%FSLAX46Y46*%
G04 Gerber Fmt 4.6, Leading zero omitted, Abs format (unit mm)*
G04 Created by KiCad (PCBNEW 10.0.6) date 2026-09-24 23:24:54*
%MOMM*%
%LPD*%
G01*
G04 APERTURE LIST*
%ADD10C,0.100000*%
%ADD11C,0.175000*%
%ADD12C,0.120000*%
%ADD13C,0.127000*%
%ADD14C,0.200000*%
G04 APERTURE END LIST*
D10*
X141670000Y-100020000D02*
X150530000Y-100020000D01*
X150530000Y-105280000D01*
X141670000Y-105280000D01*
X141670000Y-100020000D01*
D11*
X118228464Y-108082995D02*
X117828464Y-108082995D01*
X118028464Y-108082995D02*
X118028464Y-107282995D01*
X118028464Y-107282995D02*
X117961797Y-107397280D01*
X117961797Y-107397280D02*
X117895131Y-107473471D01*
X117895131Y-107473471D02*
X117828464Y-107511566D01*
X120338464Y-107094483D02*
X120371797Y-107056388D01*
X120371797Y-107056388D02*
X120438464Y-107018293D01*
X120438464Y-107018293D02*
X120605131Y-107018293D01*
X120605131Y-107018293D02*
X120671797Y-107056388D01*
X120671797Y-107056388D02*
X120705131Y-107094483D01*
X120705131Y-107094483D02*
X120738464Y-107170674D01*
X120738464Y-107170674D02*
X120738464Y-107246864D01*
X120738464Y-107246864D02*
X120705131Y-107361150D01*
X120705131Y-107361150D02*
X120305131Y-107818293D01*
X120305131Y-107818293D02*
X120738464Y-107818293D01*
X122845131Y-107282995D02*
X123278464Y-107282995D01*
X123278464Y-107282995D02*
X123045131Y-107587757D01*
X123045131Y-107587757D02*
X123145131Y-107587757D01*
X123145131Y-107587757D02*
X123211797Y-107625852D01*
X123211797Y-107625852D02*
X123245131Y-107663947D01*
X123245131Y-107663947D02*
X123278464Y-107740138D01*
X123278464Y-107740138D02*
X123278464Y-107930614D01*
X123278464Y-107930614D02*
X123245131Y-108006804D01*
X123245131Y-108006804D02*
X123211797Y-108044900D01*
X123211797Y-108044900D02*
X123145131Y-108082995D01*
X123145131Y-108082995D02*
X122945131Y-108082995D01*
X122945131Y-108082995D02*
X122878464Y-108044900D01*
X122878464Y-108044900D02*
X122845131Y-108006804D01*
X125671797Y-107549661D02*
X125671797Y-108082995D01*
X125505131Y-107244900D02*
X125338464Y-107816328D01*
X125338464Y-107816328D02*
X125771797Y-107816328D01*
X128255131Y-107282995D02*
X127921797Y-107282995D01*
X127921797Y-107282995D02*
X127888464Y-107663947D01*
X127888464Y-107663947D02*
X127921797Y-107625852D01*
X127921797Y-107625852D02*
X127988464Y-107587757D01*
X127988464Y-107587757D02*
X128155131Y-107587757D01*
X128155131Y-107587757D02*
X128221797Y-107625852D01*
X128221797Y-107625852D02*
X128255131Y-107663947D01*
X128255131Y-107663947D02*
X128288464Y-107740138D01*
X128288464Y-107740138D02*
X128288464Y-107930614D01*
X128288464Y-107930614D02*
X128255131Y-108006804D01*
X128255131Y-108006804D02*
X128221797Y-108044900D01*
X128221797Y-108044900D02*
X128155131Y-108082995D01*
X128155131Y-108082995D02*
X127988464Y-108082995D01*
X127988464Y-108082995D02*
X127921797Y-108044900D01*
X127921797Y-108044900D02*
X127888464Y-108006804D01*
X130791797Y-107282995D02*
X130658464Y-107282995D01*
X130658464Y-107282995D02*
X130591797Y-107321090D01*
X130591797Y-107321090D02*
X130558464Y-107359185D01*
X130558464Y-107359185D02*
X130491797Y-107473471D01*
X130491797Y-107473471D02*
X130458464Y-107625852D01*
X130458464Y-107625852D02*
X130458464Y-107930614D01*
X130458464Y-107930614D02*
X130491797Y-108006804D01*
X130491797Y-108006804D02*
X130525131Y-108044900D01*
X130525131Y-108044900D02*
X130591797Y-108082995D01*
X130591797Y-108082995D02*
X130725131Y-108082995D01*
X130725131Y-108082995D02*
X130791797Y-108044900D01*
X130791797Y-108044900D02*
X130825131Y-108006804D01*
X130825131Y-108006804D02*
X130858464Y-107930614D01*
X130858464Y-107930614D02*
X130858464Y-107740138D01*
X130858464Y-107740138D02*
X130825131Y-107663947D01*
X130825131Y-107663947D02*
X130791797Y-107625852D01*
X130791797Y-107625852D02*
X130725131Y-107587757D01*
X130725131Y-107587757D02*
X130591797Y-107587757D01*
X130591797Y-107587757D02*
X130525131Y-107625852D01*
X130525131Y-107625852D02*
X130491797Y-107663947D01*
X130491797Y-107663947D02*
X130458464Y-107740138D01*
X133035131Y-107282995D02*
X133501797Y-107282995D01*
X133501797Y-107282995D02*
X133201797Y-108082995D01*
X135368464Y-107321090D02*
X135301797Y-107282995D01*
X135301797Y-107282995D02*
X135201797Y-107282995D01*
X135201797Y-107282995D02*
X135101797Y-107321090D01*
X135101797Y-107321090D02*
X135035131Y-107397280D01*
X135035131Y-107397280D02*
X135001797Y-107473471D01*
X135001797Y-107473471D02*
X134968464Y-107625852D01*
X134968464Y-107625852D02*
X134968464Y-107740138D01*
X134968464Y-107740138D02*
X135001797Y-107892519D01*
X135001797Y-107892519D02*
X135035131Y-107968709D01*
X135035131Y-107968709D02*
X135101797Y-108044900D01*
X135101797Y-108044900D02*
X135201797Y-108082995D01*
X135201797Y-108082995D02*
X135268464Y-108082995D01*
X135268464Y-108082995D02*
X135368464Y-108044900D01*
X135368464Y-108044900D02*
X135401797Y-108006804D01*
X135401797Y-108006804D02*
X135401797Y-107740138D01*
X135401797Y-107740138D02*
X135268464Y-107740138D01*
X135701797Y-108082995D02*
X135701797Y-107282995D01*
X135701797Y-107282995D02*
X136101797Y-108082995D01*
X136101797Y-108082995D02*
X136101797Y-107282995D01*
X136435130Y-108082995D02*
X136435130Y-107282995D01*
X136435130Y-107282995D02*
X136601797Y-107282995D01*
X136601797Y-107282995D02*
X136701797Y-107321090D01*
X136701797Y-107321090D02*
X136768464Y-107397280D01*
X136768464Y-107397280D02*
X136801797Y-107473471D01*
X136801797Y-107473471D02*
X136835130Y-107625852D01*
X136835130Y-107625852D02*
X136835130Y-107740138D01*
X136835130Y-107740138D02*
X136801797Y-107892519D01*
X136801797Y-107892519D02*
X136768464Y-107968709D01*
X136768464Y-107968709D02*
X136701797Y-108044900D01*
X136701797Y-108044900D02*
X136601797Y-108082995D01*
X136601797Y-108082995D02*
X136435130Y-108082995D01*
X137571797Y-107282995D02*
X137805131Y-108082995D01*
X137805131Y-108082995D02*
X138038464Y-107282995D01*
X138671797Y-108006804D02*
X138638464Y-108044900D01*
X138638464Y-108044900D02*
X138538464Y-108082995D01*
X138538464Y-108082995D02*
X138471797Y-108082995D01*
X138471797Y-108082995D02*
X138371797Y-108044900D01*
X138371797Y-108044900D02*
X138305131Y-107968709D01*
X138305131Y-107968709D02*
X138271797Y-107892519D01*
X138271797Y-107892519D02*
X138238464Y-107740138D01*
X138238464Y-107740138D02*
X138238464Y-107625852D01*
X138238464Y-107625852D02*
X138271797Y-107473471D01*
X138271797Y-107473471D02*
X138305131Y-107397280D01*
X138305131Y-107397280D02*
X138371797Y-107321090D01*
X138371797Y-107321090D02*
X138471797Y-107282995D01*
X138471797Y-107282995D02*
X138538464Y-107282995D01*
X138538464Y-107282995D02*
X138638464Y-107321090D01*
X138638464Y-107321090D02*
X138671797Y-107359185D01*
X139371797Y-108006804D02*
X139338464Y-108044900D01*
X139338464Y-108044900D02*
X139238464Y-108082995D01*
X139238464Y-108082995D02*
X139171797Y-108082995D01*
X139171797Y-108082995D02*
X139071797Y-108044900D01*
X139071797Y-108044900D02*
X139005131Y-107968709D01*
X139005131Y-107968709D02*
X138971797Y-107892519D01*
X138971797Y-107892519D02*
X138938464Y-107740138D01*
X138938464Y-107740138D02*
X138938464Y-107625852D01*
X138938464Y-107625852D02*
X138971797Y-107473471D01*
X138971797Y-107473471D02*
X139005131Y-107397280D01*
X139005131Y-107397280D02*
X139071797Y-107321090D01*
X139071797Y-107321090D02*
X139171797Y-107282995D01*
X139171797Y-107282995D02*
X139238464Y-107282995D01*
X139238464Y-107282995D02*
X139338464Y-107321090D01*
X139338464Y-107321090D02*
X139371797Y-107359185D01*
X145401795Y-100969130D02*
X145401795Y-100169130D01*
X146135128Y-100892939D02*
X146101795Y-100931035D01*
X146101795Y-100931035D02*
X146001795Y-100969130D01*
X146001795Y-100969130D02*
X145935128Y-100969130D01*
X145935128Y-100969130D02*
X145835128Y-100931035D01*
X145835128Y-100931035D02*
X145768462Y-100854844D01*
X145768462Y-100854844D02*
X145735128Y-100778654D01*
X145735128Y-100778654D02*
X145701795Y-100626273D01*
X145701795Y-100626273D02*
X145701795Y-100511987D01*
X145701795Y-100511987D02*
X145735128Y-100359606D01*
X145735128Y-100359606D02*
X145768462Y-100283415D01*
X145768462Y-100283415D02*
X145835128Y-100207225D01*
X145835128Y-100207225D02*
X145935128Y-100169130D01*
X145935128Y-100169130D02*
X146001795Y-100169130D01*
X146001795Y-100169130D02*
X146101795Y-100207225D01*
X146101795Y-100207225D02*
X146135128Y-100245320D01*
X146401795Y-100931035D02*
X146501795Y-100969130D01*
X146501795Y-100969130D02*
X146668462Y-100969130D01*
X146668462Y-100969130D02*
X146735128Y-100931035D01*
X146735128Y-100931035D02*
X146768462Y-100892939D01*
X146768462Y-100892939D02*
X146801795Y-100816749D01*
X146801795Y-100816749D02*
X146801795Y-100740558D01*
X146801795Y-100740558D02*
X146768462Y-100664368D01*
X146768462Y-100664368D02*
X146735128Y-100626273D01*
X146735128Y-100626273D02*
X146668462Y-100588177D01*
X146668462Y-100588177D02*
X146535128Y-100550082D01*
X146535128Y-100550082D02*
X146468462Y-100511987D01*
X146468462Y-100511987D02*
X146435128Y-100473892D01*
X146435128Y-100473892D02*
X146401795Y-100397701D01*
X146401795Y-100397701D02*
X146401795Y-100321511D01*
X146401795Y-100321511D02*
X146435128Y-100245320D01*
X146435128Y-100245320D02*
X146468462Y-100207225D01*
X146468462Y-100207225D02*
X146535128Y-100169130D01*
X146535128Y-100169130D02*
X146701795Y-100169130D01*
X146701795Y-100169130D02*
X146801795Y-100207225D01*
X147101795Y-100969130D02*
X147101795Y-100169130D01*
X147101795Y-100169130D02*
X147368462Y-100169130D01*
X147368462Y-100169130D02*
X147435129Y-100207225D01*
X147435129Y-100207225D02*
X147468462Y-100245320D01*
X147468462Y-100245320D02*
X147501795Y-100321511D01*
X147501795Y-100321511D02*
X147501795Y-100435796D01*
X147501795Y-100435796D02*
X147468462Y-100511987D01*
X147468462Y-100511987D02*
X147435129Y-100550082D01*
X147435129Y-100550082D02*
X147368462Y-100588177D01*
X147368462Y-100588177D02*
X147101795Y-100588177D01*
X142201797Y-102257085D02*
X142201797Y-101457085D01*
X142201797Y-101457085D02*
X142435131Y-102028513D01*
X142435131Y-102028513D02*
X142668464Y-101457085D01*
X142668464Y-101457085D02*
X142668464Y-102257085D01*
X143001797Y-102257085D02*
X143001797Y-101457085D01*
X143301797Y-102218990D02*
X143401797Y-102257085D01*
X143401797Y-102257085D02*
X143568464Y-102257085D01*
X143568464Y-102257085D02*
X143635130Y-102218990D01*
X143635130Y-102218990D02*
X143668464Y-102180894D01*
X143668464Y-102180894D02*
X143701797Y-102104704D01*
X143701797Y-102104704D02*
X143701797Y-102028513D01*
X143701797Y-102028513D02*
X143668464Y-101952323D01*
X143668464Y-101952323D02*
X143635130Y-101914228D01*
X143635130Y-101914228D02*
X143568464Y-101876132D01*
X143568464Y-101876132D02*
X143435130Y-101838037D01*
X143435130Y-101838037D02*
X143368464Y-101799942D01*
X143368464Y-101799942D02*
X143335130Y-101761847D01*
X143335130Y-101761847D02*
X143301797Y-101685656D01*
X143301797Y-101685656D02*
X143301797Y-101609466D01*
X143301797Y-101609466D02*
X143335130Y-101533275D01*
X143335130Y-101533275D02*
X143368464Y-101495180D01*
X143368464Y-101495180D02*
X143435130Y-101457085D01*
X143435130Y-101457085D02*
X143601797Y-101457085D01*
X143601797Y-101457085D02*
X143701797Y-101495180D01*
X144135131Y-101457085D02*
X144268464Y-101457085D01*
X144268464Y-101457085D02*
X144335131Y-101495180D01*
X144335131Y-101495180D02*
X144401797Y-101571370D01*
X144401797Y-101571370D02*
X144435131Y-101723751D01*
X144435131Y-101723751D02*
X144435131Y-101990418D01*
X144435131Y-101990418D02*
X144401797Y-102142799D01*
X144401797Y-102142799D02*
X144335131Y-102218990D01*
X144335131Y-102218990D02*
X144268464Y-102257085D01*
X144268464Y-102257085D02*
X144135131Y-102257085D01*
X144135131Y-102257085D02*
X144068464Y-102218990D01*
X144068464Y-102218990D02*
X144001797Y-102142799D01*
X144001797Y-102142799D02*
X143968464Y-101990418D01*
X143968464Y-101990418D02*
X143968464Y-101723751D01*
X143968464Y-101723751D02*
X144001797Y-101571370D01*
X144001797Y-101571370D02*
X144068464Y-101495180D01*
X144068464Y-101495180D02*
X144135131Y-101457085D01*
X146501796Y-102523751D02*
X146501796Y-101380894D01*
X147968462Y-101457085D02*
X148201796Y-102257085D01*
X148201796Y-102257085D02*
X148435129Y-101457085D01*
X149068462Y-102180894D02*
X149035129Y-102218990D01*
X149035129Y-102218990D02*
X148935129Y-102257085D01*
X148935129Y-102257085D02*
X148868462Y-102257085D01*
X148868462Y-102257085D02*
X148768462Y-102218990D01*
X148768462Y-102218990D02*
X148701796Y-102142799D01*
X148701796Y-102142799D02*
X148668462Y-102066609D01*
X148668462Y-102066609D02*
X148635129Y-101914228D01*
X148635129Y-101914228D02*
X148635129Y-101799942D01*
X148635129Y-101799942D02*
X148668462Y-101647561D01*
X148668462Y-101647561D02*
X148701796Y-101571370D01*
X148701796Y-101571370D02*
X148768462Y-101495180D01*
X148768462Y-101495180D02*
X148868462Y-101457085D01*
X148868462Y-101457085D02*
X148935129Y-101457085D01*
X148935129Y-101457085D02*
X149035129Y-101495180D01*
X149035129Y-101495180D02*
X149068462Y-101533275D01*
X149768462Y-102180894D02*
X149735129Y-102218990D01*
X149735129Y-102218990D02*
X149635129Y-102257085D01*
X149635129Y-102257085D02*
X149568462Y-102257085D01*
X149568462Y-102257085D02*
X149468462Y-102218990D01*
X149468462Y-102218990D02*
X149401796Y-102142799D01*
X149401796Y-102142799D02*
X149368462Y-102066609D01*
X149368462Y-102066609D02*
X149335129Y-101914228D01*
X149335129Y-101914228D02*
X149335129Y-101799942D01*
X149335129Y-101799942D02*
X149368462Y-101647561D01*
X149368462Y-101647561D02*
X149401796Y-101571370D01*
X149401796Y-101571370D02*
X149468462Y-101495180D01*
X149468462Y-101495180D02*
X149568462Y-101457085D01*
X149568462Y-101457085D02*
X149635129Y-101457085D01*
X149635129Y-101457085D02*
X149735129Y-101495180D01*
X149735129Y-101495180D02*
X149768462Y-101533275D01*
X142168464Y-103506945D02*
X142268464Y-103545040D01*
X142268464Y-103545040D02*
X142435131Y-103545040D01*
X142435131Y-103545040D02*
X142501797Y-103506945D01*
X142501797Y-103506945D02*
X142535131Y-103468849D01*
X142535131Y-103468849D02*
X142568464Y-103392659D01*
X142568464Y-103392659D02*
X142568464Y-103316468D01*
X142568464Y-103316468D02*
X142535131Y-103240278D01*
X142535131Y-103240278D02*
X142501797Y-103202183D01*
X142501797Y-103202183D02*
X142435131Y-103164087D01*
X142435131Y-103164087D02*
X142301797Y-103125992D01*
X142301797Y-103125992D02*
X142235131Y-103087897D01*
X142235131Y-103087897D02*
X142201797Y-103049802D01*
X142201797Y-103049802D02*
X142168464Y-102973611D01*
X142168464Y-102973611D02*
X142168464Y-102897421D01*
X142168464Y-102897421D02*
X142201797Y-102821230D01*
X142201797Y-102821230D02*
X142235131Y-102783135D01*
X142235131Y-102783135D02*
X142301797Y-102745040D01*
X142301797Y-102745040D02*
X142468464Y-102745040D01*
X142468464Y-102745040D02*
X142568464Y-102783135D01*
X143268464Y-103468849D02*
X143235131Y-103506945D01*
X143235131Y-103506945D02*
X143135131Y-103545040D01*
X143135131Y-103545040D02*
X143068464Y-103545040D01*
X143068464Y-103545040D02*
X142968464Y-103506945D01*
X142968464Y-103506945D02*
X142901798Y-103430754D01*
X142901798Y-103430754D02*
X142868464Y-103354564D01*
X142868464Y-103354564D02*
X142835131Y-103202183D01*
X142835131Y-103202183D02*
X142835131Y-103087897D01*
X142835131Y-103087897D02*
X142868464Y-102935516D01*
X142868464Y-102935516D02*
X142901798Y-102859325D01*
X142901798Y-102859325D02*
X142968464Y-102783135D01*
X142968464Y-102783135D02*
X143068464Y-102745040D01*
X143068464Y-102745040D02*
X143135131Y-102745040D01*
X143135131Y-102745040D02*
X143235131Y-102783135D01*
X143235131Y-102783135D02*
X143268464Y-102821230D01*
X143568464Y-103545040D02*
X143568464Y-102745040D01*
X143968464Y-103545040D02*
X143668464Y-103087897D01*
X143968464Y-102745040D02*
X143568464Y-103202183D01*
X146568463Y-103811706D02*
X146568463Y-102668849D01*
X148135129Y-103545040D02*
X148135129Y-102745040D01*
X148135129Y-102745040D02*
X148368463Y-103316468D01*
X148368463Y-103316468D02*
X148601796Y-102745040D01*
X148601796Y-102745040D02*
X148601796Y-103545040D01*
X149068463Y-102745040D02*
X149201796Y-102745040D01*
X149201796Y-102745040D02*
X149268463Y-102783135D01*
X149268463Y-102783135D02*
X149335129Y-102859325D01*
X149335129Y-102859325D02*
X149368463Y-103011706D01*
X149368463Y-103011706D02*
X149368463Y-103278373D01*
X149368463Y-103278373D02*
X149335129Y-103430754D01*
X149335129Y-103430754D02*
X149268463Y-103506945D01*
X149268463Y-103506945D02*
X149201796Y-103545040D01*
X149201796Y-103545040D02*
X149068463Y-103545040D01*
X149068463Y-103545040D02*
X149001796Y-103506945D01*
X149001796Y-103506945D02*
X148935129Y-103430754D01*
X148935129Y-103430754D02*
X148901796Y-103278373D01*
X148901796Y-103278373D02*
X148901796Y-103011706D01*
X148901796Y-103011706D02*
X148935129Y-102859325D01*
X148935129Y-102859325D02*
X149001796Y-102783135D01*
X149001796Y-102783135D02*
X149068463Y-102745040D01*
X149635129Y-103506945D02*
X149735129Y-103545040D01*
X149735129Y-103545040D02*
X149901796Y-103545040D01*
X149901796Y-103545040D02*
X149968462Y-103506945D01*
X149968462Y-103506945D02*
X150001796Y-103468849D01*
X150001796Y-103468849D02*
X150035129Y-103392659D01*
X150035129Y-103392659D02*
X150035129Y-103316468D01*
X150035129Y-103316468D02*
X150001796Y-103240278D01*
X150001796Y-103240278D02*
X149968462Y-103202183D01*
X149968462Y-103202183D02*
X149901796Y-103164087D01*
X149901796Y-103164087D02*
X149768462Y-103125992D01*
X149768462Y-103125992D02*
X149701796Y-103087897D01*
X149701796Y-103087897D02*
X149668462Y-103049802D01*
X149668462Y-103049802D02*
X149635129Y-102973611D01*
X149635129Y-102973611D02*
X149635129Y-102897421D01*
X149635129Y-102897421D02*
X149668462Y-102821230D01*
X149668462Y-102821230D02*
X149701796Y-102783135D01*
X149701796Y-102783135D02*
X149768462Y-102745040D01*
X149768462Y-102745040D02*
X149935129Y-102745040D01*
X149935129Y-102745040D02*
X150035129Y-102783135D01*
X150335129Y-103545040D02*
X150335129Y-102745040D01*
X142601797Y-104832995D02*
X142368464Y-104452042D01*
X142201797Y-104832995D02*
X142201797Y-104032995D01*
X142201797Y-104032995D02*
X142468464Y-104032995D01*
X142468464Y-104032995D02*
X142535131Y-104071090D01*
X142535131Y-104071090D02*
X142568464Y-104109185D01*
X142568464Y-104109185D02*
X142601797Y-104185376D01*
X142601797Y-104185376D02*
X142601797Y-104299661D01*
X142601797Y-104299661D02*
X142568464Y-104375852D01*
X142568464Y-104375852D02*
X142535131Y-104413947D01*
X142535131Y-104413947D02*
X142468464Y-104452042D01*
X142468464Y-104452042D02*
X142201797Y-104452042D01*
X142901797Y-104413947D02*
X143135131Y-104413947D01*
X143235131Y-104832995D02*
X142901797Y-104832995D01*
X142901797Y-104832995D02*
X142901797Y-104032995D01*
X142901797Y-104032995D02*
X143235131Y-104032995D01*
X143501797Y-104794900D02*
X143601797Y-104832995D01*
X143601797Y-104832995D02*
X143768464Y-104832995D01*
X143768464Y-104832995D02*
X143835130Y-104794900D01*
X143835130Y-104794900D02*
X143868464Y-104756804D01*
X143868464Y-104756804D02*
X143901797Y-104680614D01*
X143901797Y-104680614D02*
X143901797Y-104604423D01*
X143901797Y-104604423D02*
X143868464Y-104528233D01*
X143868464Y-104528233D02*
X143835130Y-104490138D01*
X143835130Y-104490138D02*
X143768464Y-104452042D01*
X143768464Y-104452042D02*
X143635130Y-104413947D01*
X143635130Y-104413947D02*
X143568464Y-104375852D01*
X143568464Y-104375852D02*
X143535130Y-104337757D01*
X143535130Y-104337757D02*
X143501797Y-104261566D01*
X143501797Y-104261566D02*
X143501797Y-104185376D01*
X143501797Y-104185376D02*
X143535130Y-104109185D01*
X143535130Y-104109185D02*
X143568464Y-104071090D01*
X143568464Y-104071090D02*
X143635130Y-104032995D01*
X143635130Y-104032995D02*
X143801797Y-104032995D01*
X143801797Y-104032995D02*
X143901797Y-104071090D01*
X144201797Y-104413947D02*
X144435131Y-104413947D01*
X144535131Y-104832995D02*
X144201797Y-104832995D01*
X144201797Y-104832995D02*
X144201797Y-104032995D01*
X144201797Y-104032995D02*
X144535131Y-104032995D01*
X144735130Y-104032995D02*
X145135130Y-104032995D01*
X144935130Y-104832995D02*
X144935130Y-104032995D01*
X146601796Y-105099661D02*
X146601796Y-103956804D01*
X148535129Y-104071090D02*
X148468462Y-104032995D01*
X148468462Y-104032995D02*
X148368462Y-104032995D01*
X148368462Y-104032995D02*
X148268462Y-104071090D01*
X148268462Y-104071090D02*
X148201796Y-104147280D01*
X148201796Y-104147280D02*
X148168462Y-104223471D01*
X148168462Y-104223471D02*
X148135129Y-104375852D01*
X148135129Y-104375852D02*
X148135129Y-104490138D01*
X148135129Y-104490138D02*
X148168462Y-104642519D01*
X148168462Y-104642519D02*
X148201796Y-104718709D01*
X148201796Y-104718709D02*
X148268462Y-104794900D01*
X148268462Y-104794900D02*
X148368462Y-104832995D01*
X148368462Y-104832995D02*
X148435129Y-104832995D01*
X148435129Y-104832995D02*
X148535129Y-104794900D01*
X148535129Y-104794900D02*
X148568462Y-104756804D01*
X148568462Y-104756804D02*
X148568462Y-104490138D01*
X148568462Y-104490138D02*
X148435129Y-104490138D01*
X148868462Y-104832995D02*
X148868462Y-104032995D01*
X148868462Y-104032995D02*
X149268462Y-104832995D01*
X149268462Y-104832995D02*
X149268462Y-104032995D01*
X149601795Y-104832995D02*
X149601795Y-104032995D01*
X149601795Y-104032995D02*
X149768462Y-104032995D01*
X149768462Y-104032995D02*
X149868462Y-104071090D01*
X149868462Y-104071090D02*
X149935129Y-104147280D01*
X149935129Y-104147280D02*
X149968462Y-104223471D01*
X149968462Y-104223471D02*
X150001795Y-104375852D01*
X150001795Y-104375852D02*
X150001795Y-104490138D01*
X150001795Y-104490138D02*
X149968462Y-104642519D01*
X149968462Y-104642519D02*
X149935129Y-104718709D01*
X149935129Y-104718709D02*
X149868462Y-104794900D01*
X149868462Y-104794900D02*
X149768462Y-104832995D01*
X149768462Y-104832995D02*
X149601795Y-104832995D01*
X143758464Y-107431090D02*
X143691797Y-107392995D01*
X143691797Y-107392995D02*
X143591797Y-107392995D01*
X143591797Y-107392995D02*
X143491797Y-107431090D01*
X143491797Y-107431090D02*
X143425131Y-107507280D01*
X143425131Y-107507280D02*
X143391797Y-107583471D01*
X143391797Y-107583471D02*
X143358464Y-107735852D01*
X143358464Y-107735852D02*
X143358464Y-107850138D01*
X143358464Y-107850138D02*
X143391797Y-108002519D01*
X143391797Y-108002519D02*
X143425131Y-108078709D01*
X143425131Y-108078709D02*
X143491797Y-108154900D01*
X143491797Y-108154900D02*
X143591797Y-108192995D01*
X143591797Y-108192995D02*
X143658464Y-108192995D01*
X143658464Y-108192995D02*
X143758464Y-108154900D01*
X143758464Y-108154900D02*
X143791797Y-108116804D01*
X143791797Y-108116804D02*
X143791797Y-107850138D01*
X143791797Y-107850138D02*
X143658464Y-107850138D01*
X144091797Y-108192995D02*
X144091797Y-107392995D01*
X144091797Y-107392995D02*
X144491797Y-108192995D01*
X144491797Y-108192995D02*
X144491797Y-107392995D01*
X144825130Y-108192995D02*
X144825130Y-107392995D01*
X144825130Y-107392995D02*
X144991797Y-107392995D01*
X144991797Y-107392995D02*
X145091797Y-107431090D01*
X145091797Y-107431090D02*
X145158464Y-107507280D01*
X145158464Y-107507280D02*
X145191797Y-107583471D01*
X145191797Y-107583471D02*
X145225130Y-107735852D01*
X145225130Y-107735852D02*
X145225130Y-107850138D01*
X145225130Y-107850138D02*
X145191797Y-108002519D01*
X145191797Y-108002519D02*
X145158464Y-108078709D01*
X145158464Y-108078709D02*
X145091797Y-108154900D01*
X145091797Y-108154900D02*
X144991797Y-108192995D01*
X144991797Y-108192995D02*
X144825130Y-108192995D01*
X146171797Y-107392995D02*
X146405131Y-108192995D01*
X146405131Y-108192995D02*
X146638464Y-107392995D01*
X147271797Y-108116804D02*
X147238464Y-108154900D01*
X147238464Y-108154900D02*
X147138464Y-108192995D01*
X147138464Y-108192995D02*
X147071797Y-108192995D01*
X147071797Y-108192995D02*
X146971797Y-108154900D01*
X146971797Y-108154900D02*
X146905131Y-108078709D01*
X146905131Y-108078709D02*
X146871797Y-108002519D01*
X146871797Y-108002519D02*
X146838464Y-107850138D01*
X146838464Y-107850138D02*
X146838464Y-107735852D01*
X146838464Y-107735852D02*
X146871797Y-107583471D01*
X146871797Y-107583471D02*
X146905131Y-107507280D01*
X146905131Y-107507280D02*
X146971797Y-107431090D01*
X146971797Y-107431090D02*
X147071797Y-107392995D01*
X147071797Y-107392995D02*
X147138464Y-107392995D01*
X147138464Y-107392995D02*
X147238464Y-107431090D01*
X147238464Y-107431090D02*
X147271797Y-107469185D01*
X147971797Y-108116804D02*
X147938464Y-108154900D01*
X147938464Y-108154900D02*
X147838464Y-108192995D01*
X147838464Y-108192995D02*
X147771797Y-108192995D01*
X147771797Y-108192995D02*
X147671797Y-108154900D01*
X147671797Y-108154900D02*
X147605131Y-108078709D01*
X147605131Y-108078709D02*
X147571797Y-108002519D01*
X147571797Y-108002519D02*
X147538464Y-107850138D01*
X147538464Y-107850138D02*
X147538464Y-107735852D01*
X147538464Y-107735852D02*
X147571797Y-107583471D01*
X147571797Y-107583471D02*
X147605131Y-107507280D01*
X147605131Y-107507280D02*
X147671797Y-107431090D01*
X147671797Y-107431090D02*
X147771797Y-107392995D01*
X147771797Y-107392995D02*
X147838464Y-107392995D01*
X147838464Y-107392995D02*
X147938464Y-107431090D01*
X147938464Y-107431090D02*
X147971797Y-107469185D01*
X146748464Y-106934900D02*
X146848464Y-106972995D01*
X146848464Y-106972995D02*
X147015131Y-106972995D01*
X147015131Y-106972995D02*
X147081797Y-106934900D01*
X147081797Y-106934900D02*
X147115131Y-106896804D01*
X147115131Y-106896804D02*
X147148464Y-106820614D01*
X147148464Y-106820614D02*
X147148464Y-106744423D01*
X147148464Y-106744423D02*
X147115131Y-106668233D01*
X147115131Y-106668233D02*
X147081797Y-106630138D01*
X147081797Y-106630138D02*
X147015131Y-106592042D01*
X147015131Y-106592042D02*
X146881797Y-106553947D01*
X146881797Y-106553947D02*
X146815131Y-106515852D01*
X146815131Y-106515852D02*
X146781797Y-106477757D01*
X146781797Y-106477757D02*
X146748464Y-106401566D01*
X146748464Y-106401566D02*
X146748464Y-106325376D01*
X146748464Y-106325376D02*
X146781797Y-106249185D01*
X146781797Y-106249185D02*
X146815131Y-106211090D01*
X146815131Y-106211090D02*
X146881797Y-106172995D01*
X146881797Y-106172995D02*
X147048464Y-106172995D01*
X147048464Y-106172995D02*
X147148464Y-106211090D01*
X147448464Y-106553947D02*
X147681798Y-106553947D01*
X147781798Y-106972995D02*
X147448464Y-106972995D01*
X147448464Y-106972995D02*
X147448464Y-106172995D01*
X147448464Y-106172995D02*
X147781798Y-106172995D01*
X148481797Y-106972995D02*
X148248464Y-106592042D01*
X148081797Y-106972995D02*
X148081797Y-106172995D01*
X148081797Y-106172995D02*
X148348464Y-106172995D01*
X148348464Y-106172995D02*
X148415131Y-106211090D01*
X148415131Y-106211090D02*
X148448464Y-106249185D01*
X148448464Y-106249185D02*
X148481797Y-106325376D01*
X148481797Y-106325376D02*
X148481797Y-106439661D01*
X148481797Y-106439661D02*
X148448464Y-106515852D01*
X148448464Y-106515852D02*
X148415131Y-106553947D01*
X148415131Y-106553947D02*
X148348464Y-106592042D01*
X148348464Y-106592042D02*
X148081797Y-106592042D01*
X148781797Y-106972995D02*
X148781797Y-106172995D01*
X149081797Y-106744423D02*
X149415130Y-106744423D01*
X149015130Y-106972995D02*
X149248464Y-106172995D01*
X149248464Y-106172995D02*
X149481797Y-106972995D01*
X150048464Y-106972995D02*
X149715130Y-106972995D01*
X149715130Y-106972995D02*
X149715130Y-106172995D01*
X149541797Y-108192995D02*
X149308464Y-107812042D01*
X149141797Y-108192995D02*
X149141797Y-107392995D01*
X149141797Y-107392995D02*
X149408464Y-107392995D01*
X149408464Y-107392995D02*
X149475131Y-107431090D01*
X149475131Y-107431090D02*
X149508464Y-107469185D01*
X149508464Y-107469185D02*
X149541797Y-107545376D01*
X149541797Y-107545376D02*
X149541797Y-107659661D01*
X149541797Y-107659661D02*
X149508464Y-107735852D01*
X149508464Y-107735852D02*
X149475131Y-107773947D01*
X149475131Y-107773947D02*
X149408464Y-107812042D01*
X149408464Y-107812042D02*
X149141797Y-107812042D01*
X149775131Y-107392995D02*
X150241797Y-108192995D01*
X150241797Y-107392995D02*
X149775131Y-108192995D01*
X151441797Y-107392995D02*
X151841797Y-107392995D01*
X151641797Y-108192995D02*
X151641797Y-107392995D01*
X152008464Y-107392995D02*
X152475130Y-108192995D01*
X152475130Y-107392995D02*
X152008464Y-108192995D01*
X153451797Y-85702995D02*
X153451797Y-84902995D01*
X154185130Y-85626804D02*
X154151797Y-85664900D01*
X154151797Y-85664900D02*
X154051797Y-85702995D01*
X154051797Y-85702995D02*
X153985130Y-85702995D01*
X153985130Y-85702995D02*
X153885130Y-85664900D01*
X153885130Y-85664900D02*
X153818464Y-85588709D01*
X153818464Y-85588709D02*
X153785130Y-85512519D01*
X153785130Y-85512519D02*
X153751797Y-85360138D01*
X153751797Y-85360138D02*
X153751797Y-85245852D01*
X153751797Y-85245852D02*
X153785130Y-85093471D01*
X153785130Y-85093471D02*
X153818464Y-85017280D01*
X153818464Y-85017280D02*
X153885130Y-84941090D01*
X153885130Y-84941090D02*
X153985130Y-84902995D01*
X153985130Y-84902995D02*
X154051797Y-84902995D01*
X154051797Y-84902995D02*
X154151797Y-84941090D01*
X154151797Y-84941090D02*
X154185130Y-84979185D01*
X154451797Y-85664900D02*
X154551797Y-85702995D01*
X154551797Y-85702995D02*
X154718464Y-85702995D01*
X154718464Y-85702995D02*
X154785130Y-85664900D01*
X154785130Y-85664900D02*
X154818464Y-85626804D01*
X154818464Y-85626804D02*
X154851797Y-85550614D01*
X154851797Y-85550614D02*
X154851797Y-85474423D01*
X154851797Y-85474423D02*
X154818464Y-85398233D01*
X154818464Y-85398233D02*
X154785130Y-85360138D01*
X154785130Y-85360138D02*
X154718464Y-85322042D01*
X154718464Y-85322042D02*
X154585130Y-85283947D01*
X154585130Y-85283947D02*
X154518464Y-85245852D01*
X154518464Y-85245852D02*
X154485130Y-85207757D01*
X154485130Y-85207757D02*
X154451797Y-85131566D01*
X154451797Y-85131566D02*
X154451797Y-85055376D01*
X154451797Y-85055376D02*
X154485130Y-84979185D01*
X154485130Y-84979185D02*
X154518464Y-84941090D01*
X154518464Y-84941090D02*
X154585130Y-84902995D01*
X154585130Y-84902995D02*
X154751797Y-84902995D01*
X154751797Y-84902995D02*
X154851797Y-84941090D01*
X155151797Y-85702995D02*
X155151797Y-84902995D01*
X155151797Y-84902995D02*
X155418464Y-84902995D01*
X155418464Y-84902995D02*
X155485131Y-84941090D01*
X155485131Y-84941090D02*
X155518464Y-84979185D01*
X155518464Y-84979185D02*
X155551797Y-85055376D01*
X155551797Y-85055376D02*
X155551797Y-85169661D01*
X155551797Y-85169661D02*
X155518464Y-85245852D01*
X155518464Y-85245852D02*
X155485131Y-85283947D01*
X155485131Y-85283947D02*
X155418464Y-85322042D01*
X155418464Y-85322042D02*
X155151797Y-85322042D01*
X154291797Y-108012995D02*
X154291797Y-107212995D01*
X154591797Y-107289185D02*
X154625130Y-107251090D01*
X154625130Y-107251090D02*
X154691797Y-107212995D01*
X154691797Y-107212995D02*
X154858464Y-107212995D01*
X154858464Y-107212995D02*
X154925130Y-107251090D01*
X154925130Y-107251090D02*
X154958464Y-107289185D01*
X154958464Y-107289185D02*
X154991797Y-107365376D01*
X154991797Y-107365376D02*
X154991797Y-107441566D01*
X154991797Y-107441566D02*
X154958464Y-107555852D01*
X154958464Y-107555852D02*
X154558464Y-108012995D01*
X154558464Y-108012995D02*
X154991797Y-108012995D01*
X155691797Y-107936804D02*
X155658464Y-107974900D01*
X155658464Y-107974900D02*
X155558464Y-108012995D01*
X155558464Y-108012995D02*
X155491797Y-108012995D01*
X155491797Y-108012995D02*
X155391797Y-107974900D01*
X155391797Y-107974900D02*
X155325131Y-107898709D01*
X155325131Y-107898709D02*
X155291797Y-107822519D01*
X155291797Y-107822519D02*
X155258464Y-107670138D01*
X155258464Y-107670138D02*
X155258464Y-107555852D01*
X155258464Y-107555852D02*
X155291797Y-107403471D01*
X155291797Y-107403471D02*
X155325131Y-107327280D01*
X155325131Y-107327280D02*
X155391797Y-107251090D01*
X155391797Y-107251090D02*
X155491797Y-107212995D01*
X155491797Y-107212995D02*
X155558464Y-107212995D01*
X155558464Y-107212995D02*
X155658464Y-107251090D01*
X155658464Y-107251090D02*
X155691797Y-107289185D01*
X152431090Y-98191535D02*
X152392995Y-98258202D01*
X152392995Y-98258202D02*
X152392995Y-98358202D01*
X152392995Y-98358202D02*
X152431090Y-98458202D01*
X152431090Y-98458202D02*
X152507280Y-98524869D01*
X152507280Y-98524869D02*
X152583471Y-98558202D01*
X152583471Y-98558202D02*
X152735852Y-98591535D01*
X152735852Y-98591535D02*
X152850138Y-98591535D01*
X152850138Y-98591535D02*
X153002519Y-98558202D01*
X153002519Y-98558202D02*
X153078709Y-98524869D01*
X153078709Y-98524869D02*
X153154900Y-98458202D01*
X153154900Y-98458202D02*
X153192995Y-98358202D01*
X153192995Y-98358202D02*
X153192995Y-98291535D01*
X153192995Y-98291535D02*
X153154900Y-98191535D01*
X153154900Y-98191535D02*
X153116804Y-98158202D01*
X153116804Y-98158202D02*
X152850138Y-98158202D01*
X152850138Y-98158202D02*
X152850138Y-98291535D01*
X153192995Y-97858202D02*
X152392995Y-97858202D01*
X152392995Y-97858202D02*
X153192995Y-97458202D01*
X153192995Y-97458202D02*
X152392995Y-97458202D01*
X153192995Y-97124869D02*
X152392995Y-97124869D01*
X152392995Y-97124869D02*
X152392995Y-96958202D01*
X152392995Y-96958202D02*
X152431090Y-96858202D01*
X152431090Y-96858202D02*
X152507280Y-96791536D01*
X152507280Y-96791536D02*
X152583471Y-96758202D01*
X152583471Y-96758202D02*
X152735852Y-96724869D01*
X152735852Y-96724869D02*
X152850138Y-96724869D01*
X152850138Y-96724869D02*
X153002519Y-96758202D01*
X153002519Y-96758202D02*
X153078709Y-96791536D01*
X153078709Y-96791536D02*
X153154900Y-96858202D01*
X153154900Y-96858202D02*
X153192995Y-96958202D01*
X153192995Y-96958202D02*
X153192995Y-97124869D01*
X152392995Y-101368202D02*
X153192995Y-101134869D01*
X153192995Y-101134869D02*
X152392995Y-100901535D01*
X153116804Y-100268202D02*
X153154900Y-100301535D01*
X153154900Y-100301535D02*
X153192995Y-100401535D01*
X153192995Y-100401535D02*
X153192995Y-100468202D01*
X153192995Y-100468202D02*
X153154900Y-100568202D01*
X153154900Y-100568202D02*
X153078709Y-100634869D01*
X153078709Y-100634869D02*
X153002519Y-100668202D01*
X153002519Y-100668202D02*
X152850138Y-100701535D01*
X152850138Y-100701535D02*
X152735852Y-100701535D01*
X152735852Y-100701535D02*
X152583471Y-100668202D01*
X152583471Y-100668202D02*
X152507280Y-100634869D01*
X152507280Y-100634869D02*
X152431090Y-100568202D01*
X152431090Y-100568202D02*
X152392995Y-100468202D01*
X152392995Y-100468202D02*
X152392995Y-100401535D01*
X152392995Y-100401535D02*
X152431090Y-100301535D01*
X152431090Y-100301535D02*
X152469185Y-100268202D01*
X153116804Y-99568202D02*
X153154900Y-99601535D01*
X153154900Y-99601535D02*
X153192995Y-99701535D01*
X153192995Y-99701535D02*
X153192995Y-99768202D01*
X153192995Y-99768202D02*
X153154900Y-99868202D01*
X153154900Y-99868202D02*
X153078709Y-99934869D01*
X153078709Y-99934869D02*
X153002519Y-99968202D01*
X153002519Y-99968202D02*
X152850138Y-100001535D01*
X152850138Y-100001535D02*
X152735852Y-100001535D01*
X152735852Y-100001535D02*
X152583471Y-99968202D01*
X152583471Y-99968202D02*
X152507280Y-99934869D01*
X152507280Y-99934869D02*
X152431090Y-99868202D01*
X152431090Y-99868202D02*
X152392995Y-99768202D01*
X152392995Y-99768202D02*
X152392995Y-99701535D01*
X152392995Y-99701535D02*
X152431090Y-99601535D01*
X152431090Y-99601535D02*
X152469185Y-99568202D01*
X153154900Y-103821535D02*
X153192995Y-103721535D01*
X153192995Y-103721535D02*
X153192995Y-103554869D01*
X153192995Y-103554869D02*
X153154900Y-103488202D01*
X153154900Y-103488202D02*
X153116804Y-103454869D01*
X153116804Y-103454869D02*
X153040614Y-103421535D01*
X153040614Y-103421535D02*
X152964423Y-103421535D01*
X152964423Y-103421535D02*
X152888233Y-103454869D01*
X152888233Y-103454869D02*
X152850138Y-103488202D01*
X152850138Y-103488202D02*
X152812042Y-103554869D01*
X152812042Y-103554869D02*
X152773947Y-103688202D01*
X152773947Y-103688202D02*
X152735852Y-103754869D01*
X152735852Y-103754869D02*
X152697757Y-103788202D01*
X152697757Y-103788202D02*
X152621566Y-103821535D01*
X152621566Y-103821535D02*
X152545376Y-103821535D01*
X152545376Y-103821535D02*
X152469185Y-103788202D01*
X152469185Y-103788202D02*
X152431090Y-103754869D01*
X152431090Y-103754869D02*
X152392995Y-103688202D01*
X152392995Y-103688202D02*
X152392995Y-103521535D01*
X152392995Y-103521535D02*
X152431090Y-103421535D01*
X153192995Y-103121535D02*
X152392995Y-103121535D01*
X152392995Y-103121535D02*
X152392995Y-102954868D01*
X152392995Y-102954868D02*
X152431090Y-102854868D01*
X152431090Y-102854868D02*
X152507280Y-102788202D01*
X152507280Y-102788202D02*
X152583471Y-102754868D01*
X152583471Y-102754868D02*
X152735852Y-102721535D01*
X152735852Y-102721535D02*
X152850138Y-102721535D01*
X152850138Y-102721535D02*
X153002519Y-102754868D01*
X153002519Y-102754868D02*
X153078709Y-102788202D01*
X153078709Y-102788202D02*
X153154900Y-102854868D01*
X153154900Y-102854868D02*
X153192995Y-102954868D01*
X153192995Y-102954868D02*
X153192995Y-103121535D01*
X152964423Y-102454868D02*
X152964423Y-102121535D01*
X153192995Y-102521535D02*
X152392995Y-102288202D01*
X152392995Y-102288202D02*
X153192995Y-102054868D01*
X153154900Y-106491535D02*
X153192995Y-106391535D01*
X153192995Y-106391535D02*
X153192995Y-106224869D01*
X153192995Y-106224869D02*
X153154900Y-106158202D01*
X153154900Y-106158202D02*
X153116804Y-106124869D01*
X153116804Y-106124869D02*
X153040614Y-106091535D01*
X153040614Y-106091535D02*
X152964423Y-106091535D01*
X152964423Y-106091535D02*
X152888233Y-106124869D01*
X152888233Y-106124869D02*
X152850138Y-106158202D01*
X152850138Y-106158202D02*
X152812042Y-106224869D01*
X152812042Y-106224869D02*
X152773947Y-106358202D01*
X152773947Y-106358202D02*
X152735852Y-106424869D01*
X152735852Y-106424869D02*
X152697757Y-106458202D01*
X152697757Y-106458202D02*
X152621566Y-106491535D01*
X152621566Y-106491535D02*
X152545376Y-106491535D01*
X152545376Y-106491535D02*
X152469185Y-106458202D01*
X152469185Y-106458202D02*
X152431090Y-106424869D01*
X152431090Y-106424869D02*
X152392995Y-106358202D01*
X152392995Y-106358202D02*
X152392995Y-106191535D01*
X152392995Y-106191535D02*
X152431090Y-106091535D01*
X153116804Y-105391535D02*
X153154900Y-105424868D01*
X153154900Y-105424868D02*
X153192995Y-105524868D01*
X153192995Y-105524868D02*
X153192995Y-105591535D01*
X153192995Y-105591535D02*
X153154900Y-105691535D01*
X153154900Y-105691535D02*
X153078709Y-105758202D01*
X153078709Y-105758202D02*
X153002519Y-105791535D01*
X153002519Y-105791535D02*
X152850138Y-105824868D01*
X152850138Y-105824868D02*
X152735852Y-105824868D01*
X152735852Y-105824868D02*
X152583471Y-105791535D01*
X152583471Y-105791535D02*
X152507280Y-105758202D01*
X152507280Y-105758202D02*
X152431090Y-105691535D01*
X152431090Y-105691535D02*
X152392995Y-105591535D01*
X152392995Y-105591535D02*
X152392995Y-105524868D01*
X152392995Y-105524868D02*
X152431090Y-105424868D01*
X152431090Y-105424868D02*
X152469185Y-105391535D01*
X153192995Y-105091535D02*
X152392995Y-105091535D01*
X153192995Y-104691535D02*
X152735852Y-104991535D01*
X152392995Y-104691535D02*
X152850138Y-105091535D01*
X117607004Y-86961797D02*
X116807004Y-87195131D01*
X116807004Y-87195131D02*
X117607004Y-87428464D01*
X116883195Y-88061797D02*
X116845100Y-88028464D01*
X116845100Y-88028464D02*
X116807004Y-87928464D01*
X116807004Y-87928464D02*
X116807004Y-87861797D01*
X116807004Y-87861797D02*
X116845100Y-87761797D01*
X116845100Y-87761797D02*
X116921290Y-87695131D01*
X116921290Y-87695131D02*
X116997480Y-87661797D01*
X116997480Y-87661797D02*
X117149861Y-87628464D01*
X117149861Y-87628464D02*
X117264147Y-87628464D01*
X117264147Y-87628464D02*
X117416528Y-87661797D01*
X117416528Y-87661797D02*
X117492719Y-87695131D01*
X117492719Y-87695131D02*
X117568909Y-87761797D01*
X117568909Y-87761797D02*
X117607004Y-87861797D01*
X117607004Y-87861797D02*
X117607004Y-87928464D01*
X117607004Y-87928464D02*
X117568909Y-88028464D01*
X117568909Y-88028464D02*
X117530814Y-88061797D01*
X116883195Y-88761797D02*
X116845100Y-88728464D01*
X116845100Y-88728464D02*
X116807004Y-88628464D01*
X116807004Y-88628464D02*
X116807004Y-88561797D01*
X116807004Y-88561797D02*
X116845100Y-88461797D01*
X116845100Y-88461797D02*
X116921290Y-88395131D01*
X116921290Y-88395131D02*
X116997480Y-88361797D01*
X116997480Y-88361797D02*
X117149861Y-88328464D01*
X117149861Y-88328464D02*
X117264147Y-88328464D01*
X117264147Y-88328464D02*
X117416528Y-88361797D01*
X117416528Y-88361797D02*
X117492719Y-88395131D01*
X117492719Y-88395131D02*
X117568909Y-88461797D01*
X117568909Y-88461797D02*
X117607004Y-88561797D01*
X117607004Y-88561797D02*
X117607004Y-88628464D01*
X117607004Y-88628464D02*
X117568909Y-88728464D01*
X117568909Y-88728464D02*
X117530814Y-88761797D01*
X117568909Y-90008464D02*
X117607004Y-89941797D01*
X117607004Y-89941797D02*
X117607004Y-89841797D01*
X117607004Y-89841797D02*
X117568909Y-89741797D01*
X117568909Y-89741797D02*
X117492719Y-89675131D01*
X117492719Y-89675131D02*
X117416528Y-89641797D01*
X117416528Y-89641797D02*
X117264147Y-89608464D01*
X117264147Y-89608464D02*
X117149861Y-89608464D01*
X117149861Y-89608464D02*
X116997480Y-89641797D01*
X116997480Y-89641797D02*
X116921290Y-89675131D01*
X116921290Y-89675131D02*
X116845100Y-89741797D01*
X116845100Y-89741797D02*
X116807004Y-89841797D01*
X116807004Y-89841797D02*
X116807004Y-89908464D01*
X116807004Y-89908464D02*
X116845100Y-90008464D01*
X116845100Y-90008464D02*
X116883195Y-90041797D01*
X116883195Y-90041797D02*
X117149861Y-90041797D01*
X117149861Y-90041797D02*
X117149861Y-89908464D01*
X116807004Y-90341797D02*
X117607004Y-90341797D01*
X117607004Y-90341797D02*
X116807004Y-90741797D01*
X116807004Y-90741797D02*
X117607004Y-90741797D01*
X116807004Y-91075130D02*
X117607004Y-91075130D01*
X117607004Y-91075130D02*
X117607004Y-91241797D01*
X117607004Y-91241797D02*
X117568909Y-91341797D01*
X117568909Y-91341797D02*
X117492719Y-91408464D01*
X117492719Y-91408464D02*
X117416528Y-91441797D01*
X117416528Y-91441797D02*
X117264147Y-91475130D01*
X117264147Y-91475130D02*
X117149861Y-91475130D01*
X117149861Y-91475130D02*
X116997480Y-91441797D01*
X116997480Y-91441797D02*
X116921290Y-91408464D01*
X116921290Y-91408464D02*
X116845100Y-91341797D01*
X116845100Y-91341797D02*
X116807004Y-91241797D01*
X116807004Y-91241797D02*
X116807004Y-91075130D01*
X143363333Y-96544804D02*
X143330000Y-96582900D01*
X143330000Y-96582900D02*
X143230000Y-96620995D01*
X143230000Y-96620995D02*
X143163333Y-96620995D01*
X143163333Y-96620995D02*
X143063333Y-96582900D01*
X143063333Y-96582900D02*
X142996667Y-96506709D01*
X142996667Y-96506709D02*
X142963333Y-96430519D01*
X142963333Y-96430519D02*
X142930000Y-96278138D01*
X142930000Y-96278138D02*
X142930000Y-96163852D01*
X142930000Y-96163852D02*
X142963333Y-96011471D01*
X142963333Y-96011471D02*
X142996667Y-95935280D01*
X142996667Y-95935280D02*
X143063333Y-95859090D01*
X143063333Y-95859090D02*
X143163333Y-95820995D01*
X143163333Y-95820995D02*
X143230000Y-95820995D01*
X143230000Y-95820995D02*
X143330000Y-95859090D01*
X143330000Y-95859090D02*
X143363333Y-95897185D01*
X143996667Y-95820995D02*
X143663333Y-95820995D01*
X143663333Y-95820995D02*
X143630000Y-96201947D01*
X143630000Y-96201947D02*
X143663333Y-96163852D01*
X143663333Y-96163852D02*
X143730000Y-96125757D01*
X143730000Y-96125757D02*
X143896667Y-96125757D01*
X143896667Y-96125757D02*
X143963333Y-96163852D01*
X143963333Y-96163852D02*
X143996667Y-96201947D01*
X143996667Y-96201947D02*
X144030000Y-96278138D01*
X144030000Y-96278138D02*
X144030000Y-96468614D01*
X144030000Y-96468614D02*
X143996667Y-96544804D01*
X143996667Y-96544804D02*
X143963333Y-96582900D01*
X143963333Y-96582900D02*
X143896667Y-96620995D01*
X143896667Y-96620995D02*
X143730000Y-96620995D01*
X143730000Y-96620995D02*
X143663333Y-96582900D01*
X143663333Y-96582900D02*
X143630000Y-96544804D01*
X142416666Y-99660995D02*
X142016666Y-99660995D01*
X142216666Y-99660995D02*
X142216666Y-98860995D01*
X142216666Y-98860995D02*
X142149999Y-98975280D01*
X142149999Y-98975280D02*
X142083333Y-99051471D01*
X142083333Y-99051471D02*
X142016666Y-99089566D01*
X142850000Y-98860995D02*
X142916666Y-98860995D01*
X142916666Y-98860995D02*
X142983333Y-98899090D01*
X142983333Y-98899090D02*
X143016666Y-98937185D01*
X143016666Y-98937185D02*
X143050000Y-99013376D01*
X143050000Y-99013376D02*
X143083333Y-99165757D01*
X143083333Y-99165757D02*
X143083333Y-99356233D01*
X143083333Y-99356233D02*
X143050000Y-99508614D01*
X143050000Y-99508614D02*
X143016666Y-99584804D01*
X143016666Y-99584804D02*
X142983333Y-99622900D01*
X142983333Y-99622900D02*
X142916666Y-99660995D01*
X142916666Y-99660995D02*
X142850000Y-99660995D01*
X142850000Y-99660995D02*
X142783333Y-99622900D01*
X142783333Y-99622900D02*
X142750000Y-99584804D01*
X142750000Y-99584804D02*
X142716666Y-99508614D01*
X142716666Y-99508614D02*
X142683333Y-99356233D01*
X142683333Y-99356233D02*
X142683333Y-99165757D01*
X142683333Y-99165757D02*
X142716666Y-99013376D01*
X142716666Y-99013376D02*
X142750000Y-98937185D01*
X142750000Y-98937185D02*
X142783333Y-98899090D01*
X142783333Y-98899090D02*
X142850000Y-98860995D01*
X143516667Y-98860995D02*
X143583333Y-98860995D01*
X143583333Y-98860995D02*
X143650000Y-98899090D01*
X143650000Y-98899090D02*
X143683333Y-98937185D01*
X143683333Y-98937185D02*
X143716667Y-99013376D01*
X143716667Y-99013376D02*
X143750000Y-99165757D01*
X143750000Y-99165757D02*
X143750000Y-99356233D01*
X143750000Y-99356233D02*
X143716667Y-99508614D01*
X143716667Y-99508614D02*
X143683333Y-99584804D01*
X143683333Y-99584804D02*
X143650000Y-99622900D01*
X143650000Y-99622900D02*
X143583333Y-99660995D01*
X143583333Y-99660995D02*
X143516667Y-99660995D01*
X143516667Y-99660995D02*
X143450000Y-99622900D01*
X143450000Y-99622900D02*
X143416667Y-99584804D01*
X143416667Y-99584804D02*
X143383333Y-99508614D01*
X143383333Y-99508614D02*
X143350000Y-99356233D01*
X143350000Y-99356233D02*
X143350000Y-99165757D01*
X143350000Y-99165757D02*
X143383333Y-99013376D01*
X143383333Y-99013376D02*
X143416667Y-98937185D01*
X143416667Y-98937185D02*
X143450000Y-98899090D01*
X143450000Y-98899090D02*
X143516667Y-98860995D01*
X144050000Y-99127661D02*
X144050000Y-99660995D01*
X144050000Y-99203852D02*
X144083334Y-99165757D01*
X144083334Y-99165757D02*
X144150000Y-99127661D01*
X144150000Y-99127661D02*
X144250000Y-99127661D01*
X144250000Y-99127661D02*
X144316667Y-99165757D01*
X144316667Y-99165757D02*
X144350000Y-99241947D01*
X144350000Y-99241947D02*
X144350000Y-99660995D01*
X144916667Y-99241947D02*
X144683333Y-99241947D01*
X144683333Y-99660995D02*
X144683333Y-98860995D01*
X144683333Y-98860995D02*
X145016667Y-98860995D01*
X143386969Y-91924804D02*
X143353636Y-91962900D01*
X143353636Y-91962900D02*
X143253636Y-92000995D01*
X143253636Y-92000995D02*
X143186969Y-92000995D01*
X143186969Y-92000995D02*
X143086969Y-91962900D01*
X143086969Y-91962900D02*
X143020303Y-91886709D01*
X143020303Y-91886709D02*
X142986969Y-91810519D01*
X142986969Y-91810519D02*
X142953636Y-91658138D01*
X142953636Y-91658138D02*
X142953636Y-91543852D01*
X142953636Y-91543852D02*
X142986969Y-91391471D01*
X142986969Y-91391471D02*
X143020303Y-91315280D01*
X143020303Y-91315280D02*
X143086969Y-91239090D01*
X143086969Y-91239090D02*
X143186969Y-91200995D01*
X143186969Y-91200995D02*
X143253636Y-91200995D01*
X143253636Y-91200995D02*
X143353636Y-91239090D01*
X143353636Y-91239090D02*
X143386969Y-91277185D01*
X144053636Y-92000995D02*
X143653636Y-92000995D01*
X143853636Y-92000995D02*
X143853636Y-91200995D01*
X143853636Y-91200995D02*
X143786969Y-91315280D01*
X143786969Y-91315280D02*
X143720303Y-91391471D01*
X143720303Y-91391471D02*
X143653636Y-91429566D01*
X142353636Y-94110995D02*
X142420302Y-94110995D01*
X142420302Y-94110995D02*
X142486969Y-94149090D01*
X142486969Y-94149090D02*
X142520302Y-94187185D01*
X142520302Y-94187185D02*
X142553636Y-94263376D01*
X142553636Y-94263376D02*
X142586969Y-94415757D01*
X142586969Y-94415757D02*
X142586969Y-94606233D01*
X142586969Y-94606233D02*
X142553636Y-94758614D01*
X142553636Y-94758614D02*
X142520302Y-94834804D01*
X142520302Y-94834804D02*
X142486969Y-94872900D01*
X142486969Y-94872900D02*
X142420302Y-94910995D01*
X142420302Y-94910995D02*
X142353636Y-94910995D01*
X142353636Y-94910995D02*
X142286969Y-94872900D01*
X142286969Y-94872900D02*
X142253636Y-94834804D01*
X142253636Y-94834804D02*
X142220302Y-94758614D01*
X142220302Y-94758614D02*
X142186969Y-94606233D01*
X142186969Y-94606233D02*
X142186969Y-94415757D01*
X142186969Y-94415757D02*
X142220302Y-94263376D01*
X142220302Y-94263376D02*
X142253636Y-94187185D01*
X142253636Y-94187185D02*
X142286969Y-94149090D01*
X142286969Y-94149090D02*
X142353636Y-94110995D01*
X142886969Y-94834804D02*
X142920303Y-94872900D01*
X142920303Y-94872900D02*
X142886969Y-94910995D01*
X142886969Y-94910995D02*
X142853636Y-94872900D01*
X142853636Y-94872900D02*
X142886969Y-94834804D01*
X142886969Y-94834804D02*
X142886969Y-94910995D01*
X143586969Y-94910995D02*
X143186969Y-94910995D01*
X143386969Y-94910995D02*
X143386969Y-94110995D01*
X143386969Y-94110995D02*
X143320302Y-94225280D01*
X143320302Y-94225280D02*
X143253636Y-94301471D01*
X143253636Y-94301471D02*
X143186969Y-94339566D01*
X144186969Y-94377661D02*
X144186969Y-94910995D01*
X143886969Y-94377661D02*
X143886969Y-94796709D01*
X143886969Y-94796709D02*
X143920303Y-94872900D01*
X143920303Y-94872900D02*
X143986969Y-94910995D01*
X143986969Y-94910995D02*
X144086969Y-94910995D01*
X144086969Y-94910995D02*
X144153636Y-94872900D01*
X144153636Y-94872900D02*
X144186969Y-94834804D01*
X144753636Y-94491947D02*
X144520302Y-94491947D01*
X144520302Y-94910995D02*
X144520302Y-94110995D01*
X144520302Y-94110995D02*
X144853636Y-94110995D01*
X114593636Y-85311649D02*
X114693636Y-85349744D01*
X114693636Y-85349744D02*
X114726969Y-85387840D01*
X114726969Y-85387840D02*
X114760302Y-85464030D01*
X114760302Y-85464030D02*
X114760302Y-85578316D01*
X114760302Y-85578316D02*
X114726969Y-85654506D01*
X114726969Y-85654506D02*
X114693636Y-85692602D01*
X114693636Y-85692602D02*
X114626969Y-85730697D01*
X114626969Y-85730697D02*
X114360302Y-85730697D01*
X114360302Y-85730697D02*
X114360302Y-84930697D01*
X114360302Y-84930697D02*
X114593636Y-84930697D01*
X114593636Y-84930697D02*
X114660302Y-84968792D01*
X114660302Y-84968792D02*
X114693636Y-85006887D01*
X114693636Y-85006887D02*
X114726969Y-85083078D01*
X114726969Y-85083078D02*
X114726969Y-85159268D01*
X114726969Y-85159268D02*
X114693636Y-85235459D01*
X114693636Y-85235459D02*
X114660302Y-85273554D01*
X114660302Y-85273554D02*
X114593636Y-85311649D01*
X114593636Y-85311649D02*
X114360302Y-85311649D01*
X114960302Y-84930697D02*
X115360302Y-84930697D01*
X115160302Y-85730697D02*
X115160302Y-84930697D01*
X115960302Y-85730697D02*
X115560302Y-85730697D01*
X115760302Y-85730697D02*
X115760302Y-84930697D01*
X115760302Y-84930697D02*
X115693635Y-85044982D01*
X115693635Y-85044982D02*
X115626969Y-85121173D01*
X115626969Y-85121173D02*
X115560302Y-85159268D01*
X113693637Y-92611649D02*
X113793637Y-92649744D01*
X113793637Y-92649744D02*
X113826970Y-92687840D01*
X113826970Y-92687840D02*
X113860303Y-92764030D01*
X113860303Y-92764030D02*
X113860303Y-92878316D01*
X113860303Y-92878316D02*
X113826970Y-92954506D01*
X113826970Y-92954506D02*
X113793637Y-92992602D01*
X113793637Y-92992602D02*
X113726970Y-93030697D01*
X113726970Y-93030697D02*
X113460303Y-93030697D01*
X113460303Y-93030697D02*
X113460303Y-92230697D01*
X113460303Y-92230697D02*
X113693637Y-92230697D01*
X113693637Y-92230697D02*
X113760303Y-92268792D01*
X113760303Y-92268792D02*
X113793637Y-92306887D01*
X113793637Y-92306887D02*
X113826970Y-92383078D01*
X113826970Y-92383078D02*
X113826970Y-92459268D01*
X113826970Y-92459268D02*
X113793637Y-92535459D01*
X113793637Y-92535459D02*
X113760303Y-92573554D01*
X113760303Y-92573554D02*
X113693637Y-92611649D01*
X113693637Y-92611649D02*
X113460303Y-92611649D01*
X114460303Y-93030697D02*
X114460303Y-92611649D01*
X114460303Y-92611649D02*
X114426970Y-92535459D01*
X114426970Y-92535459D02*
X114360303Y-92497363D01*
X114360303Y-92497363D02*
X114226970Y-92497363D01*
X114226970Y-92497363D02*
X114160303Y-92535459D01*
X114460303Y-92992602D02*
X114393637Y-93030697D01*
X114393637Y-93030697D02*
X114226970Y-93030697D01*
X114226970Y-93030697D02*
X114160303Y-92992602D01*
X114160303Y-92992602D02*
X114126970Y-92916411D01*
X114126970Y-92916411D02*
X114126970Y-92840221D01*
X114126970Y-92840221D02*
X114160303Y-92764030D01*
X114160303Y-92764030D02*
X114226970Y-92725935D01*
X114226970Y-92725935D02*
X114393637Y-92725935D01*
X114393637Y-92725935D02*
X114460303Y-92687840D01*
X114693636Y-92497363D02*
X114960303Y-92497363D01*
X114793636Y-92230697D02*
X114793636Y-92916411D01*
X114793636Y-92916411D02*
X114826970Y-92992602D01*
X114826970Y-92992602D02*
X114893636Y-93030697D01*
X114893636Y-93030697D02*
X114960303Y-93030697D01*
X115093636Y-92497363D02*
X115360303Y-92497363D01*
X115193636Y-92230697D02*
X115193636Y-92916411D01*
X115193636Y-92916411D02*
X115226970Y-92992602D01*
X115226970Y-92992602D02*
X115293636Y-93030697D01*
X115293636Y-93030697D02*
X115360303Y-93030697D01*
X115860303Y-92992602D02*
X115793636Y-93030697D01*
X115793636Y-93030697D02*
X115660303Y-93030697D01*
X115660303Y-93030697D02*
X115593636Y-92992602D01*
X115593636Y-92992602D02*
X115560303Y-92916411D01*
X115560303Y-92916411D02*
X115560303Y-92611649D01*
X115560303Y-92611649D02*
X115593636Y-92535459D01*
X115593636Y-92535459D02*
X115660303Y-92497363D01*
X115660303Y-92497363D02*
X115793636Y-92497363D01*
X115793636Y-92497363D02*
X115860303Y-92535459D01*
X115860303Y-92535459D02*
X115893636Y-92611649D01*
X115893636Y-92611649D02*
X115893636Y-92687840D01*
X115893636Y-92687840D02*
X115560303Y-92764030D01*
X116193636Y-93030697D02*
X116193636Y-92497363D01*
X116193636Y-92649744D02*
X116226970Y-92573554D01*
X116226970Y-92573554D02*
X116260303Y-92535459D01*
X116260303Y-92535459D02*
X116326970Y-92497363D01*
X116326970Y-92497363D02*
X116393636Y-92497363D01*
X116560303Y-92497363D02*
X116726969Y-93030697D01*
X116893636Y-92497363D02*
X116726969Y-93030697D01*
X116726969Y-93030697D02*
X116660303Y-93221173D01*
X116660303Y-93221173D02*
X116626969Y-93259268D01*
X116626969Y-93259268D02*
X116560303Y-93297363D01*
X118430302Y-103213197D02*
X118430302Y-103860816D01*
X118430302Y-103860816D02*
X118463636Y-103937006D01*
X118463636Y-103937006D02*
X118496969Y-103975102D01*
X118496969Y-103975102D02*
X118563636Y-104013197D01*
X118563636Y-104013197D02*
X118696969Y-104013197D01*
X118696969Y-104013197D02*
X118763636Y-103975102D01*
X118763636Y-103975102D02*
X118796969Y-103937006D01*
X118796969Y-103937006D02*
X118830302Y-103860816D01*
X118830302Y-103860816D02*
X118830302Y-103213197D01*
X119130302Y-103289387D02*
X119163635Y-103251292D01*
X119163635Y-103251292D02*
X119230302Y-103213197D01*
X119230302Y-103213197D02*
X119396969Y-103213197D01*
X119396969Y-103213197D02*
X119463635Y-103251292D01*
X119463635Y-103251292D02*
X119496969Y-103289387D01*
X119496969Y-103289387D02*
X119530302Y-103365578D01*
X119530302Y-103365578D02*
X119530302Y-103441768D01*
X119530302Y-103441768D02*
X119496969Y-103556054D01*
X119496969Y-103556054D02*
X119096969Y-104013197D01*
X119096969Y-104013197D02*
X119530302Y-104013197D01*
X147956969Y-87270995D02*
X147723636Y-86890042D01*
X147556969Y-87270995D02*
X147556969Y-86470995D01*
X147556969Y-86470995D02*
X147823636Y-86470995D01*
X147823636Y-86470995D02*
X147890303Y-86509090D01*
X147890303Y-86509090D02*
X147923636Y-86547185D01*
X147923636Y-86547185D02*
X147956969Y-86623376D01*
X147956969Y-86623376D02*
X147956969Y-86737661D01*
X147956969Y-86737661D02*
X147923636Y-86813852D01*
X147923636Y-86813852D02*
X147890303Y-86851947D01*
X147890303Y-86851947D02*
X147823636Y-86890042D01*
X147823636Y-86890042D02*
X147556969Y-86890042D01*
X148223636Y-86547185D02*
X148256969Y-86509090D01*
X148256969Y-86509090D02*
X148323636Y-86470995D01*
X148323636Y-86470995D02*
X148490303Y-86470995D01*
X148490303Y-86470995D02*
X148556969Y-86509090D01*
X148556969Y-86509090D02*
X148590303Y-86547185D01*
X148590303Y-86547185D02*
X148623636Y-86623376D01*
X148623636Y-86623376D02*
X148623636Y-86699566D01*
X148623636Y-86699566D02*
X148590303Y-86813852D01*
X148590303Y-86813852D02*
X148190303Y-87270995D01*
X148190303Y-87270995D02*
X148623636Y-87270995D01*
X147173636Y-89420995D02*
X147606969Y-89420995D01*
X147606969Y-89420995D02*
X147373636Y-89725757D01*
X147373636Y-89725757D02*
X147473636Y-89725757D01*
X147473636Y-89725757D02*
X147540302Y-89763852D01*
X147540302Y-89763852D02*
X147573636Y-89801947D01*
X147573636Y-89801947D02*
X147606969Y-89878138D01*
X147606969Y-89878138D02*
X147606969Y-90068614D01*
X147606969Y-90068614D02*
X147573636Y-90144804D01*
X147573636Y-90144804D02*
X147540302Y-90182900D01*
X147540302Y-90182900D02*
X147473636Y-90220995D01*
X147473636Y-90220995D02*
X147273636Y-90220995D01*
X147273636Y-90220995D02*
X147206969Y-90182900D01*
X147206969Y-90182900D02*
X147173636Y-90144804D01*
X147840303Y-89420995D02*
X148273636Y-89420995D01*
X148273636Y-89420995D02*
X148040303Y-89725757D01*
X148040303Y-89725757D02*
X148140303Y-89725757D01*
X148140303Y-89725757D02*
X148206969Y-89763852D01*
X148206969Y-89763852D02*
X148240303Y-89801947D01*
X148240303Y-89801947D02*
X148273636Y-89878138D01*
X148273636Y-89878138D02*
X148273636Y-90068614D01*
X148273636Y-90068614D02*
X148240303Y-90144804D01*
X148240303Y-90144804D02*
X148206969Y-90182900D01*
X148206969Y-90182900D02*
X148140303Y-90220995D01*
X148140303Y-90220995D02*
X147940303Y-90220995D01*
X147940303Y-90220995D02*
X147873636Y-90182900D01*
X147873636Y-90182900D02*
X147840303Y-90144804D01*
X148706970Y-89420995D02*
X148773636Y-89420995D01*
X148773636Y-89420995D02*
X148840303Y-89459090D01*
X148840303Y-89459090D02*
X148873636Y-89497185D01*
X148873636Y-89497185D02*
X148906970Y-89573376D01*
X148906970Y-89573376D02*
X148940303Y-89725757D01*
X148940303Y-89725757D02*
X148940303Y-89916233D01*
X148940303Y-89916233D02*
X148906970Y-90068614D01*
X148906970Y-90068614D02*
X148873636Y-90144804D01*
X148873636Y-90144804D02*
X148840303Y-90182900D01*
X148840303Y-90182900D02*
X148773636Y-90220995D01*
X148773636Y-90220995D02*
X148706970Y-90220995D01*
X148706970Y-90220995D02*
X148640303Y-90182900D01*
X148640303Y-90182900D02*
X148606970Y-90144804D01*
X148606970Y-90144804D02*
X148573636Y-90068614D01*
X148573636Y-90068614D02*
X148540303Y-89916233D01*
X148540303Y-89916233D02*
X148540303Y-89725757D01*
X148540303Y-89725757D02*
X148573636Y-89573376D01*
X148573636Y-89573376D02*
X148606970Y-89497185D01*
X148606970Y-89497185D02*
X148640303Y-89459090D01*
X148640303Y-89459090D02*
X148706970Y-89420995D01*
X115154631Y-110048035D02*
X115726059Y-110048035D01*
X115726059Y-110048035D02*
X115840345Y-110081368D01*
X115840345Y-110081368D02*
X115916536Y-110148035D01*
X115916536Y-110148035D02*
X115954631Y-110248035D01*
X115954631Y-110248035D02*
X115954631Y-110314702D01*
X115154631Y-109781369D02*
X115154631Y-109348035D01*
X115154631Y-109348035D02*
X115459393Y-109581369D01*
X115459393Y-109581369D02*
X115459393Y-109481369D01*
X115459393Y-109481369D02*
X115497488Y-109414702D01*
X115497488Y-109414702D02*
X115535583Y-109381369D01*
X115535583Y-109381369D02*
X115611774Y-109348035D01*
X115611774Y-109348035D02*
X115802250Y-109348035D01*
X115802250Y-109348035D02*
X115878440Y-109381369D01*
X115878440Y-109381369D02*
X115916536Y-109414702D01*
X115916536Y-109414702D02*
X115954631Y-109481369D01*
X115954631Y-109481369D02*
X115954631Y-109681369D01*
X115954631Y-109681369D02*
X115916536Y-109748035D01*
X115916536Y-109748035D02*
X115878440Y-109781369D01*
X154595302Y-95115697D02*
X154595302Y-95687125D01*
X154595302Y-95687125D02*
X154561969Y-95801411D01*
X154561969Y-95801411D02*
X154495302Y-95877602D01*
X154495302Y-95877602D02*
X154395302Y-95915697D01*
X154395302Y-95915697D02*
X154328636Y-95915697D01*
X155295302Y-95915697D02*
X154895302Y-95915697D01*
X155095302Y-95915697D02*
X155095302Y-95115697D01*
X155095302Y-95115697D02*
X155028635Y-95229982D01*
X155028635Y-95229982D02*
X154961969Y-95306173D01*
X154961969Y-95306173D02*
X154895302Y-95344268D01*
X137443333Y-104039506D02*
X137410000Y-104077602D01*
X137410000Y-104077602D02*
X137310000Y-104115697D01*
X137310000Y-104115697D02*
X137243333Y-104115697D01*
X137243333Y-104115697D02*
X137143333Y-104077602D01*
X137143333Y-104077602D02*
X137076667Y-104001411D01*
X137076667Y-104001411D02*
X137043333Y-103925221D01*
X137043333Y-103925221D02*
X137010000Y-103772840D01*
X137010000Y-103772840D02*
X137010000Y-103658554D01*
X137010000Y-103658554D02*
X137043333Y-103506173D01*
X137043333Y-103506173D02*
X137076667Y-103429982D01*
X137076667Y-103429982D02*
X137143333Y-103353792D01*
X137143333Y-103353792D02*
X137243333Y-103315697D01*
X137243333Y-103315697D02*
X137310000Y-103315697D01*
X137310000Y-103315697D02*
X137410000Y-103353792D01*
X137410000Y-103353792D02*
X137443333Y-103391887D01*
X137710000Y-103391887D02*
X137743333Y-103353792D01*
X137743333Y-103353792D02*
X137810000Y-103315697D01*
X137810000Y-103315697D02*
X137976667Y-103315697D01*
X137976667Y-103315697D02*
X138043333Y-103353792D01*
X138043333Y-103353792D02*
X138076667Y-103391887D01*
X138076667Y-103391887D02*
X138110000Y-103468078D01*
X138110000Y-103468078D02*
X138110000Y-103544268D01*
X138110000Y-103544268D02*
X138076667Y-103658554D01*
X138076667Y-103658554D02*
X137676667Y-104115697D01*
X137676667Y-104115697D02*
X138110000Y-104115697D01*
X136410000Y-106101887D02*
X136443333Y-106063792D01*
X136443333Y-106063792D02*
X136510000Y-106025697D01*
X136510000Y-106025697D02*
X136676667Y-106025697D01*
X136676667Y-106025697D02*
X136743333Y-106063792D01*
X136743333Y-106063792D02*
X136776667Y-106101887D01*
X136776667Y-106101887D02*
X136810000Y-106178078D01*
X136810000Y-106178078D02*
X136810000Y-106254268D01*
X136810000Y-106254268D02*
X136776667Y-106368554D01*
X136776667Y-106368554D02*
X136376667Y-106825697D01*
X136376667Y-106825697D02*
X136810000Y-106825697D01*
X137076667Y-106101887D02*
X137110000Y-106063792D01*
X137110000Y-106063792D02*
X137176667Y-106025697D01*
X137176667Y-106025697D02*
X137343334Y-106025697D01*
X137343334Y-106025697D02*
X137410000Y-106063792D01*
X137410000Y-106063792D02*
X137443334Y-106101887D01*
X137443334Y-106101887D02*
X137476667Y-106178078D01*
X137476667Y-106178078D02*
X137476667Y-106254268D01*
X137476667Y-106254268D02*
X137443334Y-106368554D01*
X137443334Y-106368554D02*
X137043334Y-106825697D01*
X137043334Y-106825697D02*
X137476667Y-106825697D01*
X137776667Y-106292363D02*
X137776667Y-107092363D01*
X137776667Y-106330459D02*
X137843334Y-106292363D01*
X137843334Y-106292363D02*
X137976667Y-106292363D01*
X137976667Y-106292363D02*
X138043334Y-106330459D01*
X138043334Y-106330459D02*
X138076667Y-106368554D01*
X138076667Y-106368554D02*
X138110001Y-106444744D01*
X138110001Y-106444744D02*
X138110001Y-106673316D01*
X138110001Y-106673316D02*
X138076667Y-106749506D01*
X138076667Y-106749506D02*
X138043334Y-106787602D01*
X138043334Y-106787602D02*
X137976667Y-106825697D01*
X137976667Y-106825697D02*
X137843334Y-106825697D01*
X137843334Y-106825697D02*
X137776667Y-106787602D01*
X138643334Y-106406649D02*
X138410000Y-106406649D01*
X138410000Y-106825697D02*
X138410000Y-106025697D01*
X138410000Y-106025697D02*
X138743334Y-106025697D01*
X151876666Y-84935697D02*
X151876666Y-85507125D01*
X151876666Y-85507125D02*
X151843333Y-85621411D01*
X151843333Y-85621411D02*
X151776666Y-85697602D01*
X151776666Y-85697602D02*
X151676666Y-85735697D01*
X151676666Y-85735697D02*
X151610000Y-85735697D01*
X152509999Y-85202363D02*
X152509999Y-85735697D01*
X152343333Y-84897602D02*
X152176666Y-85469030D01*
X152176666Y-85469030D02*
X152609999Y-85469030D01*
X118430302Y-88387697D02*
X118430302Y-89035316D01*
X118430302Y-89035316D02*
X118463636Y-89111506D01*
X118463636Y-89111506D02*
X118496969Y-89149602D01*
X118496969Y-89149602D02*
X118563636Y-89187697D01*
X118563636Y-89187697D02*
X118696969Y-89187697D01*
X118696969Y-89187697D02*
X118763636Y-89149602D01*
X118763636Y-89149602D02*
X118796969Y-89111506D01*
X118796969Y-89111506D02*
X118830302Y-89035316D01*
X118830302Y-89035316D02*
X118830302Y-88387697D01*
X119096969Y-88387697D02*
X119530302Y-88387697D01*
X119530302Y-88387697D02*
X119296969Y-88692459D01*
X119296969Y-88692459D02*
X119396969Y-88692459D01*
X119396969Y-88692459D02*
X119463635Y-88730554D01*
X119463635Y-88730554D02*
X119496969Y-88768649D01*
X119496969Y-88768649D02*
X119530302Y-88844840D01*
X119530302Y-88844840D02*
X119530302Y-89035316D01*
X119530302Y-89035316D02*
X119496969Y-89111506D01*
X119496969Y-89111506D02*
X119463635Y-89149602D01*
X119463635Y-89149602D02*
X119396969Y-89187697D01*
X119396969Y-89187697D02*
X119196969Y-89187697D01*
X119196969Y-89187697D02*
X119130302Y-89149602D01*
X119130302Y-89149602D02*
X119096969Y-89111506D01*
X120570301Y-89187697D02*
X120570301Y-88387697D01*
X120570301Y-88387697D02*
X120736968Y-88387697D01*
X120736968Y-88387697D02*
X120836968Y-88425792D01*
X120836968Y-88425792D02*
X120903635Y-88501982D01*
X120903635Y-88501982D02*
X120936968Y-88578173D01*
X120936968Y-88578173D02*
X120970301Y-88730554D01*
X120970301Y-88730554D02*
X120970301Y-88844840D01*
X120970301Y-88844840D02*
X120936968Y-88997221D01*
X120936968Y-88997221D02*
X120903635Y-89073411D01*
X120903635Y-89073411D02*
X120836968Y-89149602D01*
X120836968Y-89149602D02*
X120736968Y-89187697D01*
X120736968Y-89187697D02*
X120570301Y-89187697D01*
X121236968Y-89149602D02*
X121336968Y-89187697D01*
X121336968Y-89187697D02*
X121503635Y-89187697D01*
X121503635Y-89187697D02*
X121570301Y-89149602D01*
X121570301Y-89149602D02*
X121603635Y-89111506D01*
X121603635Y-89111506D02*
X121636968Y-89035316D01*
X121636968Y-89035316D02*
X121636968Y-88959125D01*
X121636968Y-88959125D02*
X121603635Y-88882935D01*
X121603635Y-88882935D02*
X121570301Y-88844840D01*
X121570301Y-88844840D02*
X121503635Y-88806744D01*
X121503635Y-88806744D02*
X121370301Y-88768649D01*
X121370301Y-88768649D02*
X121303635Y-88730554D01*
X121303635Y-88730554D02*
X121270301Y-88692459D01*
X121270301Y-88692459D02*
X121236968Y-88616268D01*
X121236968Y-88616268D02*
X121236968Y-88540078D01*
X121236968Y-88540078D02*
X121270301Y-88463887D01*
X121270301Y-88463887D02*
X121303635Y-88425792D01*
X121303635Y-88425792D02*
X121370301Y-88387697D01*
X121370301Y-88387697D02*
X121536968Y-88387697D01*
X121536968Y-88387697D02*
X121636968Y-88425792D01*
X122303635Y-89187697D02*
X121903635Y-89187697D01*
X122103635Y-89187697D02*
X122103635Y-88387697D01*
X122103635Y-88387697D02*
X122036968Y-88501982D01*
X122036968Y-88501982D02*
X121970302Y-88578173D01*
X121970302Y-88578173D02*
X121903635Y-88616268D01*
X122536969Y-88387697D02*
X122970302Y-88387697D01*
X122970302Y-88387697D02*
X122736969Y-88692459D01*
X122736969Y-88692459D02*
X122836969Y-88692459D01*
X122836969Y-88692459D02*
X122903635Y-88730554D01*
X122903635Y-88730554D02*
X122936969Y-88768649D01*
X122936969Y-88768649D02*
X122970302Y-88844840D01*
X122970302Y-88844840D02*
X122970302Y-89035316D01*
X122970302Y-89035316D02*
X122936969Y-89111506D01*
X122936969Y-89111506D02*
X122903635Y-89149602D01*
X122903635Y-89149602D02*
X122836969Y-89187697D01*
X122836969Y-89187697D02*
X122636969Y-89187697D01*
X122636969Y-89187697D02*
X122570302Y-89149602D01*
X122570302Y-89149602D02*
X122536969Y-89111506D01*
X123203636Y-88387697D02*
X123636969Y-88387697D01*
X123636969Y-88387697D02*
X123403636Y-88692459D01*
X123403636Y-88692459D02*
X123503636Y-88692459D01*
X123503636Y-88692459D02*
X123570302Y-88730554D01*
X123570302Y-88730554D02*
X123603636Y-88768649D01*
X123603636Y-88768649D02*
X123636969Y-88844840D01*
X123636969Y-88844840D02*
X123636969Y-89035316D01*
X123636969Y-89035316D02*
X123603636Y-89111506D01*
X123603636Y-89111506D02*
X123570302Y-89149602D01*
X123570302Y-89149602D02*
X123503636Y-89187697D01*
X123503636Y-89187697D02*
X123303636Y-89187697D01*
X123303636Y-89187697D02*
X123236969Y-89149602D01*
X123236969Y-89149602D02*
X123203636Y-89111506D01*
X123870303Y-88387697D02*
X124336969Y-88387697D01*
X124336969Y-88387697D02*
X124036969Y-89187697D01*
X124570303Y-89149602D02*
X124670303Y-89187697D01*
X124670303Y-89187697D02*
X124836970Y-89187697D01*
X124836970Y-89187697D02*
X124903636Y-89149602D01*
X124903636Y-89149602D02*
X124936970Y-89111506D01*
X124936970Y-89111506D02*
X124970303Y-89035316D01*
X124970303Y-89035316D02*
X124970303Y-88959125D01*
X124970303Y-88959125D02*
X124936970Y-88882935D01*
X124936970Y-88882935D02*
X124903636Y-88844840D01*
X124903636Y-88844840D02*
X124836970Y-88806744D01*
X124836970Y-88806744D02*
X124703636Y-88768649D01*
X124703636Y-88768649D02*
X124636970Y-88730554D01*
X124636970Y-88730554D02*
X124603636Y-88692459D01*
X124603636Y-88692459D02*
X124570303Y-88616268D01*
X124570303Y-88616268D02*
X124570303Y-88540078D01*
X124570303Y-88540078D02*
X124603636Y-88463887D01*
X124603636Y-88463887D02*
X124636970Y-88425792D01*
X124636970Y-88425792D02*
X124703636Y-88387697D01*
X124703636Y-88387697D02*
X124870303Y-88387697D01*
X124870303Y-88387697D02*
X124970303Y-88425792D01*
X128053333Y-105400995D02*
X127820000Y-105020042D01*
X127653333Y-105400995D02*
X127653333Y-104600995D01*
X127653333Y-104600995D02*
X127920000Y-104600995D01*
X127920000Y-104600995D02*
X127986667Y-104639090D01*
X127986667Y-104639090D02*
X128020000Y-104677185D01*
X128020000Y-104677185D02*
X128053333Y-104753376D01*
X128053333Y-104753376D02*
X128053333Y-104867661D01*
X128053333Y-104867661D02*
X128020000Y-104943852D01*
X128020000Y-104943852D02*
X127986667Y-104981947D01*
X127986667Y-104981947D02*
X127920000Y-105020042D01*
X127920000Y-105020042D02*
X127653333Y-105020042D01*
X128653333Y-104600995D02*
X128520000Y-104600995D01*
X128520000Y-104600995D02*
X128453333Y-104639090D01*
X128453333Y-104639090D02*
X128420000Y-104677185D01*
X128420000Y-104677185D02*
X128353333Y-104791471D01*
X128353333Y-104791471D02*
X128320000Y-104943852D01*
X128320000Y-104943852D02*
X128320000Y-105248614D01*
X128320000Y-105248614D02*
X128353333Y-105324804D01*
X128353333Y-105324804D02*
X128386667Y-105362900D01*
X128386667Y-105362900D02*
X128453333Y-105400995D01*
X128453333Y-105400995D02*
X128586667Y-105400995D01*
X128586667Y-105400995D02*
X128653333Y-105362900D01*
X128653333Y-105362900D02*
X128686667Y-105324804D01*
X128686667Y-105324804D02*
X128720000Y-105248614D01*
X128720000Y-105248614D02*
X128720000Y-105058138D01*
X128720000Y-105058138D02*
X128686667Y-104981947D01*
X128686667Y-104981947D02*
X128653333Y-104943852D01*
X128653333Y-104943852D02*
X128586667Y-104905757D01*
X128586667Y-104905757D02*
X128453333Y-104905757D01*
X128453333Y-104905757D02*
X128386667Y-104943852D01*
X128386667Y-104943852D02*
X128353333Y-104981947D01*
X128353333Y-104981947D02*
X128320000Y-105058138D01*
X124949999Y-106267661D02*
X124949999Y-106800995D01*
X124783333Y-105962900D02*
X124616666Y-106534328D01*
X124616666Y-106534328D02*
X125049999Y-106534328D01*
X125316666Y-106724804D02*
X125350000Y-106762900D01*
X125350000Y-106762900D02*
X125316666Y-106800995D01*
X125316666Y-106800995D02*
X125283333Y-106762900D01*
X125283333Y-106762900D02*
X125316666Y-106724804D01*
X125316666Y-106724804D02*
X125316666Y-106800995D01*
X125583333Y-106000995D02*
X126049999Y-106000995D01*
X126049999Y-106000995D02*
X125749999Y-106800995D01*
X126316666Y-106800995D02*
X126316666Y-106000995D01*
X126383333Y-106496233D02*
X126583333Y-106800995D01*
X126583333Y-106267661D02*
X126316666Y-106572423D01*
X136133333Y-84060995D02*
X135900000Y-83680042D01*
X135733333Y-84060995D02*
X135733333Y-83260995D01*
X135733333Y-83260995D02*
X136000000Y-83260995D01*
X136000000Y-83260995D02*
X136066667Y-83299090D01*
X136066667Y-83299090D02*
X136100000Y-83337185D01*
X136100000Y-83337185D02*
X136133333Y-83413376D01*
X136133333Y-83413376D02*
X136133333Y-83527661D01*
X136133333Y-83527661D02*
X136100000Y-83603852D01*
X136100000Y-83603852D02*
X136066667Y-83641947D01*
X136066667Y-83641947D02*
X136000000Y-83680042D01*
X136000000Y-83680042D02*
X135733333Y-83680042D01*
X136733333Y-83527661D02*
X136733333Y-84060995D01*
X136566667Y-83222900D02*
X136400000Y-83794328D01*
X136400000Y-83794328D02*
X136833333Y-83794328D01*
X138056969Y-85705697D02*
X137656969Y-85705697D01*
X137856969Y-85705697D02*
X137856969Y-84905697D01*
X137856969Y-84905697D02*
X137790302Y-85019982D01*
X137790302Y-85019982D02*
X137723636Y-85096173D01*
X137723636Y-85096173D02*
X137656969Y-85134268D01*
X138490303Y-84905697D02*
X138556969Y-84905697D01*
X138556969Y-84905697D02*
X138623636Y-84943792D01*
X138623636Y-84943792D02*
X138656969Y-84981887D01*
X138656969Y-84981887D02*
X138690303Y-85058078D01*
X138690303Y-85058078D02*
X138723636Y-85210459D01*
X138723636Y-85210459D02*
X138723636Y-85400935D01*
X138723636Y-85400935D02*
X138690303Y-85553316D01*
X138690303Y-85553316D02*
X138656969Y-85629506D01*
X138656969Y-85629506D02*
X138623636Y-85667602D01*
X138623636Y-85667602D02*
X138556969Y-85705697D01*
X138556969Y-85705697D02*
X138490303Y-85705697D01*
X138490303Y-85705697D02*
X138423636Y-85667602D01*
X138423636Y-85667602D02*
X138390303Y-85629506D01*
X138390303Y-85629506D02*
X138356969Y-85553316D01*
X138356969Y-85553316D02*
X138323636Y-85400935D01*
X138323636Y-85400935D02*
X138323636Y-85210459D01*
X138323636Y-85210459D02*
X138356969Y-85058078D01*
X138356969Y-85058078D02*
X138390303Y-84981887D01*
X138390303Y-84981887D02*
X138423636Y-84943792D01*
X138423636Y-84943792D02*
X138490303Y-84905697D01*
X139023636Y-85705697D02*
X139023636Y-84905697D01*
X139090303Y-85400935D02*
X139290303Y-85705697D01*
X139290303Y-85172363D02*
X139023636Y-85477125D01*
X114446667Y-94567840D02*
X114446667Y-94948793D01*
X114213333Y-94148793D02*
X114446667Y-94567840D01*
X114446667Y-94567840D02*
X114680000Y-94148793D01*
X115280000Y-94948793D02*
X114880000Y-94948793D01*
X115080000Y-94948793D02*
X115080000Y-94148793D01*
X115080000Y-94148793D02*
X115013333Y-94263078D01*
X115013333Y-94263078D02*
X114946667Y-94339269D01*
X114946667Y-94339269D02*
X114880000Y-94377364D01*
X117174631Y-102557500D02*
X117174631Y-102124166D01*
X117174631Y-102124166D02*
X117479393Y-102357500D01*
X117479393Y-102357500D02*
X117479393Y-102257500D01*
X117479393Y-102257500D02*
X117517488Y-102190833D01*
X117517488Y-102190833D02*
X117555583Y-102157500D01*
X117555583Y-102157500D02*
X117631774Y-102124166D01*
X117631774Y-102124166D02*
X117822250Y-102124166D01*
X117822250Y-102124166D02*
X117898440Y-102157500D01*
X117898440Y-102157500D02*
X117936536Y-102190833D01*
X117936536Y-102190833D02*
X117974631Y-102257500D01*
X117974631Y-102257500D02*
X117974631Y-102457500D01*
X117974631Y-102457500D02*
X117936536Y-102524166D01*
X117936536Y-102524166D02*
X117898440Y-102557500D01*
X117250821Y-101857499D02*
X117212726Y-101824166D01*
X117212726Y-101824166D02*
X117174631Y-101757499D01*
X117174631Y-101757499D02*
X117174631Y-101590833D01*
X117174631Y-101590833D02*
X117212726Y-101524166D01*
X117212726Y-101524166D02*
X117250821Y-101490833D01*
X117250821Y-101490833D02*
X117327012Y-101457499D01*
X117327012Y-101457499D02*
X117403202Y-101457499D01*
X117403202Y-101457499D02*
X117517488Y-101490833D01*
X117517488Y-101490833D02*
X117974631Y-101890833D01*
X117974631Y-101890833D02*
X117974631Y-101457499D01*
X117898440Y-101157499D02*
X117936536Y-101124166D01*
X117936536Y-101124166D02*
X117974631Y-101157499D01*
X117974631Y-101157499D02*
X117936536Y-101190832D01*
X117936536Y-101190832D02*
X117898440Y-101157499D01*
X117898440Y-101157499D02*
X117974631Y-101157499D01*
X117174631Y-100890833D02*
X117174631Y-100424166D01*
X117174631Y-100424166D02*
X117974631Y-100724166D01*
X117174631Y-99857499D02*
X117174631Y-99990832D01*
X117174631Y-99990832D02*
X117212726Y-100057499D01*
X117212726Y-100057499D02*
X117250821Y-100090832D01*
X117250821Y-100090832D02*
X117365107Y-100157499D01*
X117365107Y-100157499D02*
X117517488Y-100190832D01*
X117517488Y-100190832D02*
X117822250Y-100190832D01*
X117822250Y-100190832D02*
X117898440Y-100157499D01*
X117898440Y-100157499D02*
X117936536Y-100124166D01*
X117936536Y-100124166D02*
X117974631Y-100057499D01*
X117974631Y-100057499D02*
X117974631Y-99924166D01*
X117974631Y-99924166D02*
X117936536Y-99857499D01*
X117936536Y-99857499D02*
X117898440Y-99824166D01*
X117898440Y-99824166D02*
X117822250Y-99790832D01*
X117822250Y-99790832D02*
X117631774Y-99790832D01*
X117631774Y-99790832D02*
X117555583Y-99824166D01*
X117555583Y-99824166D02*
X117517488Y-99857499D01*
X117517488Y-99857499D02*
X117479393Y-99924166D01*
X117479393Y-99924166D02*
X117479393Y-100057499D01*
X117479393Y-100057499D02*
X117517488Y-100124166D01*
X117517488Y-100124166D02*
X117555583Y-100157499D01*
X117555583Y-100157499D02*
X117631774Y-100190832D01*
X117517488Y-99390832D02*
X117479393Y-99457499D01*
X117479393Y-99457499D02*
X117441297Y-99490832D01*
X117441297Y-99490832D02*
X117365107Y-99524165D01*
X117365107Y-99524165D02*
X117327012Y-99524165D01*
X117327012Y-99524165D02*
X117250821Y-99490832D01*
X117250821Y-99490832D02*
X117212726Y-99457499D01*
X117212726Y-99457499D02*
X117174631Y-99390832D01*
X117174631Y-99390832D02*
X117174631Y-99257499D01*
X117174631Y-99257499D02*
X117212726Y-99190832D01*
X117212726Y-99190832D02*
X117250821Y-99157499D01*
X117250821Y-99157499D02*
X117327012Y-99124165D01*
X117327012Y-99124165D02*
X117365107Y-99124165D01*
X117365107Y-99124165D02*
X117441297Y-99157499D01*
X117441297Y-99157499D02*
X117479393Y-99190832D01*
X117479393Y-99190832D02*
X117517488Y-99257499D01*
X117517488Y-99257499D02*
X117517488Y-99390832D01*
X117517488Y-99390832D02*
X117555583Y-99457499D01*
X117555583Y-99457499D02*
X117593678Y-99490832D01*
X117593678Y-99490832D02*
X117669869Y-99524165D01*
X117669869Y-99524165D02*
X117822250Y-99524165D01*
X117822250Y-99524165D02*
X117898440Y-99490832D01*
X117898440Y-99490832D02*
X117936536Y-99457499D01*
X117936536Y-99457499D02*
X117974631Y-99390832D01*
X117974631Y-99390832D02*
X117974631Y-99257499D01*
X117974631Y-99257499D02*
X117936536Y-99190832D01*
X117936536Y-99190832D02*
X117898440Y-99157499D01*
X117898440Y-99157499D02*
X117822250Y-99124165D01*
X117822250Y-99124165D02*
X117669869Y-99124165D01*
X117669869Y-99124165D02*
X117593678Y-99157499D01*
X117593678Y-99157499D02*
X117555583Y-99190832D01*
X117555583Y-99190832D02*
X117517488Y-99257499D01*
X117974631Y-98290832D02*
X117174631Y-98290832D01*
X117974631Y-97890832D02*
X117517488Y-98190832D01*
X117174631Y-97890832D02*
X117631774Y-98290832D01*
X117974631Y-97590832D02*
X117174631Y-97590832D01*
X117555583Y-97590832D02*
X117555583Y-97190832D01*
X117974631Y-97190832D02*
X117174631Y-97190832D01*
X117441297Y-96924166D02*
X117441297Y-96557499D01*
X117441297Y-96557499D02*
X117974631Y-96924166D01*
X117974631Y-96924166D02*
X117974631Y-96557499D01*
X123223333Y-105550995D02*
X122990000Y-105170042D01*
X122823333Y-105550995D02*
X122823333Y-104750995D01*
X122823333Y-104750995D02*
X123090000Y-104750995D01*
X123090000Y-104750995D02*
X123156667Y-104789090D01*
X123156667Y-104789090D02*
X123190000Y-104827185D01*
X123190000Y-104827185D02*
X123223333Y-104903376D01*
X123223333Y-104903376D02*
X123223333Y-105017661D01*
X123223333Y-105017661D02*
X123190000Y-105093852D01*
X123190000Y-105093852D02*
X123156667Y-105131947D01*
X123156667Y-105131947D02*
X123090000Y-105170042D01*
X123090000Y-105170042D02*
X122823333Y-105170042D01*
X123856667Y-104750995D02*
X123523333Y-104750995D01*
X123523333Y-104750995D02*
X123490000Y-105131947D01*
X123490000Y-105131947D02*
X123523333Y-105093852D01*
X123523333Y-105093852D02*
X123590000Y-105055757D01*
X123590000Y-105055757D02*
X123756667Y-105055757D01*
X123756667Y-105055757D02*
X123823333Y-105093852D01*
X123823333Y-105093852D02*
X123856667Y-105131947D01*
X123856667Y-105131947D02*
X123890000Y-105208138D01*
X123890000Y-105208138D02*
X123890000Y-105398614D01*
X123890000Y-105398614D02*
X123856667Y-105474804D01*
X123856667Y-105474804D02*
X123823333Y-105512900D01*
X123823333Y-105512900D02*
X123756667Y-105550995D01*
X123756667Y-105550995D02*
X123590000Y-105550995D01*
X123590000Y-105550995D02*
X123523333Y-105512900D01*
X123523333Y-105512900D02*
X123490000Y-105474804D01*
X120149999Y-106267661D02*
X120149999Y-106800995D01*
X119983333Y-105962900D02*
X119816666Y-106534328D01*
X119816666Y-106534328D02*
X120249999Y-106534328D01*
X120516666Y-106724804D02*
X120550000Y-106762900D01*
X120550000Y-106762900D02*
X120516666Y-106800995D01*
X120516666Y-106800995D02*
X120483333Y-106762900D01*
X120483333Y-106762900D02*
X120516666Y-106724804D01*
X120516666Y-106724804D02*
X120516666Y-106800995D01*
X120783333Y-106000995D02*
X121249999Y-106000995D01*
X121249999Y-106000995D02*
X120949999Y-106800995D01*
X121516666Y-106800995D02*
X121516666Y-106000995D01*
X121583333Y-106496233D02*
X121783333Y-106800995D01*
X121783333Y-106267661D02*
X121516666Y-106572423D01*
X141584631Y-110048035D02*
X142156059Y-110048035D01*
X142156059Y-110048035D02*
X142270345Y-110081368D01*
X142270345Y-110081368D02*
X142346536Y-110148035D01*
X142346536Y-110148035D02*
X142384631Y-110248035D01*
X142384631Y-110248035D02*
X142384631Y-110314702D01*
X141660821Y-109748035D02*
X141622726Y-109714702D01*
X141622726Y-109714702D02*
X141584631Y-109648035D01*
X141584631Y-109648035D02*
X141584631Y-109481369D01*
X141584631Y-109481369D02*
X141622726Y-109414702D01*
X141622726Y-109414702D02*
X141660821Y-109381369D01*
X141660821Y-109381369D02*
X141737012Y-109348035D01*
X141737012Y-109348035D02*
X141813202Y-109348035D01*
X141813202Y-109348035D02*
X141927488Y-109381369D01*
X141927488Y-109381369D02*
X142384631Y-109781369D01*
X142384631Y-109781369D02*
X142384631Y-109348035D01*
X118430302Y-95663197D02*
X118430302Y-96310816D01*
X118430302Y-96310816D02*
X118463636Y-96387006D01*
X118463636Y-96387006D02*
X118496969Y-96425102D01*
X118496969Y-96425102D02*
X118563636Y-96463197D01*
X118563636Y-96463197D02*
X118696969Y-96463197D01*
X118696969Y-96463197D02*
X118763636Y-96425102D01*
X118763636Y-96425102D02*
X118796969Y-96387006D01*
X118796969Y-96387006D02*
X118830302Y-96310816D01*
X118830302Y-96310816D02*
X118830302Y-95663197D01*
X119530302Y-96463197D02*
X119130302Y-96463197D01*
X119330302Y-96463197D02*
X119330302Y-95663197D01*
X119330302Y-95663197D02*
X119263635Y-95777482D01*
X119263635Y-95777482D02*
X119196969Y-95853673D01*
X119196969Y-95853673D02*
X119130302Y-95891768D01*
X120283635Y-95739387D02*
X120316968Y-95701292D01*
X120316968Y-95701292D02*
X120383635Y-95663197D01*
X120383635Y-95663197D02*
X120550302Y-95663197D01*
X120550302Y-95663197D02*
X120616968Y-95701292D01*
X120616968Y-95701292D02*
X120650302Y-95739387D01*
X120650302Y-95739387D02*
X120683635Y-95815578D01*
X120683635Y-95815578D02*
X120683635Y-95891768D01*
X120683635Y-95891768D02*
X120650302Y-96006054D01*
X120650302Y-96006054D02*
X120250302Y-96463197D01*
X120250302Y-96463197D02*
X120683635Y-96463197D01*
X121283635Y-95929863D02*
X121283635Y-96463197D01*
X121116969Y-95625102D02*
X120950302Y-96196530D01*
X120950302Y-96196530D02*
X121383635Y-96196530D01*
X121983636Y-96463197D02*
X121650302Y-96463197D01*
X121650302Y-96463197D02*
X121650302Y-95663197D01*
X122616969Y-96387006D02*
X122583636Y-96425102D01*
X122583636Y-96425102D02*
X122483636Y-96463197D01*
X122483636Y-96463197D02*
X122416969Y-96463197D01*
X122416969Y-96463197D02*
X122316969Y-96425102D01*
X122316969Y-96425102D02*
X122250303Y-96348911D01*
X122250303Y-96348911D02*
X122216969Y-96272721D01*
X122216969Y-96272721D02*
X122183636Y-96120340D01*
X122183636Y-96120340D02*
X122183636Y-96006054D01*
X122183636Y-96006054D02*
X122216969Y-95853673D01*
X122216969Y-95853673D02*
X122250303Y-95777482D01*
X122250303Y-95777482D02*
X122316969Y-95701292D01*
X122316969Y-95701292D02*
X122416969Y-95663197D01*
X122416969Y-95663197D02*
X122483636Y-95663197D01*
X122483636Y-95663197D02*
X122583636Y-95701292D01*
X122583636Y-95701292D02*
X122616969Y-95739387D01*
X123283636Y-96463197D02*
X122883636Y-96463197D01*
X123083636Y-96463197D02*
X123083636Y-95663197D01*
X123083636Y-95663197D02*
X123016969Y-95777482D01*
X123016969Y-95777482D02*
X122950303Y-95853673D01*
X122950303Y-95853673D02*
X122883636Y-95891768D01*
X123716970Y-95663197D02*
X123783636Y-95663197D01*
X123783636Y-95663197D02*
X123850303Y-95701292D01*
X123850303Y-95701292D02*
X123883636Y-95739387D01*
X123883636Y-95739387D02*
X123916970Y-95815578D01*
X123916970Y-95815578D02*
X123950303Y-95967959D01*
X123950303Y-95967959D02*
X123950303Y-96158435D01*
X123950303Y-96158435D02*
X123916970Y-96310816D01*
X123916970Y-96310816D02*
X123883636Y-96387006D01*
X123883636Y-96387006D02*
X123850303Y-96425102D01*
X123850303Y-96425102D02*
X123783636Y-96463197D01*
X123783636Y-96463197D02*
X123716970Y-96463197D01*
X123716970Y-96463197D02*
X123650303Y-96425102D01*
X123650303Y-96425102D02*
X123616970Y-96387006D01*
X123616970Y-96387006D02*
X123583636Y-96310816D01*
X123583636Y-96310816D02*
X123550303Y-96158435D01*
X123550303Y-96158435D02*
X123550303Y-95967959D01*
X123550303Y-95967959D02*
X123583636Y-95815578D01*
X123583636Y-95815578D02*
X123616970Y-95739387D01*
X123616970Y-95739387D02*
X123650303Y-95701292D01*
X123650303Y-95701292D02*
X123716970Y-95663197D01*
X124216970Y-95739387D02*
X124250303Y-95701292D01*
X124250303Y-95701292D02*
X124316970Y-95663197D01*
X124316970Y-95663197D02*
X124483637Y-95663197D01*
X124483637Y-95663197D02*
X124550303Y-95701292D01*
X124550303Y-95701292D02*
X124583637Y-95739387D01*
X124583637Y-95739387D02*
X124616970Y-95815578D01*
X124616970Y-95815578D02*
X124616970Y-95891768D01*
X124616970Y-95891768D02*
X124583637Y-96006054D01*
X124583637Y-96006054D02*
X124183637Y-96463197D01*
X124183637Y-96463197D02*
X124616970Y-96463197D01*
X125250304Y-95663197D02*
X124916970Y-95663197D01*
X124916970Y-95663197D02*
X124883637Y-96044149D01*
X124883637Y-96044149D02*
X124916970Y-96006054D01*
X124916970Y-96006054D02*
X124983637Y-95967959D01*
X124983637Y-95967959D02*
X125150304Y-95967959D01*
X125150304Y-95967959D02*
X125216970Y-96006054D01*
X125216970Y-96006054D02*
X125250304Y-96044149D01*
X125250304Y-96044149D02*
X125283637Y-96120340D01*
X125283637Y-96120340D02*
X125283637Y-96310816D01*
X125283637Y-96310816D02*
X125250304Y-96387006D01*
X125250304Y-96387006D02*
X125216970Y-96425102D01*
X125216970Y-96425102D02*
X125150304Y-96463197D01*
X125150304Y-96463197D02*
X124983637Y-96463197D01*
X124983637Y-96463197D02*
X124916970Y-96425102D01*
X124916970Y-96425102D02*
X124883637Y-96387006D01*
X134480302Y-85445697D02*
X134480302Y-86093316D01*
X134480302Y-86093316D02*
X134513636Y-86169506D01*
X134513636Y-86169506D02*
X134546969Y-86207602D01*
X134546969Y-86207602D02*
X134613636Y-86245697D01*
X134613636Y-86245697D02*
X134746969Y-86245697D01*
X134746969Y-86245697D02*
X134813636Y-86207602D01*
X134813636Y-86207602D02*
X134846969Y-86169506D01*
X134846969Y-86169506D02*
X134880302Y-86093316D01*
X134880302Y-86093316D02*
X134880302Y-85445697D01*
X135513635Y-85712363D02*
X135513635Y-86245697D01*
X135346969Y-85407602D02*
X135180302Y-85979030D01*
X135180302Y-85979030D02*
X135613635Y-85979030D01*
X130413636Y-97757125D02*
X130746969Y-97757125D01*
X130346969Y-97985697D02*
X130580303Y-97185697D01*
X130580303Y-97185697D02*
X130813636Y-97985697D01*
X130946969Y-97185697D02*
X131346969Y-97185697D01*
X131146969Y-97985697D02*
X131146969Y-97185697D01*
X131580302Y-97985697D02*
X131580302Y-97185697D01*
X131580302Y-97185697D02*
X131813636Y-97757125D01*
X131813636Y-97757125D02*
X132046969Y-97185697D01*
X132046969Y-97185697D02*
X132046969Y-97985697D01*
X132380302Y-97566649D02*
X132613636Y-97566649D01*
X132713636Y-97985697D02*
X132380302Y-97985697D01*
X132380302Y-97985697D02*
X132380302Y-97185697D01*
X132380302Y-97185697D02*
X132713636Y-97185697D01*
X133380302Y-97223792D02*
X133313635Y-97185697D01*
X133313635Y-97185697D02*
X133213635Y-97185697D01*
X133213635Y-97185697D02*
X133113635Y-97223792D01*
X133113635Y-97223792D02*
X133046969Y-97299982D01*
X133046969Y-97299982D02*
X133013635Y-97376173D01*
X133013635Y-97376173D02*
X132980302Y-97528554D01*
X132980302Y-97528554D02*
X132980302Y-97642840D01*
X132980302Y-97642840D02*
X133013635Y-97795221D01*
X133013635Y-97795221D02*
X133046969Y-97871411D01*
X133046969Y-97871411D02*
X133113635Y-97947602D01*
X133113635Y-97947602D02*
X133213635Y-97985697D01*
X133213635Y-97985697D02*
X133280302Y-97985697D01*
X133280302Y-97985697D02*
X133380302Y-97947602D01*
X133380302Y-97947602D02*
X133413635Y-97909506D01*
X133413635Y-97909506D02*
X133413635Y-97642840D01*
X133413635Y-97642840D02*
X133280302Y-97642840D01*
X133680302Y-97757125D02*
X134013635Y-97757125D01*
X133613635Y-97985697D02*
X133846969Y-97185697D01*
X133846969Y-97185697D02*
X134080302Y-97985697D01*
X134246969Y-97185697D02*
X134680302Y-97185697D01*
X134680302Y-97185697D02*
X134446969Y-97490459D01*
X134446969Y-97490459D02*
X134546969Y-97490459D01*
X134546969Y-97490459D02*
X134613635Y-97528554D01*
X134613635Y-97528554D02*
X134646969Y-97566649D01*
X134646969Y-97566649D02*
X134680302Y-97642840D01*
X134680302Y-97642840D02*
X134680302Y-97833316D01*
X134680302Y-97833316D02*
X134646969Y-97909506D01*
X134646969Y-97909506D02*
X134613635Y-97947602D01*
X134613635Y-97947602D02*
X134546969Y-97985697D01*
X134546969Y-97985697D02*
X134346969Y-97985697D01*
X134346969Y-97985697D02*
X134280302Y-97947602D01*
X134280302Y-97947602D02*
X134246969Y-97909506D01*
X134946969Y-97261887D02*
X134980302Y-97223792D01*
X134980302Y-97223792D02*
X135046969Y-97185697D01*
X135046969Y-97185697D02*
X135213636Y-97185697D01*
X135213636Y-97185697D02*
X135280302Y-97223792D01*
X135280302Y-97223792D02*
X135313636Y-97261887D01*
X135313636Y-97261887D02*
X135346969Y-97338078D01*
X135346969Y-97338078D02*
X135346969Y-97414268D01*
X135346969Y-97414268D02*
X135313636Y-97528554D01*
X135313636Y-97528554D02*
X134913636Y-97985697D01*
X134913636Y-97985697D02*
X135346969Y-97985697D01*
X135746969Y-97528554D02*
X135680303Y-97490459D01*
X135680303Y-97490459D02*
X135646969Y-97452363D01*
X135646969Y-97452363D02*
X135613636Y-97376173D01*
X135613636Y-97376173D02*
X135613636Y-97338078D01*
X135613636Y-97338078D02*
X135646969Y-97261887D01*
X135646969Y-97261887D02*
X135680303Y-97223792D01*
X135680303Y-97223792D02*
X135746969Y-97185697D01*
X135746969Y-97185697D02*
X135880303Y-97185697D01*
X135880303Y-97185697D02*
X135946969Y-97223792D01*
X135946969Y-97223792D02*
X135980303Y-97261887D01*
X135980303Y-97261887D02*
X136013636Y-97338078D01*
X136013636Y-97338078D02*
X136013636Y-97376173D01*
X136013636Y-97376173D02*
X135980303Y-97452363D01*
X135980303Y-97452363D02*
X135946969Y-97490459D01*
X135946969Y-97490459D02*
X135880303Y-97528554D01*
X135880303Y-97528554D02*
X135746969Y-97528554D01*
X135746969Y-97528554D02*
X135680303Y-97566649D01*
X135680303Y-97566649D02*
X135646969Y-97604744D01*
X135646969Y-97604744D02*
X135613636Y-97680935D01*
X135613636Y-97680935D02*
X135613636Y-97833316D01*
X135613636Y-97833316D02*
X135646969Y-97909506D01*
X135646969Y-97909506D02*
X135680303Y-97947602D01*
X135680303Y-97947602D02*
X135746969Y-97985697D01*
X135746969Y-97985697D02*
X135880303Y-97985697D01*
X135880303Y-97985697D02*
X135946969Y-97947602D01*
X135946969Y-97947602D02*
X135980303Y-97909506D01*
X135980303Y-97909506D02*
X136013636Y-97833316D01*
X136013636Y-97833316D02*
X136013636Y-97680935D01*
X136013636Y-97680935D02*
X135980303Y-97604744D01*
X135980303Y-97604744D02*
X135946969Y-97566649D01*
X135946969Y-97566649D02*
X135880303Y-97528554D01*
X136313636Y-97985697D02*
X136313636Y-97185697D01*
X136313636Y-97185697D02*
X136580303Y-97185697D01*
X136580303Y-97185697D02*
X136646970Y-97223792D01*
X136646970Y-97223792D02*
X136680303Y-97261887D01*
X136680303Y-97261887D02*
X136713636Y-97338078D01*
X136713636Y-97338078D02*
X136713636Y-97452363D01*
X136713636Y-97452363D02*
X136680303Y-97528554D01*
X136680303Y-97528554D02*
X136646970Y-97566649D01*
X136646970Y-97566649D02*
X136580303Y-97604744D01*
X136580303Y-97604744D02*
X136313636Y-97604744D01*
X137013636Y-97680935D02*
X137546970Y-97680935D01*
X137846970Y-97757125D02*
X138180303Y-97757125D01*
X137780303Y-97985697D02*
X138013637Y-97185697D01*
X138013637Y-97185697D02*
X138246970Y-97985697D01*
X138480303Y-97185697D02*
X138480303Y-97833316D01*
X138480303Y-97833316D02*
X138513637Y-97909506D01*
X138513637Y-97909506D02*
X138546970Y-97947602D01*
X138546970Y-97947602D02*
X138613637Y-97985697D01*
X138613637Y-97985697D02*
X138746970Y-97985697D01*
X138746970Y-97985697D02*
X138813637Y-97947602D01*
X138813637Y-97947602D02*
X138846970Y-97909506D01*
X138846970Y-97909506D02*
X138880303Y-97833316D01*
X138880303Y-97833316D02*
X138880303Y-97185697D01*
X143366969Y-87270995D02*
X143133636Y-86890042D01*
X142966969Y-87270995D02*
X142966969Y-86470995D01*
X142966969Y-86470995D02*
X143233636Y-86470995D01*
X143233636Y-86470995D02*
X143300303Y-86509090D01*
X143300303Y-86509090D02*
X143333636Y-86547185D01*
X143333636Y-86547185D02*
X143366969Y-86623376D01*
X143366969Y-86623376D02*
X143366969Y-86737661D01*
X143366969Y-86737661D02*
X143333636Y-86813852D01*
X143333636Y-86813852D02*
X143300303Y-86851947D01*
X143300303Y-86851947D02*
X143233636Y-86890042D01*
X143233636Y-86890042D02*
X142966969Y-86890042D01*
X144033636Y-87270995D02*
X143633636Y-87270995D01*
X143833636Y-87270995D02*
X143833636Y-86470995D01*
X143833636Y-86470995D02*
X143766969Y-86585280D01*
X143766969Y-86585280D02*
X143700303Y-86661471D01*
X143700303Y-86661471D02*
X143633636Y-86699566D01*
X142583636Y-89420995D02*
X143016969Y-89420995D01*
X143016969Y-89420995D02*
X142783636Y-89725757D01*
X142783636Y-89725757D02*
X142883636Y-89725757D01*
X142883636Y-89725757D02*
X142950302Y-89763852D01*
X142950302Y-89763852D02*
X142983636Y-89801947D01*
X142983636Y-89801947D02*
X143016969Y-89878138D01*
X143016969Y-89878138D02*
X143016969Y-90068614D01*
X143016969Y-90068614D02*
X142983636Y-90144804D01*
X142983636Y-90144804D02*
X142950302Y-90182900D01*
X142950302Y-90182900D02*
X142883636Y-90220995D01*
X142883636Y-90220995D02*
X142683636Y-90220995D01*
X142683636Y-90220995D02*
X142616969Y-90182900D01*
X142616969Y-90182900D02*
X142583636Y-90144804D01*
X143250303Y-89420995D02*
X143683636Y-89420995D01*
X143683636Y-89420995D02*
X143450303Y-89725757D01*
X143450303Y-89725757D02*
X143550303Y-89725757D01*
X143550303Y-89725757D02*
X143616969Y-89763852D01*
X143616969Y-89763852D02*
X143650303Y-89801947D01*
X143650303Y-89801947D02*
X143683636Y-89878138D01*
X143683636Y-89878138D02*
X143683636Y-90068614D01*
X143683636Y-90068614D02*
X143650303Y-90144804D01*
X143650303Y-90144804D02*
X143616969Y-90182900D01*
X143616969Y-90182900D02*
X143550303Y-90220995D01*
X143550303Y-90220995D02*
X143350303Y-90220995D01*
X143350303Y-90220995D02*
X143283636Y-90182900D01*
X143283636Y-90182900D02*
X143250303Y-90144804D01*
X144116970Y-89420995D02*
X144183636Y-89420995D01*
X144183636Y-89420995D02*
X144250303Y-89459090D01*
X144250303Y-89459090D02*
X144283636Y-89497185D01*
X144283636Y-89497185D02*
X144316970Y-89573376D01*
X144316970Y-89573376D02*
X144350303Y-89725757D01*
X144350303Y-89725757D02*
X144350303Y-89916233D01*
X144350303Y-89916233D02*
X144316970Y-90068614D01*
X144316970Y-90068614D02*
X144283636Y-90144804D01*
X144283636Y-90144804D02*
X144250303Y-90182900D01*
X144250303Y-90182900D02*
X144183636Y-90220995D01*
X144183636Y-90220995D02*
X144116970Y-90220995D01*
X144116970Y-90220995D02*
X144050303Y-90182900D01*
X144050303Y-90182900D02*
X144016970Y-90144804D01*
X144016970Y-90144804D02*
X143983636Y-90068614D01*
X143983636Y-90068614D02*
X143950303Y-89916233D01*
X143950303Y-89916233D02*
X143950303Y-89725757D01*
X143950303Y-89725757D02*
X143983636Y-89573376D01*
X143983636Y-89573376D02*
X144016970Y-89497185D01*
X144016970Y-89497185D02*
X144050303Y-89459090D01*
X144050303Y-89459090D02*
X144116970Y-89420995D01*
X147976969Y-96544804D02*
X147943636Y-96582900D01*
X147943636Y-96582900D02*
X147843636Y-96620995D01*
X147843636Y-96620995D02*
X147776969Y-96620995D01*
X147776969Y-96620995D02*
X147676969Y-96582900D01*
X147676969Y-96582900D02*
X147610303Y-96506709D01*
X147610303Y-96506709D02*
X147576969Y-96430519D01*
X147576969Y-96430519D02*
X147543636Y-96278138D01*
X147543636Y-96278138D02*
X147543636Y-96163852D01*
X147543636Y-96163852D02*
X147576969Y-96011471D01*
X147576969Y-96011471D02*
X147610303Y-95935280D01*
X147610303Y-95935280D02*
X147676969Y-95859090D01*
X147676969Y-95859090D02*
X147776969Y-95820995D01*
X147776969Y-95820995D02*
X147843636Y-95820995D01*
X147843636Y-95820995D02*
X147943636Y-95859090D01*
X147943636Y-95859090D02*
X147976969Y-95897185D01*
X148576969Y-96087661D02*
X148576969Y-96620995D01*
X148410303Y-95782900D02*
X148243636Y-96354328D01*
X148243636Y-96354328D02*
X148676969Y-96354328D01*
X146943636Y-98750995D02*
X147010302Y-98750995D01*
X147010302Y-98750995D02*
X147076969Y-98789090D01*
X147076969Y-98789090D02*
X147110302Y-98827185D01*
X147110302Y-98827185D02*
X147143636Y-98903376D01*
X147143636Y-98903376D02*
X147176969Y-99055757D01*
X147176969Y-99055757D02*
X147176969Y-99246233D01*
X147176969Y-99246233D02*
X147143636Y-99398614D01*
X147143636Y-99398614D02*
X147110302Y-99474804D01*
X147110302Y-99474804D02*
X147076969Y-99512900D01*
X147076969Y-99512900D02*
X147010302Y-99550995D01*
X147010302Y-99550995D02*
X146943636Y-99550995D01*
X146943636Y-99550995D02*
X146876969Y-99512900D01*
X146876969Y-99512900D02*
X146843636Y-99474804D01*
X146843636Y-99474804D02*
X146810302Y-99398614D01*
X146810302Y-99398614D02*
X146776969Y-99246233D01*
X146776969Y-99246233D02*
X146776969Y-99055757D01*
X146776969Y-99055757D02*
X146810302Y-98903376D01*
X146810302Y-98903376D02*
X146843636Y-98827185D01*
X146843636Y-98827185D02*
X146876969Y-98789090D01*
X146876969Y-98789090D02*
X146943636Y-98750995D01*
X147476969Y-99474804D02*
X147510303Y-99512900D01*
X147510303Y-99512900D02*
X147476969Y-99550995D01*
X147476969Y-99550995D02*
X147443636Y-99512900D01*
X147443636Y-99512900D02*
X147476969Y-99474804D01*
X147476969Y-99474804D02*
X147476969Y-99550995D01*
X148176969Y-99550995D02*
X147776969Y-99550995D01*
X147976969Y-99550995D02*
X147976969Y-98750995D01*
X147976969Y-98750995D02*
X147910302Y-98865280D01*
X147910302Y-98865280D02*
X147843636Y-98941471D01*
X147843636Y-98941471D02*
X147776969Y-98979566D01*
X148776969Y-99017661D02*
X148776969Y-99550995D01*
X148476969Y-99017661D02*
X148476969Y-99436709D01*
X148476969Y-99436709D02*
X148510303Y-99512900D01*
X148510303Y-99512900D02*
X148576969Y-99550995D01*
X148576969Y-99550995D02*
X148676969Y-99550995D01*
X148676969Y-99550995D02*
X148743636Y-99512900D01*
X148743636Y-99512900D02*
X148776969Y-99474804D01*
X149343636Y-99131947D02*
X149110302Y-99131947D01*
X149110302Y-99550995D02*
X149110302Y-98750995D01*
X149110302Y-98750995D02*
X149443636Y-98750995D01*
X149853333Y-83960995D02*
X149853333Y-83160995D01*
X149853333Y-83160995D02*
X150020000Y-83160995D01*
X150020000Y-83160995D02*
X150120000Y-83199090D01*
X150120000Y-83199090D02*
X150186667Y-83275280D01*
X150186667Y-83275280D02*
X150220000Y-83351471D01*
X150220000Y-83351471D02*
X150253333Y-83503852D01*
X150253333Y-83503852D02*
X150253333Y-83618138D01*
X150253333Y-83618138D02*
X150220000Y-83770519D01*
X150220000Y-83770519D02*
X150186667Y-83846709D01*
X150186667Y-83846709D02*
X150120000Y-83922900D01*
X150120000Y-83922900D02*
X150020000Y-83960995D01*
X150020000Y-83960995D02*
X149853333Y-83960995D01*
X150520000Y-83237185D02*
X150553333Y-83199090D01*
X150553333Y-83199090D02*
X150620000Y-83160995D01*
X150620000Y-83160995D02*
X150786667Y-83160995D01*
X150786667Y-83160995D02*
X150853333Y-83199090D01*
X150853333Y-83199090D02*
X150886667Y-83237185D01*
X150886667Y-83237185D02*
X150920000Y-83313376D01*
X150920000Y-83313376D02*
X150920000Y-83389566D01*
X150920000Y-83389566D02*
X150886667Y-83503852D01*
X150886667Y-83503852D02*
X150486667Y-83960995D01*
X150486667Y-83960995D02*
X150920000Y-83960995D01*
X147663636Y-85750697D02*
X147330302Y-85750697D01*
X147330302Y-85750697D02*
X147330302Y-84950697D01*
X147896969Y-85331649D02*
X148130303Y-85331649D01*
X148230303Y-85750697D02*
X147896969Y-85750697D01*
X147896969Y-85750697D02*
X147896969Y-84950697D01*
X147896969Y-84950697D02*
X148230303Y-84950697D01*
X148530302Y-85750697D02*
X148530302Y-84950697D01*
X148530302Y-84950697D02*
X148696969Y-84950697D01*
X148696969Y-84950697D02*
X148796969Y-84988792D01*
X148796969Y-84988792D02*
X148863636Y-85064982D01*
X148863636Y-85064982D02*
X148896969Y-85141173D01*
X148896969Y-85141173D02*
X148930302Y-85293554D01*
X148930302Y-85293554D02*
X148930302Y-85407840D01*
X148930302Y-85407840D02*
X148896969Y-85560221D01*
X148896969Y-85560221D02*
X148863636Y-85636411D01*
X148863636Y-85636411D02*
X148796969Y-85712602D01*
X148796969Y-85712602D02*
X148696969Y-85750697D01*
X148696969Y-85750697D02*
X148530302Y-85750697D01*
X140643333Y-83960995D02*
X140643333Y-83160995D01*
X140643333Y-83160995D02*
X140810000Y-83160995D01*
X140810000Y-83160995D02*
X140910000Y-83199090D01*
X140910000Y-83199090D02*
X140976667Y-83275280D01*
X140976667Y-83275280D02*
X141010000Y-83351471D01*
X141010000Y-83351471D02*
X141043333Y-83503852D01*
X141043333Y-83503852D02*
X141043333Y-83618138D01*
X141043333Y-83618138D02*
X141010000Y-83770519D01*
X141010000Y-83770519D02*
X140976667Y-83846709D01*
X140976667Y-83846709D02*
X140910000Y-83922900D01*
X140910000Y-83922900D02*
X140810000Y-83960995D01*
X140810000Y-83960995D02*
X140643333Y-83960995D01*
X141710000Y-83960995D02*
X141310000Y-83960995D01*
X141510000Y-83960995D02*
X141510000Y-83160995D01*
X141510000Y-83160995D02*
X141443333Y-83275280D01*
X141443333Y-83275280D02*
X141376667Y-83351471D01*
X141376667Y-83351471D02*
X141310000Y-83389566D01*
X143163636Y-85750697D02*
X142830302Y-85750697D01*
X142830302Y-85750697D02*
X142830302Y-84950697D01*
X143396969Y-85331649D02*
X143630303Y-85331649D01*
X143730303Y-85750697D02*
X143396969Y-85750697D01*
X143396969Y-85750697D02*
X143396969Y-84950697D01*
X143396969Y-84950697D02*
X143730303Y-84950697D01*
X144030302Y-85750697D02*
X144030302Y-84950697D01*
X144030302Y-84950697D02*
X144196969Y-84950697D01*
X144196969Y-84950697D02*
X144296969Y-84988792D01*
X144296969Y-84988792D02*
X144363636Y-85064982D01*
X144363636Y-85064982D02*
X144396969Y-85141173D01*
X144396969Y-85141173D02*
X144430302Y-85293554D01*
X144430302Y-85293554D02*
X144430302Y-85407840D01*
X144430302Y-85407840D02*
X144396969Y-85560221D01*
X144396969Y-85560221D02*
X144363636Y-85636411D01*
X144363636Y-85636411D02*
X144296969Y-85712602D01*
X144296969Y-85712602D02*
X144196969Y-85750697D01*
X144196969Y-85750697D02*
X144030302Y-85750697D01*
X132893333Y-84060995D02*
X132660000Y-83680042D01*
X132493333Y-84060995D02*
X132493333Y-83260995D01*
X132493333Y-83260995D02*
X132760000Y-83260995D01*
X132760000Y-83260995D02*
X132826667Y-83299090D01*
X132826667Y-83299090D02*
X132860000Y-83337185D01*
X132860000Y-83337185D02*
X132893333Y-83413376D01*
X132893333Y-83413376D02*
X132893333Y-83527661D01*
X132893333Y-83527661D02*
X132860000Y-83603852D01*
X132860000Y-83603852D02*
X132826667Y-83641947D01*
X132826667Y-83641947D02*
X132760000Y-83680042D01*
X132760000Y-83680042D02*
X132493333Y-83680042D01*
X133126667Y-83260995D02*
X133560000Y-83260995D01*
X133560000Y-83260995D02*
X133326667Y-83565757D01*
X133326667Y-83565757D02*
X133426667Y-83565757D01*
X133426667Y-83565757D02*
X133493333Y-83603852D01*
X133493333Y-83603852D02*
X133526667Y-83641947D01*
X133526667Y-83641947D02*
X133560000Y-83718138D01*
X133560000Y-83718138D02*
X133560000Y-83908614D01*
X133560000Y-83908614D02*
X133526667Y-83984804D01*
X133526667Y-83984804D02*
X133493333Y-84022900D01*
X133493333Y-84022900D02*
X133426667Y-84060995D01*
X133426667Y-84060995D02*
X133226667Y-84060995D01*
X133226667Y-84060995D02*
X133160000Y-84022900D01*
X133160000Y-84022900D02*
X133126667Y-83984804D01*
X130366969Y-85705697D02*
X129966969Y-85705697D01*
X130166969Y-85705697D02*
X130166969Y-84905697D01*
X130166969Y-84905697D02*
X130100302Y-85019982D01*
X130100302Y-85019982D02*
X130033636Y-85096173D01*
X130033636Y-85096173D02*
X129966969Y-85134268D01*
X130800303Y-84905697D02*
X130866969Y-84905697D01*
X130866969Y-84905697D02*
X130933636Y-84943792D01*
X130933636Y-84943792D02*
X130966969Y-84981887D01*
X130966969Y-84981887D02*
X131000303Y-85058078D01*
X131000303Y-85058078D02*
X131033636Y-85210459D01*
X131033636Y-85210459D02*
X131033636Y-85400935D01*
X131033636Y-85400935D02*
X131000303Y-85553316D01*
X131000303Y-85553316D02*
X130966969Y-85629506D01*
X130966969Y-85629506D02*
X130933636Y-85667602D01*
X130933636Y-85667602D02*
X130866969Y-85705697D01*
X130866969Y-85705697D02*
X130800303Y-85705697D01*
X130800303Y-85705697D02*
X130733636Y-85667602D01*
X130733636Y-85667602D02*
X130700303Y-85629506D01*
X130700303Y-85629506D02*
X130666969Y-85553316D01*
X130666969Y-85553316D02*
X130633636Y-85400935D01*
X130633636Y-85400935D02*
X130633636Y-85210459D01*
X130633636Y-85210459D02*
X130666969Y-85058078D01*
X130666969Y-85058078D02*
X130700303Y-84981887D01*
X130700303Y-84981887D02*
X130733636Y-84943792D01*
X130733636Y-84943792D02*
X130800303Y-84905697D01*
X131333636Y-85705697D02*
X131333636Y-84905697D01*
X131400303Y-85400935D02*
X131600303Y-85705697D01*
X131600303Y-85172363D02*
X131333636Y-85477125D01*
X147956969Y-92000995D02*
X147723636Y-91620042D01*
X147556969Y-92000995D02*
X147556969Y-91200995D01*
X147556969Y-91200995D02*
X147823636Y-91200995D01*
X147823636Y-91200995D02*
X147890303Y-91239090D01*
X147890303Y-91239090D02*
X147923636Y-91277185D01*
X147923636Y-91277185D02*
X147956969Y-91353376D01*
X147956969Y-91353376D02*
X147956969Y-91467661D01*
X147956969Y-91467661D02*
X147923636Y-91543852D01*
X147923636Y-91543852D02*
X147890303Y-91581947D01*
X147890303Y-91581947D02*
X147823636Y-91620042D01*
X147823636Y-91620042D02*
X147556969Y-91620042D01*
X148190303Y-91200995D02*
X148656969Y-91200995D01*
X148656969Y-91200995D02*
X148356969Y-92000995D01*
X147656969Y-94910995D02*
X147256969Y-94910995D01*
X147456969Y-94910995D02*
X147456969Y-94110995D01*
X147456969Y-94110995D02*
X147390302Y-94225280D01*
X147390302Y-94225280D02*
X147323636Y-94301471D01*
X147323636Y-94301471D02*
X147256969Y-94339566D01*
X148090303Y-94110995D02*
X148156969Y-94110995D01*
X148156969Y-94110995D02*
X148223636Y-94149090D01*
X148223636Y-94149090D02*
X148256969Y-94187185D01*
X148256969Y-94187185D02*
X148290303Y-94263376D01*
X148290303Y-94263376D02*
X148323636Y-94415757D01*
X148323636Y-94415757D02*
X148323636Y-94606233D01*
X148323636Y-94606233D02*
X148290303Y-94758614D01*
X148290303Y-94758614D02*
X148256969Y-94834804D01*
X148256969Y-94834804D02*
X148223636Y-94872900D01*
X148223636Y-94872900D02*
X148156969Y-94910995D01*
X148156969Y-94910995D02*
X148090303Y-94910995D01*
X148090303Y-94910995D02*
X148023636Y-94872900D01*
X148023636Y-94872900D02*
X147990303Y-94834804D01*
X147990303Y-94834804D02*
X147956969Y-94758614D01*
X147956969Y-94758614D02*
X147923636Y-94606233D01*
X147923636Y-94606233D02*
X147923636Y-94415757D01*
X147923636Y-94415757D02*
X147956969Y-94263376D01*
X147956969Y-94263376D02*
X147990303Y-94187185D01*
X147990303Y-94187185D02*
X148023636Y-94149090D01*
X148023636Y-94149090D02*
X148090303Y-94110995D01*
X148623636Y-94910995D02*
X148623636Y-94110995D01*
X148690303Y-94606233D02*
X148890303Y-94910995D01*
X148890303Y-94377661D02*
X148623636Y-94682423D01*
X129653678Y-100428035D02*
X130034631Y-100428035D01*
X129234631Y-100661368D02*
X129653678Y-100428035D01*
X129653678Y-100428035D02*
X129234631Y-100194701D01*
X129310821Y-99994701D02*
X129272726Y-99961368D01*
X129272726Y-99961368D02*
X129234631Y-99894701D01*
X129234631Y-99894701D02*
X129234631Y-99728035D01*
X129234631Y-99728035D02*
X129272726Y-99661368D01*
X129272726Y-99661368D02*
X129310821Y-99628035D01*
X129310821Y-99628035D02*
X129387012Y-99594701D01*
X129387012Y-99594701D02*
X129463202Y-99594701D01*
X129463202Y-99594701D02*
X129577488Y-99628035D01*
X129577488Y-99628035D02*
X130034631Y-100028035D01*
X130034631Y-100028035D02*
X130034631Y-99594701D01*
X133410302Y-103270995D02*
X133010302Y-103270995D01*
X133210302Y-103270995D02*
X133210302Y-102470995D01*
X133210302Y-102470995D02*
X133143635Y-102585280D01*
X133143635Y-102585280D02*
X133076969Y-102661471D01*
X133076969Y-102661471D02*
X133010302Y-102699566D01*
X134010302Y-102470995D02*
X133876969Y-102470995D01*
X133876969Y-102470995D02*
X133810302Y-102509090D01*
X133810302Y-102509090D02*
X133776969Y-102547185D01*
X133776969Y-102547185D02*
X133710302Y-102661471D01*
X133710302Y-102661471D02*
X133676969Y-102813852D01*
X133676969Y-102813852D02*
X133676969Y-103118614D01*
X133676969Y-103118614D02*
X133710302Y-103194804D01*
X133710302Y-103194804D02*
X133743636Y-103232900D01*
X133743636Y-103232900D02*
X133810302Y-103270995D01*
X133810302Y-103270995D02*
X133943636Y-103270995D01*
X133943636Y-103270995D02*
X134010302Y-103232900D01*
X134010302Y-103232900D02*
X134043636Y-103194804D01*
X134043636Y-103194804D02*
X134076969Y-103118614D01*
X134076969Y-103118614D02*
X134076969Y-102928138D01*
X134076969Y-102928138D02*
X134043636Y-102851947D01*
X134043636Y-102851947D02*
X134010302Y-102813852D01*
X134010302Y-102813852D02*
X133943636Y-102775757D01*
X133943636Y-102775757D02*
X133810302Y-102775757D01*
X133810302Y-102775757D02*
X133743636Y-102813852D01*
X133743636Y-102813852D02*
X133710302Y-102851947D01*
X133710302Y-102851947D02*
X133676969Y-102928138D01*
X134376969Y-103270995D02*
X134376969Y-102470995D01*
X134376969Y-102470995D02*
X134610303Y-103042423D01*
X134610303Y-103042423D02*
X134843636Y-102470995D01*
X134843636Y-102470995D02*
X134843636Y-103270995D01*
X135176969Y-103270995D02*
X135176969Y-102470995D01*
X135176969Y-102851947D02*
X135576969Y-102851947D01*
X135576969Y-103270995D02*
X135576969Y-102470995D01*
X135843636Y-102737661D02*
X136210302Y-102737661D01*
X136210302Y-102737661D02*
X135843636Y-103270995D01*
X135843636Y-103270995D02*
X136210302Y-103270995D01*
X131266969Y-104039506D02*
X131233636Y-104077602D01*
X131233636Y-104077602D02*
X131133636Y-104115697D01*
X131133636Y-104115697D02*
X131066969Y-104115697D01*
X131066969Y-104115697D02*
X130966969Y-104077602D01*
X130966969Y-104077602D02*
X130900303Y-104001411D01*
X130900303Y-104001411D02*
X130866969Y-103925221D01*
X130866969Y-103925221D02*
X130833636Y-103772840D01*
X130833636Y-103772840D02*
X130833636Y-103658554D01*
X130833636Y-103658554D02*
X130866969Y-103506173D01*
X130866969Y-103506173D02*
X130900303Y-103429982D01*
X130900303Y-103429982D02*
X130966969Y-103353792D01*
X130966969Y-103353792D02*
X131066969Y-103315697D01*
X131066969Y-103315697D02*
X131133636Y-103315697D01*
X131133636Y-103315697D02*
X131233636Y-103353792D01*
X131233636Y-103353792D02*
X131266969Y-103391887D01*
X131500303Y-103315697D02*
X131933636Y-103315697D01*
X131933636Y-103315697D02*
X131700303Y-103620459D01*
X131700303Y-103620459D02*
X131800303Y-103620459D01*
X131800303Y-103620459D02*
X131866969Y-103658554D01*
X131866969Y-103658554D02*
X131900303Y-103696649D01*
X131900303Y-103696649D02*
X131933636Y-103772840D01*
X131933636Y-103772840D02*
X131933636Y-103963316D01*
X131933636Y-103963316D02*
X131900303Y-104039506D01*
X131900303Y-104039506D02*
X131866969Y-104077602D01*
X131866969Y-104077602D02*
X131800303Y-104115697D01*
X131800303Y-104115697D02*
X131600303Y-104115697D01*
X131600303Y-104115697D02*
X131533636Y-104077602D01*
X131533636Y-104077602D02*
X131500303Y-104039506D01*
X130343636Y-106101887D02*
X130376969Y-106063792D01*
X130376969Y-106063792D02*
X130443636Y-106025697D01*
X130443636Y-106025697D02*
X130610303Y-106025697D01*
X130610303Y-106025697D02*
X130676969Y-106063792D01*
X130676969Y-106063792D02*
X130710303Y-106101887D01*
X130710303Y-106101887D02*
X130743636Y-106178078D01*
X130743636Y-106178078D02*
X130743636Y-106254268D01*
X130743636Y-106254268D02*
X130710303Y-106368554D01*
X130710303Y-106368554D02*
X130310303Y-106825697D01*
X130310303Y-106825697D02*
X130743636Y-106825697D01*
X131010303Y-106101887D02*
X131043636Y-106063792D01*
X131043636Y-106063792D02*
X131110303Y-106025697D01*
X131110303Y-106025697D02*
X131276970Y-106025697D01*
X131276970Y-106025697D02*
X131343636Y-106063792D01*
X131343636Y-106063792D02*
X131376970Y-106101887D01*
X131376970Y-106101887D02*
X131410303Y-106178078D01*
X131410303Y-106178078D02*
X131410303Y-106254268D01*
X131410303Y-106254268D02*
X131376970Y-106368554D01*
X131376970Y-106368554D02*
X130976970Y-106825697D01*
X130976970Y-106825697D02*
X131410303Y-106825697D01*
X131710303Y-106292363D02*
X131710303Y-107092363D01*
X131710303Y-106330459D02*
X131776970Y-106292363D01*
X131776970Y-106292363D02*
X131910303Y-106292363D01*
X131910303Y-106292363D02*
X131976970Y-106330459D01*
X131976970Y-106330459D02*
X132010303Y-106368554D01*
X132010303Y-106368554D02*
X132043637Y-106444744D01*
X132043637Y-106444744D02*
X132043637Y-106673316D01*
X132043637Y-106673316D02*
X132010303Y-106749506D01*
X132010303Y-106749506D02*
X131976970Y-106787602D01*
X131976970Y-106787602D02*
X131910303Y-106825697D01*
X131910303Y-106825697D02*
X131776970Y-106825697D01*
X131776970Y-106825697D02*
X131710303Y-106787602D01*
X132576970Y-106406649D02*
X132343636Y-106406649D01*
X132343636Y-106825697D02*
X132343636Y-106025697D01*
X132343636Y-106025697D02*
X132676970Y-106025697D01*
%TO.C,C5*%
D12*
X143734888Y-96969702D02*
X143212384Y-96969702D01*
X143734888Y-98439702D02*
X143212384Y-98439702D01*
%TO.C,C1*%
X143764888Y-92299702D02*
X143242384Y-92299702D01*
X143764888Y-93769702D02*
X143242384Y-93769702D01*
%TO.C,BT1*%
X113763636Y-86369702D02*
X115143636Y-86369702D01*
X113763636Y-87749702D02*
X113763636Y-86369702D01*
X113763636Y-89019702D02*
X113763636Y-91669702D01*
X113763636Y-89019702D02*
X116523636Y-89019702D01*
X113763636Y-91669702D02*
X116523636Y-91669702D01*
X116523636Y-89019702D02*
X116523636Y-91669702D01*
%TO.C,U2*%
X120003636Y-97274702D02*
X125523636Y-97274702D01*
X120003636Y-97544702D02*
X120003636Y-97274702D01*
X120003636Y-102794702D02*
X120003636Y-102524702D01*
X125523636Y-97274702D02*
X125523636Y-97544702D01*
X125523636Y-102524702D02*
X125523636Y-102794702D01*
X125523636Y-102794702D02*
X120003636Y-102794702D01*
X119173636Y-97534702D02*
X118833636Y-97064702D01*
X119513636Y-97064702D01*
X119173636Y-97534702D01*
G36*
X119173636Y-97534702D02*
G01*
X118833636Y-97064702D01*
X119513636Y-97064702D01*
X119173636Y-97534702D01*
G37*
%TO.C,R2*%
X147846572Y-87589702D02*
X148300700Y-87589702D01*
X147846572Y-89059702D02*
X148300700Y-89059702D01*
%TO.C,J3*%
X116593636Y-111194702D02*
X116593636Y-109814702D01*
X117973636Y-111194702D02*
X116593636Y-111194702D01*
X119243636Y-108434702D02*
X139673636Y-108434702D01*
X119243636Y-111194702D02*
X119243636Y-108434702D01*
X119243636Y-111194702D02*
X139673636Y-111194702D01*
X139673636Y-111194702D02*
X139673636Y-108434702D01*
%TO.C,J1*%
X153448636Y-96554702D02*
X154828636Y-96554702D01*
X153448636Y-97934702D02*
X153448636Y-96554702D01*
X153448636Y-99204702D02*
X153448636Y-106934702D01*
X153448636Y-99204702D02*
X156208636Y-99204702D01*
X153448636Y-106934702D02*
X156208636Y-106934702D01*
X156208636Y-99204702D02*
X156208636Y-106934702D01*
%TO.C,C2*%
X137298748Y-104349702D02*
X137821252Y-104349702D01*
X137298748Y-105819702D02*
X137821252Y-105819702D01*
%TO.C,J4*%
X150898636Y-86374702D02*
X152278636Y-86374702D01*
X150898636Y-87754702D02*
X150898636Y-86374702D01*
X150898636Y-89024702D02*
X150898636Y-94214702D01*
X150898636Y-89024702D02*
X153548636Y-89024702D01*
X150898636Y-94214702D02*
X156198636Y-94214702D01*
X153548636Y-86374702D02*
X156198636Y-86374702D01*
X153548636Y-89024702D02*
X153548636Y-86374702D01*
X156198636Y-86374702D02*
X156198636Y-94214702D01*
%TO.C,U3*%
D13*
X120753636Y-82974702D02*
X124753636Y-82974702D01*
X120753636Y-88014702D02*
X124753636Y-88014702D01*
D14*
X118408636Y-82999702D02*
G75*
G02*
X118208636Y-82999702I-100000J0D01*
G01*
X118208636Y-82999702D02*
G75*
G02*
X118408636Y-82999702I100000J0D01*
G01*
%TO.C,R6*%
D12*
X125452936Y-104355000D02*
X125907064Y-104355000D01*
X125452936Y-105825000D02*
X125907064Y-105825000D01*
%TO.C,R4*%
X138246572Y-82959702D02*
X138700700Y-82959702D01*
X138246572Y-84429702D02*
X138700700Y-84429702D01*
%TO.C,Y1*%
X112953636Y-96797500D02*
X112953636Y-104167500D01*
X112953636Y-104167500D02*
X116673636Y-104167500D01*
X116673636Y-104167500D02*
X116673636Y-96797500D01*
%TO.C,R5*%
X120572936Y-104355000D02*
X121027064Y-104355000D01*
X120572936Y-105825000D02*
X121027064Y-105825000D01*
%TO.C,J2*%
X143023636Y-111194702D02*
X143023636Y-109814702D01*
X144403636Y-111194702D02*
X143023636Y-111194702D01*
X145673636Y-108434702D02*
X153403636Y-108434702D01*
X145673636Y-111194702D02*
X145673636Y-108434702D01*
X145673636Y-111194702D02*
X153403636Y-111194702D01*
X153403636Y-111194702D02*
X153403636Y-108434702D01*
%TO.C,U1*%
X120003636Y-89742202D02*
X125523636Y-89742202D01*
X120003636Y-90012202D02*
X120003636Y-89742202D01*
X120003636Y-95262202D02*
X120003636Y-94992202D01*
X125523636Y-89742202D02*
X125523636Y-90012202D01*
X125523636Y-94992202D02*
X125523636Y-95262202D01*
X125523636Y-95262202D02*
X120003636Y-95262202D01*
X119173636Y-90002202D02*
X118833636Y-89532202D01*
X119513636Y-89532202D01*
X119173636Y-90002202D01*
G36*
X119173636Y-90002202D02*
G01*
X118833636Y-89532202D01*
X119513636Y-89532202D01*
X119173636Y-90002202D01*
G37*
%TO.C,U4*%
D13*
X131363636Y-88334702D02*
X131363636Y-88439702D01*
X131363636Y-88334702D02*
X131468636Y-88334702D01*
X131363636Y-95334702D02*
X131363636Y-95229702D01*
X131363636Y-95334702D02*
X131468636Y-95334702D01*
X138363636Y-88334702D02*
X138258636Y-88334702D01*
X138363636Y-88334702D02*
X138363636Y-88439702D01*
X138363636Y-95334702D02*
X138258636Y-95334702D01*
X138363636Y-95334702D02*
X138363636Y-95229702D01*
D14*
X129123636Y-89034702D02*
G75*
G02*
X128923636Y-89034702I-100000J0D01*
G01*
X128923636Y-89034702D02*
G75*
G02*
X129123636Y-89034702I100000J0D01*
G01*
%TO.C,R1*%
D12*
X143256572Y-87589702D02*
X143710700Y-87589702D01*
X143256572Y-89059702D02*
X143710700Y-89059702D01*
%TO.C,C4*%
X148354888Y-96939702D02*
X147832384Y-96939702D01*
X148354888Y-98409702D02*
X147832384Y-98409702D01*
%TO.C,D2*%
X146428636Y-82779702D02*
X146428636Y-84699702D01*
X146428636Y-84699702D02*
X149113636Y-84699702D01*
X149113636Y-82779702D02*
X146428636Y-82779702D01*
%TO.C,D1*%
X141928636Y-82779702D02*
X141928636Y-84699702D01*
X141928636Y-84699702D02*
X144613636Y-84699702D01*
X144613636Y-82779702D02*
X141928636Y-82779702D01*
%TO.C,R3*%
X130556572Y-82959702D02*
X131010700Y-82959702D01*
X130556572Y-84429702D02*
X131010700Y-84429702D01*
%TO.C,R7*%
X147846572Y-92269702D02*
X148300700Y-92269702D01*
X147846572Y-93739702D02*
X148300700Y-93739702D01*
%TO.C,Y2*%
X130286136Y-98504702D02*
X130286136Y-102224702D01*
X130286136Y-102224702D02*
X137656136Y-102224702D01*
X137656136Y-98504702D02*
X130286136Y-98504702D01*
%TO.C,C3*%
X131704888Y-104349702D02*
X131182384Y-104349702D01*
X131704888Y-105819702D02*
X131182384Y-105819702D01*
%TD*%
M02*
