%TF.GenerationSoftware,KiCad,Pcbnew,10.0.6*%
%TF.CreationDate,2026-09-24T18:05:49+05:30*%
%TF.ProjectId,solar power supply,736f6c61-7220-4706-9f77-657220737570,rev?*%
%TF.SameCoordinates,Original*%
%TF.FileFunction,Legend,Bot*%
%TF.FilePolarity,Positive*%
%FSLAX46Y46*%
G04 Gerber Fmt 4.6, Leading zero omitted, Abs format (unit mm)*
G04 Created by KiCad (PCBNEW 10.0.6) date 2026-09-24 18:05:49*
%MOMM*%
%LPD*%
G01*
G04 APERTURE LIST*
%ADD10C,0.100000*%
%ADD11C,0.150000*%
G04 APERTURE END LIST*
D10*
X89635000Y-73800000D02*
X108665000Y-73800000D01*
X108665000Y-77160000D01*
X89635000Y-77160000D01*
X89635000Y-73800000D01*
X108101353Y-74415808D02*
X107863258Y-75082475D01*
X107863258Y-75082475D02*
X107625163Y-74415808D01*
X106863258Y-75034856D02*
X106958496Y-75082475D01*
X106958496Y-75082475D02*
X107148972Y-75082475D01*
X107148972Y-75082475D02*
X107244210Y-75034856D01*
X107244210Y-75034856D02*
X107291829Y-74939617D01*
X107291829Y-74939617D02*
X107291829Y-74558665D01*
X107291829Y-74558665D02*
X107244210Y-74463427D01*
X107244210Y-74463427D02*
X107148972Y-74415808D01*
X107148972Y-74415808D02*
X106958496Y-74415808D01*
X106958496Y-74415808D02*
X106863258Y-74463427D01*
X106863258Y-74463427D02*
X106815639Y-74558665D01*
X106815639Y-74558665D02*
X106815639Y-74653903D01*
X106815639Y-74653903D02*
X107291829Y-74749141D01*
X106387067Y-75082475D02*
X106387067Y-74415808D01*
X106387067Y-74606284D02*
X106339448Y-74511046D01*
X106339448Y-74511046D02*
X106291829Y-74463427D01*
X106291829Y-74463427D02*
X106196591Y-74415808D01*
X106196591Y-74415808D02*
X106101353Y-74415808D01*
X105815638Y-75034856D02*
X105720400Y-75082475D01*
X105720400Y-75082475D02*
X105529924Y-75082475D01*
X105529924Y-75082475D02*
X105434686Y-75034856D01*
X105434686Y-75034856D02*
X105387067Y-74939617D01*
X105387067Y-74939617D02*
X105387067Y-74891998D01*
X105387067Y-74891998D02*
X105434686Y-74796760D01*
X105434686Y-74796760D02*
X105529924Y-74749141D01*
X105529924Y-74749141D02*
X105672781Y-74749141D01*
X105672781Y-74749141D02*
X105768019Y-74701522D01*
X105768019Y-74701522D02*
X105815638Y-74606284D01*
X105815638Y-74606284D02*
X105815638Y-74558665D01*
X105815638Y-74558665D02*
X105768019Y-74463427D01*
X105768019Y-74463427D02*
X105672781Y-74415808D01*
X105672781Y-74415808D02*
X105529924Y-74415808D01*
X105529924Y-74415808D02*
X105434686Y-74463427D01*
X104958495Y-75082475D02*
X104958495Y-74415808D01*
X104958495Y-74082475D02*
X105006114Y-74130094D01*
X105006114Y-74130094D02*
X104958495Y-74177713D01*
X104958495Y-74177713D02*
X104910876Y-74130094D01*
X104910876Y-74130094D02*
X104958495Y-74082475D01*
X104958495Y-74082475D02*
X104958495Y-74177713D01*
X104339448Y-75082475D02*
X104434686Y-75034856D01*
X104434686Y-75034856D02*
X104482305Y-74987236D01*
X104482305Y-74987236D02*
X104529924Y-74891998D01*
X104529924Y-74891998D02*
X104529924Y-74606284D01*
X104529924Y-74606284D02*
X104482305Y-74511046D01*
X104482305Y-74511046D02*
X104434686Y-74463427D01*
X104434686Y-74463427D02*
X104339448Y-74415808D01*
X104339448Y-74415808D02*
X104196591Y-74415808D01*
X104196591Y-74415808D02*
X104101353Y-74463427D01*
X104101353Y-74463427D02*
X104053734Y-74511046D01*
X104053734Y-74511046D02*
X104006115Y-74606284D01*
X104006115Y-74606284D02*
X104006115Y-74891998D01*
X104006115Y-74891998D02*
X104053734Y-74987236D01*
X104053734Y-74987236D02*
X104101353Y-75034856D01*
X104101353Y-75034856D02*
X104196591Y-75082475D01*
X104196591Y-75082475D02*
X104339448Y-75082475D01*
X103577543Y-74415808D02*
X103577543Y-75082475D01*
X103577543Y-74511046D02*
X103529924Y-74463427D01*
X103529924Y-74463427D02*
X103434686Y-74415808D01*
X103434686Y-74415808D02*
X103291829Y-74415808D01*
X103291829Y-74415808D02*
X103196591Y-74463427D01*
X103196591Y-74463427D02*
X103148972Y-74558665D01*
X103148972Y-74558665D02*
X103148972Y-75082475D01*
X101387067Y-75082475D02*
X101958495Y-75082475D01*
X101672781Y-75082475D02*
X101672781Y-74082475D01*
X101672781Y-74082475D02*
X101768019Y-74225332D01*
X101768019Y-74225332D02*
X101863257Y-74320570D01*
X101863257Y-74320570D02*
X101958495Y-74368189D01*
X100958495Y-74987236D02*
X100910876Y-75034856D01*
X100910876Y-75034856D02*
X100958495Y-75082475D01*
X100958495Y-75082475D02*
X101006114Y-75034856D01*
X101006114Y-75034856D02*
X100958495Y-74987236D01*
X100958495Y-74987236D02*
X100958495Y-75082475D01*
X100291829Y-74082475D02*
X100196591Y-74082475D01*
X100196591Y-74082475D02*
X100101353Y-74130094D01*
X100101353Y-74130094D02*
X100053734Y-74177713D01*
X100053734Y-74177713D02*
X100006115Y-74272951D01*
X100006115Y-74272951D02*
X99958496Y-74463427D01*
X99958496Y-74463427D02*
X99958496Y-74701522D01*
X99958496Y-74701522D02*
X100006115Y-74891998D01*
X100006115Y-74891998D02*
X100053734Y-74987236D01*
X100053734Y-74987236D02*
X100101353Y-75034856D01*
X100101353Y-75034856D02*
X100196591Y-75082475D01*
X100196591Y-75082475D02*
X100291829Y-75082475D01*
X100291829Y-75082475D02*
X100387067Y-75034856D01*
X100387067Y-75034856D02*
X100434686Y-74987236D01*
X100434686Y-74987236D02*
X100482305Y-74891998D01*
X100482305Y-74891998D02*
X100529924Y-74701522D01*
X100529924Y-74701522D02*
X100529924Y-74463427D01*
X100529924Y-74463427D02*
X100482305Y-74272951D01*
X100482305Y-74272951D02*
X100434686Y-74177713D01*
X100434686Y-74177713D02*
X100387067Y-74130094D01*
X100387067Y-74130094D02*
X100291829Y-74082475D01*
X108148972Y-75692419D02*
X107577544Y-75692419D01*
X107863258Y-76692419D02*
X107863258Y-75692419D01*
X107244210Y-76692419D02*
X107244210Y-76025752D01*
X107244210Y-75692419D02*
X107291829Y-75740038D01*
X107291829Y-75740038D02*
X107244210Y-75787657D01*
X107244210Y-75787657D02*
X107196591Y-75740038D01*
X107196591Y-75740038D02*
X107244210Y-75692419D01*
X107244210Y-75692419D02*
X107244210Y-75787657D01*
X106768020Y-76025752D02*
X106768020Y-76692419D01*
X106768020Y-76120990D02*
X106720401Y-76073371D01*
X106720401Y-76073371D02*
X106625163Y-76025752D01*
X106625163Y-76025752D02*
X106482306Y-76025752D01*
X106482306Y-76025752D02*
X106387068Y-76073371D01*
X106387068Y-76073371D02*
X106339449Y-76168609D01*
X106339449Y-76168609D02*
X106339449Y-76692419D01*
X105958496Y-76025752D02*
X105720401Y-76692419D01*
X105482306Y-76025752D02*
X105720401Y-76692419D01*
X105720401Y-76692419D02*
X105815639Y-76930514D01*
X105815639Y-76930514D02*
X105863258Y-76978133D01*
X105863258Y-76978133D02*
X105958496Y-77025752D01*
X104387067Y-76644800D02*
X104291829Y-76692419D01*
X104291829Y-76692419D02*
X104101353Y-76692419D01*
X104101353Y-76692419D02*
X104006115Y-76644800D01*
X104006115Y-76644800D02*
X103958496Y-76549561D01*
X103958496Y-76549561D02*
X103958496Y-76501942D01*
X103958496Y-76501942D02*
X104006115Y-76406704D01*
X104006115Y-76406704D02*
X104101353Y-76359085D01*
X104101353Y-76359085D02*
X104244210Y-76359085D01*
X104244210Y-76359085D02*
X104339448Y-76311466D01*
X104339448Y-76311466D02*
X104387067Y-76216228D01*
X104387067Y-76216228D02*
X104387067Y-76168609D01*
X104387067Y-76168609D02*
X104339448Y-76073371D01*
X104339448Y-76073371D02*
X104244210Y-76025752D01*
X104244210Y-76025752D02*
X104101353Y-76025752D01*
X104101353Y-76025752D02*
X104006115Y-76073371D01*
X103387067Y-76692419D02*
X103482305Y-76644800D01*
X103482305Y-76644800D02*
X103529924Y-76597180D01*
X103529924Y-76597180D02*
X103577543Y-76501942D01*
X103577543Y-76501942D02*
X103577543Y-76216228D01*
X103577543Y-76216228D02*
X103529924Y-76120990D01*
X103529924Y-76120990D02*
X103482305Y-76073371D01*
X103482305Y-76073371D02*
X103387067Y-76025752D01*
X103387067Y-76025752D02*
X103244210Y-76025752D01*
X103244210Y-76025752D02*
X103148972Y-76073371D01*
X103148972Y-76073371D02*
X103101353Y-76120990D01*
X103101353Y-76120990D02*
X103053734Y-76216228D01*
X103053734Y-76216228D02*
X103053734Y-76501942D01*
X103053734Y-76501942D02*
X103101353Y-76597180D01*
X103101353Y-76597180D02*
X103148972Y-76644800D01*
X103148972Y-76644800D02*
X103244210Y-76692419D01*
X103244210Y-76692419D02*
X103387067Y-76692419D01*
X102482305Y-76692419D02*
X102577543Y-76644800D01*
X102577543Y-76644800D02*
X102625162Y-76549561D01*
X102625162Y-76549561D02*
X102625162Y-75692419D01*
X101672781Y-76692419D02*
X101672781Y-76168609D01*
X101672781Y-76168609D02*
X101720400Y-76073371D01*
X101720400Y-76073371D02*
X101815638Y-76025752D01*
X101815638Y-76025752D02*
X102006114Y-76025752D01*
X102006114Y-76025752D02*
X102101352Y-76073371D01*
X101672781Y-76644800D02*
X101768019Y-76692419D01*
X101768019Y-76692419D02*
X102006114Y-76692419D01*
X102006114Y-76692419D02*
X102101352Y-76644800D01*
X102101352Y-76644800D02*
X102148971Y-76549561D01*
X102148971Y-76549561D02*
X102148971Y-76454323D01*
X102148971Y-76454323D02*
X102101352Y-76359085D01*
X102101352Y-76359085D02*
X102006114Y-76311466D01*
X102006114Y-76311466D02*
X101768019Y-76311466D01*
X101768019Y-76311466D02*
X101672781Y-76263847D01*
X101196590Y-76692419D02*
X101196590Y-76025752D01*
X101196590Y-76216228D02*
X101148971Y-76120990D01*
X101148971Y-76120990D02*
X101101352Y-76073371D01*
X101101352Y-76073371D02*
X101006114Y-76025752D01*
X101006114Y-76025752D02*
X100910876Y-76025752D01*
X99815637Y-76692419D02*
X99815637Y-75692419D01*
X99815637Y-75692419D02*
X99434685Y-75692419D01*
X99434685Y-75692419D02*
X99339447Y-75740038D01*
X99339447Y-75740038D02*
X99291828Y-75787657D01*
X99291828Y-75787657D02*
X99244209Y-75882895D01*
X99244209Y-75882895D02*
X99244209Y-76025752D01*
X99244209Y-76025752D02*
X99291828Y-76120990D01*
X99291828Y-76120990D02*
X99339447Y-76168609D01*
X99339447Y-76168609D02*
X99434685Y-76216228D01*
X99434685Y-76216228D02*
X99815637Y-76216228D01*
X98672780Y-76692419D02*
X98768018Y-76644800D01*
X98768018Y-76644800D02*
X98815637Y-76597180D01*
X98815637Y-76597180D02*
X98863256Y-76501942D01*
X98863256Y-76501942D02*
X98863256Y-76216228D01*
X98863256Y-76216228D02*
X98815637Y-76120990D01*
X98815637Y-76120990D02*
X98768018Y-76073371D01*
X98768018Y-76073371D02*
X98672780Y-76025752D01*
X98672780Y-76025752D02*
X98529923Y-76025752D01*
X98529923Y-76025752D02*
X98434685Y-76073371D01*
X98434685Y-76073371D02*
X98387066Y-76120990D01*
X98387066Y-76120990D02*
X98339447Y-76216228D01*
X98339447Y-76216228D02*
X98339447Y-76501942D01*
X98339447Y-76501942D02*
X98387066Y-76597180D01*
X98387066Y-76597180D02*
X98434685Y-76644800D01*
X98434685Y-76644800D02*
X98529923Y-76692419D01*
X98529923Y-76692419D02*
X98672780Y-76692419D01*
X98006113Y-76025752D02*
X97815637Y-76692419D01*
X97815637Y-76692419D02*
X97625161Y-76216228D01*
X97625161Y-76216228D02*
X97434685Y-76692419D01*
X97434685Y-76692419D02*
X97244209Y-76025752D01*
X96482304Y-76644800D02*
X96577542Y-76692419D01*
X96577542Y-76692419D02*
X96768018Y-76692419D01*
X96768018Y-76692419D02*
X96863256Y-76644800D01*
X96863256Y-76644800D02*
X96910875Y-76549561D01*
X96910875Y-76549561D02*
X96910875Y-76168609D01*
X96910875Y-76168609D02*
X96863256Y-76073371D01*
X96863256Y-76073371D02*
X96768018Y-76025752D01*
X96768018Y-76025752D02*
X96577542Y-76025752D01*
X96577542Y-76025752D02*
X96482304Y-76073371D01*
X96482304Y-76073371D02*
X96434685Y-76168609D01*
X96434685Y-76168609D02*
X96434685Y-76263847D01*
X96434685Y-76263847D02*
X96910875Y-76359085D01*
X96006113Y-76692419D02*
X96006113Y-76025752D01*
X96006113Y-76216228D02*
X95958494Y-76120990D01*
X95958494Y-76120990D02*
X95910875Y-76073371D01*
X95910875Y-76073371D02*
X95815637Y-76025752D01*
X95815637Y-76025752D02*
X95720399Y-76025752D01*
X94672779Y-76644800D02*
X94529922Y-76692419D01*
X94529922Y-76692419D02*
X94291827Y-76692419D01*
X94291827Y-76692419D02*
X94196589Y-76644800D01*
X94196589Y-76644800D02*
X94148970Y-76597180D01*
X94148970Y-76597180D02*
X94101351Y-76501942D01*
X94101351Y-76501942D02*
X94101351Y-76406704D01*
X94101351Y-76406704D02*
X94148970Y-76311466D01*
X94148970Y-76311466D02*
X94196589Y-76263847D01*
X94196589Y-76263847D02*
X94291827Y-76216228D01*
X94291827Y-76216228D02*
X94482303Y-76168609D01*
X94482303Y-76168609D02*
X94577541Y-76120990D01*
X94577541Y-76120990D02*
X94625160Y-76073371D01*
X94625160Y-76073371D02*
X94672779Y-75978133D01*
X94672779Y-75978133D02*
X94672779Y-75882895D01*
X94672779Y-75882895D02*
X94625160Y-75787657D01*
X94625160Y-75787657D02*
X94577541Y-75740038D01*
X94577541Y-75740038D02*
X94482303Y-75692419D01*
X94482303Y-75692419D02*
X94244208Y-75692419D01*
X94244208Y-75692419D02*
X94101351Y-75740038D01*
X93244208Y-76025752D02*
X93244208Y-76692419D01*
X93672779Y-76025752D02*
X93672779Y-76549561D01*
X93672779Y-76549561D02*
X93625160Y-76644800D01*
X93625160Y-76644800D02*
X93529922Y-76692419D01*
X93529922Y-76692419D02*
X93387065Y-76692419D01*
X93387065Y-76692419D02*
X93291827Y-76644800D01*
X93291827Y-76644800D02*
X93244208Y-76597180D01*
X92768017Y-76025752D02*
X92768017Y-77025752D01*
X92768017Y-76073371D02*
X92672779Y-76025752D01*
X92672779Y-76025752D02*
X92482303Y-76025752D01*
X92482303Y-76025752D02*
X92387065Y-76073371D01*
X92387065Y-76073371D02*
X92339446Y-76120990D01*
X92339446Y-76120990D02*
X92291827Y-76216228D01*
X92291827Y-76216228D02*
X92291827Y-76501942D01*
X92291827Y-76501942D02*
X92339446Y-76597180D01*
X92339446Y-76597180D02*
X92387065Y-76644800D01*
X92387065Y-76644800D02*
X92482303Y-76692419D01*
X92482303Y-76692419D02*
X92672779Y-76692419D01*
X92672779Y-76692419D02*
X92768017Y-76644800D01*
X91863255Y-76025752D02*
X91863255Y-77025752D01*
X91863255Y-76073371D02*
X91768017Y-76025752D01*
X91768017Y-76025752D02*
X91577541Y-76025752D01*
X91577541Y-76025752D02*
X91482303Y-76073371D01*
X91482303Y-76073371D02*
X91434684Y-76120990D01*
X91434684Y-76120990D02*
X91387065Y-76216228D01*
X91387065Y-76216228D02*
X91387065Y-76501942D01*
X91387065Y-76501942D02*
X91434684Y-76597180D01*
X91434684Y-76597180D02*
X91482303Y-76644800D01*
X91482303Y-76644800D02*
X91577541Y-76692419D01*
X91577541Y-76692419D02*
X91768017Y-76692419D01*
X91768017Y-76692419D02*
X91863255Y-76644800D01*
X90815636Y-76692419D02*
X90910874Y-76644800D01*
X90910874Y-76644800D02*
X90958493Y-76549561D01*
X90958493Y-76549561D02*
X90958493Y-75692419D01*
X90529921Y-76025752D02*
X90291826Y-76692419D01*
X90053731Y-76025752D02*
X90291826Y-76692419D01*
X90291826Y-76692419D02*
X90387064Y-76930514D01*
X90387064Y-76930514D02*
X90434683Y-76978133D01*
X90434683Y-76978133D02*
X90529921Y-77025752D01*
D11*
X95833332Y-70762295D02*
X96099999Y-70381342D01*
X96290475Y-70762295D02*
X96290475Y-69962295D01*
X96290475Y-69962295D02*
X95985713Y-69962295D01*
X95985713Y-69962295D02*
X95909523Y-70000390D01*
X95909523Y-70000390D02*
X95871428Y-70038485D01*
X95871428Y-70038485D02*
X95833332Y-70114676D01*
X95833332Y-70114676D02*
X95833332Y-70228961D01*
X95833332Y-70228961D02*
X95871428Y-70305152D01*
X95871428Y-70305152D02*
X95909523Y-70343247D01*
X95909523Y-70343247D02*
X95985713Y-70381342D01*
X95985713Y-70381342D02*
X96290475Y-70381342D01*
X95566666Y-69962295D02*
X95071428Y-69962295D01*
X95071428Y-69962295D02*
X95338094Y-70267057D01*
X95338094Y-70267057D02*
X95223809Y-70267057D01*
X95223809Y-70267057D02*
X95147618Y-70305152D01*
X95147618Y-70305152D02*
X95109523Y-70343247D01*
X95109523Y-70343247D02*
X95071428Y-70419438D01*
X95071428Y-70419438D02*
X95071428Y-70609914D01*
X95071428Y-70609914D02*
X95109523Y-70686104D01*
X95109523Y-70686104D02*
X95147618Y-70724200D01*
X95147618Y-70724200D02*
X95223809Y-70762295D01*
X95223809Y-70762295D02*
X95452380Y-70762295D01*
X95452380Y-70762295D02*
X95528571Y-70724200D01*
X95528571Y-70724200D02*
X95566666Y-70686104D01*
M02*
