%TF.GenerationSoftware,KiCad,Pcbnew,10.0.6*%
%TF.CreationDate,2026-09-24T18:05:49+05:30*%
%TF.ProjectId,solar power supply,736f6c61-7220-4706-9f77-657220737570,rev?*%
%TF.SameCoordinates,Original*%
%TF.FileFunction,Copper,L2,Bot*%
%TF.FilePolarity,Positive*%
%FSLAX46Y46*%
G04 Gerber Fmt 4.6, Leading zero omitted, Abs format (unit mm)*
G04 Created by KiCad (PCBNEW 10.0.6) date 2026-09-24 18:05:49*
%MOMM*%
%LPD*%
G01*
G04 APERTURE LIST*
G04 Aperture macros list*
%AMRoundRect*
0 Rectangle with rounded corners*
0 $1 Rounding radius*
0 $2 $3 $4 $5 $6 $7 $8 $9 X,Y pos of 4 corners*
0 Add a 4 corners polygon primitive as box body*
4,1,4,$2,$3,$4,$5,$6,$7,$8,$9,$2,$3,0*
0 Add four circle primitives for the rounded corners*
1,1,$1+$1,$2,$3*
1,1,$1+$1,$4,$5*
1,1,$1+$1,$6,$7*
1,1,$1+$1,$8,$9*
0 Add four rect primitives between the rounded corners*
20,1,$1+$1,$2,$3,$4,$5,0*
20,1,$1+$1,$4,$5,$6,$7,0*
20,1,$1+$1,$6,$7,$8,$9,0*
20,1,$1+$1,$8,$9,$2,$3,0*%
G04 Aperture macros list end*
%TA.AperFunction,ComponentPad*%
%ADD10R,1.700000X1.700000*%
%TD*%
%TA.AperFunction,ComponentPad*%
%ADD11C,1.700000*%
%TD*%
%TA.AperFunction,ComponentPad*%
%ADD12RoundRect,0.250000X0.550000X0.550000X-0.550000X0.550000X-0.550000X-0.550000X0.550000X-0.550000X0*%
%TD*%
%TA.AperFunction,ComponentPad*%
%ADD13C,1.600000*%
%TD*%
%TA.AperFunction,ViaPad*%
%ADD14C,0.600000*%
%TD*%
%TA.AperFunction,Conductor*%
%ADD15C,0.350000*%
%TD*%
G04 APERTURE END LIST*
D10*
%TO.P,J1,1,Pin_1_1*%
%TO.N,GNDD*%
X113500000Y-67750000D03*
D11*
%TO.P,J1,2,Pin_2_2*%
%TO.N,/out_p*%
X113500000Y-70290000D03*
%TD*%
D10*
%TO.P,J4,1,Pin_1_1*%
%TO.N,/solar_p*%
X86250000Y-66540000D03*
D11*
%TO.P,J4,2,Pin_2_2*%
%TO.N,GNDD*%
X86250000Y-64000000D03*
%TD*%
D12*
%TO.P,J3,1,Pin_1_1*%
%TO.N,Net-(J3-Pin_1)*%
X97442700Y-67297500D03*
D13*
%TO.P,J3,2,Pin_2_2*%
%TO.N,/bat_p*%
X89822700Y-67297500D03*
%TD*%
D10*
%TO.P,J2,1,Pin_1_1*%
%TO.N,/bat_p*%
X86250000Y-74000000D03*
D11*
%TO.P,J2,2,Pin_2_2*%
%TO.N,GNDD*%
X86250000Y-71460000D03*
%TD*%
D14*
%TO.N,Net-(U1-SW)*%
X99812500Y-71983600D03*
X104100000Y-71775452D03*
%TO.N,GNDD*%
X102057200Y-74523600D03*
X101256087Y-66463845D03*
X92964000Y-74725000D03*
X87477600Y-72593200D03*
X102108000Y-70053200D03*
%TO.N,Net-(J3-Pin_1)*%
X102768400Y-67170599D03*
%TO.N,Net-(U1-FB)*%
X99675000Y-69342000D03*
X91033600Y-62687200D03*
%TO.N,/out_p*%
X91592400Y-61976000D03*
X105460800Y-67818000D03*
%TD*%
%TO.N,GNDD*%
D15*
X103443400Y-68717800D02*
X102108000Y-70053200D01*
X103443400Y-66891004D02*
X103443400Y-68717800D01*
X101256087Y-66463845D02*
X103016241Y-66463845D01*
%TO.N,Net-(U1-SW)*%
X104100000Y-71775452D02*
X103891852Y-71983600D01*
X103891852Y-71983600D02*
X99812500Y-71983600D01*
%TO.N,GNDD*%
X103443400Y-66891004D02*
X103016241Y-66463845D01*
X102057200Y-70104000D02*
X102108000Y-70053200D01*
X86250000Y-71460000D02*
X86250000Y-71518000D01*
%TO.N,Net-(J3-Pin_1)*%
X102641499Y-67297500D02*
X97442700Y-67297500D01*
X102768400Y-67170599D02*
X102641499Y-67297500D01*
%TO.N,Net-(U1-FB)*%
X91033600Y-62687200D02*
X91033600Y-63703200D01*
X96672400Y-69342000D02*
X99675000Y-69342000D01*
X91033600Y-63703200D02*
X96672400Y-69342000D01*
%TO.N,/out_p*%
X99618800Y-61976000D02*
X91592400Y-61976000D01*
X105460800Y-67818000D02*
X99618800Y-61976000D01*
%TD*%
%TA.AperFunction,Conductor*%
%TO.N,GNDD*%
G36*
X91452755Y-60970185D02*
G01*
X91498510Y-61022989D01*
X91508454Y-61092147D01*
X91479429Y-61155703D01*
X91420651Y-61193477D01*
X91409908Y-61196117D01*
X91358908Y-61206261D01*
X91358898Y-61206264D01*
X91213227Y-61266602D01*
X91213214Y-61266609D01*
X91082111Y-61354210D01*
X91082107Y-61354213D01*
X90970613Y-61465707D01*
X90970610Y-61465711D01*
X90883009Y-61596814D01*
X90883002Y-61596827D01*
X90822664Y-61742498D01*
X90822661Y-61742508D01*
X90799691Y-61857983D01*
X90767305Y-61919894D01*
X90725528Y-61948352D01*
X90654420Y-61977806D01*
X90654414Y-61977809D01*
X90523311Y-62065410D01*
X90523307Y-62065413D01*
X90411813Y-62176907D01*
X90411810Y-62176911D01*
X90324209Y-62308014D01*
X90324202Y-62308027D01*
X90263864Y-62453698D01*
X90263861Y-62453710D01*
X90233100Y-62608353D01*
X90233100Y-62766046D01*
X90263861Y-62920689D01*
X90263864Y-62920701D01*
X90324203Y-63066374D01*
X90324204Y-63066375D01*
X90324206Y-63066379D01*
X90337202Y-63085828D01*
X90358080Y-63152505D01*
X90358100Y-63154719D01*
X90358100Y-63769735D01*
X90384057Y-63900228D01*
X90384059Y-63900236D01*
X90434978Y-64023165D01*
X90434983Y-64023175D01*
X90508904Y-64133805D01*
X90508907Y-64133809D01*
X96147705Y-69772606D01*
X96241794Y-69866695D01*
X96241797Y-69866697D01*
X96241798Y-69866698D01*
X96352420Y-69940613D01*
X96352424Y-69940615D01*
X96352431Y-69940620D01*
X96432432Y-69973757D01*
X96475364Y-69991540D01*
X96475368Y-69991540D01*
X96475369Y-69991541D01*
X96605866Y-70017500D01*
X96605869Y-70017500D01*
X96738931Y-70017500D01*
X99207480Y-70017500D01*
X99274519Y-70037185D01*
X99276372Y-70038399D01*
X99295813Y-70051389D01*
X99295815Y-70051390D01*
X99295821Y-70051394D01*
X99295823Y-70051395D01*
X99295827Y-70051397D01*
X99437309Y-70110000D01*
X99441503Y-70111737D01*
X99596153Y-70142499D01*
X99596156Y-70142500D01*
X99596158Y-70142500D01*
X99753844Y-70142500D01*
X99753845Y-70142499D01*
X99908497Y-70111737D01*
X99967030Y-70087491D01*
X100023070Y-70064280D01*
X100054173Y-70051397D01*
X100054176Y-70051395D01*
X100054179Y-70051394D01*
X100185289Y-69963789D01*
X100296789Y-69852289D01*
X100384394Y-69721179D01*
X100444737Y-69575497D01*
X100475500Y-69420842D01*
X100475500Y-69263158D01*
X100475500Y-69263155D01*
X100475499Y-69263153D01*
X100462889Y-69199758D01*
X100444737Y-69108503D01*
X100417750Y-69043350D01*
X100384397Y-68962827D01*
X100384390Y-68962814D01*
X100296789Y-68831711D01*
X100296786Y-68831707D01*
X100185292Y-68720213D01*
X100185288Y-68720210D01*
X100054185Y-68632609D01*
X100054172Y-68632602D01*
X99908501Y-68572264D01*
X99908489Y-68572261D01*
X99753845Y-68541500D01*
X99753842Y-68541500D01*
X99596158Y-68541500D01*
X99596155Y-68541500D01*
X99441510Y-68572261D01*
X99441498Y-68572264D01*
X99295827Y-68632602D01*
X99295813Y-68632610D01*
X99276372Y-68645601D01*
X99209695Y-68666480D01*
X99207480Y-68666500D01*
X98531723Y-68666500D01*
X98464684Y-68646815D01*
X98418929Y-68594011D01*
X98408985Y-68524853D01*
X98438010Y-68461297D01*
X98456430Y-68445631D01*
X98455689Y-68444693D01*
X98461350Y-68440215D01*
X98461356Y-68440212D01*
X98585412Y-68316156D01*
X98677514Y-68166834D01*
X98713579Y-68057994D01*
X98753352Y-68000551D01*
X98817867Y-67973728D01*
X98831285Y-67973000D01*
X102708031Y-67973000D01*
X102714093Y-67972403D01*
X102714116Y-67972643D01*
X102729800Y-67971099D01*
X102847244Y-67971099D01*
X102847245Y-67971098D01*
X103001897Y-67940336D01*
X103122215Y-67890499D01*
X103147572Y-67879996D01*
X103147572Y-67879995D01*
X103147579Y-67879993D01*
X103278689Y-67792388D01*
X103390189Y-67680888D01*
X103477794Y-67549778D01*
X103538137Y-67404096D01*
X103568900Y-67249441D01*
X103568900Y-67180763D01*
X103588585Y-67113724D01*
X103641389Y-67067969D01*
X103710547Y-67058025D01*
X103774103Y-67087050D01*
X103780581Y-67093082D01*
X104652562Y-67965063D01*
X104686047Y-68026386D01*
X104686498Y-68028551D01*
X104691061Y-68051493D01*
X104691063Y-68051499D01*
X104751402Y-68197172D01*
X104751409Y-68197185D01*
X104839010Y-68328288D01*
X104839013Y-68328292D01*
X104950507Y-68439786D01*
X104950511Y-68439789D01*
X105081614Y-68527390D01*
X105081627Y-68527397D01*
X105226728Y-68587499D01*
X105227303Y-68587737D01*
X105381953Y-68618499D01*
X105381956Y-68618500D01*
X105381958Y-68618500D01*
X105539644Y-68618500D01*
X105539645Y-68618499D01*
X105694297Y-68587737D01*
X105839979Y-68527394D01*
X105971089Y-68439789D01*
X106082589Y-68328289D01*
X106170194Y-68197179D01*
X106230537Y-68051497D01*
X106261300Y-67896842D01*
X106261300Y-67739158D01*
X106261300Y-67739155D01*
X106261299Y-67739153D01*
X106240051Y-67632335D01*
X106230537Y-67584503D01*
X106195535Y-67500000D01*
X106170197Y-67438827D01*
X106170190Y-67438814D01*
X106082589Y-67307711D01*
X106082586Y-67307707D01*
X105971092Y-67196213D01*
X105971088Y-67196210D01*
X105839985Y-67108609D01*
X105839972Y-67108602D01*
X105694299Y-67048263D01*
X105694293Y-67048261D01*
X105671351Y-67043698D01*
X105654594Y-67034932D01*
X105636117Y-67030913D01*
X105611078Y-67012169D01*
X105609440Y-67011312D01*
X105607863Y-67009762D01*
X105534633Y-66936532D01*
X100049409Y-61451307D01*
X100049405Y-61451304D01*
X99938775Y-61377383D01*
X99938765Y-61377378D01*
X99815836Y-61326459D01*
X99815828Y-61326457D01*
X99685335Y-61300500D01*
X99685331Y-61300500D01*
X92059920Y-61300500D01*
X91992881Y-61280815D01*
X91991028Y-61279601D01*
X91971586Y-61266610D01*
X91971572Y-61266602D01*
X91825901Y-61206264D01*
X91825891Y-61206261D01*
X91774892Y-61196117D01*
X91712981Y-61163732D01*
X91678407Y-61103016D01*
X91682147Y-61033247D01*
X91723014Y-60976575D01*
X91788032Y-60950994D01*
X91799084Y-60950500D01*
X115602722Y-60950500D01*
X115669761Y-60970185D01*
X115715516Y-61022989D01*
X115725460Y-61092147D01*
X115725199Y-61093868D01*
X115715406Y-61155703D01*
X115714500Y-61161422D01*
X115714500Y-61338578D01*
X115742214Y-61513556D01*
X115796956Y-61682039D01*
X115796957Y-61682042D01*
X115827767Y-61742508D01*
X115877386Y-61839890D01*
X115981517Y-61983214D01*
X116106786Y-62108483D01*
X116250110Y-62212614D01*
X116327529Y-62252061D01*
X116407957Y-62293042D01*
X116407960Y-62293043D01*
X116486531Y-62318571D01*
X116576445Y-62347786D01*
X116582993Y-62348823D01*
X116646126Y-62378746D01*
X116683061Y-62438055D01*
X116687600Y-62471296D01*
X116687600Y-75082857D01*
X116667915Y-75149896D01*
X116652507Y-75169295D01*
X116352669Y-75477698D01*
X116320059Y-75501744D01*
X116250107Y-75537387D01*
X116152184Y-75608533D01*
X116106786Y-75641517D01*
X116106784Y-75641519D01*
X116106783Y-75641519D01*
X115981519Y-75766783D01*
X115981519Y-75766784D01*
X115981517Y-75766786D01*
X115950232Y-75809845D01*
X115877384Y-75910111D01*
X115825455Y-76012028D01*
X115803878Y-76042170D01*
X115444885Y-76411421D01*
X115205299Y-76657853D01*
X115104105Y-76761938D01*
X115043260Y-76796283D01*
X115015198Y-76799500D01*
X84237278Y-76799500D01*
X84170239Y-76779815D01*
X84124484Y-76727011D01*
X84114540Y-76657853D01*
X84114805Y-76656102D01*
X84123134Y-76603518D01*
X84125500Y-76588579D01*
X84125500Y-76411421D01*
X84097786Y-76236445D01*
X84043042Y-76067958D01*
X84043042Y-76067957D01*
X84002061Y-75987529D01*
X83962614Y-75910110D01*
X83858483Y-75766786D01*
X83733214Y-75641517D01*
X83589890Y-75537386D01*
X83432042Y-75456957D01*
X83432039Y-75456956D01*
X83263556Y-75402213D01*
X83154767Y-75384983D01*
X83091632Y-75355053D01*
X83054701Y-75295742D01*
X83050202Y-75265493D01*
X82998281Y-73102135D01*
X84899500Y-73102135D01*
X84899500Y-74897870D01*
X84899501Y-74897876D01*
X84905908Y-74957483D01*
X84956202Y-75092328D01*
X84956206Y-75092335D01*
X85042452Y-75207544D01*
X85042455Y-75207547D01*
X85157664Y-75293793D01*
X85157671Y-75293797D01*
X85292517Y-75344091D01*
X85292516Y-75344091D01*
X85299444Y-75344835D01*
X85352127Y-75350500D01*
X87147872Y-75350499D01*
X87207483Y-75344091D01*
X87342331Y-75293796D01*
X87457546Y-75207546D01*
X87543796Y-75092331D01*
X87594091Y-74957483D01*
X87600500Y-74897873D01*
X87600499Y-73102128D01*
X87594091Y-73042517D01*
X87543796Y-72907669D01*
X87543795Y-72907668D01*
X87543793Y-72907664D01*
X87457547Y-72792455D01*
X87457544Y-72792452D01*
X87342335Y-72706206D01*
X87342328Y-72706202D01*
X87207482Y-72655908D01*
X87207483Y-72655908D01*
X87147883Y-72649501D01*
X87147881Y-72649500D01*
X87147873Y-72649500D01*
X87147865Y-72649500D01*
X87137309Y-72649500D01*
X87070270Y-72629815D01*
X87049628Y-72613181D01*
X86379408Y-71942962D01*
X86442993Y-71925925D01*
X86557007Y-71860099D01*
X86650099Y-71767007D01*
X86715925Y-71652993D01*
X86732962Y-71589408D01*
X87365270Y-72221717D01*
X87365270Y-72221716D01*
X87404622Y-72167554D01*
X87501095Y-71978217D01*
X87524965Y-71904753D01*
X99012000Y-71904753D01*
X99012000Y-72062446D01*
X99042761Y-72217089D01*
X99042764Y-72217101D01*
X99103102Y-72362772D01*
X99103109Y-72362785D01*
X99190710Y-72493888D01*
X99190713Y-72493892D01*
X99302207Y-72605386D01*
X99302211Y-72605389D01*
X99433314Y-72692990D01*
X99433327Y-72692997D01*
X99578998Y-72753335D01*
X99579003Y-72753337D01*
X99733653Y-72784099D01*
X99733656Y-72784100D01*
X99733658Y-72784100D01*
X99891344Y-72784100D01*
X99891345Y-72784099D01*
X100045997Y-72753337D01*
X100191679Y-72692994D01*
X100200428Y-72687147D01*
X100211128Y-72679999D01*
X100277805Y-72659120D01*
X100280020Y-72659100D01*
X103958384Y-72659100D01*
X103958385Y-72659099D01*
X104088888Y-72633141D01*
X104211821Y-72582220D01*
X104218643Y-72577661D01*
X104263343Y-72559143D01*
X104333497Y-72545189D01*
X104479179Y-72484846D01*
X104610289Y-72397241D01*
X104721789Y-72285741D01*
X104809394Y-72154631D01*
X104869737Y-72008949D01*
X104900500Y-71854294D01*
X104900500Y-71696610D01*
X104900500Y-71696607D01*
X104900499Y-71696605D01*
X104882724Y-71607246D01*
X104869737Y-71541955D01*
X104841304Y-71473311D01*
X104809397Y-71396279D01*
X104809390Y-71396266D01*
X104721789Y-71265163D01*
X104721786Y-71265159D01*
X104610292Y-71153665D01*
X104610288Y-71153662D01*
X104479185Y-71066061D01*
X104479172Y-71066054D01*
X104333501Y-71005716D01*
X104333489Y-71005713D01*
X104178845Y-70974952D01*
X104178842Y-70974952D01*
X104021158Y-70974952D01*
X104021155Y-70974952D01*
X103866510Y-71005713D01*
X103866498Y-71005716D01*
X103720827Y-71066054D01*
X103720814Y-71066061D01*
X103589711Y-71153662D01*
X103589707Y-71153665D01*
X103473903Y-71269470D01*
X103472454Y-71268021D01*
X103422452Y-71302093D01*
X103384326Y-71308100D01*
X100280020Y-71308100D01*
X100212981Y-71288415D01*
X100211128Y-71287201D01*
X100191686Y-71274210D01*
X100191672Y-71274202D01*
X100046001Y-71213864D01*
X100045989Y-71213861D01*
X99891345Y-71183100D01*
X99891342Y-71183100D01*
X99733658Y-71183100D01*
X99733655Y-71183100D01*
X99579010Y-71213861D01*
X99578998Y-71213864D01*
X99433327Y-71274202D01*
X99433314Y-71274209D01*
X99302211Y-71361810D01*
X99302207Y-71361813D01*
X99190713Y-71473307D01*
X99190710Y-71473311D01*
X99103109Y-71604414D01*
X99103102Y-71604427D01*
X99042764Y-71750098D01*
X99042761Y-71750110D01*
X99012000Y-71904753D01*
X87524965Y-71904753D01*
X87539393Y-71860348D01*
X87566757Y-71776130D01*
X87566757Y-71776127D01*
X87600000Y-71566246D01*
X87600000Y-71353753D01*
X87566757Y-71143872D01*
X87566757Y-71143869D01*
X87501095Y-70941782D01*
X87404624Y-70752449D01*
X87365270Y-70698282D01*
X87365269Y-70698282D01*
X86732962Y-71330590D01*
X86715925Y-71267007D01*
X86650099Y-71152993D01*
X86557007Y-71059901D01*
X86442993Y-70994075D01*
X86379409Y-70977037D01*
X87011716Y-70344728D01*
X86957550Y-70305375D01*
X86768217Y-70208904D01*
X86690687Y-70183713D01*
X112149500Y-70183713D01*
X112149500Y-70396287D01*
X112182754Y-70606243D01*
X112230259Y-70752449D01*
X112248444Y-70808414D01*
X112344951Y-70997820D01*
X112469890Y-71169786D01*
X112620213Y-71320109D01*
X112792179Y-71445048D01*
X112792181Y-71445049D01*
X112792184Y-71445051D01*
X112981588Y-71541557D01*
X113183757Y-71607246D01*
X113393713Y-71640500D01*
X113393714Y-71640500D01*
X113606286Y-71640500D01*
X113606287Y-71640500D01*
X113816243Y-71607246D01*
X114018412Y-71541557D01*
X114207816Y-71445051D01*
X114229789Y-71429086D01*
X114379786Y-71320109D01*
X114379788Y-71320106D01*
X114379792Y-71320104D01*
X114530104Y-71169792D01*
X114530106Y-71169788D01*
X114530109Y-71169786D01*
X114649312Y-71005715D01*
X114655051Y-70997816D01*
X114751557Y-70808412D01*
X114817246Y-70606243D01*
X114850500Y-70396287D01*
X114850500Y-70183713D01*
X114817246Y-69973757D01*
X114751557Y-69771588D01*
X114655051Y-69582184D01*
X114655049Y-69582181D01*
X114655048Y-69582179D01*
X114530109Y-69410213D01*
X114416181Y-69296285D01*
X114382696Y-69234962D01*
X114387680Y-69165270D01*
X114429552Y-69109337D01*
X114460529Y-69092422D01*
X114592086Y-69043354D01*
X114592093Y-69043350D01*
X114707187Y-68957190D01*
X114707190Y-68957187D01*
X114793350Y-68842093D01*
X114793354Y-68842086D01*
X114843596Y-68707379D01*
X114843598Y-68707372D01*
X114849999Y-68647844D01*
X114850000Y-68647827D01*
X114850000Y-68000000D01*
X113933012Y-68000000D01*
X113965925Y-67942993D01*
X114000000Y-67815826D01*
X114000000Y-67684174D01*
X113965925Y-67557007D01*
X113933012Y-67500000D01*
X114850000Y-67500000D01*
X114850000Y-66852172D01*
X114849999Y-66852155D01*
X114843598Y-66792627D01*
X114843596Y-66792620D01*
X114793354Y-66657913D01*
X114793350Y-66657906D01*
X114707190Y-66542812D01*
X114707187Y-66542809D01*
X114592093Y-66456649D01*
X114592086Y-66456645D01*
X114457379Y-66406403D01*
X114457372Y-66406401D01*
X114397844Y-66400000D01*
X113750000Y-66400000D01*
X113750000Y-67316988D01*
X113692993Y-67284075D01*
X113565826Y-67250000D01*
X113434174Y-67250000D01*
X113307007Y-67284075D01*
X113250000Y-67316988D01*
X113250000Y-66400000D01*
X112602155Y-66400000D01*
X112542627Y-66406401D01*
X112542620Y-66406403D01*
X112407913Y-66456645D01*
X112407906Y-66456649D01*
X112292812Y-66542809D01*
X112292809Y-66542812D01*
X112206649Y-66657906D01*
X112206645Y-66657913D01*
X112156403Y-66792620D01*
X112156401Y-66792627D01*
X112150000Y-66852155D01*
X112150000Y-67500000D01*
X113066988Y-67500000D01*
X113034075Y-67557007D01*
X113000000Y-67684174D01*
X113000000Y-67815826D01*
X113034075Y-67942993D01*
X113066988Y-68000000D01*
X112150000Y-68000000D01*
X112150000Y-68647844D01*
X112156401Y-68707372D01*
X112156403Y-68707379D01*
X112206645Y-68842086D01*
X112206649Y-68842093D01*
X112292809Y-68957187D01*
X112292812Y-68957190D01*
X112407906Y-69043350D01*
X112407913Y-69043354D01*
X112539470Y-69092422D01*
X112595404Y-69134293D01*
X112619821Y-69199758D01*
X112604969Y-69268031D01*
X112583819Y-69296285D01*
X112469889Y-69410215D01*
X112344951Y-69582179D01*
X112248444Y-69771585D01*
X112248443Y-69771587D01*
X112248443Y-69771588D01*
X112182754Y-69973757D01*
X112149500Y-70183713D01*
X86690687Y-70183713D01*
X86566129Y-70143242D01*
X86356246Y-70110000D01*
X86143754Y-70110000D01*
X85933872Y-70143242D01*
X85933869Y-70143242D01*
X85731782Y-70208904D01*
X85542439Y-70305380D01*
X85488282Y-70344727D01*
X85488282Y-70344728D01*
X86120591Y-70977037D01*
X86057007Y-70994075D01*
X85942993Y-71059901D01*
X85849901Y-71152993D01*
X85784075Y-71267007D01*
X85767037Y-71330591D01*
X85134728Y-70698282D01*
X85134727Y-70698282D01*
X85095380Y-70752439D01*
X84998904Y-70941782D01*
X84933242Y-71143869D01*
X84933242Y-71143872D01*
X84900000Y-71353753D01*
X84900000Y-71566246D01*
X84933242Y-71776127D01*
X84933242Y-71776130D01*
X84998904Y-71978217D01*
X85095375Y-72167550D01*
X85134728Y-72221716D01*
X85767037Y-71589408D01*
X85784075Y-71652993D01*
X85849901Y-71767007D01*
X85942993Y-71860099D01*
X86057007Y-71925925D01*
X86120590Y-71942962D01*
X85450370Y-72613181D01*
X85389047Y-72646666D01*
X85362698Y-72649500D01*
X85352134Y-72649500D01*
X85352123Y-72649501D01*
X85292516Y-72655908D01*
X85157671Y-72706202D01*
X85157664Y-72706206D01*
X85042455Y-72792452D01*
X85042452Y-72792455D01*
X84956206Y-72907664D01*
X84956202Y-72907671D01*
X84905908Y-73042517D01*
X84899501Y-73102116D01*
X84899501Y-73102123D01*
X84899500Y-73102135D01*
X82998281Y-73102135D01*
X82819241Y-65642135D01*
X84899500Y-65642135D01*
X84899500Y-67437870D01*
X84899501Y-67437876D01*
X84905908Y-67497483D01*
X84956202Y-67632328D01*
X84956206Y-67632335D01*
X85042452Y-67747544D01*
X85042455Y-67747547D01*
X85157664Y-67833793D01*
X85157671Y-67833797D01*
X85292517Y-67884091D01*
X85292516Y-67884091D01*
X85299444Y-67884835D01*
X85352127Y-67890500D01*
X87147872Y-67890499D01*
X87207483Y-67884091D01*
X87342331Y-67833796D01*
X87457546Y-67747546D01*
X87543796Y-67632331D01*
X87594091Y-67497483D01*
X87600500Y-67437873D01*
X87600500Y-67195148D01*
X88522200Y-67195148D01*
X88522200Y-67399851D01*
X88554222Y-67602034D01*
X88617481Y-67796723D01*
X88661998Y-67884091D01*
X88706331Y-67971099D01*
X88710415Y-67979113D01*
X88830728Y-68144713D01*
X88975486Y-68289471D01*
X89130449Y-68402056D01*
X89141090Y-68409787D01*
X89211438Y-68445631D01*
X89323476Y-68502718D01*
X89323478Y-68502718D01*
X89323481Y-68502720D01*
X89399420Y-68527394D01*
X89518165Y-68565977D01*
X89619257Y-68581988D01*
X89720348Y-68598000D01*
X89720349Y-68598000D01*
X89925051Y-68598000D01*
X89925052Y-68598000D01*
X90127234Y-68565977D01*
X90321919Y-68502720D01*
X90504310Y-68409787D01*
X90616479Y-68328292D01*
X90669913Y-68289471D01*
X90669915Y-68289468D01*
X90669919Y-68289466D01*
X90814666Y-68144719D01*
X90814668Y-68144715D01*
X90814671Y-68144713D01*
X90919409Y-68000551D01*
X90934987Y-67979110D01*
X91027920Y-67796719D01*
X91091177Y-67602034D01*
X91123200Y-67399852D01*
X91123200Y-67195148D01*
X91120922Y-67180763D01*
X91091177Y-66992965D01*
X91027918Y-66798276D01*
X90976565Y-66697491D01*
X90934987Y-66615890D01*
X90919594Y-66594703D01*
X90814671Y-66450286D01*
X90669913Y-66305528D01*
X90504313Y-66185215D01*
X90504312Y-66185214D01*
X90504310Y-66185213D01*
X90444598Y-66154788D01*
X90321923Y-66092281D01*
X90127234Y-66029022D01*
X89952695Y-66001378D01*
X89925052Y-65997000D01*
X89720348Y-65997000D01*
X89696029Y-66000851D01*
X89518165Y-66029022D01*
X89323476Y-66092281D01*
X89141086Y-66185215D01*
X88975486Y-66305528D01*
X88830728Y-66450286D01*
X88710415Y-66615886D01*
X88617481Y-66798276D01*
X88554222Y-66992965D01*
X88522200Y-67195148D01*
X87600500Y-67195148D01*
X87600499Y-66537004D01*
X87600499Y-65642129D01*
X87600498Y-65642123D01*
X87600497Y-65642116D01*
X87594091Y-65582517D01*
X87543796Y-65447669D01*
X87543795Y-65447668D01*
X87543793Y-65447664D01*
X87457547Y-65332455D01*
X87457544Y-65332452D01*
X87342335Y-65246206D01*
X87342328Y-65246202D01*
X87207482Y-65195908D01*
X87207483Y-65195908D01*
X87147883Y-65189501D01*
X87147881Y-65189500D01*
X87147873Y-65189500D01*
X87147865Y-65189500D01*
X87137309Y-65189500D01*
X87070270Y-65169815D01*
X87049628Y-65153181D01*
X86379408Y-64482962D01*
X86442993Y-64465925D01*
X86557007Y-64400099D01*
X86650099Y-64307007D01*
X86715925Y-64192993D01*
X86732962Y-64129409D01*
X87365270Y-64761717D01*
X87365270Y-64761716D01*
X87404622Y-64707554D01*
X87501095Y-64518217D01*
X87566757Y-64316130D01*
X87566757Y-64316127D01*
X87600000Y-64106246D01*
X87600000Y-63893753D01*
X87566757Y-63683872D01*
X87566757Y-63683869D01*
X87501095Y-63481782D01*
X87404624Y-63292449D01*
X87365270Y-63238282D01*
X87365269Y-63238282D01*
X86732962Y-63870590D01*
X86715925Y-63807007D01*
X86650099Y-63692993D01*
X86557007Y-63599901D01*
X86442993Y-63534075D01*
X86379409Y-63517037D01*
X87011716Y-62884728D01*
X86957550Y-62845375D01*
X86768217Y-62748904D01*
X86566129Y-62683242D01*
X86356246Y-62650000D01*
X86143754Y-62650000D01*
X85933872Y-62683242D01*
X85933869Y-62683242D01*
X85731782Y-62748904D01*
X85542439Y-62845380D01*
X85488282Y-62884727D01*
X85488282Y-62884728D01*
X86120591Y-63517037D01*
X86057007Y-63534075D01*
X85942993Y-63599901D01*
X85849901Y-63692993D01*
X85784075Y-63807007D01*
X85767037Y-63870591D01*
X85134728Y-63238282D01*
X85134727Y-63238282D01*
X85095380Y-63292439D01*
X84998904Y-63481782D01*
X84933242Y-63683869D01*
X84933242Y-63683872D01*
X84900000Y-63893753D01*
X84900000Y-64106246D01*
X84933242Y-64316127D01*
X84933242Y-64316130D01*
X84998904Y-64518217D01*
X85095375Y-64707550D01*
X85134728Y-64761716D01*
X85767037Y-64129408D01*
X85784075Y-64192993D01*
X85849901Y-64307007D01*
X85942993Y-64400099D01*
X86057007Y-64465925D01*
X86120590Y-64482962D01*
X85450370Y-65153181D01*
X85389047Y-65186666D01*
X85362698Y-65189500D01*
X85352134Y-65189500D01*
X85352123Y-65189501D01*
X85292516Y-65195908D01*
X85157671Y-65246202D01*
X85157664Y-65246206D01*
X85042455Y-65332452D01*
X85042452Y-65332455D01*
X84956206Y-65447664D01*
X84956202Y-65447671D01*
X84905908Y-65582517D01*
X84899501Y-65642116D01*
X84899501Y-65642123D01*
X84899500Y-65642135D01*
X82819241Y-65642135D01*
X82754213Y-62932640D01*
X82772279Y-62865150D01*
X82778173Y-62856345D01*
X83106159Y-62409090D01*
X83161674Y-62366674D01*
X83186748Y-62359951D01*
X83263555Y-62347786D01*
X83432042Y-62293042D01*
X83589890Y-62212614D01*
X83733214Y-62108483D01*
X83858483Y-61983214D01*
X83962614Y-61839890D01*
X84043042Y-61682042D01*
X84097786Y-61513555D01*
X84125500Y-61338579D01*
X84125500Y-61161421D01*
X84115044Y-61095409D01*
X84123998Y-61026120D01*
X84137539Y-61002664D01*
X84138659Y-61001137D01*
X84194189Y-60958737D01*
X84238628Y-60950500D01*
X91385716Y-60950500D01*
X91452755Y-60970185D01*
G37*
%TD.AperFunction*%
%TA.AperFunction,Conductor*%
G36*
X99354676Y-62671185D02*
G01*
X99375318Y-62687819D01*
X102845917Y-66158418D01*
X102879402Y-66219741D01*
X102874418Y-66289433D01*
X102832546Y-66345366D01*
X102767082Y-66369783D01*
X102758236Y-66370099D01*
X102689555Y-66370099D01*
X102534910Y-66400860D01*
X102534898Y-66400863D01*
X102389227Y-66461201D01*
X102389214Y-66461208D01*
X102258111Y-66548809D01*
X102258107Y-66548812D01*
X102221241Y-66585680D01*
X102159919Y-66619166D01*
X102133559Y-66622000D01*
X98831285Y-66622000D01*
X98764246Y-66602315D01*
X98718491Y-66549511D01*
X98713579Y-66537004D01*
X98677514Y-66428166D01*
X98585412Y-66278844D01*
X98461356Y-66154788D01*
X98312034Y-66062686D01*
X98145497Y-66007501D01*
X98145495Y-66007500D01*
X98042710Y-65997000D01*
X96842698Y-65997000D01*
X96842681Y-65997001D01*
X96739903Y-66007500D01*
X96739900Y-66007501D01*
X96573368Y-66062685D01*
X96573363Y-66062687D01*
X96424042Y-66154789D01*
X96299989Y-66278842D01*
X96207887Y-66428163D01*
X96207885Y-66428168D01*
X96196939Y-66461201D01*
X96152701Y-66594703D01*
X96152701Y-66594704D01*
X96152700Y-66594704D01*
X96142200Y-66697483D01*
X96142200Y-67557137D01*
X96122515Y-67624176D01*
X96069711Y-67669931D01*
X96000553Y-67679875D01*
X95936997Y-67650850D01*
X95930519Y-67644818D01*
X91745419Y-63459718D01*
X91711934Y-63398395D01*
X91709100Y-63372037D01*
X91709100Y-63154719D01*
X91728785Y-63087680D01*
X91729998Y-63085828D01*
X91742994Y-63066379D01*
X91803337Y-62920697D01*
X91826308Y-62805216D01*
X91858693Y-62743305D01*
X91900469Y-62714848D01*
X91971579Y-62685394D01*
X91991029Y-62672398D01*
X92057707Y-62651520D01*
X92059920Y-62651500D01*
X99287637Y-62651500D01*
X99354676Y-62671185D01*
G37*
%TD.AperFunction*%
%TD*%
M02*
