%TF.GenerationSoftware,KiCad,Pcbnew,10.0.6*%
%TF.CreationDate,2026-09-24T18:05:49+05:30*%
%TF.ProjectId,solar power supply,736f6c61-7220-4706-9f77-657220737570,rev?*%
%TF.SameCoordinates,Original*%
%TF.FileFunction,Legend,Top*%
%TF.FilePolarity,Positive*%
%FSLAX46Y46*%
G04 Gerber Fmt 4.6, Leading zero omitted, Abs format (unit mm)*
G04 Created by KiCad (PCBNEW 10.0.6) date 2026-09-24 18:05:49*
%MOMM*%
%LPD*%
G01*
G04 APERTURE LIST*
%ADD10C,0.130000*%
%ADD11C,0.120000*%
%ADD12C,0.127000*%
%ADD13C,0.152400*%
%ADD14C,0.150000*%
%ADD15C,0.010000*%
G04 APERTURE END LIST*
D10*
X95572192Y-61480573D02*
X96105526Y-61480573D01*
X95838859Y-61785335D02*
X95838859Y-61175811D01*
X87302192Y-61540573D02*
X87835526Y-61540573D01*
X87568859Y-61845335D02*
X87568859Y-61235811D01*
X115416666Y-65038335D02*
X115416666Y-65609763D01*
X115416666Y-65609763D02*
X115383333Y-65724049D01*
X115383333Y-65724049D02*
X115316666Y-65800240D01*
X115316666Y-65800240D02*
X115216666Y-65838335D01*
X115216666Y-65838335D02*
X115150000Y-65838335D01*
X116116666Y-65838335D02*
X115716666Y-65838335D01*
X115916666Y-65838335D02*
X115916666Y-65038335D01*
X115916666Y-65038335D02*
X115849999Y-65152620D01*
X115849999Y-65152620D02*
X115783333Y-65228811D01*
X115783333Y-65228811D02*
X115716666Y-65266906D01*
X104300135Y-64988267D02*
X104300135Y-65321600D01*
X104300135Y-65321600D02*
X103500135Y-65321600D01*
X104300135Y-64388266D02*
X104300135Y-64788266D01*
X104300135Y-64588266D02*
X103500135Y-64588266D01*
X103500135Y-64588266D02*
X103614420Y-64654933D01*
X103614420Y-64654933D02*
X103690611Y-64721600D01*
X103690611Y-64721600D02*
X103728706Y-64788266D01*
X101015866Y-66563335D02*
X101015866Y-67210954D01*
X101015866Y-67210954D02*
X101049200Y-67287144D01*
X101049200Y-67287144D02*
X101082533Y-67325240D01*
X101082533Y-67325240D02*
X101149200Y-67363335D01*
X101149200Y-67363335D02*
X101282533Y-67363335D01*
X101282533Y-67363335D02*
X101349200Y-67325240D01*
X101349200Y-67325240D02*
X101382533Y-67287144D01*
X101382533Y-67287144D02*
X101415866Y-67210954D01*
X101415866Y-67210954D02*
X101415866Y-66563335D01*
X102115866Y-67363335D02*
X101715866Y-67363335D01*
X101915866Y-67363335D02*
X101915866Y-66563335D01*
X101915866Y-66563335D02*
X101849199Y-66677620D01*
X101849199Y-66677620D02*
X101782533Y-66753811D01*
X101782533Y-66753811D02*
X101715866Y-66791906D01*
X107683333Y-76987144D02*
X107650000Y-77025240D01*
X107650000Y-77025240D02*
X107550000Y-77063335D01*
X107550000Y-77063335D02*
X107483333Y-77063335D01*
X107483333Y-77063335D02*
X107383333Y-77025240D01*
X107383333Y-77025240D02*
X107316667Y-76949049D01*
X107316667Y-76949049D02*
X107283333Y-76872859D01*
X107283333Y-76872859D02*
X107250000Y-76720478D01*
X107250000Y-76720478D02*
X107250000Y-76606192D01*
X107250000Y-76606192D02*
X107283333Y-76453811D01*
X107283333Y-76453811D02*
X107316667Y-76377620D01*
X107316667Y-76377620D02*
X107383333Y-76301430D01*
X107383333Y-76301430D02*
X107483333Y-76263335D01*
X107483333Y-76263335D02*
X107550000Y-76263335D01*
X107550000Y-76263335D02*
X107650000Y-76301430D01*
X107650000Y-76301430D02*
X107683333Y-76339525D01*
X107916667Y-76263335D02*
X108350000Y-76263335D01*
X108350000Y-76263335D02*
X108116667Y-76568097D01*
X108116667Y-76568097D02*
X108216667Y-76568097D01*
X108216667Y-76568097D02*
X108283333Y-76606192D01*
X108283333Y-76606192D02*
X108316667Y-76644287D01*
X108316667Y-76644287D02*
X108350000Y-76720478D01*
X108350000Y-76720478D02*
X108350000Y-76910954D01*
X108350000Y-76910954D02*
X108316667Y-76987144D01*
X108316667Y-76987144D02*
X108283333Y-77025240D01*
X108283333Y-77025240D02*
X108216667Y-77063335D01*
X108216667Y-77063335D02*
X108016667Y-77063335D01*
X108016667Y-77063335D02*
X107950000Y-77025240D01*
X107950000Y-77025240D02*
X107916667Y-76987144D01*
X106983333Y-70537144D02*
X106950000Y-70575240D01*
X106950000Y-70575240D02*
X106850000Y-70613335D01*
X106850000Y-70613335D02*
X106783333Y-70613335D01*
X106783333Y-70613335D02*
X106683333Y-70575240D01*
X106683333Y-70575240D02*
X106616667Y-70499049D01*
X106616667Y-70499049D02*
X106583333Y-70422859D01*
X106583333Y-70422859D02*
X106550000Y-70270478D01*
X106550000Y-70270478D02*
X106550000Y-70156192D01*
X106550000Y-70156192D02*
X106583333Y-70003811D01*
X106583333Y-70003811D02*
X106616667Y-69927620D01*
X106616667Y-69927620D02*
X106683333Y-69851430D01*
X106683333Y-69851430D02*
X106783333Y-69813335D01*
X106783333Y-69813335D02*
X106850000Y-69813335D01*
X106850000Y-69813335D02*
X106950000Y-69851430D01*
X106950000Y-69851430D02*
X106983333Y-69889525D01*
X107650000Y-70613335D02*
X107250000Y-70613335D01*
X107450000Y-70613335D02*
X107450000Y-69813335D01*
X107450000Y-69813335D02*
X107383333Y-69927620D01*
X107383333Y-69927620D02*
X107316667Y-70003811D01*
X107316667Y-70003811D02*
X107250000Y-70041906D01*
X103783333Y-70713335D02*
X103550000Y-70332382D01*
X103383333Y-70713335D02*
X103383333Y-69913335D01*
X103383333Y-69913335D02*
X103650000Y-69913335D01*
X103650000Y-69913335D02*
X103716667Y-69951430D01*
X103716667Y-69951430D02*
X103750000Y-69989525D01*
X103750000Y-69989525D02*
X103783333Y-70065716D01*
X103783333Y-70065716D02*
X103783333Y-70180001D01*
X103783333Y-70180001D02*
X103750000Y-70256192D01*
X103750000Y-70256192D02*
X103716667Y-70294287D01*
X103716667Y-70294287D02*
X103650000Y-70332382D01*
X103650000Y-70332382D02*
X103383333Y-70332382D01*
X104450000Y-70713335D02*
X104050000Y-70713335D01*
X104250000Y-70713335D02*
X104250000Y-69913335D01*
X104250000Y-69913335D02*
X104183333Y-70027620D01*
X104183333Y-70027620D02*
X104116667Y-70103811D01*
X104116667Y-70103811D02*
X104050000Y-70141906D01*
X101933333Y-76987144D02*
X101900000Y-77025240D01*
X101900000Y-77025240D02*
X101800000Y-77063335D01*
X101800000Y-77063335D02*
X101733333Y-77063335D01*
X101733333Y-77063335D02*
X101633333Y-77025240D01*
X101633333Y-77025240D02*
X101566667Y-76949049D01*
X101566667Y-76949049D02*
X101533333Y-76872859D01*
X101533333Y-76872859D02*
X101500000Y-76720478D01*
X101500000Y-76720478D02*
X101500000Y-76606192D01*
X101500000Y-76606192D02*
X101533333Y-76453811D01*
X101533333Y-76453811D02*
X101566667Y-76377620D01*
X101566667Y-76377620D02*
X101633333Y-76301430D01*
X101633333Y-76301430D02*
X101733333Y-76263335D01*
X101733333Y-76263335D02*
X101800000Y-76263335D01*
X101800000Y-76263335D02*
X101900000Y-76301430D01*
X101900000Y-76301430D02*
X101933333Y-76339525D01*
X102200000Y-76339525D02*
X102233333Y-76301430D01*
X102233333Y-76301430D02*
X102300000Y-76263335D01*
X102300000Y-76263335D02*
X102466667Y-76263335D01*
X102466667Y-76263335D02*
X102533333Y-76301430D01*
X102533333Y-76301430D02*
X102566667Y-76339525D01*
X102566667Y-76339525D02*
X102600000Y-76415716D01*
X102600000Y-76415716D02*
X102600000Y-76491906D01*
X102600000Y-76491906D02*
X102566667Y-76606192D01*
X102566667Y-76606192D02*
X102166667Y-77063335D01*
X102166667Y-77063335D02*
X102600000Y-77063335D01*
X99883333Y-70663335D02*
X99650000Y-70282382D01*
X99483333Y-70663335D02*
X99483333Y-69863335D01*
X99483333Y-69863335D02*
X99750000Y-69863335D01*
X99750000Y-69863335D02*
X99816667Y-69901430D01*
X99816667Y-69901430D02*
X99850000Y-69939525D01*
X99850000Y-69939525D02*
X99883333Y-70015716D01*
X99883333Y-70015716D02*
X99883333Y-70130001D01*
X99883333Y-70130001D02*
X99850000Y-70206192D01*
X99850000Y-70206192D02*
X99816667Y-70244287D01*
X99816667Y-70244287D02*
X99750000Y-70282382D01*
X99750000Y-70282382D02*
X99483333Y-70282382D01*
X100150000Y-69939525D02*
X100183333Y-69901430D01*
X100183333Y-69901430D02*
X100250000Y-69863335D01*
X100250000Y-69863335D02*
X100416667Y-69863335D01*
X100416667Y-69863335D02*
X100483333Y-69901430D01*
X100483333Y-69901430D02*
X100516667Y-69939525D01*
X100516667Y-69939525D02*
X100550000Y-70015716D01*
X100550000Y-70015716D02*
X100550000Y-70091906D01*
X100550000Y-70091906D02*
X100516667Y-70206192D01*
X100516667Y-70206192D02*
X100116667Y-70663335D01*
X100116667Y-70663335D02*
X100550000Y-70663335D01*
X95483333Y-76813335D02*
X95250000Y-76432382D01*
X95083333Y-76813335D02*
X95083333Y-76013335D01*
X95083333Y-76013335D02*
X95350000Y-76013335D01*
X95350000Y-76013335D02*
X95416667Y-76051430D01*
X95416667Y-76051430D02*
X95450000Y-76089525D01*
X95450000Y-76089525D02*
X95483333Y-76165716D01*
X95483333Y-76165716D02*
X95483333Y-76280001D01*
X95483333Y-76280001D02*
X95450000Y-76356192D01*
X95450000Y-76356192D02*
X95416667Y-76394287D01*
X95416667Y-76394287D02*
X95350000Y-76432382D01*
X95350000Y-76432382D02*
X95083333Y-76432382D01*
X96083333Y-76280001D02*
X96083333Y-76813335D01*
X95916667Y-75975240D02*
X95750000Y-76546668D01*
X95750000Y-76546668D02*
X96183333Y-76546668D01*
X84341666Y-61063335D02*
X84341666Y-61634763D01*
X84341666Y-61634763D02*
X84308333Y-61749049D01*
X84308333Y-61749049D02*
X84241666Y-61825240D01*
X84241666Y-61825240D02*
X84141666Y-61863335D01*
X84141666Y-61863335D02*
X84075000Y-61863335D01*
X84974999Y-61330001D02*
X84974999Y-61863335D01*
X84808333Y-61025240D02*
X84641666Y-61596668D01*
X84641666Y-61596668D02*
X85074999Y-61596668D01*
X91233333Y-71389525D02*
X91166666Y-71351430D01*
X91166666Y-71351430D02*
X91100000Y-71275240D01*
X91100000Y-71275240D02*
X91000000Y-71160954D01*
X91000000Y-71160954D02*
X90933333Y-71122859D01*
X90933333Y-71122859D02*
X90866666Y-71122859D01*
X90900000Y-71313335D02*
X90833333Y-71275240D01*
X90833333Y-71275240D02*
X90766666Y-71199049D01*
X90766666Y-71199049D02*
X90733333Y-71046668D01*
X90733333Y-71046668D02*
X90733333Y-70780001D01*
X90733333Y-70780001D02*
X90766666Y-70627620D01*
X90766666Y-70627620D02*
X90833333Y-70551430D01*
X90833333Y-70551430D02*
X90900000Y-70513335D01*
X90900000Y-70513335D02*
X91033333Y-70513335D01*
X91033333Y-70513335D02*
X91100000Y-70551430D01*
X91100000Y-70551430D02*
X91166666Y-70627620D01*
X91166666Y-70627620D02*
X91200000Y-70780001D01*
X91200000Y-70780001D02*
X91200000Y-71046668D01*
X91200000Y-71046668D02*
X91166666Y-71199049D01*
X91166666Y-71199049D02*
X91100000Y-71275240D01*
X91100000Y-71275240D02*
X91033333Y-71313335D01*
X91033333Y-71313335D02*
X90900000Y-71313335D01*
X91866666Y-71313335D02*
X91466666Y-71313335D01*
X91666666Y-71313335D02*
X91666666Y-70513335D01*
X91666666Y-70513335D02*
X91599999Y-70627620D01*
X91599999Y-70627620D02*
X91533333Y-70703811D01*
X91533333Y-70703811D02*
X91466666Y-70741906D01*
X92832266Y-70148335D02*
X92832266Y-70719763D01*
X92832266Y-70719763D02*
X92798933Y-70834049D01*
X92798933Y-70834049D02*
X92732266Y-70910240D01*
X92732266Y-70910240D02*
X92632266Y-70948335D01*
X92632266Y-70948335D02*
X92565600Y-70948335D01*
X93098933Y-70148335D02*
X93532266Y-70148335D01*
X93532266Y-70148335D02*
X93298933Y-70453097D01*
X93298933Y-70453097D02*
X93398933Y-70453097D01*
X93398933Y-70453097D02*
X93465599Y-70491192D01*
X93465599Y-70491192D02*
X93498933Y-70529287D01*
X93498933Y-70529287D02*
X93532266Y-70605478D01*
X93532266Y-70605478D02*
X93532266Y-70795954D01*
X93532266Y-70795954D02*
X93498933Y-70872144D01*
X93498933Y-70872144D02*
X93465599Y-70910240D01*
X93465599Y-70910240D02*
X93398933Y-70948335D01*
X93398933Y-70948335D02*
X93198933Y-70948335D01*
X93198933Y-70948335D02*
X93132266Y-70910240D01*
X93132266Y-70910240D02*
X93098933Y-70872144D01*
X99346333Y-64561335D02*
X99346333Y-63761335D01*
X99346333Y-63761335D02*
X99513000Y-63761335D01*
X99513000Y-63761335D02*
X99613000Y-63799430D01*
X99613000Y-63799430D02*
X99679667Y-63875620D01*
X99679667Y-63875620D02*
X99713000Y-63951811D01*
X99713000Y-63951811D02*
X99746333Y-64104192D01*
X99746333Y-64104192D02*
X99746333Y-64218478D01*
X99746333Y-64218478D02*
X99713000Y-64370859D01*
X99713000Y-64370859D02*
X99679667Y-64447049D01*
X99679667Y-64447049D02*
X99613000Y-64523240D01*
X99613000Y-64523240D02*
X99513000Y-64561335D01*
X99513000Y-64561335D02*
X99346333Y-64561335D01*
X100413000Y-64561335D02*
X100013000Y-64561335D01*
X100213000Y-64561335D02*
X100213000Y-63761335D01*
X100213000Y-63761335D02*
X100146333Y-63875620D01*
X100146333Y-63875620D02*
X100079667Y-63951811D01*
X100079667Y-63951811D02*
X100013000Y-63989906D01*
X91106333Y-64536335D02*
X91106333Y-63736335D01*
X91106333Y-63736335D02*
X91273000Y-63736335D01*
X91273000Y-63736335D02*
X91373000Y-63774430D01*
X91373000Y-63774430D02*
X91439667Y-63850620D01*
X91439667Y-63850620D02*
X91473000Y-63926811D01*
X91473000Y-63926811D02*
X91506333Y-64079192D01*
X91506333Y-64079192D02*
X91506333Y-64193478D01*
X91506333Y-64193478D02*
X91473000Y-64345859D01*
X91473000Y-64345859D02*
X91439667Y-64422049D01*
X91439667Y-64422049D02*
X91373000Y-64498240D01*
X91373000Y-64498240D02*
X91273000Y-64536335D01*
X91273000Y-64536335D02*
X91106333Y-64536335D01*
X91773000Y-63812525D02*
X91806333Y-63774430D01*
X91806333Y-63774430D02*
X91873000Y-63736335D01*
X91873000Y-63736335D02*
X92039667Y-63736335D01*
X92039667Y-63736335D02*
X92106333Y-63774430D01*
X92106333Y-63774430D02*
X92139667Y-63812525D01*
X92139667Y-63812525D02*
X92173000Y-63888716D01*
X92173000Y-63888716D02*
X92173000Y-63964906D01*
X92173000Y-63964906D02*
X92139667Y-64079192D01*
X92139667Y-64079192D02*
X91739667Y-64536335D01*
X91739667Y-64536335D02*
X92173000Y-64536335D01*
X83066666Y-68563335D02*
X83066666Y-69134763D01*
X83066666Y-69134763D02*
X83033333Y-69249049D01*
X83033333Y-69249049D02*
X82966666Y-69325240D01*
X82966666Y-69325240D02*
X82866666Y-69363335D01*
X82866666Y-69363335D02*
X82800000Y-69363335D01*
X83366666Y-68639525D02*
X83399999Y-68601430D01*
X83399999Y-68601430D02*
X83466666Y-68563335D01*
X83466666Y-68563335D02*
X83633333Y-68563335D01*
X83633333Y-68563335D02*
X83699999Y-68601430D01*
X83699999Y-68601430D02*
X83733333Y-68639525D01*
X83733333Y-68639525D02*
X83766666Y-68715716D01*
X83766666Y-68715716D02*
X83766666Y-68791906D01*
X83766666Y-68791906D02*
X83733333Y-68906192D01*
X83733333Y-68906192D02*
X83333333Y-69363335D01*
X83333333Y-69363335D02*
X83766666Y-69363335D01*
%TO.C,J1*%
D11*
X112230000Y-66480000D02*
X113500000Y-66480000D01*
X112230000Y-67750000D02*
X112230000Y-66480000D01*
X114577358Y-69860000D02*
X114890000Y-69860000D01*
X114577358Y-70720000D02*
X114890000Y-70720000D01*
X114660000Y-67320000D02*
X114890000Y-67320000D01*
X114660000Y-68180000D02*
X114890000Y-68180000D01*
X114890000Y-69020000D02*
X117650000Y-69020000D01*
X117650000Y-69860000D02*
X123650000Y-69860000D01*
X123650000Y-69860000D02*
X123650000Y-70720000D01*
X123650000Y-70720000D02*
X117650000Y-70720000D01*
X114890000Y-66370000D02*
X117650000Y-66370000D01*
X117650000Y-71670000D01*
X114890000Y-71670000D01*
X114890000Y-66370000D01*
X117650000Y-67320000D02*
X123650000Y-67320000D01*
X123650000Y-68180000D01*
X117650000Y-68180000D01*
X117650000Y-67320000D01*
G36*
X117650000Y-67320000D02*
G01*
X123650000Y-67320000D01*
X123650000Y-68180000D01*
X117650000Y-68180000D01*
X117650000Y-67320000D01*
G37*
%TO.C,L1*%
D12*
X111300000Y-68725000D02*
X111300000Y-61625000D01*
X104700000Y-68725000D02*
X104700000Y-61625000D01*
%TO.C,U1*%
D13*
X102450900Y-67337861D02*
X102450900Y-66662139D01*
X102450900Y-65425200D02*
X100647500Y-65425200D01*
X100647500Y-68574800D02*
X102450900Y-68574800D01*
%TO.C,C3*%
D11*
X107738748Y-73590000D02*
X108261252Y-73590000D01*
X107738748Y-75060000D02*
X108261252Y-75060000D01*
%TO.C,C1*%
X107738748Y-71090000D02*
X108261252Y-71090000D01*
X107738748Y-72560000D02*
X108261252Y-72560000D01*
%TO.C,R1*%
X103772936Y-71090000D02*
X104227064Y-71090000D01*
X103772936Y-72560000D02*
X104227064Y-72560000D01*
%TO.C,C2*%
X101288748Y-73665000D02*
X102711252Y-73665000D01*
X101288748Y-75485000D02*
X102711252Y-75485000D01*
%TO.C,R2*%
X99685436Y-71090000D02*
X100139564Y-71090000D01*
X99685436Y-72560000D02*
X100139564Y-72560000D01*
%TO.C,R4*%
X95889564Y-75060000D02*
X95435436Y-75060000D01*
X95889564Y-73590000D02*
X95435436Y-73590000D01*
%TO.C,R3*%
X95435436Y-71090000D02*
X95889564Y-71090000D01*
X95435436Y-72560000D02*
X95889564Y-72560000D01*
%TO.C,J4*%
X87520000Y-67810000D02*
X86250000Y-67810000D01*
X87520000Y-66540000D02*
X87520000Y-67810000D01*
X85172642Y-64430000D02*
X84860000Y-64430000D01*
X85172642Y-63570000D02*
X84860000Y-63570000D01*
X85090000Y-66970000D02*
X84860000Y-66970000D01*
X85090000Y-66110000D02*
X84860000Y-66110000D01*
X84860000Y-65270000D02*
X82100000Y-65270000D01*
X82100000Y-64430000D02*
X76100000Y-64430000D01*
X76100000Y-64430000D02*
X76100000Y-63570000D01*
X76100000Y-63570000D02*
X82100000Y-63570000D01*
X82100000Y-62620000D02*
X84860000Y-62620000D01*
X84860000Y-67920000D01*
X82100000Y-67920000D01*
X82100000Y-62620000D01*
X76100000Y-66110000D02*
X82100000Y-66110000D01*
X82100000Y-66970000D01*
X76100000Y-66970000D01*
X76100000Y-66110000D01*
G36*
X76100000Y-66110000D02*
G01*
X82100000Y-66110000D01*
X82100000Y-66970000D01*
X76100000Y-66970000D01*
X76100000Y-66110000D01*
G37*
%TO.C,Q1*%
X90625000Y-71690000D02*
X92145000Y-71690000D01*
X90625000Y-71740000D02*
X90625000Y-71690000D01*
X90625000Y-73640000D02*
X90625000Y-72860000D01*
X90625000Y-74810000D02*
X90625000Y-74760000D01*
X92145000Y-71690000D02*
X92145000Y-72690000D01*
X92145000Y-73810000D02*
X92145000Y-74810000D01*
X92145000Y-74810000D02*
X90625000Y-74810000D01*
X90085000Y-72870000D02*
X90325000Y-73200000D01*
X89845000Y-73200000D01*
X90085000Y-72870000D01*
G36*
X90325000Y-73200000D02*
G01*
X89845000Y-73200000D01*
X90085000Y-72870000D01*
X90325000Y-73200000D01*
G37*
%TO.C,J3*%
X88682700Y-69717500D02*
X88682700Y-64877500D01*
X94309367Y-67932500D02*
X94309367Y-66662500D01*
X98582700Y-64877500D02*
X88682700Y-64877500D01*
X98582700Y-69717500D02*
X88682700Y-69717500D01*
X98582700Y-69717500D02*
X98582700Y-64877500D01*
X98822700Y-69957500D02*
X97439700Y-69957500D01*
X98822700Y-69957500D02*
X98822700Y-68574500D01*
X91602700Y-66662500D02*
X95662700Y-66662500D01*
X95662700Y-67932500D01*
X91602700Y-67932500D01*
X91602700Y-66662500D01*
X94309367Y-66662500D02*
X95662700Y-66662500D01*
X95662700Y-67932500D01*
X94309367Y-67932500D01*
X94309367Y-66662500D01*
G36*
X94309367Y-66662500D02*
G01*
X95662700Y-66662500D01*
X95662700Y-67932500D01*
X94309367Y-67932500D01*
X94309367Y-66662500D01*
G37*
%TO.C,D1*%
D14*
X102190000Y-63225000D02*
X97590000Y-63225000D01*
X100690000Y-62025000D02*
X99640000Y-62775000D01*
X99640000Y-62775000D02*
X99640000Y-61325000D01*
X99640000Y-61325000D02*
X100690000Y-62025000D01*
X97590000Y-60825000D02*
X102190000Y-60825000D01*
D15*
X100890000Y-63175000D02*
X100590000Y-63175000D01*
X100590000Y-60875000D01*
X100890000Y-60875000D01*
X100890000Y-63175000D01*
G36*
X100890000Y-63175000D02*
G01*
X100590000Y-63175000D01*
X100590000Y-60875000D01*
X100890000Y-60875000D01*
X100890000Y-63175000D01*
G37*
%TO.C,D2*%
D14*
X93950000Y-63200000D02*
X89350000Y-63200000D01*
X92450000Y-62000000D02*
X91400000Y-62750000D01*
X91400000Y-62750000D02*
X91400000Y-61300000D01*
X91400000Y-61300000D02*
X92450000Y-62000000D01*
X89350000Y-60800000D02*
X93950000Y-60800000D01*
D15*
X92650000Y-63150000D02*
X92350000Y-63150000D01*
X92350000Y-60850000D01*
X92650000Y-60850000D01*
X92650000Y-63150000D01*
G36*
X92650000Y-63150000D02*
G01*
X92350000Y-63150000D01*
X92350000Y-60850000D01*
X92650000Y-60850000D01*
X92650000Y-63150000D01*
G37*
%TO.C,J2*%
D11*
X87520000Y-75270000D02*
X86250000Y-75270000D01*
X87520000Y-74000000D02*
X87520000Y-75270000D01*
X85172642Y-71890000D02*
X84860000Y-71890000D01*
X85172642Y-71030000D02*
X84860000Y-71030000D01*
X85090000Y-74430000D02*
X84860000Y-74430000D01*
X85090000Y-73570000D02*
X84860000Y-73570000D01*
X84860000Y-72730000D02*
X82100000Y-72730000D01*
X82100000Y-71890000D02*
X76100000Y-71890000D01*
X76100000Y-71890000D02*
X76100000Y-71030000D01*
X76100000Y-71030000D02*
X82100000Y-71030000D01*
X82100000Y-70080000D02*
X84860000Y-70080000D01*
X84860000Y-75380000D01*
X82100000Y-75380000D01*
X82100000Y-70080000D01*
X76100000Y-73570000D02*
X82100000Y-73570000D01*
X82100000Y-74430000D01*
X76100000Y-74430000D01*
X76100000Y-73570000D01*
G36*
X76100000Y-73570000D02*
G01*
X82100000Y-73570000D01*
X82100000Y-74430000D01*
X76100000Y-74430000D01*
X76100000Y-73570000D01*
G37*
%TD*%
M02*
